G04 #@! TF.GenerationSoftware,KiCad,Pcbnew,(5.0.0-rc2-dev-471-ge4feb315d)*
G04 #@! TF.CreationDate,2018-04-21T02:21:12+01:00*
G04 #@! TF.ProjectId,cherry_breakout,6368657272795F627265616B6F75742E,rev?*
G04 #@! TF.SameCoordinates,Original*
G04 #@! TF.FileFunction,Copper,L1,Top,Signal*
G04 #@! TF.FilePolarity,Positive*
%FSLAX46Y46*%
G04 Gerber Fmt 4.6, Leading zero omitted, Abs format (unit mm)*
G04 Created by KiCad (PCBNEW (5.0.0-rc2-dev-471-ge4feb315d)) date Sat Apr 21 02:21:12 2018*
%MOMM*%
%LPD*%
G01*
G04 APERTURE LIST*
%ADD10C,1.600000*%
%ADD11R,0.850000X0.500000*%
%ADD12C,2.200000*%
%ADD13C,0.800000*%
%ADD14C,0.250000*%
G04 APERTURE END LIST*
D10*
X116840000Y-88265000D03*
X55880000Y-98425000D03*
X116840000Y-90805000D03*
X55880000Y-100965000D03*
X116840000Y-93345000D03*
X55880000Y-103505000D03*
X116840000Y-95885000D03*
X55880000Y-88265000D03*
X116840000Y-103505000D03*
X116840000Y-100965000D03*
X116840000Y-98425000D03*
X55880000Y-95885000D03*
X55880000Y-93345000D03*
X55880000Y-90805000D03*
D11*
X68210000Y-91940000D03*
X68210000Y-90940000D03*
X66410000Y-90940000D03*
X66410000Y-91940000D03*
X66410000Y-110990000D03*
X66410000Y-109990000D03*
X68210000Y-109990000D03*
X68210000Y-110990000D03*
X85460000Y-91940000D03*
X85460000Y-90940000D03*
X87260000Y-90940000D03*
X87260000Y-91940000D03*
X87260000Y-110990000D03*
X87260000Y-109990000D03*
X85460000Y-109990000D03*
X85460000Y-110990000D03*
X106310000Y-91940000D03*
X106310000Y-90940000D03*
X104510000Y-90940000D03*
X104510000Y-91940000D03*
X104510000Y-110990000D03*
X104510000Y-109990000D03*
X106310000Y-109990000D03*
X106310000Y-110990000D03*
D12*
X63500000Y-83820000D03*
X69850000Y-81280000D03*
X69850000Y-100330000D03*
X63500000Y-102870000D03*
X88900000Y-81280000D03*
X82550000Y-83820000D03*
X82550000Y-102870000D03*
X88900000Y-100330000D03*
X101600000Y-83820000D03*
X107950000Y-81280000D03*
X107950000Y-100330000D03*
X101600000Y-102870000D03*
D13*
X71120000Y-88900000D03*
X90170000Y-88900000D03*
X109220000Y-88900000D03*
X102870000Y-115570000D03*
X83820000Y-114300000D03*
X64770000Y-114300000D03*
X109220000Y-107950000D03*
X90170000Y-107950000D03*
X71120000Y-107950000D03*
X110490000Y-110490000D03*
X91440000Y-110490000D03*
X72390000Y-110490000D03*
X71120000Y-91440000D03*
X90170000Y-91440000D03*
X109220000Y-91440000D03*
X63500000Y-93980000D03*
X82550000Y-93980000D03*
X101600000Y-93980000D03*
D14*
X72390000Y-83820000D02*
X72390000Y-99060000D01*
X71120000Y-99060000D02*
X69850000Y-100330000D01*
X72390000Y-99060000D02*
X71120000Y-99060000D01*
X71120000Y-80010000D02*
X69850000Y-81280000D01*
X72390000Y-80010000D02*
X71120000Y-80010000D01*
X72390000Y-80010000D02*
X72390000Y-83820000D01*
X90170000Y-99060000D02*
X88900000Y-100330000D01*
X91440000Y-99060000D02*
X90170000Y-99060000D01*
X90170000Y-80010000D02*
X88900000Y-81280000D01*
X91440000Y-80010000D02*
X90170000Y-80010000D01*
X91440000Y-80010000D02*
X91440000Y-99060000D01*
X109220000Y-99060000D02*
X107950000Y-100330000D01*
X110490000Y-99060000D02*
X109220000Y-99060000D01*
X109220000Y-80010000D02*
X107950000Y-81280000D01*
X110490000Y-80010000D02*
X109220000Y-80010000D01*
X69080000Y-90940000D02*
X68210000Y-90940000D01*
X71120000Y-88900000D02*
X69080000Y-90940000D01*
X88130000Y-90940000D02*
X87260000Y-90940000D01*
X90170000Y-88900000D02*
X88130000Y-90940000D01*
X107180000Y-90940000D02*
X106310000Y-90940000D01*
X109220000Y-88900000D02*
X107180000Y-90940000D01*
X65540000Y-90940000D02*
X65735000Y-90940000D01*
X59690000Y-88900000D02*
X63500000Y-88900000D01*
X65735000Y-90940000D02*
X66410000Y-90940000D01*
X63500000Y-88900000D02*
X65540000Y-90940000D01*
X59690000Y-107950000D02*
X63500000Y-107950000D01*
X65540000Y-109990000D02*
X66410000Y-109990000D01*
X63500000Y-107950000D02*
X65540000Y-109990000D01*
X102870000Y-115570000D02*
X102870000Y-111760000D01*
X103640000Y-110990000D02*
X104510000Y-110990000D01*
X102870000Y-111760000D02*
X103640000Y-110990000D01*
X83820000Y-114300000D02*
X83820000Y-111760000D01*
X84590000Y-110990000D02*
X85460000Y-110990000D01*
X83820000Y-111760000D02*
X84590000Y-110990000D01*
X64770000Y-114300000D02*
X64770000Y-111760000D01*
X65540000Y-110990000D02*
X66410000Y-110990000D01*
X64770000Y-111760000D02*
X65540000Y-110990000D01*
X109220000Y-107950000D02*
X109220000Y-109220000D01*
X108450000Y-109990000D02*
X106310000Y-109990000D01*
X109220000Y-109220000D02*
X108450000Y-109990000D01*
X90170000Y-107950000D02*
X90170000Y-109220000D01*
X87935000Y-109990000D02*
X87260000Y-109990000D01*
X89400000Y-109990000D02*
X87935000Y-109990000D01*
X90170000Y-109220000D02*
X89400000Y-109990000D01*
X71120000Y-107950000D02*
X71120000Y-109220000D01*
X70350000Y-109990000D02*
X68210000Y-109990000D01*
X71120000Y-109220000D02*
X70350000Y-109990000D01*
X110490000Y-110490000D02*
X109220000Y-111760000D01*
X109220000Y-111760000D02*
X107950000Y-111760000D01*
X107180000Y-110990000D02*
X106310000Y-110990000D01*
X107950000Y-111760000D02*
X107180000Y-110990000D01*
X91440000Y-110490000D02*
X90170000Y-111760000D01*
X90170000Y-111760000D02*
X88900000Y-111760000D01*
X88130000Y-110990000D02*
X87260000Y-110990000D01*
X88900000Y-111760000D02*
X88130000Y-110990000D01*
X72390000Y-110490000D02*
X71120000Y-111760000D01*
X71120000Y-111760000D02*
X69850000Y-111760000D01*
X69080000Y-110990000D02*
X68210000Y-110990000D01*
X69850000Y-111760000D02*
X69080000Y-110990000D01*
X78740000Y-107950000D02*
X82550000Y-107950000D01*
X84590000Y-109990000D02*
X85460000Y-109990000D01*
X82550000Y-107950000D02*
X84590000Y-109990000D01*
X84590000Y-90940000D02*
X85460000Y-90940000D01*
X78740000Y-107950000D02*
X78740000Y-88900000D01*
X82550000Y-88900000D02*
X84590000Y-90940000D01*
X78740000Y-88900000D02*
X82550000Y-88900000D01*
X97790000Y-107950000D02*
X101600000Y-107950000D01*
X103640000Y-109990000D02*
X104510000Y-109990000D01*
X101600000Y-107950000D02*
X103640000Y-109990000D01*
X103640000Y-90940000D02*
X104510000Y-90940000D01*
X101600000Y-88900000D02*
X103640000Y-90940000D01*
X97790000Y-107950000D02*
X97790000Y-88900000D01*
X97790000Y-88900000D02*
X101600000Y-88900000D01*
X90170000Y-91440000D02*
X88900000Y-91440000D01*
X88400000Y-91940000D02*
X87260000Y-91940000D01*
X88900000Y-91440000D02*
X88400000Y-91940000D01*
X109220000Y-91440000D02*
X107950000Y-91440000D01*
X107450000Y-91940000D02*
X106310000Y-91940000D01*
X107950000Y-91440000D02*
X107450000Y-91940000D01*
X71120000Y-91440000D02*
X69850000Y-91440000D01*
X69350000Y-91940000D02*
X68210000Y-91940000D01*
X69850000Y-91440000D02*
X69350000Y-91940000D01*
X59690000Y-107950000D02*
X59690000Y-102870000D01*
X55880000Y-98425000D02*
X59690000Y-98425000D01*
X59690000Y-102870000D02*
X59690000Y-98425000D01*
X59690000Y-98425000D02*
X59690000Y-88900000D01*
X63500000Y-93980000D02*
X63500000Y-92710000D01*
X64270000Y-91940000D02*
X66410000Y-91940000D01*
X63500000Y-92710000D02*
X64270000Y-91940000D01*
X82550000Y-93980000D02*
X82550000Y-92710000D01*
X83320000Y-91940000D02*
X85460000Y-91940000D01*
X82550000Y-92710000D02*
X83320000Y-91940000D01*
X101600000Y-93980000D02*
X101600000Y-92710000D01*
X102370000Y-91940000D02*
X104510000Y-91940000D01*
X101600000Y-92710000D02*
X102370000Y-91940000D01*
X78740000Y-114300000D02*
X77470000Y-115570000D01*
X78740000Y-107950000D02*
X78740000Y-114300000D01*
X55880000Y-100965000D02*
X57785000Y-100965000D01*
X57785000Y-100965000D02*
X58420000Y-101600000D01*
X58420000Y-110490000D02*
X63500000Y-115570000D01*
X63500000Y-115570000D02*
X77470000Y-115570000D01*
X58420000Y-101600000D02*
X58420000Y-110490000D01*
X97790000Y-114300000D02*
X95250000Y-116840000D01*
X57150000Y-104775000D02*
X55880000Y-103505000D01*
X97790000Y-107950000D02*
X97790000Y-114300000D01*
X57150000Y-104775000D02*
X57150000Y-111760000D01*
X57150000Y-111760000D02*
X62230000Y-116840000D01*
X95250000Y-116840000D02*
X62230000Y-116840000D01*
X74930000Y-76200000D02*
X72390000Y-78740000D01*
X72390000Y-78740000D02*
X72390000Y-80010000D01*
X116040001Y-87465001D02*
X114464999Y-87465001D01*
X116840000Y-88265000D02*
X116040001Y-87465001D01*
X114464999Y-87465001D02*
X113359998Y-86360000D01*
X113359998Y-86360000D02*
X113359998Y-77799998D01*
X113359998Y-77799998D02*
X111760000Y-76200000D01*
X111760000Y-76200000D02*
X74930000Y-76200000D01*
X92710000Y-77470000D02*
X91440000Y-78740000D01*
X91440000Y-78740000D02*
X91440000Y-80010000D01*
X116040001Y-90005001D02*
X113194999Y-90005001D01*
X116840000Y-90805000D02*
X116040001Y-90005001D01*
X113194999Y-90005001D02*
X111760000Y-88570002D01*
X111760000Y-88570002D02*
X111760000Y-78740000D01*
X111760000Y-78740000D02*
X110490000Y-77470000D01*
X110490000Y-77470000D02*
X92710000Y-77470000D01*
X110490000Y-80010000D02*
X110490000Y-81280000D01*
X116840000Y-93345000D02*
X116040001Y-92545001D01*
X110490000Y-81280000D02*
X110490000Y-90170000D01*
X112865001Y-92545001D02*
X110490000Y-90170000D01*
X116040001Y-92545001D02*
X112865001Y-92545001D01*
X110490000Y-90170000D02*
X110490000Y-99060000D01*
M02*
