G04 #@! TF.GenerationSoftware,KiCad,Pcbnew,(5.0.0-rc2-dev-471-ge4feb315d)*
G04 #@! TF.CreationDate,2018-04-21T02:21:12+01:00*
G04 #@! TF.ProjectId,cherry_breakout,6368657272795F627265616B6F75742E,rev?*
G04 #@! TF.SameCoordinates,Original*
G04 #@! TF.FileFunction,Soldermask,Top*
G04 #@! TF.FilePolarity,Negative*
%FSLAX46Y46*%
G04 Gerber Fmt 4.6, Leading zero omitted, Abs format (unit mm)*
G04 Created by KiCad (PCBNEW (5.0.0-rc2-dev-471-ge4feb315d)) date Sat Apr 21 02:21:12 2018*
%MOMM*%
%LPD*%
G01*
G04 APERTURE LIST*
%ADD10C,2.200000*%
%ADD11C,1.600000*%
%ADD12R,0.850000X0.500000*%
%ADD13C,4.000000*%
G04 APERTURE END LIST*
D10*
X115570000Y-76200000D03*
D11*
X116840000Y-88265000D03*
X55880000Y-98425000D03*
X116840000Y-90805000D03*
X55880000Y-100965000D03*
X116840000Y-93345000D03*
X55880000Y-103505000D03*
X116840000Y-95885000D03*
X55880000Y-88265000D03*
X116840000Y-103505000D03*
X116840000Y-100965000D03*
X116840000Y-98425000D03*
X55880000Y-95885000D03*
X55880000Y-93345000D03*
X55880000Y-90805000D03*
D10*
X57150000Y-115570000D03*
X115570000Y-115570000D03*
D12*
X68210000Y-91940000D03*
X68210000Y-90940000D03*
X66410000Y-90940000D03*
X66410000Y-91940000D03*
X66410000Y-110990000D03*
X66410000Y-109990000D03*
X68210000Y-109990000D03*
X68210000Y-110990000D03*
X85460000Y-91940000D03*
X85460000Y-90940000D03*
X87260000Y-90940000D03*
X87260000Y-91940000D03*
X87260000Y-110990000D03*
X87260000Y-109990000D03*
X85460000Y-109990000D03*
X85460000Y-110990000D03*
X106310000Y-91940000D03*
X106310000Y-90940000D03*
X104510000Y-90940000D03*
X104510000Y-91940000D03*
X104510000Y-110990000D03*
X104510000Y-109990000D03*
X106310000Y-109990000D03*
X106310000Y-110990000D03*
D13*
X67310000Y-86360000D03*
D10*
X63500000Y-83820000D03*
X69850000Y-81280000D03*
X69850000Y-100330000D03*
X63500000Y-102870000D03*
D13*
X67310000Y-105410000D03*
D10*
X88900000Y-81280000D03*
X82550000Y-83820000D03*
D13*
X86360000Y-86360000D03*
X86360000Y-105410000D03*
D10*
X82550000Y-102870000D03*
X88900000Y-100330000D03*
D13*
X105410000Y-86360000D03*
D10*
X101600000Y-83820000D03*
X107950000Y-81280000D03*
X107950000Y-100330000D03*
X101600000Y-102870000D03*
D13*
X105410000Y-105410000D03*
D10*
X57150000Y-76200000D03*
M02*
