G04 #@! TF.GenerationSoftware,KiCad,Pcbnew,(5.0.0-rc2-dev-471-ge4feb315d)*
G04 #@! TF.CreationDate,2018-04-21T02:21:12+01:00*
G04 #@! TF.ProjectId,cherry_breakout,6368657272795F627265616B6F75742E,rev?*
G04 #@! TF.SameCoordinates,Original*
G04 #@! TF.FileFunction,Legend,Bot*
G04 #@! TF.FilePolarity,Positive*
%FSLAX46Y46*%
G04 Gerber Fmt 4.6, Leading zero omitted, Abs format (unit mm)*
G04 Created by KiCad (PCBNEW (5.0.0-rc2-dev-471-ge4feb315d)) date Sat Apr 21 02:21:12 2018*
%MOMM*%
%LPD*%
G01*
G04 APERTURE LIST*
%ADD10C,0.300000*%
%ADD11C,0.120000*%
%ADD12C,0.150000*%
G04 APERTURE END LIST*
D10*
X100500000Y-113830714D02*
X100642857Y-113759285D01*
X100928571Y-113759285D01*
X101071428Y-113830714D01*
X101214285Y-113973571D01*
X101285714Y-114116428D01*
X101285714Y-114402142D01*
X101214285Y-114545000D01*
X101071428Y-114687857D01*
X100928571Y-114759285D01*
X100642857Y-114759285D01*
X100500000Y-114687857D01*
X100785714Y-113259285D02*
X101142857Y-113330714D01*
X101500000Y-113545000D01*
X101714285Y-113902142D01*
X101785714Y-114259285D01*
X101714285Y-114616428D01*
X101500000Y-114973571D01*
X101142857Y-115187857D01*
X100785714Y-115259285D01*
X100428571Y-115187857D01*
X100071428Y-114973571D01*
X99857142Y-114616428D01*
X99785714Y-114259285D01*
X99857142Y-113902142D01*
X100071428Y-113545000D01*
X100428571Y-113330714D01*
X100785714Y-113259285D01*
X97357142Y-113973571D02*
X97357142Y-115473571D01*
X97357142Y-114902142D02*
X97500000Y-114973571D01*
X97785714Y-114973571D01*
X97928571Y-114902142D01*
X98000000Y-114830714D01*
X98071428Y-114687857D01*
X98071428Y-114259285D01*
X98000000Y-114116428D01*
X97928571Y-114045000D01*
X97785714Y-113973571D01*
X97500000Y-113973571D01*
X97357142Y-114045000D01*
X96785714Y-113973571D02*
X96500000Y-114973571D01*
X96214285Y-114259285D01*
X95928571Y-114973571D01*
X95642857Y-113973571D01*
X94428571Y-114973571D02*
X94428571Y-114187857D01*
X94500000Y-114045000D01*
X94642857Y-113973571D01*
X94928571Y-113973571D01*
X95071428Y-114045000D01*
X94428571Y-114902142D02*
X94571428Y-114973571D01*
X94928571Y-114973571D01*
X95071428Y-114902142D01*
X95142857Y-114759285D01*
X95142857Y-114616428D01*
X95071428Y-114473571D01*
X94928571Y-114402142D01*
X94571428Y-114402142D01*
X94428571Y-114330714D01*
X93928571Y-113973571D02*
X93357142Y-113973571D01*
X93714285Y-113473571D02*
X93714285Y-114759285D01*
X93642857Y-114902142D01*
X93500000Y-114973571D01*
X93357142Y-114973571D01*
X93071428Y-113973571D02*
X92500000Y-113973571D01*
X92857142Y-113473571D02*
X92857142Y-114759285D01*
X92785714Y-114902142D01*
X92642857Y-114973571D01*
X92500000Y-114973571D01*
X91357142Y-114973571D02*
X91357142Y-114187857D01*
X91428571Y-114045000D01*
X91571428Y-113973571D01*
X91857142Y-113973571D01*
X92000000Y-114045000D01*
X91357142Y-114902142D02*
X91500000Y-114973571D01*
X91857142Y-114973571D01*
X92000000Y-114902142D01*
X92071428Y-114759285D01*
X92071428Y-114616428D01*
X92000000Y-114473571D01*
X91857142Y-114402142D01*
X91500000Y-114402142D01*
X91357142Y-114330714D01*
X90714285Y-114902142D02*
X90571428Y-114973571D01*
X90285714Y-114973571D01*
X90142857Y-114902142D01*
X90071428Y-114759285D01*
X90071428Y-114687857D01*
X90142857Y-114545000D01*
X90285714Y-114473571D01*
X90500000Y-114473571D01*
X90642857Y-114402142D01*
X90714285Y-114259285D01*
X90714285Y-114187857D01*
X90642857Y-114045000D01*
X90500000Y-113973571D01*
X90285714Y-113973571D01*
X90142857Y-114045000D01*
X89428571Y-114973571D02*
X89428571Y-113473571D01*
X88785714Y-114973571D02*
X88785714Y-114187857D01*
X88857142Y-114045000D01*
X89000000Y-113973571D01*
X89214285Y-113973571D01*
X89357142Y-114045000D01*
X89428571Y-114116428D01*
X97821428Y-116166428D02*
X97750000Y-116095000D01*
X97607142Y-116023571D01*
X97250000Y-116023571D01*
X97107142Y-116095000D01*
X97035714Y-116166428D01*
X96964285Y-116309285D01*
X96964285Y-116452142D01*
X97035714Y-116666428D01*
X97892857Y-117523571D01*
X96964285Y-117523571D01*
X96035714Y-116023571D02*
X95892857Y-116023571D01*
X95750000Y-116095000D01*
X95678571Y-116166428D01*
X95607142Y-116309285D01*
X95535714Y-116595000D01*
X95535714Y-116952142D01*
X95607142Y-117237857D01*
X95678571Y-117380714D01*
X95750000Y-117452142D01*
X95892857Y-117523571D01*
X96035714Y-117523571D01*
X96178571Y-117452142D01*
X96250000Y-117380714D01*
X96321428Y-117237857D01*
X96392857Y-116952142D01*
X96392857Y-116595000D01*
X96321428Y-116309285D01*
X96250000Y-116166428D01*
X96178571Y-116095000D01*
X96035714Y-116023571D01*
X94107142Y-117523571D02*
X94964285Y-117523571D01*
X94535714Y-117523571D02*
X94535714Y-116023571D01*
X94678571Y-116237857D01*
X94821428Y-116380714D01*
X94964285Y-116452142D01*
X93250000Y-116666428D02*
X93392857Y-116595000D01*
X93464285Y-116523571D01*
X93535714Y-116380714D01*
X93535714Y-116309285D01*
X93464285Y-116166428D01*
X93392857Y-116095000D01*
X93250000Y-116023571D01*
X92964285Y-116023571D01*
X92821428Y-116095000D01*
X92750000Y-116166428D01*
X92678571Y-116309285D01*
X92678571Y-116380714D01*
X92750000Y-116523571D01*
X92821428Y-116595000D01*
X92964285Y-116666428D01*
X93250000Y-116666428D01*
X93392857Y-116737857D01*
X93464285Y-116809285D01*
X93535714Y-116952142D01*
X93535714Y-117237857D01*
X93464285Y-117380714D01*
X93392857Y-117452142D01*
X93250000Y-117523571D01*
X92964285Y-117523571D01*
X92821428Y-117452142D01*
X92750000Y-117380714D01*
X92678571Y-117237857D01*
X92678571Y-116952142D01*
X92750000Y-116809285D01*
X92821428Y-116737857D01*
X92964285Y-116666428D01*
D11*
X62500000Y-76490000D02*
X64500000Y-76490000D01*
X64500000Y-76490000D02*
X64500000Y-80390000D01*
X62500000Y-76490000D02*
X62500000Y-80390000D01*
X62500000Y-95540000D02*
X62500000Y-99440000D01*
X64500000Y-95540000D02*
X64500000Y-99440000D01*
X62500000Y-95540000D02*
X64500000Y-95540000D01*
X81550000Y-76490000D02*
X81550000Y-80390000D01*
X83550000Y-76490000D02*
X83550000Y-80390000D01*
X81550000Y-76490000D02*
X83550000Y-76490000D01*
X81550000Y-95540000D02*
X83550000Y-95540000D01*
X83550000Y-95540000D02*
X83550000Y-99440000D01*
X81550000Y-95540000D02*
X81550000Y-99440000D01*
X100600000Y-76490000D02*
X102600000Y-76490000D01*
X102600000Y-76490000D02*
X102600000Y-80390000D01*
X100600000Y-76490000D02*
X100600000Y-80390000D01*
X100600000Y-95540000D02*
X100600000Y-99440000D01*
X102600000Y-95540000D02*
X102600000Y-99440000D01*
X100600000Y-95540000D02*
X102600000Y-95540000D01*
D12*
X61952380Y-78001904D02*
X60952380Y-78001904D01*
X60952380Y-78240000D01*
X61000000Y-78382857D01*
X61095238Y-78478095D01*
X61190476Y-78525714D01*
X61380952Y-78573333D01*
X61523809Y-78573333D01*
X61714285Y-78525714D01*
X61809523Y-78478095D01*
X61904761Y-78382857D01*
X61952380Y-78240000D01*
X61952380Y-78001904D01*
X61047619Y-78954285D02*
X61000000Y-79001904D01*
X60952380Y-79097142D01*
X60952380Y-79335238D01*
X61000000Y-79430476D01*
X61047619Y-79478095D01*
X61142857Y-79525714D01*
X61238095Y-79525714D01*
X61380952Y-79478095D01*
X61952380Y-78906666D01*
X61952380Y-79525714D01*
X61952380Y-97051904D02*
X60952380Y-97051904D01*
X60952380Y-97290000D01*
X61000000Y-97432857D01*
X61095238Y-97528095D01*
X61190476Y-97575714D01*
X61380952Y-97623333D01*
X61523809Y-97623333D01*
X61714285Y-97575714D01*
X61809523Y-97528095D01*
X61904761Y-97432857D01*
X61952380Y-97290000D01*
X61952380Y-97051904D01*
X61285714Y-98480476D02*
X61952380Y-98480476D01*
X60904761Y-98242380D02*
X61619047Y-98004285D01*
X61619047Y-98623333D01*
X81002380Y-78001904D02*
X80002380Y-78001904D01*
X80002380Y-78240000D01*
X80050000Y-78382857D01*
X80145238Y-78478095D01*
X80240476Y-78525714D01*
X80430952Y-78573333D01*
X80573809Y-78573333D01*
X80764285Y-78525714D01*
X80859523Y-78478095D01*
X80954761Y-78382857D01*
X81002380Y-78240000D01*
X81002380Y-78001904D01*
X80002380Y-78906666D02*
X80002380Y-79573333D01*
X81002380Y-79144761D01*
X81002380Y-97051904D02*
X80002380Y-97051904D01*
X80002380Y-97290000D01*
X80050000Y-97432857D01*
X80145238Y-97528095D01*
X80240476Y-97575714D01*
X80430952Y-97623333D01*
X80573809Y-97623333D01*
X80764285Y-97575714D01*
X80859523Y-97528095D01*
X80954761Y-97432857D01*
X81002380Y-97290000D01*
X81002380Y-97051904D01*
X80430952Y-98194761D02*
X80383333Y-98099523D01*
X80335714Y-98051904D01*
X80240476Y-98004285D01*
X80192857Y-98004285D01*
X80097619Y-98051904D01*
X80050000Y-98099523D01*
X80002380Y-98194761D01*
X80002380Y-98385238D01*
X80050000Y-98480476D01*
X80097619Y-98528095D01*
X80192857Y-98575714D01*
X80240476Y-98575714D01*
X80335714Y-98528095D01*
X80383333Y-98480476D01*
X80430952Y-98385238D01*
X80430952Y-98194761D01*
X80478571Y-98099523D01*
X80526190Y-98051904D01*
X80621428Y-98004285D01*
X80811904Y-98004285D01*
X80907142Y-98051904D01*
X80954761Y-98099523D01*
X81002380Y-98194761D01*
X81002380Y-98385238D01*
X80954761Y-98480476D01*
X80907142Y-98528095D01*
X80811904Y-98575714D01*
X80621428Y-98575714D01*
X80526190Y-98528095D01*
X80478571Y-98480476D01*
X80430952Y-98385238D01*
X100052380Y-78001904D02*
X99052380Y-78001904D01*
X99052380Y-78240000D01*
X99100000Y-78382857D01*
X99195238Y-78478095D01*
X99290476Y-78525714D01*
X99480952Y-78573333D01*
X99623809Y-78573333D01*
X99814285Y-78525714D01*
X99909523Y-78478095D01*
X100004761Y-78382857D01*
X100052380Y-78240000D01*
X100052380Y-78001904D01*
X100052380Y-79049523D02*
X100052380Y-79240000D01*
X100004761Y-79335238D01*
X99957142Y-79382857D01*
X99814285Y-79478095D01*
X99623809Y-79525714D01*
X99242857Y-79525714D01*
X99147619Y-79478095D01*
X99100000Y-79430476D01*
X99052380Y-79335238D01*
X99052380Y-79144761D01*
X99100000Y-79049523D01*
X99147619Y-79001904D01*
X99242857Y-78954285D01*
X99480952Y-78954285D01*
X99576190Y-79001904D01*
X99623809Y-79049523D01*
X99671428Y-79144761D01*
X99671428Y-79335238D01*
X99623809Y-79430476D01*
X99576190Y-79478095D01*
X99480952Y-79525714D01*
X100052380Y-96575714D02*
X99052380Y-96575714D01*
X99052380Y-96813809D01*
X99100000Y-96956666D01*
X99195238Y-97051904D01*
X99290476Y-97099523D01*
X99480952Y-97147142D01*
X99623809Y-97147142D01*
X99814285Y-97099523D01*
X99909523Y-97051904D01*
X100004761Y-96956666D01*
X100052380Y-96813809D01*
X100052380Y-96575714D01*
X100052380Y-98099523D02*
X100052380Y-97528095D01*
X100052380Y-97813809D02*
X99052380Y-97813809D01*
X99195238Y-97718571D01*
X99290476Y-97623333D01*
X99338095Y-97528095D01*
X99052380Y-98718571D02*
X99052380Y-98813809D01*
X99100000Y-98909047D01*
X99147619Y-98956666D01*
X99242857Y-99004285D01*
X99433333Y-99051904D01*
X99671428Y-99051904D01*
X99861904Y-99004285D01*
X99957142Y-98956666D01*
X100004761Y-98909047D01*
X100052380Y-98813809D01*
X100052380Y-98718571D01*
X100004761Y-98623333D01*
X99957142Y-98575714D01*
X99861904Y-98528095D01*
X99671428Y-98480476D01*
X99433333Y-98480476D01*
X99242857Y-98528095D01*
X99147619Y-98575714D01*
X99100000Y-98623333D01*
X99052380Y-98718571D01*
M02*
