M48
;DRILL file {KiCad (5.0.0-rc2-dev-471-ge4feb315d)} date Sat Apr 21 02:21:14 2018
;FORMAT={-:-/ absolute / inch / decimal}
FMAT,2
INCH,TZ
T1C0.0157
T2C0.0394
T3C0.0591
T4C0.0866
T5C0.1575
%
G90
G05
M72
T1
X2.5Y-3.7
X2.55Y-4.5
X2.8Y-3.5
X2.8Y-3.6
X2.8Y-4.25
X2.85Y-4.35
X3.25Y-3.7
X3.3Y-4.5
X3.55Y-3.5
X3.55Y-3.6
X3.55Y-4.25
X3.6Y-4.35
X4.Y-3.7
X4.05Y-4.55
X4.3Y-3.5
X4.3Y-3.6
X4.3Y-4.25
X4.35Y-4.35
T2
X4.6Y-3.875
X4.6Y-3.675
X4.6Y-3.975
X4.6Y-3.475
X2.2Y-3.475
X4.6Y-3.575
X2.2Y-4.075
X4.6Y-4.075
X2.2Y-3.775
X4.6Y-3.775
X2.2Y-3.575
X2.2Y-3.875
X2.2Y-3.675
X2.2Y-3.975
T3
X4.Y-4.05
X4.25Y-3.95
X4.Y-3.3
X4.25Y-3.2
X2.5Y-4.05
X2.75Y-3.95
X2.5Y-3.3
X2.75Y-3.2
X3.25Y-4.05
X3.5Y-3.95
X3.25Y-3.3
X3.5Y-3.2
T4
X2.25Y-4.55
X4.55Y-3.
X2.25Y-3.
X4.55Y-4.55
T5
X4.15Y-4.15
X4.15Y-3.4
X2.65Y-4.15
X2.65Y-3.4
X3.4Y-4.15
X3.4Y-3.4
T0
M30
