G04 #@! TF.GenerationSoftware,KiCad,Pcbnew,(5.0.0-rc2-dev-471-ge4feb315d)*
G04 #@! TF.CreationDate,2018-04-21T02:21:12+01:00*
G04 #@! TF.ProjectId,cherry_breakout,6368657272795F627265616B6F75742E,rev?*
G04 #@! TF.SameCoordinates,Original*
G04 #@! TF.FileFunction,Copper,L2,Bot,Signal*
G04 #@! TF.FilePolarity,Positive*
%FSLAX46Y46*%
G04 Gerber Fmt 4.6, Leading zero omitted, Abs format (unit mm)*
G04 Created by KiCad (PCBNEW (5.0.0-rc2-dev-471-ge4feb315d)) date Sat Apr 21 02:21:12 2018*
%MOMM*%
%LPD*%
G01*
G04 APERTURE LIST*
%ADD10C,1.600000*%
%ADD11R,1.200000X0.900000*%
%ADD12C,2.200000*%
%ADD13C,0.800000*%
%ADD14C,0.250000*%
G04 APERTURE END LIST*
D10*
X116840000Y-88265000D03*
X55880000Y-98425000D03*
X116840000Y-90805000D03*
X55880000Y-100965000D03*
X116840000Y-93345000D03*
X55880000Y-103505000D03*
X116840000Y-95885000D03*
X55880000Y-88265000D03*
X116840000Y-103505000D03*
X116840000Y-100965000D03*
X116840000Y-98425000D03*
X55880000Y-95885000D03*
X55880000Y-93345000D03*
X55880000Y-90805000D03*
D11*
X63500000Y-77090000D03*
X63500000Y-80390000D03*
X63500000Y-99440000D03*
X63500000Y-96140000D03*
X82550000Y-80390000D03*
X82550000Y-77090000D03*
X82550000Y-96140000D03*
X82550000Y-99440000D03*
X101600000Y-77090000D03*
X101600000Y-80390000D03*
X101600000Y-99440000D03*
X101600000Y-96140000D03*
D12*
X63500000Y-83820000D03*
X69850000Y-81280000D03*
X69850000Y-100330000D03*
X63500000Y-102870000D03*
X88900000Y-81280000D03*
X82550000Y-83820000D03*
X82550000Y-102870000D03*
X88900000Y-100330000D03*
X101600000Y-83820000D03*
X107950000Y-81280000D03*
X107950000Y-100330000D03*
X101600000Y-102870000D03*
D13*
X71120000Y-88900000D03*
X90170000Y-88900000D03*
X109220000Y-88900000D03*
X102870000Y-115570000D03*
X83820000Y-114300000D03*
X64770000Y-114300000D03*
X109220000Y-107950000D03*
X90170000Y-107950000D03*
X71120000Y-107950000D03*
X110490000Y-110490000D03*
X91440000Y-110490000D03*
X72390000Y-110490000D03*
X71120000Y-91440000D03*
X90170000Y-91440000D03*
X109220000Y-91440000D03*
X63500000Y-93980000D03*
X82550000Y-93980000D03*
X101600000Y-93980000D03*
D14*
X82550000Y-83820000D02*
X82550000Y-80390000D01*
X63500000Y-83820000D02*
X63500000Y-80390000D01*
X63650000Y-77090000D02*
X82550000Y-77090000D01*
X63500000Y-77090000D02*
X63650000Y-77090000D01*
X82550000Y-77090000D02*
X101600000Y-77090000D01*
X63650000Y-96140000D02*
X82550000Y-96140000D01*
X63500000Y-96140000D02*
X63650000Y-96140000D01*
X82550000Y-96140000D02*
X101600000Y-96140000D01*
X63500000Y-96140000D02*
X63120000Y-96140000D01*
X63500000Y-102870000D02*
X63500000Y-99440000D01*
X82550000Y-102870000D02*
X82550000Y-99440000D01*
X101600000Y-83820000D02*
X101600000Y-80390000D01*
X101600000Y-102870000D02*
X101600000Y-99440000D01*
X72390000Y-90170000D02*
X71120000Y-88900000D01*
X91440000Y-90170000D02*
X90170000Y-88900000D01*
X91440000Y-90170000D02*
X72390000Y-90170000D01*
X110490000Y-90170000D02*
X109220000Y-88900000D01*
X110490000Y-90170000D02*
X91440000Y-90170000D01*
X83820000Y-115570000D02*
X83820000Y-114300000D01*
X83820000Y-115570000D02*
X102870000Y-115570000D01*
X64770000Y-115570000D02*
X64770000Y-114300000D01*
X64770000Y-115570000D02*
X83820000Y-115570000D01*
X106680000Y-109220000D02*
X107950000Y-109220000D01*
X107950000Y-109220000D02*
X109220000Y-107950000D01*
X88900000Y-109220000D02*
X90170000Y-107950000D01*
X88900000Y-109220000D02*
X106680000Y-109220000D01*
X69850000Y-109220000D02*
X88900000Y-109220000D01*
X69850000Y-109220000D02*
X71120000Y-107950000D01*
X109220000Y-111760000D02*
X110490000Y-110490000D01*
X90170000Y-111760000D02*
X91440000Y-110490000D01*
X90170000Y-111760000D02*
X109220000Y-111760000D01*
X71120000Y-111760000D02*
X90170000Y-111760000D01*
X71120000Y-111760000D02*
X72390000Y-110490000D01*
X91440000Y-92710000D02*
X90170000Y-91440000D01*
X110490000Y-92710000D02*
X109220000Y-91440000D01*
X110490000Y-92710000D02*
X91440000Y-92710000D01*
X91440000Y-92710000D02*
X72390000Y-92710000D01*
X72390000Y-92710000D02*
X71120000Y-91440000D01*
X116040001Y-100165001D02*
X112865001Y-100165001D01*
X116840000Y-100965000D02*
X116040001Y-100165001D01*
X112865001Y-100165001D02*
X111760000Y-99060000D01*
X111760000Y-99060000D02*
X111760000Y-93980000D01*
X111760000Y-93980000D02*
X110490000Y-92710000D01*
X111760000Y-90170000D02*
X110490000Y-90170000D01*
X115708630Y-98425000D02*
X115073630Y-97790000D01*
X116840000Y-98425000D02*
X115708630Y-98425000D01*
X115073630Y-97790000D02*
X114300000Y-97790000D01*
X114300000Y-97790000D02*
X113030000Y-96520000D01*
X113030000Y-91440000D02*
X111760000Y-90170000D01*
X113030000Y-96520000D02*
X113030000Y-91440000D01*
X82550000Y-93980000D02*
X63500000Y-93980000D01*
X101600000Y-93980000D02*
X82550000Y-93980000D01*
X115708630Y-103505000D02*
X113803630Y-101600000D01*
X116840000Y-103505000D02*
X115708630Y-103505000D01*
X113803630Y-101600000D02*
X111760000Y-101600000D01*
X111760000Y-101600000D02*
X110490000Y-100330000D01*
X110490000Y-95250000D02*
X109220000Y-93980000D01*
X110490000Y-100330000D02*
X110490000Y-95250000D01*
X109220000Y-93980000D02*
X101600000Y-93980000D01*
X114300000Y-94476370D02*
X114300000Y-78360000D01*
X115708630Y-95885000D02*
X114300000Y-94476370D01*
X114300000Y-78360000D02*
X113030000Y-77090000D01*
X116840000Y-95885000D02*
X115708630Y-95885000D01*
X113030000Y-77090000D02*
X101600000Y-77090000D01*
X62230000Y-115570000D02*
X64770000Y-115570000D01*
X58420000Y-96520000D02*
X58420000Y-111760000D01*
X55880000Y-95885000D02*
X57785000Y-95885000D01*
X58420000Y-111760000D02*
X62230000Y-115570000D01*
X57785000Y-95885000D02*
X58420000Y-96520000D01*
X60960000Y-107950000D02*
X62230000Y-109220000D01*
X60960000Y-92710000D02*
X60960000Y-107950000D01*
X62230000Y-109220000D02*
X69850000Y-109220000D01*
X55880000Y-90805000D02*
X59055000Y-90805000D01*
X59055000Y-90805000D02*
X60960000Y-92710000D01*
X59690000Y-95250000D02*
X59690000Y-109220000D01*
X59690000Y-109220000D02*
X62230000Y-111760000D01*
X55880000Y-93345000D02*
X57785000Y-93345000D01*
X57785000Y-93345000D02*
X59690000Y-95250000D01*
X62230000Y-111760000D02*
X71120000Y-111760000D01*
X63500000Y-95440000D02*
X63500000Y-96140000D01*
X62230000Y-90170000D02*
X62230000Y-94170000D01*
X62230000Y-94170000D02*
X63500000Y-95440000D01*
X55880000Y-88265000D02*
X60325000Y-88265000D01*
X60325000Y-88265000D02*
X62230000Y-90170000D01*
M02*
