G04 #@! TF.GenerationSoftware,KiCad,Pcbnew,(5.0.0-rc2-dev-471-ge4feb315d)*
G04 #@! TF.CreationDate,2018-04-21T02:21:12+01:00*
G04 #@! TF.ProjectId,cherry_breakout,6368657272795F627265616B6F75742E,rev?*
G04 #@! TF.SameCoordinates,Original*
G04 #@! TF.FileFunction,Legend,Top*
G04 #@! TF.FilePolarity,Positive*
%FSLAX46Y46*%
G04 Gerber Fmt 4.6, Leading zero omitted, Abs format (unit mm)*
G04 Created by KiCad (PCBNEW (5.0.0-rc2-dev-471-ge4feb315d)) date Sat Apr 21 02:21:12 2018*
%MOMM*%
%LPD*%
G01*
G04 APERTURE LIST*
%ADD10C,0.300000*%
%ADD11C,0.150000*%
%ADD12C,0.120000*%
G04 APERTURE END LIST*
D10*
X71644285Y-114973571D02*
X71644285Y-113473571D01*
X72144285Y-114545000D01*
X72644285Y-113473571D01*
X72644285Y-114973571D01*
X73215714Y-113473571D02*
X74215714Y-114973571D01*
X74215714Y-113473571D02*
X73215714Y-114973571D01*
X76715714Y-114973571D02*
X75858571Y-114973571D01*
X76287142Y-114973571D02*
X76287142Y-113473571D01*
X76144285Y-113687857D01*
X76001428Y-113830714D01*
X75858571Y-113902142D01*
X77358571Y-113473571D02*
X77358571Y-114687857D01*
X77430000Y-114830714D01*
X77501428Y-114902142D01*
X77644285Y-114973571D01*
X77930000Y-114973571D01*
X78072857Y-114902142D01*
X78144285Y-114830714D01*
X78215714Y-114687857D01*
X78215714Y-113473571D01*
X67037142Y-116737857D02*
X67251428Y-116809285D01*
X67322857Y-116880714D01*
X67394285Y-117023571D01*
X67394285Y-117237857D01*
X67322857Y-117380714D01*
X67251428Y-117452142D01*
X67108571Y-117523571D01*
X66537142Y-117523571D01*
X66537142Y-116023571D01*
X67037142Y-116023571D01*
X67180000Y-116095000D01*
X67251428Y-116166428D01*
X67322857Y-116309285D01*
X67322857Y-116452142D01*
X67251428Y-116595000D01*
X67180000Y-116666428D01*
X67037142Y-116737857D01*
X66537142Y-116737857D01*
X68037142Y-117523571D02*
X68037142Y-116523571D01*
X68037142Y-116809285D02*
X68108571Y-116666428D01*
X68180000Y-116595000D01*
X68322857Y-116523571D01*
X68465714Y-116523571D01*
X69537142Y-117452142D02*
X69394285Y-117523571D01*
X69108571Y-117523571D01*
X68965714Y-117452142D01*
X68894285Y-117309285D01*
X68894285Y-116737857D01*
X68965714Y-116595000D01*
X69108571Y-116523571D01*
X69394285Y-116523571D01*
X69537142Y-116595000D01*
X69608571Y-116737857D01*
X69608571Y-116880714D01*
X68894285Y-117023571D01*
X70894285Y-117523571D02*
X70894285Y-116737857D01*
X70822857Y-116595000D01*
X70680000Y-116523571D01*
X70394285Y-116523571D01*
X70251428Y-116595000D01*
X70894285Y-117452142D02*
X70751428Y-117523571D01*
X70394285Y-117523571D01*
X70251428Y-117452142D01*
X70180000Y-117309285D01*
X70180000Y-117166428D01*
X70251428Y-117023571D01*
X70394285Y-116952142D01*
X70751428Y-116952142D01*
X70894285Y-116880714D01*
X71608571Y-117523571D02*
X71608571Y-116023571D01*
X71751428Y-116952142D02*
X72180000Y-117523571D01*
X72180000Y-116523571D02*
X71608571Y-117095000D01*
X73037142Y-117523571D02*
X72894285Y-117452142D01*
X72822857Y-117380714D01*
X72751428Y-117237857D01*
X72751428Y-116809285D01*
X72822857Y-116666428D01*
X72894285Y-116595000D01*
X73037142Y-116523571D01*
X73251428Y-116523571D01*
X73394285Y-116595000D01*
X73465714Y-116666428D01*
X73537142Y-116809285D01*
X73537142Y-117237857D01*
X73465714Y-117380714D01*
X73394285Y-117452142D01*
X73251428Y-117523571D01*
X73037142Y-117523571D01*
X74822857Y-116523571D02*
X74822857Y-117523571D01*
X74180000Y-116523571D02*
X74180000Y-117309285D01*
X74251428Y-117452142D01*
X74394285Y-117523571D01*
X74608571Y-117523571D01*
X74751428Y-117452142D01*
X74822857Y-117380714D01*
X75322857Y-116523571D02*
X75894285Y-116523571D01*
X75537142Y-116023571D02*
X75537142Y-117309285D01*
X75608571Y-117452142D01*
X75751428Y-117523571D01*
X75894285Y-117523571D01*
X78037142Y-116737857D02*
X78251428Y-116809285D01*
X78322857Y-116880714D01*
X78394285Y-117023571D01*
X78394285Y-117237857D01*
X78322857Y-117380714D01*
X78251428Y-117452142D01*
X78108571Y-117523571D01*
X77537142Y-117523571D01*
X77537142Y-116023571D01*
X78037142Y-116023571D01*
X78180000Y-116095000D01*
X78251428Y-116166428D01*
X78322857Y-116309285D01*
X78322857Y-116452142D01*
X78251428Y-116595000D01*
X78180000Y-116666428D01*
X78037142Y-116737857D01*
X77537142Y-116737857D01*
X79251428Y-117523571D02*
X79108571Y-117452142D01*
X79037142Y-117380714D01*
X78965714Y-117237857D01*
X78965714Y-116809285D01*
X79037142Y-116666428D01*
X79108571Y-116595000D01*
X79251428Y-116523571D01*
X79465714Y-116523571D01*
X79608571Y-116595000D01*
X79680000Y-116666428D01*
X79751428Y-116809285D01*
X79751428Y-117237857D01*
X79680000Y-117380714D01*
X79608571Y-117452142D01*
X79465714Y-117523571D01*
X79251428Y-117523571D01*
X81037142Y-117523571D02*
X81037142Y-116737857D01*
X80965714Y-116595000D01*
X80822857Y-116523571D01*
X80537142Y-116523571D01*
X80394285Y-116595000D01*
X81037142Y-117452142D02*
X80894285Y-117523571D01*
X80537142Y-117523571D01*
X80394285Y-117452142D01*
X80322857Y-117309285D01*
X80322857Y-117166428D01*
X80394285Y-117023571D01*
X80537142Y-116952142D01*
X80894285Y-116952142D01*
X81037142Y-116880714D01*
X81751428Y-117523571D02*
X81751428Y-116523571D01*
X81751428Y-116809285D02*
X81822857Y-116666428D01*
X81894285Y-116595000D01*
X82037142Y-116523571D01*
X82180000Y-116523571D01*
X83322857Y-117523571D02*
X83322857Y-116023571D01*
X83322857Y-117452142D02*
X83180000Y-117523571D01*
X82894285Y-117523571D01*
X82751428Y-117452142D01*
X82680000Y-117380714D01*
X82608571Y-117237857D01*
X82608571Y-116809285D01*
X82680000Y-116666428D01*
X82751428Y-116595000D01*
X82894285Y-116523571D01*
X83180000Y-116523571D01*
X83322857Y-116595000D01*
D11*
X117940000Y-88265000D02*
G75*
G03X117940000Y-88265000I-1100000J0D01*
G01*
X56980000Y-98425000D02*
G75*
G03X56980000Y-98425000I-1100000J0D01*
G01*
X117940000Y-90805000D02*
G75*
G03X117940000Y-90805000I-1100000J0D01*
G01*
X56980000Y-100965000D02*
G75*
G03X56980000Y-100965000I-1100000J0D01*
G01*
X117940000Y-93345000D02*
G75*
G03X117940000Y-93345000I-1100000J0D01*
G01*
X56980000Y-103505000D02*
G75*
G03X56980000Y-103505000I-1100000J0D01*
G01*
X117940000Y-95885000D02*
G75*
G03X117940000Y-95885000I-1100000J0D01*
G01*
X56980000Y-88265000D02*
G75*
G03X56980000Y-88265000I-1100000J0D01*
G01*
X117940000Y-103505000D02*
G75*
G03X117940000Y-103505000I-1100000J0D01*
G01*
X117940000Y-100965000D02*
G75*
G03X117940000Y-100965000I-1100000J0D01*
G01*
X117940000Y-98425000D02*
G75*
G03X117940000Y-98425000I-1100000J0D01*
G01*
X56980000Y-95885000D02*
G75*
G03X56980000Y-95885000I-1100000J0D01*
G01*
X56980000Y-93345000D02*
G75*
G03X56980000Y-93345000I-1100000J0D01*
G01*
X56980000Y-90805000D02*
G75*
G03X56980000Y-90805000I-1100000J0D01*
G01*
G36*
X67110000Y-92140000D02*
X67110000Y-90740000D01*
X67210000Y-90740000D01*
X67310000Y-90740000D01*
X67310000Y-91140000D01*
X67510000Y-91140000D01*
X67610000Y-91140000D01*
X67610000Y-91740000D01*
X67310000Y-91740000D01*
X67310000Y-92140000D01*
X67110000Y-92140000D01*
G37*
X67110000Y-92140000D02*
X67110000Y-90740000D01*
X67210000Y-90740000D01*
X67310000Y-90740000D01*
X67310000Y-91140000D01*
X67510000Y-91140000D01*
X67610000Y-91140000D01*
X67610000Y-91740000D01*
X67310000Y-91740000D01*
X67310000Y-92140000D01*
X67110000Y-92140000D01*
G36*
X67110000Y-111190000D02*
X67110000Y-109790000D01*
X67210000Y-109790000D01*
X67310000Y-109790000D01*
X67310000Y-110190000D01*
X67510000Y-110190000D01*
X67610000Y-110190000D01*
X67610000Y-110790000D01*
X67310000Y-110790000D01*
X67310000Y-111190000D01*
X67110000Y-111190000D01*
G37*
X67110000Y-111190000D02*
X67110000Y-109790000D01*
X67210000Y-109790000D01*
X67310000Y-109790000D01*
X67310000Y-110190000D01*
X67510000Y-110190000D01*
X67610000Y-110190000D01*
X67610000Y-110790000D01*
X67310000Y-110790000D01*
X67310000Y-111190000D01*
X67110000Y-111190000D01*
G36*
X86160000Y-92140000D02*
X86160000Y-90740000D01*
X86260000Y-90740000D01*
X86360000Y-90740000D01*
X86360000Y-91140000D01*
X86560000Y-91140000D01*
X86660000Y-91140000D01*
X86660000Y-91740000D01*
X86360000Y-91740000D01*
X86360000Y-92140000D01*
X86160000Y-92140000D01*
G37*
X86160000Y-92140000D02*
X86160000Y-90740000D01*
X86260000Y-90740000D01*
X86360000Y-90740000D01*
X86360000Y-91140000D01*
X86560000Y-91140000D01*
X86660000Y-91140000D01*
X86660000Y-91740000D01*
X86360000Y-91740000D01*
X86360000Y-92140000D01*
X86160000Y-92140000D01*
G36*
X86160000Y-111190000D02*
X86160000Y-109790000D01*
X86260000Y-109790000D01*
X86360000Y-109790000D01*
X86360000Y-110190000D01*
X86560000Y-110190000D01*
X86660000Y-110190000D01*
X86660000Y-110790000D01*
X86360000Y-110790000D01*
X86360000Y-111190000D01*
X86160000Y-111190000D01*
G37*
X86160000Y-111190000D02*
X86160000Y-109790000D01*
X86260000Y-109790000D01*
X86360000Y-109790000D01*
X86360000Y-110190000D01*
X86560000Y-110190000D01*
X86660000Y-110190000D01*
X86660000Y-110790000D01*
X86360000Y-110790000D01*
X86360000Y-111190000D01*
X86160000Y-111190000D01*
G36*
X105210000Y-92140000D02*
X105210000Y-90740000D01*
X105310000Y-90740000D01*
X105410000Y-90740000D01*
X105410000Y-91140000D01*
X105610000Y-91140000D01*
X105710000Y-91140000D01*
X105710000Y-91740000D01*
X105410000Y-91740000D01*
X105410000Y-92140000D01*
X105210000Y-92140000D01*
G37*
X105210000Y-92140000D02*
X105210000Y-90740000D01*
X105310000Y-90740000D01*
X105410000Y-90740000D01*
X105410000Y-91140000D01*
X105610000Y-91140000D01*
X105710000Y-91140000D01*
X105710000Y-91740000D01*
X105410000Y-91740000D01*
X105410000Y-92140000D01*
X105210000Y-92140000D01*
G36*
X105210000Y-111190000D02*
X105210000Y-109790000D01*
X105310000Y-109790000D01*
X105410000Y-109790000D01*
X105410000Y-110190000D01*
X105610000Y-110190000D01*
X105710000Y-110190000D01*
X105710000Y-110790000D01*
X105410000Y-110790000D01*
X105410000Y-111190000D01*
X105210000Y-111190000D01*
G37*
X105210000Y-111190000D02*
X105210000Y-109790000D01*
X105310000Y-109790000D01*
X105410000Y-109790000D01*
X105410000Y-110190000D01*
X105610000Y-110190000D01*
X105710000Y-110190000D01*
X105710000Y-110790000D01*
X105410000Y-110790000D01*
X105410000Y-111190000D01*
X105210000Y-111190000D01*
D12*
X60325000Y-93345000D02*
X60325000Y-79375000D01*
X74295000Y-93345000D02*
X60325000Y-93345000D01*
X74295000Y-79375000D02*
X74295000Y-93345000D01*
X60325000Y-79375000D02*
X74295000Y-79375000D01*
X60325000Y-98425000D02*
X74295000Y-98425000D01*
X74295000Y-98425000D02*
X74295000Y-112395000D01*
X74295000Y-112395000D02*
X60325000Y-112395000D01*
X60325000Y-112395000D02*
X60325000Y-98425000D01*
X79375000Y-79375000D02*
X93345000Y-79375000D01*
X93345000Y-79375000D02*
X93345000Y-93345000D01*
X93345000Y-93345000D02*
X79375000Y-93345000D01*
X79375000Y-93345000D02*
X79375000Y-79375000D01*
X79375000Y-112395000D02*
X79375000Y-98425000D01*
X93345000Y-112395000D02*
X79375000Y-112395000D01*
X93345000Y-98425000D02*
X93345000Y-112395000D01*
X79375000Y-98425000D02*
X93345000Y-98425000D01*
X98425000Y-93345000D02*
X98425000Y-79375000D01*
X112395000Y-93345000D02*
X98425000Y-93345000D01*
X112395000Y-79375000D02*
X112395000Y-93345000D01*
X98425000Y-79375000D02*
X112395000Y-79375000D01*
X98425000Y-98425000D02*
X112395000Y-98425000D01*
X112395000Y-98425000D02*
X112395000Y-112395000D01*
X112395000Y-112395000D02*
X98425000Y-112395000D01*
X98425000Y-112395000D02*
X98425000Y-98425000D01*
D11*
X114133333Y-88622142D02*
X114085714Y-88669761D01*
X113942857Y-88717380D01*
X113847619Y-88717380D01*
X113704761Y-88669761D01*
X113609523Y-88574523D01*
X113561904Y-88479285D01*
X113514285Y-88288809D01*
X113514285Y-88145952D01*
X113561904Y-87955476D01*
X113609523Y-87860238D01*
X113704761Y-87765000D01*
X113847619Y-87717380D01*
X113942857Y-87717380D01*
X114085714Y-87765000D01*
X114133333Y-87812619D01*
X115085714Y-88717380D02*
X114514285Y-88717380D01*
X114800000Y-88717380D02*
X114800000Y-87717380D01*
X114704761Y-87860238D01*
X114609523Y-87955476D01*
X114514285Y-88003095D01*
X58102571Y-98782142D02*
X58054952Y-98829761D01*
X57912095Y-98877380D01*
X57816857Y-98877380D01*
X57674000Y-98829761D01*
X57578761Y-98734523D01*
X57531142Y-98639285D01*
X57483523Y-98448809D01*
X57483523Y-98305952D01*
X57531142Y-98115476D01*
X57578761Y-98020238D01*
X57674000Y-97925000D01*
X57816857Y-97877380D01*
X57912095Y-97877380D01*
X58054952Y-97925000D01*
X58102571Y-97972619D01*
X59054952Y-98877380D02*
X58483523Y-98877380D01*
X58769238Y-98877380D02*
X58769238Y-97877380D01*
X58674000Y-98020238D01*
X58578761Y-98115476D01*
X58483523Y-98163095D01*
X59959714Y-98877380D02*
X59483523Y-98877380D01*
X59483523Y-97877380D01*
X114133333Y-91162142D02*
X114085714Y-91209761D01*
X113942857Y-91257380D01*
X113847619Y-91257380D01*
X113704761Y-91209761D01*
X113609523Y-91114523D01*
X113561904Y-91019285D01*
X113514285Y-90828809D01*
X113514285Y-90685952D01*
X113561904Y-90495476D01*
X113609523Y-90400238D01*
X113704761Y-90305000D01*
X113847619Y-90257380D01*
X113942857Y-90257380D01*
X114085714Y-90305000D01*
X114133333Y-90352619D01*
X114514285Y-90352619D02*
X114561904Y-90305000D01*
X114657142Y-90257380D01*
X114895238Y-90257380D01*
X114990476Y-90305000D01*
X115038095Y-90352619D01*
X115085714Y-90447857D01*
X115085714Y-90543095D01*
X115038095Y-90685952D01*
X114466666Y-91257380D01*
X115085714Y-91257380D01*
X58102571Y-101195142D02*
X58054952Y-101242761D01*
X57912095Y-101290380D01*
X57816857Y-101290380D01*
X57674000Y-101242761D01*
X57578761Y-101147523D01*
X57531142Y-101052285D01*
X57483523Y-100861809D01*
X57483523Y-100718952D01*
X57531142Y-100528476D01*
X57578761Y-100433238D01*
X57674000Y-100338000D01*
X57816857Y-100290380D01*
X57912095Y-100290380D01*
X58054952Y-100338000D01*
X58102571Y-100385619D01*
X58483523Y-100385619D02*
X58531142Y-100338000D01*
X58626380Y-100290380D01*
X58864476Y-100290380D01*
X58959714Y-100338000D01*
X59007333Y-100385619D01*
X59054952Y-100480857D01*
X59054952Y-100576095D01*
X59007333Y-100718952D01*
X58435904Y-101290380D01*
X59054952Y-101290380D01*
X59959714Y-101290380D02*
X59483523Y-101290380D01*
X59483523Y-100290380D01*
X114133333Y-93702142D02*
X114085714Y-93749761D01*
X113942857Y-93797380D01*
X113847619Y-93797380D01*
X113704761Y-93749761D01*
X113609523Y-93654523D01*
X113561904Y-93559285D01*
X113514285Y-93368809D01*
X113514285Y-93225952D01*
X113561904Y-93035476D01*
X113609523Y-92940238D01*
X113704761Y-92845000D01*
X113847619Y-92797380D01*
X113942857Y-92797380D01*
X114085714Y-92845000D01*
X114133333Y-92892619D01*
X114466666Y-92797380D02*
X115085714Y-92797380D01*
X114752380Y-93178333D01*
X114895238Y-93178333D01*
X114990476Y-93225952D01*
X115038095Y-93273571D01*
X115085714Y-93368809D01*
X115085714Y-93606904D01*
X115038095Y-93702142D01*
X114990476Y-93749761D01*
X114895238Y-93797380D01*
X114609523Y-93797380D01*
X114514285Y-93749761D01*
X114466666Y-93702142D01*
X58102571Y-103735142D02*
X58054952Y-103782761D01*
X57912095Y-103830380D01*
X57816857Y-103830380D01*
X57674000Y-103782761D01*
X57578761Y-103687523D01*
X57531142Y-103592285D01*
X57483523Y-103401809D01*
X57483523Y-103258952D01*
X57531142Y-103068476D01*
X57578761Y-102973238D01*
X57674000Y-102878000D01*
X57816857Y-102830380D01*
X57912095Y-102830380D01*
X58054952Y-102878000D01*
X58102571Y-102925619D01*
X58435904Y-102830380D02*
X59054952Y-102830380D01*
X58721619Y-103211333D01*
X58864476Y-103211333D01*
X58959714Y-103258952D01*
X59007333Y-103306571D01*
X59054952Y-103401809D01*
X59054952Y-103639904D01*
X59007333Y-103735142D01*
X58959714Y-103782761D01*
X58864476Y-103830380D01*
X58578761Y-103830380D01*
X58483523Y-103782761D01*
X58435904Y-103735142D01*
X59959714Y-103830380D02*
X59483523Y-103830380D01*
X59483523Y-102830380D01*
X114133333Y-96337380D02*
X113800000Y-95861190D01*
X113561904Y-96337380D02*
X113561904Y-95337380D01*
X113942857Y-95337380D01*
X114038095Y-95385000D01*
X114085714Y-95432619D01*
X114133333Y-95527857D01*
X114133333Y-95670714D01*
X114085714Y-95765952D01*
X114038095Y-95813571D01*
X113942857Y-95861190D01*
X113561904Y-95861190D01*
X115085714Y-96337380D02*
X114514285Y-96337380D01*
X114800000Y-96337380D02*
X114800000Y-95337380D01*
X114704761Y-95480238D01*
X114609523Y-95575476D01*
X114514285Y-95623095D01*
X58253333Y-88590380D02*
X57920000Y-88114190D01*
X57681904Y-88590380D02*
X57681904Y-87590380D01*
X58062857Y-87590380D01*
X58158095Y-87638000D01*
X58205714Y-87685619D01*
X58253333Y-87780857D01*
X58253333Y-87923714D01*
X58205714Y-88018952D01*
X58158095Y-88066571D01*
X58062857Y-88114190D01*
X57681904Y-88114190D01*
X58634285Y-87685619D02*
X58681904Y-87638000D01*
X58777142Y-87590380D01*
X59015238Y-87590380D01*
X59110476Y-87638000D01*
X59158095Y-87685619D01*
X59205714Y-87780857D01*
X59205714Y-87876095D01*
X59158095Y-88018952D01*
X58586666Y-88590380D01*
X59205714Y-88590380D01*
X113379333Y-103957380D02*
X113046000Y-103481190D01*
X112807904Y-103957380D02*
X112807904Y-102957380D01*
X113188857Y-102957380D01*
X113284095Y-103005000D01*
X113331714Y-103052619D01*
X113379333Y-103147857D01*
X113379333Y-103290714D01*
X113331714Y-103385952D01*
X113284095Y-103433571D01*
X113188857Y-103481190D01*
X112807904Y-103481190D01*
X114331714Y-103957380D02*
X113760285Y-103957380D01*
X114046000Y-103957380D02*
X114046000Y-102957380D01*
X113950761Y-103100238D01*
X113855523Y-103195476D01*
X113760285Y-103243095D01*
X115093619Y-103433571D02*
X115236476Y-103481190D01*
X115284095Y-103528809D01*
X115331714Y-103624047D01*
X115331714Y-103766904D01*
X115284095Y-103862142D01*
X115236476Y-103909761D01*
X115141238Y-103957380D01*
X114760285Y-103957380D01*
X114760285Y-102957380D01*
X115093619Y-102957380D01*
X115188857Y-103005000D01*
X115236476Y-103052619D01*
X115284095Y-103147857D01*
X115284095Y-103243095D01*
X115236476Y-103338333D01*
X115188857Y-103385952D01*
X115093619Y-103433571D01*
X114760285Y-103433571D01*
X113379333Y-101417380D02*
X113046000Y-100941190D01*
X112807904Y-101417380D02*
X112807904Y-100417380D01*
X113188857Y-100417380D01*
X113284095Y-100465000D01*
X113331714Y-100512619D01*
X113379333Y-100607857D01*
X113379333Y-100750714D01*
X113331714Y-100845952D01*
X113284095Y-100893571D01*
X113188857Y-100941190D01*
X112807904Y-100941190D01*
X114331714Y-101417380D02*
X113760285Y-101417380D01*
X114046000Y-101417380D02*
X114046000Y-100417380D01*
X113950761Y-100560238D01*
X113855523Y-100655476D01*
X113760285Y-100703095D01*
X115284095Y-100465000D02*
X115188857Y-100417380D01*
X115046000Y-100417380D01*
X114903142Y-100465000D01*
X114807904Y-100560238D01*
X114760285Y-100655476D01*
X114712666Y-100845952D01*
X114712666Y-100988809D01*
X114760285Y-101179285D01*
X114807904Y-101274523D01*
X114903142Y-101369761D01*
X115046000Y-101417380D01*
X115141238Y-101417380D01*
X115284095Y-101369761D01*
X115331714Y-101322142D01*
X115331714Y-100988809D01*
X115141238Y-100988809D01*
X113379333Y-98877380D02*
X113046000Y-98401190D01*
X112807904Y-98877380D02*
X112807904Y-97877380D01*
X113188857Y-97877380D01*
X113284095Y-97925000D01*
X113331714Y-97972619D01*
X113379333Y-98067857D01*
X113379333Y-98210714D01*
X113331714Y-98305952D01*
X113284095Y-98353571D01*
X113188857Y-98401190D01*
X112807904Y-98401190D01*
X114331714Y-98877380D02*
X113760285Y-98877380D01*
X114046000Y-98877380D02*
X114046000Y-97877380D01*
X113950761Y-98020238D01*
X113855523Y-98115476D01*
X113760285Y-98163095D01*
X115331714Y-98877380D02*
X114998380Y-98401190D01*
X114760285Y-98877380D02*
X114760285Y-97877380D01*
X115141238Y-97877380D01*
X115236476Y-97925000D01*
X115284095Y-97972619D01*
X115331714Y-98067857D01*
X115331714Y-98210714D01*
X115284095Y-98305952D01*
X115236476Y-98353571D01*
X115141238Y-98401190D01*
X114760285Y-98401190D01*
X58007333Y-96464380D02*
X57674000Y-95988190D01*
X57435904Y-96464380D02*
X57435904Y-95464380D01*
X57816857Y-95464380D01*
X57912095Y-95512000D01*
X57959714Y-95559619D01*
X58007333Y-95654857D01*
X58007333Y-95797714D01*
X57959714Y-95892952D01*
X57912095Y-95940571D01*
X57816857Y-95988190D01*
X57435904Y-95988190D01*
X58388285Y-95559619D02*
X58435904Y-95512000D01*
X58531142Y-95464380D01*
X58769238Y-95464380D01*
X58864476Y-95512000D01*
X58912095Y-95559619D01*
X58959714Y-95654857D01*
X58959714Y-95750095D01*
X58912095Y-95892952D01*
X58340666Y-96464380D01*
X58959714Y-96464380D01*
X59721619Y-95940571D02*
X59864476Y-95988190D01*
X59912095Y-96035809D01*
X59959714Y-96131047D01*
X59959714Y-96273904D01*
X59912095Y-96369142D01*
X59864476Y-96416761D01*
X59769238Y-96464380D01*
X59388285Y-96464380D01*
X59388285Y-95464380D01*
X59721619Y-95464380D01*
X59816857Y-95512000D01*
X59864476Y-95559619D01*
X59912095Y-95654857D01*
X59912095Y-95750095D01*
X59864476Y-95845333D01*
X59816857Y-95892952D01*
X59721619Y-95940571D01*
X59388285Y-95940571D01*
X58007333Y-93924380D02*
X57674000Y-93448190D01*
X57435904Y-93924380D02*
X57435904Y-92924380D01*
X57816857Y-92924380D01*
X57912095Y-92972000D01*
X57959714Y-93019619D01*
X58007333Y-93114857D01*
X58007333Y-93257714D01*
X57959714Y-93352952D01*
X57912095Y-93400571D01*
X57816857Y-93448190D01*
X57435904Y-93448190D01*
X58388285Y-93019619D02*
X58435904Y-92972000D01*
X58531142Y-92924380D01*
X58769238Y-92924380D01*
X58864476Y-92972000D01*
X58912095Y-93019619D01*
X58959714Y-93114857D01*
X58959714Y-93210095D01*
X58912095Y-93352952D01*
X58340666Y-93924380D01*
X58959714Y-93924380D01*
X59912095Y-92972000D02*
X59816857Y-92924380D01*
X59674000Y-92924380D01*
X59531142Y-92972000D01*
X59435904Y-93067238D01*
X59388285Y-93162476D01*
X59340666Y-93352952D01*
X59340666Y-93495809D01*
X59388285Y-93686285D01*
X59435904Y-93781523D01*
X59531142Y-93876761D01*
X59674000Y-93924380D01*
X59769238Y-93924380D01*
X59912095Y-93876761D01*
X59959714Y-93829142D01*
X59959714Y-93495809D01*
X59769238Y-93495809D01*
X58007333Y-91384380D02*
X57674000Y-90908190D01*
X57435904Y-91384380D02*
X57435904Y-90384380D01*
X57816857Y-90384380D01*
X57912095Y-90432000D01*
X57959714Y-90479619D01*
X58007333Y-90574857D01*
X58007333Y-90717714D01*
X57959714Y-90812952D01*
X57912095Y-90860571D01*
X57816857Y-90908190D01*
X57435904Y-90908190D01*
X58388285Y-90479619D02*
X58435904Y-90432000D01*
X58531142Y-90384380D01*
X58769238Y-90384380D01*
X58864476Y-90432000D01*
X58912095Y-90479619D01*
X58959714Y-90574857D01*
X58959714Y-90670095D01*
X58912095Y-90812952D01*
X58340666Y-91384380D01*
X58959714Y-91384380D01*
X59959714Y-91384380D02*
X59626380Y-90908190D01*
X59388285Y-91384380D02*
X59388285Y-90384380D01*
X59769238Y-90384380D01*
X59864476Y-90432000D01*
X59912095Y-90479619D01*
X59959714Y-90574857D01*
X59959714Y-90717714D01*
X59912095Y-90812952D01*
X59864476Y-90860571D01*
X59769238Y-90908190D01*
X59388285Y-90908190D01*
X64031904Y-91892380D02*
X64031904Y-90892380D01*
X64270000Y-90892380D01*
X64412857Y-90940000D01*
X64508095Y-91035238D01*
X64555714Y-91130476D01*
X64603333Y-91320952D01*
X64603333Y-91463809D01*
X64555714Y-91654285D01*
X64508095Y-91749523D01*
X64412857Y-91844761D01*
X64270000Y-91892380D01*
X64031904Y-91892380D01*
X65555714Y-91892380D02*
X64984285Y-91892380D01*
X65270000Y-91892380D02*
X65270000Y-90892380D01*
X65174761Y-91035238D01*
X65079523Y-91130476D01*
X64984285Y-91178095D01*
X63396904Y-110942380D02*
X63396904Y-109942380D01*
X63635000Y-109942380D01*
X63777857Y-109990000D01*
X63873095Y-110085238D01*
X63920714Y-110180476D01*
X63968333Y-110370952D01*
X63968333Y-110513809D01*
X63920714Y-110704285D01*
X63873095Y-110799523D01*
X63777857Y-110894761D01*
X63635000Y-110942380D01*
X63396904Y-110942380D01*
X64301666Y-109942380D02*
X64920714Y-109942380D01*
X64587380Y-110323333D01*
X64730238Y-110323333D01*
X64825476Y-110370952D01*
X64873095Y-110418571D01*
X64920714Y-110513809D01*
X64920714Y-110751904D01*
X64873095Y-110847142D01*
X64825476Y-110894761D01*
X64730238Y-110942380D01*
X64444523Y-110942380D01*
X64349285Y-110894761D01*
X64301666Y-110847142D01*
X83081904Y-91892380D02*
X83081904Y-90892380D01*
X83320000Y-90892380D01*
X83462857Y-90940000D01*
X83558095Y-91035238D01*
X83605714Y-91130476D01*
X83653333Y-91320952D01*
X83653333Y-91463809D01*
X83605714Y-91654285D01*
X83558095Y-91749523D01*
X83462857Y-91844761D01*
X83320000Y-91892380D01*
X83081904Y-91892380D01*
X84558095Y-90892380D02*
X84081904Y-90892380D01*
X84034285Y-91368571D01*
X84081904Y-91320952D01*
X84177142Y-91273333D01*
X84415238Y-91273333D01*
X84510476Y-91320952D01*
X84558095Y-91368571D01*
X84605714Y-91463809D01*
X84605714Y-91701904D01*
X84558095Y-91797142D01*
X84510476Y-91844761D01*
X84415238Y-91892380D01*
X84177142Y-91892380D01*
X84081904Y-91844761D01*
X84034285Y-91797142D01*
X82446904Y-110942380D02*
X82446904Y-109942380D01*
X82685000Y-109942380D01*
X82827857Y-109990000D01*
X82923095Y-110085238D01*
X82970714Y-110180476D01*
X83018333Y-110370952D01*
X83018333Y-110513809D01*
X82970714Y-110704285D01*
X82923095Y-110799523D01*
X82827857Y-110894761D01*
X82685000Y-110942380D01*
X82446904Y-110942380D01*
X83875476Y-109942380D02*
X83685000Y-109942380D01*
X83589761Y-109990000D01*
X83542142Y-110037619D01*
X83446904Y-110180476D01*
X83399285Y-110370952D01*
X83399285Y-110751904D01*
X83446904Y-110847142D01*
X83494523Y-110894761D01*
X83589761Y-110942380D01*
X83780238Y-110942380D01*
X83875476Y-110894761D01*
X83923095Y-110847142D01*
X83970714Y-110751904D01*
X83970714Y-110513809D01*
X83923095Y-110418571D01*
X83875476Y-110370952D01*
X83780238Y-110323333D01*
X83589761Y-110323333D01*
X83494523Y-110370952D01*
X83446904Y-110418571D01*
X83399285Y-110513809D01*
X101020714Y-91892380D02*
X101020714Y-90892380D01*
X101258809Y-90892380D01*
X101401666Y-90940000D01*
X101496904Y-91035238D01*
X101544523Y-91130476D01*
X101592142Y-91320952D01*
X101592142Y-91463809D01*
X101544523Y-91654285D01*
X101496904Y-91749523D01*
X101401666Y-91844761D01*
X101258809Y-91892380D01*
X101020714Y-91892380D01*
X102544523Y-91892380D02*
X101973095Y-91892380D01*
X102258809Y-91892380D02*
X102258809Y-90892380D01*
X102163571Y-91035238D01*
X102068333Y-91130476D01*
X101973095Y-91178095D01*
X103496904Y-91892380D02*
X102925476Y-91892380D01*
X103211190Y-91892380D02*
X103211190Y-90892380D01*
X103115952Y-91035238D01*
X103020714Y-91130476D01*
X102925476Y-91178095D01*
X101020714Y-110942380D02*
X101020714Y-109942380D01*
X101258809Y-109942380D01*
X101401666Y-109990000D01*
X101496904Y-110085238D01*
X101544523Y-110180476D01*
X101592142Y-110370952D01*
X101592142Y-110513809D01*
X101544523Y-110704285D01*
X101496904Y-110799523D01*
X101401666Y-110894761D01*
X101258809Y-110942380D01*
X101020714Y-110942380D01*
X102544523Y-110942380D02*
X101973095Y-110942380D01*
X102258809Y-110942380D02*
X102258809Y-109942380D01*
X102163571Y-110085238D01*
X102068333Y-110180476D01*
X101973095Y-110228095D01*
X102925476Y-110037619D02*
X102973095Y-109990000D01*
X103068333Y-109942380D01*
X103306428Y-109942380D01*
X103401666Y-109990000D01*
X103449285Y-110037619D01*
X103496904Y-110132857D01*
X103496904Y-110228095D01*
X103449285Y-110370952D01*
X102877857Y-110942380D01*
X103496904Y-110942380D01*
X65976666Y-78890761D02*
X66119523Y-78938380D01*
X66357619Y-78938380D01*
X66452857Y-78890761D01*
X66500476Y-78843142D01*
X66548095Y-78747904D01*
X66548095Y-78652666D01*
X66500476Y-78557428D01*
X66452857Y-78509809D01*
X66357619Y-78462190D01*
X66167142Y-78414571D01*
X66071904Y-78366952D01*
X66024285Y-78319333D01*
X65976666Y-78224095D01*
X65976666Y-78128857D01*
X66024285Y-78033619D01*
X66071904Y-77986000D01*
X66167142Y-77938380D01*
X66405238Y-77938380D01*
X66548095Y-77986000D01*
X66881428Y-77938380D02*
X67119523Y-78938380D01*
X67310000Y-78224095D01*
X67500476Y-78938380D01*
X67738571Y-77938380D01*
X68643333Y-78938380D02*
X68071904Y-78938380D01*
X68357619Y-78938380D02*
X68357619Y-77938380D01*
X68262380Y-78081238D01*
X68167142Y-78176476D01*
X68071904Y-78224095D01*
X65976666Y-97940761D02*
X66119523Y-97988380D01*
X66357619Y-97988380D01*
X66452857Y-97940761D01*
X66500476Y-97893142D01*
X66548095Y-97797904D01*
X66548095Y-97702666D01*
X66500476Y-97607428D01*
X66452857Y-97559809D01*
X66357619Y-97512190D01*
X66167142Y-97464571D01*
X66071904Y-97416952D01*
X66024285Y-97369333D01*
X65976666Y-97274095D01*
X65976666Y-97178857D01*
X66024285Y-97083619D01*
X66071904Y-97036000D01*
X66167142Y-96988380D01*
X66405238Y-96988380D01*
X66548095Y-97036000D01*
X66881428Y-96988380D02*
X67119523Y-97988380D01*
X67310000Y-97274095D01*
X67500476Y-97988380D01*
X67738571Y-96988380D01*
X68071904Y-97083619D02*
X68119523Y-97036000D01*
X68214761Y-96988380D01*
X68452857Y-96988380D01*
X68548095Y-97036000D01*
X68595714Y-97083619D01*
X68643333Y-97178857D01*
X68643333Y-97274095D01*
X68595714Y-97416952D01*
X68024285Y-97988380D01*
X68643333Y-97988380D01*
X85026666Y-78890761D02*
X85169523Y-78938380D01*
X85407619Y-78938380D01*
X85502857Y-78890761D01*
X85550476Y-78843142D01*
X85598095Y-78747904D01*
X85598095Y-78652666D01*
X85550476Y-78557428D01*
X85502857Y-78509809D01*
X85407619Y-78462190D01*
X85217142Y-78414571D01*
X85121904Y-78366952D01*
X85074285Y-78319333D01*
X85026666Y-78224095D01*
X85026666Y-78128857D01*
X85074285Y-78033619D01*
X85121904Y-77986000D01*
X85217142Y-77938380D01*
X85455238Y-77938380D01*
X85598095Y-77986000D01*
X85931428Y-77938380D02*
X86169523Y-78938380D01*
X86360000Y-78224095D01*
X86550476Y-78938380D01*
X86788571Y-77938380D01*
X87074285Y-77938380D02*
X87693333Y-77938380D01*
X87360000Y-78319333D01*
X87502857Y-78319333D01*
X87598095Y-78366952D01*
X87645714Y-78414571D01*
X87693333Y-78509809D01*
X87693333Y-78747904D01*
X87645714Y-78843142D01*
X87598095Y-78890761D01*
X87502857Y-78938380D01*
X87217142Y-78938380D01*
X87121904Y-78890761D01*
X87074285Y-78843142D01*
X85026666Y-97940761D02*
X85169523Y-97988380D01*
X85407619Y-97988380D01*
X85502857Y-97940761D01*
X85550476Y-97893142D01*
X85598095Y-97797904D01*
X85598095Y-97702666D01*
X85550476Y-97607428D01*
X85502857Y-97559809D01*
X85407619Y-97512190D01*
X85217142Y-97464571D01*
X85121904Y-97416952D01*
X85074285Y-97369333D01*
X85026666Y-97274095D01*
X85026666Y-97178857D01*
X85074285Y-97083619D01*
X85121904Y-97036000D01*
X85217142Y-96988380D01*
X85455238Y-96988380D01*
X85598095Y-97036000D01*
X85931428Y-96988380D02*
X86169523Y-97988380D01*
X86360000Y-97274095D01*
X86550476Y-97988380D01*
X86788571Y-96988380D01*
X87598095Y-97321714D02*
X87598095Y-97988380D01*
X87360000Y-96940761D02*
X87121904Y-97655047D01*
X87740952Y-97655047D01*
X104076666Y-78890761D02*
X104219523Y-78938380D01*
X104457619Y-78938380D01*
X104552857Y-78890761D01*
X104600476Y-78843142D01*
X104648095Y-78747904D01*
X104648095Y-78652666D01*
X104600476Y-78557428D01*
X104552857Y-78509809D01*
X104457619Y-78462190D01*
X104267142Y-78414571D01*
X104171904Y-78366952D01*
X104124285Y-78319333D01*
X104076666Y-78224095D01*
X104076666Y-78128857D01*
X104124285Y-78033619D01*
X104171904Y-77986000D01*
X104267142Y-77938380D01*
X104505238Y-77938380D01*
X104648095Y-77986000D01*
X104981428Y-77938380D02*
X105219523Y-78938380D01*
X105410000Y-78224095D01*
X105600476Y-78938380D01*
X105838571Y-77938380D01*
X106695714Y-77938380D02*
X106219523Y-77938380D01*
X106171904Y-78414571D01*
X106219523Y-78366952D01*
X106314761Y-78319333D01*
X106552857Y-78319333D01*
X106648095Y-78366952D01*
X106695714Y-78414571D01*
X106743333Y-78509809D01*
X106743333Y-78747904D01*
X106695714Y-78843142D01*
X106648095Y-78890761D01*
X106552857Y-78938380D01*
X106314761Y-78938380D01*
X106219523Y-78890761D01*
X106171904Y-78843142D01*
X104076666Y-97940761D02*
X104219523Y-97988380D01*
X104457619Y-97988380D01*
X104552857Y-97940761D01*
X104600476Y-97893142D01*
X104648095Y-97797904D01*
X104648095Y-97702666D01*
X104600476Y-97607428D01*
X104552857Y-97559809D01*
X104457619Y-97512190D01*
X104267142Y-97464571D01*
X104171904Y-97416952D01*
X104124285Y-97369333D01*
X104076666Y-97274095D01*
X104076666Y-97178857D01*
X104124285Y-97083619D01*
X104171904Y-97036000D01*
X104267142Y-96988380D01*
X104505238Y-96988380D01*
X104648095Y-97036000D01*
X104981428Y-96988380D02*
X105219523Y-97988380D01*
X105410000Y-97274095D01*
X105600476Y-97988380D01*
X105838571Y-96988380D01*
X106648095Y-96988380D02*
X106457619Y-96988380D01*
X106362380Y-97036000D01*
X106314761Y-97083619D01*
X106219523Y-97226476D01*
X106171904Y-97416952D01*
X106171904Y-97797904D01*
X106219523Y-97893142D01*
X106267142Y-97940761D01*
X106362380Y-97988380D01*
X106552857Y-97988380D01*
X106648095Y-97940761D01*
X106695714Y-97893142D01*
X106743333Y-97797904D01*
X106743333Y-97559809D01*
X106695714Y-97464571D01*
X106648095Y-97416952D01*
X106552857Y-97369333D01*
X106362380Y-97369333D01*
X106267142Y-97416952D01*
X106219523Y-97464571D01*
X106171904Y-97559809D01*
M02*
