G04 #@! TF.GenerationSoftware,KiCad,Pcbnew,(5.0.0-rc2-dev-471-ge4feb315d)*
G04 #@! TF.CreationDate,2018-05-05T14:14:47+01:00*
G04 #@! TF.ProjectId,cherry_breakout_2u_double_side,6368657272795F627265616B6F75745F,rev?*
G04 #@! TF.SameCoordinates,Original*
G04 #@! TF.FileFunction,Copper,L2,Bot,Signal*
G04 #@! TF.FilePolarity,Positive*
%FSLAX46Y46*%
G04 Gerber Fmt 4.6, Leading zero omitted, Abs format (unit mm)*
G04 Created by KiCad (PCBNEW (5.0.0-rc2-dev-471-ge4feb315d)) date Sat May  5 14:14:47 2018*
%MOMM*%
%LPD*%
G01*
G04 APERTURE LIST*
%ADD10R,1.500000X0.900000*%
%ADD11R,1.700000X1.700000*%
%ADD12O,1.700000X1.700000*%
%ADD13C,2.200000*%
%ADD14C,0.800000*%
%ADD15C,0.250000*%
G04 APERTURE END LIST*
D10*
X138585000Y-121205000D03*
X138585000Y-122555000D03*
X138585000Y-123905000D03*
X142085000Y-121205000D03*
X142085000Y-122555000D03*
X142085000Y-123905000D03*
X151610000Y-104855000D03*
X151610000Y-103505000D03*
X151610000Y-102155000D03*
X148110000Y-104855000D03*
X148110000Y-103505000D03*
X148110000Y-102155000D03*
X161135000Y-123905000D03*
X161135000Y-122555000D03*
X161135000Y-121205000D03*
X157635000Y-123905000D03*
X157635000Y-122555000D03*
X157635000Y-121205000D03*
X176685000Y-121205000D03*
X176685000Y-122555000D03*
X176685000Y-123905000D03*
X180185000Y-121205000D03*
X180185000Y-122555000D03*
X180185000Y-123905000D03*
X176685000Y-102155000D03*
X176685000Y-103505000D03*
X176685000Y-104855000D03*
X180185000Y-102155000D03*
X180185000Y-103505000D03*
X180185000Y-104855000D03*
D11*
X128905000Y-100330000D03*
D12*
X128905000Y-102870000D03*
X128905000Y-105410000D03*
X128905000Y-107950000D03*
X128905000Y-110490000D03*
X128905000Y-113030000D03*
X128905000Y-115570000D03*
X189865000Y-115570000D03*
X189865000Y-113030000D03*
X189865000Y-110490000D03*
X189865000Y-107950000D03*
X189865000Y-105410000D03*
X189865000Y-102870000D03*
D11*
X189865000Y-100330000D03*
D13*
X146050000Y-95885000D03*
X152400000Y-93345000D03*
X136525000Y-114935000D03*
X142875000Y-112395000D03*
X137795000Y-112395000D03*
X144145000Y-114935000D03*
X147320000Y-93345000D03*
X153670000Y-95885000D03*
X163195000Y-114935000D03*
X156845000Y-112395000D03*
X161925000Y-112395000D03*
X155575000Y-114935000D03*
X174625000Y-95885000D03*
X180975000Y-93345000D03*
X174625000Y-114935000D03*
X180975000Y-112395000D03*
X175895000Y-112395000D03*
X182245000Y-114935000D03*
X175895000Y-93345000D03*
X182245000Y-95885000D03*
D14*
X149225000Y-89535000D03*
X172085000Y-89625000D03*
X169545000Y-110490000D03*
X149860000Y-110490000D03*
X142240000Y-108585000D03*
X185420000Y-104140000D03*
X166370000Y-100965000D03*
X156210000Y-100965000D03*
X154305000Y-104140000D03*
X142875000Y-106680000D03*
X145415000Y-107950000D03*
X144780000Y-122555000D03*
X185420000Y-115570000D03*
X173990000Y-120650000D03*
X154305000Y-120650000D03*
X144780000Y-120650000D03*
X135255000Y-120650000D03*
X163195000Y-126910000D03*
X173990000Y-124460000D03*
X154940000Y-124460000D03*
X135890000Y-124460000D03*
X166370000Y-126365000D03*
X172085000Y-124460000D03*
X153035000Y-124460000D03*
X133985000Y-124460000D03*
X165100000Y-122555000D03*
X182880000Y-110490000D03*
X184785000Y-112395000D03*
X182880000Y-122555000D03*
X144145000Y-102235000D03*
X156210000Y-102235000D03*
X166370000Y-102235000D03*
X144780000Y-104685000D03*
X173990000Y-107315000D03*
X145415000Y-101600000D03*
X154305000Y-101690000D03*
X158750000Y-103505000D03*
X163830000Y-99695000D03*
X170815000Y-102235000D03*
X129540000Y-122555000D03*
X133350000Y-127595000D03*
D15*
X189015001Y-107100001D02*
X187745001Y-107100001D01*
X189865000Y-107950000D02*
X189015001Y-107100001D01*
X187745001Y-107100001D02*
X187325000Y-106680000D01*
X151130000Y-88265000D02*
X149860000Y-89535000D01*
X149860000Y-89535000D02*
X149225000Y-89535000D01*
X172720000Y-88990000D02*
X172085000Y-89625000D01*
X172720000Y-88265000D02*
X172720000Y-88990000D01*
X172720000Y-88265000D02*
X151130000Y-88265000D01*
X189015001Y-109640001D02*
X187745001Y-109640001D01*
X189865000Y-110490000D02*
X189015001Y-109640001D01*
X187745001Y-109640001D02*
X187325000Y-109220000D01*
X187325000Y-109220000D02*
X170815000Y-109220000D01*
X170815000Y-109220000D02*
X169545000Y-110490000D01*
X170815000Y-109220000D02*
X151130000Y-109220000D01*
X151130000Y-109220000D02*
X149860000Y-110490000D01*
X142875000Y-109220000D02*
X151130000Y-109220000D01*
X142240000Y-108585000D02*
X142875000Y-109220000D01*
X181530000Y-102155000D02*
X180185000Y-102155000D01*
X181610000Y-102235000D02*
X181530000Y-102155000D01*
X180185000Y-103505000D02*
X181610000Y-103505000D01*
X181610000Y-103505000D02*
X181610000Y-102235000D01*
X180485000Y-104855000D02*
X180565000Y-104775000D01*
X180185000Y-104855000D02*
X181530000Y-104855000D01*
X181530000Y-104855000D02*
X181610000Y-104775000D01*
X181610000Y-122555000D02*
X180185000Y-122555000D01*
X181610000Y-121285000D02*
X181610000Y-122555000D01*
X180185000Y-121205000D02*
X181530000Y-121205000D01*
X181530000Y-121205000D02*
X181610000Y-121285000D01*
X180185000Y-123905000D02*
X181530000Y-123905000D01*
X181530000Y-123905000D02*
X181610000Y-123825000D01*
X181610000Y-123825000D02*
X181610000Y-122555000D01*
X185420000Y-104140000D02*
X181610000Y-104140000D01*
X181610000Y-104775000D02*
X181610000Y-104140000D01*
X181610000Y-104140000D02*
X181610000Y-103505000D01*
X166370000Y-100965000D02*
X156210000Y-100965000D01*
X151610000Y-103505000D02*
X153035000Y-103505000D01*
X151610000Y-104855000D02*
X152955000Y-104855000D01*
X152955000Y-104855000D02*
X153035000Y-104775000D01*
X151610000Y-102155000D02*
X152955000Y-102155000D01*
X153035000Y-102235000D02*
X153035000Y-103505000D01*
X152955000Y-102155000D02*
X153035000Y-102235000D01*
X153035000Y-104775000D02*
X153035000Y-104140000D01*
X153035000Y-104140000D02*
X153035000Y-103505000D01*
X153035000Y-103505000D02*
X153670000Y-103505000D01*
X153670000Y-103505000D02*
X154305000Y-104140000D01*
X142875000Y-106680000D02*
X144145000Y-106680000D01*
X144145000Y-106680000D02*
X145415000Y-107950000D01*
X142085000Y-123905000D02*
X143430000Y-123905000D01*
X143430000Y-123905000D02*
X143510000Y-123825000D01*
X143510000Y-123825000D02*
X143510000Y-122555000D01*
X143510000Y-122555000D02*
X142085000Y-122555000D01*
X142085000Y-121205000D02*
X143430000Y-121205000D01*
X143510000Y-121285000D02*
X143510000Y-122555000D01*
X143430000Y-121205000D02*
X143510000Y-121285000D01*
X143510000Y-122555000D02*
X144780000Y-122555000D01*
X189865000Y-113030000D02*
X187960000Y-113030000D01*
X187960000Y-113030000D02*
X185420000Y-115570000D01*
X174545000Y-121205000D02*
X173990000Y-120650000D01*
X176685000Y-121205000D02*
X174545000Y-121205000D01*
X154860000Y-121205000D02*
X154305000Y-120650000D01*
X157635000Y-121205000D02*
X154860000Y-121205000D01*
X154305000Y-120650000D02*
X144780000Y-120650000D01*
X135810000Y-121205000D02*
X135255000Y-120650000D01*
X138585000Y-121205000D02*
X135810000Y-121205000D01*
X176685000Y-123905000D02*
X174545000Y-123905000D01*
X174545000Y-123905000D02*
X173990000Y-124460000D01*
X157635000Y-123905000D02*
X155495000Y-123905000D01*
X155495000Y-123905000D02*
X154940000Y-124460000D01*
X138585000Y-123905000D02*
X136445000Y-123905000D01*
X136445000Y-123905000D02*
X135890000Y-124460000D01*
X163760685Y-126910000D02*
X164305685Y-126365000D01*
X163195000Y-126910000D02*
X163760685Y-126910000D01*
X164305685Y-126365000D02*
X166370000Y-126365000D01*
X172720000Y-127635000D02*
X172085000Y-127000000D01*
X172720000Y-122555000D02*
X176685000Y-122555000D01*
X172085000Y-123190000D02*
X172720000Y-122555000D01*
X172085000Y-127000000D02*
X172085000Y-124460000D01*
X172085000Y-124460000D02*
X172085000Y-123190000D01*
X153670000Y-122555000D02*
X157635000Y-122555000D01*
X153035000Y-123190000D02*
X153670000Y-122555000D01*
X172720000Y-127635000D02*
X154305000Y-127635000D01*
X154305000Y-127635000D02*
X153035000Y-126365000D01*
X153035000Y-126365000D02*
X153035000Y-124460000D01*
X153035000Y-124460000D02*
X153035000Y-123190000D01*
X134620000Y-122555000D02*
X138585000Y-122555000D01*
X133985000Y-123190000D02*
X134620000Y-122555000D01*
X154305000Y-127635000D02*
X135255000Y-127635000D01*
X135255000Y-127635000D02*
X133985000Y-126365000D01*
X133985000Y-126365000D02*
X133985000Y-124460000D01*
X133985000Y-124460000D02*
X133985000Y-123190000D01*
X161135000Y-121205000D02*
X162480000Y-121205000D01*
X162480000Y-121205000D02*
X162560000Y-121285000D01*
X165100000Y-122555000D02*
X162560000Y-122555000D01*
X162560000Y-121285000D02*
X162560000Y-122555000D01*
X162560000Y-122555000D02*
X161135000Y-122555000D01*
X161135000Y-123905000D02*
X162480000Y-123905000D01*
X162480000Y-123905000D02*
X162560000Y-123825000D01*
X162560000Y-123825000D02*
X162560000Y-122555000D01*
X182880000Y-110490000D02*
X184785000Y-112395000D01*
X181610000Y-122555000D02*
X182880000Y-122555000D01*
X131445000Y-107950000D02*
X128905000Y-107950000D01*
X140335000Y-103505000D02*
X139700000Y-102870000D01*
X148110000Y-103505000D02*
X140335000Y-103505000D01*
X132080000Y-107315000D02*
X131445000Y-107950000D01*
X139700000Y-102870000D02*
X135890000Y-102870000D01*
X132080000Y-106680000D02*
X132080000Y-107315000D01*
X135890000Y-102870000D02*
X132080000Y-106680000D01*
X144145000Y-102235000D02*
X142875000Y-103505000D01*
X156210000Y-102235000D02*
X166370000Y-102235000D01*
X166370000Y-102235000D02*
X167640000Y-103505000D01*
X167640000Y-103505000D02*
X176685000Y-103505000D01*
X144950000Y-104855000D02*
X144780000Y-104685000D01*
X148110000Y-104855000D02*
X144950000Y-104855000D01*
X144780000Y-106045000D02*
X145415000Y-106680000D01*
X160020000Y-103505000D02*
X163195000Y-103505000D01*
X145415000Y-106680000D02*
X156845000Y-106680000D01*
X156845000Y-106680000D02*
X160020000Y-103505000D01*
X163195000Y-103505000D02*
X164545000Y-104855000D01*
X133350000Y-110490000D02*
X128905000Y-110490000D01*
X134620000Y-109220000D02*
X133350000Y-110490000D01*
X134620000Y-105410000D02*
X134620000Y-109220000D01*
X144780000Y-104685000D02*
X144780000Y-105410000D01*
X144780000Y-105410000D02*
X144780000Y-106045000D01*
X144780000Y-105410000D02*
X140970000Y-105410000D01*
X140970000Y-105410000D02*
X139065000Y-103505000D01*
X139065000Y-103505000D02*
X136525000Y-103505000D01*
X136525000Y-103505000D02*
X134620000Y-105410000D01*
X173990000Y-107315000D02*
X173355000Y-107315000D01*
X173355000Y-107315000D02*
X172085000Y-106045000D01*
X164545000Y-104855000D02*
X172085000Y-104855000D01*
X172085000Y-106045000D02*
X172085000Y-104855000D01*
X172085000Y-104855000D02*
X176685000Y-104855000D01*
X135255000Y-100965000D02*
X130810000Y-105410000D01*
X144780000Y-100965000D02*
X135255000Y-100965000D01*
X148110000Y-102155000D02*
X145970000Y-102155000D01*
X130810000Y-105410000D02*
X128905000Y-105410000D01*
X145415000Y-101600000D02*
X144780000Y-100965000D01*
X145970000Y-102155000D02*
X145415000Y-101600000D01*
X154305000Y-101690000D02*
X156120000Y-103505000D01*
X156120000Y-103505000D02*
X158750000Y-103505000D01*
X163830000Y-99695000D02*
X171450000Y-99695000D01*
X171450000Y-99695000D02*
X173910000Y-102155000D01*
X173910000Y-102235000D02*
X173990000Y-102155000D01*
X170815000Y-102235000D02*
X173910000Y-102235000D01*
X173910000Y-102155000D02*
X173990000Y-102155000D01*
X173990000Y-102155000D02*
X176685000Y-102155000D01*
X189865000Y-121285000D02*
X189865000Y-115570000D01*
X183515000Y-127635000D02*
X189865000Y-121285000D01*
X172720000Y-127635000D02*
X183515000Y-127635000D01*
X129540000Y-122555000D02*
X132080000Y-122555000D01*
X132080000Y-122555000D02*
X132715000Y-123190000D01*
X132755000Y-127000000D02*
X133350000Y-127595000D01*
X132715000Y-126960000D02*
X132755000Y-127000000D01*
X132715000Y-123190000D02*
X132715000Y-126960000D01*
X182880000Y-88265000D02*
X187325000Y-92710000D01*
X182880000Y-88265000D02*
X172720000Y-88265000D01*
X187325000Y-106680000D02*
X187325000Y-92710000D01*
M02*
