G04 #@! TF.GenerationSoftware,KiCad,Pcbnew,(5.0.0-rc2-dev-471-ge4feb315d)*
G04 #@! TF.CreationDate,2018-05-05T14:14:47+01:00*
G04 #@! TF.ProjectId,cherry_breakout_2u_double_side,6368657272795F627265616B6F75745F,rev?*
G04 #@! TF.SameCoordinates,Original*
G04 #@! TF.FileFunction,Soldermask,Bot*
G04 #@! TF.FilePolarity,Negative*
%FSLAX46Y46*%
G04 Gerber Fmt 4.6, Leading zero omitted, Abs format (unit mm)*
G04 Created by KiCad (PCBNEW (5.0.0-rc2-dev-471-ge4feb315d)) date Sat May  5 14:14:47 2018*
%MOMM*%
%LPD*%
G01*
G04 APERTURE LIST*
%ADD10C,2.600000*%
%ADD11R,1.900000X1.300000*%
%ADD12R,2.100000X2.100000*%
%ADD13O,2.100000X2.100000*%
%ADD14C,3.450000*%
%ADD15C,4.400000*%
%ADD16C,2.100000*%
G04 APERTURE END LIST*
D10*
X129540000Y-125730000D03*
X129540000Y-90170000D03*
X189230000Y-90170000D03*
D11*
X138585000Y-121205000D03*
X138585000Y-122555000D03*
X138585000Y-123905000D03*
X142085000Y-121205000D03*
X142085000Y-122555000D03*
X142085000Y-123905000D03*
X151610000Y-104855000D03*
X151610000Y-103505000D03*
X151610000Y-102155000D03*
X148110000Y-104855000D03*
X148110000Y-103505000D03*
X148110000Y-102155000D03*
X161135000Y-123905000D03*
X161135000Y-122555000D03*
X161135000Y-121205000D03*
X157635000Y-123905000D03*
X157635000Y-122555000D03*
X157635000Y-121205000D03*
X176685000Y-121205000D03*
X176685000Y-122555000D03*
X176685000Y-123905000D03*
X180185000Y-121205000D03*
X180185000Y-122555000D03*
X180185000Y-123905000D03*
X176685000Y-102155000D03*
X176685000Y-103505000D03*
X176685000Y-104855000D03*
X180185000Y-102155000D03*
X180185000Y-103505000D03*
X180185000Y-104855000D03*
D12*
X128905000Y-100330000D03*
D13*
X128905000Y-102870000D03*
X128905000Y-105410000D03*
X128905000Y-107950000D03*
X128905000Y-110490000D03*
X128905000Y-113030000D03*
X128905000Y-115570000D03*
X189865000Y-115570000D03*
X189865000Y-113030000D03*
X189865000Y-110490000D03*
X189865000Y-107950000D03*
X189865000Y-105410000D03*
X189865000Y-102870000D03*
D12*
X189865000Y-100330000D03*
D14*
X161760000Y-91425000D03*
X137960000Y-91425000D03*
D15*
X137960000Y-106665000D03*
X161760000Y-106665000D03*
D16*
X154940000Y-98425000D03*
X144780000Y-98425000D03*
D15*
X149860000Y-98425000D03*
D10*
X146050000Y-95885000D03*
X152400000Y-93345000D03*
D15*
X140335000Y-117475000D03*
D10*
X136525000Y-114935000D03*
X142875000Y-112395000D03*
X137795000Y-112395000D03*
X144145000Y-114935000D03*
D15*
X140335000Y-117475000D03*
D10*
X147320000Y-93345000D03*
X153670000Y-95885000D03*
D15*
X149860000Y-98425000D03*
D16*
X154940000Y-98425000D03*
X144780000Y-98425000D03*
D15*
X137960000Y-106665000D03*
X161760000Y-106665000D03*
D14*
X161760000Y-91425000D03*
X137960000Y-91425000D03*
D15*
X159385000Y-117475000D03*
D10*
X163195000Y-114935000D03*
X156845000Y-112395000D03*
X161925000Y-112395000D03*
X155575000Y-114935000D03*
D15*
X159385000Y-117475000D03*
X178435000Y-98425000D03*
D10*
X174625000Y-95885000D03*
X180975000Y-93345000D03*
D15*
X178435000Y-117475000D03*
D10*
X174625000Y-114935000D03*
X180975000Y-112395000D03*
X175895000Y-112395000D03*
X182245000Y-114935000D03*
D15*
X178435000Y-117475000D03*
D10*
X175895000Y-93345000D03*
X182245000Y-95885000D03*
D15*
X178435000Y-98425000D03*
D10*
X189230000Y-125730000D03*
M02*
