G04 #@! TF.GenerationSoftware,KiCad,Pcbnew,(5.0.0-rc2-dev-471-ge4feb315d)*
G04 #@! TF.CreationDate,2018-05-05T14:14:47+01:00*
G04 #@! TF.ProjectId,cherry_breakout_2u_double_side,6368657272795F627265616B6F75745F,rev?*
G04 #@! TF.SameCoordinates,Original*
G04 #@! TF.FileFunction,Legend,Top*
G04 #@! TF.FilePolarity,Positive*
%FSLAX46Y46*%
G04 Gerber Fmt 4.6, Leading zero omitted, Abs format (unit mm)*
G04 Created by KiCad (PCBNEW (5.0.0-rc2-dev-471-ge4feb315d)) date Sat May  5 14:14:47 2018*
%MOMM*%
%LPD*%
G01*
G04 APERTURE LIST*
%ADD10C,0.300000*%
%ADD11C,0.150000*%
%ADD12C,0.120000*%
G04 APERTURE END LIST*
D10*
X188265714Y-122598571D02*
X187551428Y-122598571D01*
X187551428Y-121098571D01*
X188694285Y-121241428D02*
X188765714Y-121170000D01*
X188908571Y-121098571D01*
X189265714Y-121098571D01*
X189408571Y-121170000D01*
X189480000Y-121241428D01*
X189551428Y-121384285D01*
X189551428Y-121527142D01*
X189480000Y-121741428D01*
X188622857Y-122598571D01*
X189551428Y-122598571D01*
X190051428Y-121098571D02*
X190980000Y-121098571D01*
X190480000Y-121670000D01*
X190694285Y-121670000D01*
X190837142Y-121741428D01*
X190908571Y-121812857D01*
X190980000Y-121955714D01*
X190980000Y-122312857D01*
X190908571Y-122455714D01*
X190837142Y-122527142D01*
X190694285Y-122598571D01*
X190265714Y-122598571D01*
X190122857Y-122527142D01*
X190051428Y-122455714D01*
X188265714Y-120693571D02*
X187551428Y-120693571D01*
X187551428Y-119193571D01*
X188694285Y-119336428D02*
X188765714Y-119265000D01*
X188908571Y-119193571D01*
X189265714Y-119193571D01*
X189408571Y-119265000D01*
X189480000Y-119336428D01*
X189551428Y-119479285D01*
X189551428Y-119622142D01*
X189480000Y-119836428D01*
X188622857Y-120693571D01*
X189551428Y-120693571D01*
X190837142Y-119693571D02*
X190837142Y-120693571D01*
X190480000Y-119122142D02*
X190122857Y-120193571D01*
X191051428Y-120193571D01*
X189615000Y-118788571D02*
X189115000Y-118074285D01*
X188757857Y-118788571D02*
X188757857Y-117288571D01*
X189329285Y-117288571D01*
X189472142Y-117360000D01*
X189543571Y-117431428D01*
X189615000Y-117574285D01*
X189615000Y-117788571D01*
X189543571Y-117931428D01*
X189472142Y-118002857D01*
X189329285Y-118074285D01*
X188757857Y-118074285D01*
X190186428Y-117431428D02*
X190257857Y-117360000D01*
X190400714Y-117288571D01*
X190757857Y-117288571D01*
X190900714Y-117360000D01*
X190972142Y-117431428D01*
X191043571Y-117574285D01*
X191043571Y-117717142D01*
X190972142Y-117931428D01*
X190115000Y-118788571D01*
X191043571Y-118788571D01*
X189615000Y-98468571D02*
X189115000Y-97754285D01*
X188757857Y-98468571D02*
X188757857Y-96968571D01*
X189329285Y-96968571D01*
X189472142Y-97040000D01*
X189543571Y-97111428D01*
X189615000Y-97254285D01*
X189615000Y-97468571D01*
X189543571Y-97611428D01*
X189472142Y-97682857D01*
X189329285Y-97754285D01*
X188757857Y-97754285D01*
X191043571Y-98468571D02*
X190186428Y-98468571D01*
X190615000Y-98468571D02*
X190615000Y-96968571D01*
X190472142Y-97182857D01*
X190329285Y-97325714D01*
X190186428Y-97397142D01*
X189615000Y-96420714D02*
X189543571Y-96492142D01*
X189329285Y-96563571D01*
X189186428Y-96563571D01*
X188972142Y-96492142D01*
X188829285Y-96349285D01*
X188757857Y-96206428D01*
X188686428Y-95920714D01*
X188686428Y-95706428D01*
X188757857Y-95420714D01*
X188829285Y-95277857D01*
X188972142Y-95135000D01*
X189186428Y-95063571D01*
X189329285Y-95063571D01*
X189543571Y-95135000D01*
X189615000Y-95206428D01*
X190115000Y-95063571D02*
X191043571Y-95063571D01*
X190543571Y-95635000D01*
X190757857Y-95635000D01*
X190900714Y-95706428D01*
X190972142Y-95777857D01*
X191043571Y-95920714D01*
X191043571Y-96277857D01*
X190972142Y-96420714D01*
X190900714Y-96492142D01*
X190757857Y-96563571D01*
X190329285Y-96563571D01*
X190186428Y-96492142D01*
X190115000Y-96420714D01*
X189615000Y-94515714D02*
X189543571Y-94587142D01*
X189329285Y-94658571D01*
X189186428Y-94658571D01*
X188972142Y-94587142D01*
X188829285Y-94444285D01*
X188757857Y-94301428D01*
X188686428Y-94015714D01*
X188686428Y-93801428D01*
X188757857Y-93515714D01*
X188829285Y-93372857D01*
X188972142Y-93230000D01*
X189186428Y-93158571D01*
X189329285Y-93158571D01*
X189543571Y-93230000D01*
X189615000Y-93301428D01*
X190186428Y-93301428D02*
X190257857Y-93230000D01*
X190400714Y-93158571D01*
X190757857Y-93158571D01*
X190900714Y-93230000D01*
X190972142Y-93301428D01*
X191043571Y-93444285D01*
X191043571Y-93587142D01*
X190972142Y-93801428D01*
X190115000Y-94658571D01*
X191043571Y-94658571D01*
X187075000Y-92610714D02*
X187003571Y-92682142D01*
X186789285Y-92753571D01*
X186646428Y-92753571D01*
X186432142Y-92682142D01*
X186289285Y-92539285D01*
X186217857Y-92396428D01*
X186146428Y-92110714D01*
X186146428Y-91896428D01*
X186217857Y-91610714D01*
X186289285Y-91467857D01*
X186432142Y-91325000D01*
X186646428Y-91253571D01*
X186789285Y-91253571D01*
X187003571Y-91325000D01*
X187075000Y-91396428D01*
X188503571Y-92753571D02*
X187646428Y-92753571D01*
X188075000Y-92753571D02*
X188075000Y-91253571D01*
X187932142Y-91467857D01*
X187789285Y-91610714D01*
X187646428Y-91682142D01*
X128540000Y-122598571D02*
X127825714Y-122598571D01*
X127825714Y-121098571D01*
X129897142Y-122455714D02*
X129825714Y-122527142D01*
X129611428Y-122598571D01*
X129468571Y-122598571D01*
X129254285Y-122527142D01*
X129111428Y-122384285D01*
X129040000Y-122241428D01*
X128968571Y-121955714D01*
X128968571Y-121741428D01*
X129040000Y-121455714D01*
X129111428Y-121312857D01*
X129254285Y-121170000D01*
X129468571Y-121098571D01*
X129611428Y-121098571D01*
X129825714Y-121170000D01*
X129897142Y-121241428D01*
X130468571Y-121241428D02*
X130540000Y-121170000D01*
X130682857Y-121098571D01*
X131040000Y-121098571D01*
X131182857Y-121170000D01*
X131254285Y-121241428D01*
X131325714Y-121384285D01*
X131325714Y-121527142D01*
X131254285Y-121741428D01*
X130397142Y-122598571D01*
X131325714Y-122598571D01*
X128575714Y-120693571D02*
X127861428Y-120693571D01*
X127861428Y-119193571D01*
X129004285Y-119336428D02*
X129075714Y-119265000D01*
X129218571Y-119193571D01*
X129575714Y-119193571D01*
X129718571Y-119265000D01*
X129790000Y-119336428D01*
X129861428Y-119479285D01*
X129861428Y-119622142D01*
X129790000Y-119836428D01*
X128932857Y-120693571D01*
X129861428Y-120693571D01*
X130432857Y-119336428D02*
X130504285Y-119265000D01*
X130647142Y-119193571D01*
X131004285Y-119193571D01*
X131147142Y-119265000D01*
X131218571Y-119336428D01*
X131290000Y-119479285D01*
X131290000Y-119622142D01*
X131218571Y-119836428D01*
X130361428Y-120693571D01*
X131290000Y-120693571D01*
X128575714Y-118788571D02*
X127861428Y-118788571D01*
X127861428Y-117288571D01*
X129861428Y-118788571D02*
X129004285Y-118788571D01*
X129432857Y-118788571D02*
X129432857Y-117288571D01*
X129290000Y-117502857D01*
X129147142Y-117645714D01*
X129004285Y-117717142D01*
X130432857Y-117431428D02*
X130504285Y-117360000D01*
X130647142Y-117288571D01*
X131004285Y-117288571D01*
X131147142Y-117360000D01*
X131218571Y-117431428D01*
X131290000Y-117574285D01*
X131290000Y-117717142D01*
X131218571Y-117931428D01*
X130361428Y-118788571D01*
X131290000Y-118788571D01*
X128575714Y-98468571D02*
X127861428Y-98468571D01*
X127861428Y-96968571D01*
X129861428Y-98468571D02*
X129004285Y-98468571D01*
X129432857Y-98468571D02*
X129432857Y-96968571D01*
X129290000Y-97182857D01*
X129147142Y-97325714D01*
X129004285Y-97397142D01*
X130361428Y-96968571D02*
X131290000Y-96968571D01*
X130790000Y-97540000D01*
X131004285Y-97540000D01*
X131147142Y-97611428D01*
X131218571Y-97682857D01*
X131290000Y-97825714D01*
X131290000Y-98182857D01*
X131218571Y-98325714D01*
X131147142Y-98397142D01*
X131004285Y-98468571D01*
X130575714Y-98468571D01*
X130432857Y-98397142D01*
X130361428Y-98325714D01*
X128575714Y-96563571D02*
X127861428Y-96563571D01*
X127861428Y-95063571D01*
X129861428Y-96563571D02*
X129004285Y-96563571D01*
X129432857Y-96563571D02*
X129432857Y-95063571D01*
X129290000Y-95277857D01*
X129147142Y-95420714D01*
X129004285Y-95492142D01*
X131147142Y-95563571D02*
X131147142Y-96563571D01*
X130790000Y-94992142D02*
X130432857Y-96063571D01*
X131361428Y-96063571D01*
X128540000Y-94658571D02*
X127825714Y-94658571D01*
X127825714Y-93158571D01*
X129897142Y-94515714D02*
X129825714Y-94587142D01*
X129611428Y-94658571D01*
X129468571Y-94658571D01*
X129254285Y-94587142D01*
X129111428Y-94444285D01*
X129040000Y-94301428D01*
X128968571Y-94015714D01*
X128968571Y-93801428D01*
X129040000Y-93515714D01*
X129111428Y-93372857D01*
X129254285Y-93230000D01*
X129468571Y-93158571D01*
X129611428Y-93158571D01*
X129825714Y-93230000D01*
X129897142Y-93301428D01*
X131325714Y-94658571D02*
X130468571Y-94658571D01*
X130897142Y-94658571D02*
X130897142Y-93158571D01*
X130754285Y-93372857D01*
X130611428Y-93515714D01*
X130468571Y-93587142D01*
X132350000Y-92753571D02*
X131635714Y-92753571D01*
X131635714Y-91253571D01*
X133707142Y-92610714D02*
X133635714Y-92682142D01*
X133421428Y-92753571D01*
X133278571Y-92753571D01*
X133064285Y-92682142D01*
X132921428Y-92539285D01*
X132850000Y-92396428D01*
X132778571Y-92110714D01*
X132778571Y-91896428D01*
X132850000Y-91610714D01*
X132921428Y-91467857D01*
X133064285Y-91325000D01*
X133278571Y-91253571D01*
X133421428Y-91253571D01*
X133635714Y-91325000D01*
X133707142Y-91396428D01*
X134207142Y-91253571D02*
X135135714Y-91253571D01*
X134635714Y-91825000D01*
X134850000Y-91825000D01*
X134992857Y-91896428D01*
X135064285Y-91967857D01*
X135135714Y-92110714D01*
X135135714Y-92467857D01*
X135064285Y-92610714D01*
X134992857Y-92682142D01*
X134850000Y-92753571D01*
X134421428Y-92753571D01*
X134278571Y-92682142D01*
X134207142Y-92610714D01*
D11*
G36*
X150060000Y-102805000D02*
X150060000Y-104205000D01*
X149960000Y-104205000D01*
X149860000Y-104205000D01*
X149860000Y-103805000D01*
X149660000Y-103805000D01*
X149560000Y-103805000D01*
X149560000Y-103205000D01*
X149860000Y-103205000D01*
X149860000Y-102805000D01*
X150060000Y-102805000D01*
G37*
X150060000Y-102805000D02*
X150060000Y-104205000D01*
X149960000Y-104205000D01*
X149860000Y-104205000D01*
X149860000Y-103805000D01*
X149660000Y-103805000D01*
X149560000Y-103805000D01*
X149560000Y-103205000D01*
X149860000Y-103205000D01*
X149860000Y-102805000D01*
X150060000Y-102805000D01*
G36*
X140535000Y-121855000D02*
X140535000Y-123255000D01*
X140435000Y-123255000D01*
X140335000Y-123255000D01*
X140335000Y-122855000D01*
X140135000Y-122855000D01*
X140035000Y-122855000D01*
X140035000Y-122255000D01*
X140335000Y-122255000D01*
X140335000Y-121855000D01*
X140535000Y-121855000D01*
G37*
X140535000Y-121855000D02*
X140535000Y-123255000D01*
X140435000Y-123255000D01*
X140335000Y-123255000D01*
X140335000Y-122855000D01*
X140135000Y-122855000D01*
X140035000Y-122855000D01*
X140035000Y-122255000D01*
X140335000Y-122255000D01*
X140335000Y-121855000D01*
X140535000Y-121855000D01*
G36*
X159585000Y-121855000D02*
X159585000Y-123255000D01*
X159485000Y-123255000D01*
X159385000Y-123255000D01*
X159385000Y-122855000D01*
X159185000Y-122855000D01*
X159085000Y-122855000D01*
X159085000Y-122255000D01*
X159385000Y-122255000D01*
X159385000Y-121855000D01*
X159585000Y-121855000D01*
G37*
X159585000Y-121855000D02*
X159585000Y-123255000D01*
X159485000Y-123255000D01*
X159385000Y-123255000D01*
X159385000Y-122855000D01*
X159185000Y-122855000D01*
X159085000Y-122855000D01*
X159085000Y-122255000D01*
X159385000Y-122255000D01*
X159385000Y-121855000D01*
X159585000Y-121855000D01*
G36*
X178635000Y-102805000D02*
X178635000Y-104205000D01*
X178535000Y-104205000D01*
X178435000Y-104205000D01*
X178435000Y-103805000D01*
X178235000Y-103805000D01*
X178135000Y-103805000D01*
X178135000Y-103205000D01*
X178435000Y-103205000D01*
X178435000Y-102805000D01*
X178635000Y-102805000D01*
G37*
X178635000Y-102805000D02*
X178635000Y-104205000D01*
X178535000Y-104205000D01*
X178435000Y-104205000D01*
X178435000Y-103805000D01*
X178235000Y-103805000D01*
X178135000Y-103805000D01*
X178135000Y-103205000D01*
X178435000Y-103205000D01*
X178435000Y-102805000D01*
X178635000Y-102805000D01*
G36*
X178635000Y-121855000D02*
X178635000Y-123255000D01*
X178535000Y-123255000D01*
X178435000Y-123255000D01*
X178435000Y-122855000D01*
X178235000Y-122855000D01*
X178135000Y-122855000D01*
X178135000Y-122255000D01*
X178435000Y-122255000D01*
X178435000Y-121855000D01*
X178635000Y-121855000D01*
G37*
X178635000Y-121855000D02*
X178635000Y-123255000D01*
X178535000Y-123255000D01*
X178435000Y-123255000D01*
X178435000Y-122855000D01*
X178235000Y-122855000D01*
X178135000Y-122855000D01*
X178135000Y-122255000D01*
X178435000Y-122255000D01*
X178435000Y-121855000D01*
X178635000Y-121855000D01*
D12*
X127575000Y-116900000D02*
X130235000Y-116900000D01*
X127575000Y-101600000D02*
X127575000Y-116900000D01*
X130235000Y-101600000D02*
X130235000Y-116900000D01*
X127575000Y-101600000D02*
X130235000Y-101600000D01*
X127575000Y-100330000D02*
X127575000Y-99000000D01*
X127575000Y-99000000D02*
X128905000Y-99000000D01*
X188535000Y-99000000D02*
X189865000Y-99000000D01*
X188535000Y-100330000D02*
X188535000Y-99000000D01*
X188535000Y-101600000D02*
X191195000Y-101600000D01*
X191195000Y-101600000D02*
X191195000Y-116900000D01*
X188535000Y-101600000D02*
X188535000Y-116900000D01*
X188535000Y-116900000D02*
X191195000Y-116900000D01*
X142875000Y-105410000D02*
X142875000Y-91440000D01*
X156845000Y-105410000D02*
X142875000Y-105410000D01*
X156845000Y-91440000D02*
X156845000Y-105410000D01*
X142875000Y-91440000D02*
X156845000Y-91440000D01*
X133350000Y-124460000D02*
X133350000Y-110490000D01*
X147320000Y-124460000D02*
X133350000Y-124460000D01*
X147320000Y-110490000D02*
X147320000Y-124460000D01*
X133350000Y-110490000D02*
X147320000Y-110490000D01*
X152400000Y-110490000D02*
X166370000Y-110490000D01*
X166370000Y-110490000D02*
X166370000Y-124460000D01*
X166370000Y-124460000D02*
X152400000Y-124460000D01*
X152400000Y-124460000D02*
X152400000Y-110490000D01*
X171450000Y-105410000D02*
X171450000Y-91440000D01*
X185420000Y-105410000D02*
X171450000Y-105410000D01*
X185420000Y-91440000D02*
X185420000Y-105410000D01*
X171450000Y-91440000D02*
X185420000Y-91440000D01*
X171450000Y-124460000D02*
X171450000Y-110490000D01*
X185420000Y-124460000D02*
X171450000Y-124460000D01*
X185420000Y-110490000D02*
X185420000Y-124460000D01*
X171450000Y-110490000D02*
X185420000Y-110490000D01*
X147250000Y-90535000D02*
X143350000Y-90535000D01*
X147250000Y-88535000D02*
X143350000Y-88535000D01*
X147250000Y-90535000D02*
X147250000Y-88535000D01*
X133715000Y-100620000D02*
X131715000Y-100620000D01*
X131715000Y-100620000D02*
X131715000Y-104520000D01*
X133715000Y-100620000D02*
X133715000Y-104520000D01*
X150860000Y-112050000D02*
X150860000Y-115950000D01*
X148860000Y-112050000D02*
X148860000Y-115950000D01*
X150860000Y-112050000D02*
X148860000Y-112050000D01*
X169910000Y-112050000D02*
X167910000Y-112050000D01*
X167910000Y-112050000D02*
X167910000Y-115950000D01*
X169910000Y-112050000D02*
X169910000Y-115950000D01*
X169910000Y-90460000D02*
X169910000Y-94360000D01*
X167910000Y-90460000D02*
X167910000Y-94360000D01*
X169910000Y-90460000D02*
X167910000Y-90460000D01*
D11*
X149121904Y-102052380D02*
X149121904Y-101052380D01*
X149360000Y-101052380D01*
X149502857Y-101100000D01*
X149598095Y-101195238D01*
X149645714Y-101290476D01*
X149693333Y-101480952D01*
X149693333Y-101623809D01*
X149645714Y-101814285D01*
X149598095Y-101909523D01*
X149502857Y-102004761D01*
X149360000Y-102052380D01*
X149121904Y-102052380D01*
X150645714Y-102052380D02*
X150074285Y-102052380D01*
X150360000Y-102052380D02*
X150360000Y-101052380D01*
X150264761Y-101195238D01*
X150169523Y-101290476D01*
X150074285Y-101338095D01*
X139696904Y-120707380D02*
X139696904Y-119707380D01*
X139935000Y-119707380D01*
X140077857Y-119755000D01*
X140173095Y-119850238D01*
X140220714Y-119945476D01*
X140268333Y-120135952D01*
X140268333Y-120278809D01*
X140220714Y-120469285D01*
X140173095Y-120564523D01*
X140077857Y-120659761D01*
X139935000Y-120707380D01*
X139696904Y-120707380D01*
X140649285Y-119802619D02*
X140696904Y-119755000D01*
X140792142Y-119707380D01*
X141030238Y-119707380D01*
X141125476Y-119755000D01*
X141173095Y-119802619D01*
X141220714Y-119897857D01*
X141220714Y-119993095D01*
X141173095Y-120135952D01*
X140601666Y-120707380D01*
X141220714Y-120707380D01*
X158746904Y-120707380D02*
X158746904Y-119707380D01*
X158985000Y-119707380D01*
X159127857Y-119755000D01*
X159223095Y-119850238D01*
X159270714Y-119945476D01*
X159318333Y-120135952D01*
X159318333Y-120278809D01*
X159270714Y-120469285D01*
X159223095Y-120564523D01*
X159127857Y-120659761D01*
X158985000Y-120707380D01*
X158746904Y-120707380D01*
X160223095Y-119707380D02*
X159746904Y-119707380D01*
X159699285Y-120183571D01*
X159746904Y-120135952D01*
X159842142Y-120088333D01*
X160080238Y-120088333D01*
X160175476Y-120135952D01*
X160223095Y-120183571D01*
X160270714Y-120278809D01*
X160270714Y-120516904D01*
X160223095Y-120612142D01*
X160175476Y-120659761D01*
X160080238Y-120707380D01*
X159842142Y-120707380D01*
X159746904Y-120659761D01*
X159699285Y-120612142D01*
X177696904Y-102052380D02*
X177696904Y-101052380D01*
X177935000Y-101052380D01*
X178077857Y-101100000D01*
X178173095Y-101195238D01*
X178220714Y-101290476D01*
X178268333Y-101480952D01*
X178268333Y-101623809D01*
X178220714Y-101814285D01*
X178173095Y-101909523D01*
X178077857Y-102004761D01*
X177935000Y-102052380D01*
X177696904Y-102052380D01*
X178601666Y-101052380D02*
X179268333Y-101052380D01*
X178839761Y-102052380D01*
X177796904Y-120707380D02*
X177796904Y-119707380D01*
X178035000Y-119707380D01*
X178177857Y-119755000D01*
X178273095Y-119850238D01*
X178320714Y-119945476D01*
X178368333Y-120135952D01*
X178368333Y-120278809D01*
X178320714Y-120469285D01*
X178273095Y-120564523D01*
X178177857Y-120659761D01*
X178035000Y-120707380D01*
X177796904Y-120707380D01*
X178939761Y-120135952D02*
X178844523Y-120088333D01*
X178796904Y-120040714D01*
X178749285Y-119945476D01*
X178749285Y-119897857D01*
X178796904Y-119802619D01*
X178844523Y-119755000D01*
X178939761Y-119707380D01*
X179130238Y-119707380D01*
X179225476Y-119755000D01*
X179273095Y-119802619D01*
X179320714Y-119897857D01*
X179320714Y-119945476D01*
X179273095Y-120040714D01*
X179225476Y-120088333D01*
X179130238Y-120135952D01*
X178939761Y-120135952D01*
X178844523Y-120183571D01*
X178796904Y-120231190D01*
X178749285Y-120326428D01*
X178749285Y-120516904D01*
X178796904Y-120612142D01*
X178844523Y-120659761D01*
X178939761Y-120707380D01*
X179130238Y-120707380D01*
X179225476Y-120659761D01*
X179273095Y-120612142D01*
X179320714Y-120516904D01*
X179320714Y-120326428D01*
X179273095Y-120231190D01*
X179225476Y-120183571D01*
X179130238Y-120135952D01*
X148526666Y-90955761D02*
X148669523Y-91003380D01*
X148907619Y-91003380D01*
X149002857Y-90955761D01*
X149050476Y-90908142D01*
X149098095Y-90812904D01*
X149098095Y-90717666D01*
X149050476Y-90622428D01*
X149002857Y-90574809D01*
X148907619Y-90527190D01*
X148717142Y-90479571D01*
X148621904Y-90431952D01*
X148574285Y-90384333D01*
X148526666Y-90289095D01*
X148526666Y-90193857D01*
X148574285Y-90098619D01*
X148621904Y-90051000D01*
X148717142Y-90003380D01*
X148955238Y-90003380D01*
X149098095Y-90051000D01*
X149431428Y-90003380D02*
X149669523Y-91003380D01*
X149860000Y-90289095D01*
X150050476Y-91003380D01*
X150288571Y-90003380D01*
X151193333Y-91003380D02*
X150621904Y-91003380D01*
X150907619Y-91003380D02*
X150907619Y-90003380D01*
X150812380Y-90146238D01*
X150717142Y-90241476D01*
X150621904Y-90289095D01*
X139001666Y-110005761D02*
X139144523Y-110053380D01*
X139382619Y-110053380D01*
X139477857Y-110005761D01*
X139525476Y-109958142D01*
X139573095Y-109862904D01*
X139573095Y-109767666D01*
X139525476Y-109672428D01*
X139477857Y-109624809D01*
X139382619Y-109577190D01*
X139192142Y-109529571D01*
X139096904Y-109481952D01*
X139049285Y-109434333D01*
X139001666Y-109339095D01*
X139001666Y-109243857D01*
X139049285Y-109148619D01*
X139096904Y-109101000D01*
X139192142Y-109053380D01*
X139430238Y-109053380D01*
X139573095Y-109101000D01*
X139906428Y-109053380D02*
X140144523Y-110053380D01*
X140335000Y-109339095D01*
X140525476Y-110053380D01*
X140763571Y-109053380D01*
X141096904Y-109148619D02*
X141144523Y-109101000D01*
X141239761Y-109053380D01*
X141477857Y-109053380D01*
X141573095Y-109101000D01*
X141620714Y-109148619D01*
X141668333Y-109243857D01*
X141668333Y-109339095D01*
X141620714Y-109481952D01*
X141049285Y-110053380D01*
X141668333Y-110053380D01*
X158051666Y-110005761D02*
X158194523Y-110053380D01*
X158432619Y-110053380D01*
X158527857Y-110005761D01*
X158575476Y-109958142D01*
X158623095Y-109862904D01*
X158623095Y-109767666D01*
X158575476Y-109672428D01*
X158527857Y-109624809D01*
X158432619Y-109577190D01*
X158242142Y-109529571D01*
X158146904Y-109481952D01*
X158099285Y-109434333D01*
X158051666Y-109339095D01*
X158051666Y-109243857D01*
X158099285Y-109148619D01*
X158146904Y-109101000D01*
X158242142Y-109053380D01*
X158480238Y-109053380D01*
X158623095Y-109101000D01*
X158956428Y-109053380D02*
X159194523Y-110053380D01*
X159385000Y-109339095D01*
X159575476Y-110053380D01*
X159813571Y-109053380D01*
X160623095Y-109053380D02*
X160432619Y-109053380D01*
X160337380Y-109101000D01*
X160289761Y-109148619D01*
X160194523Y-109291476D01*
X160146904Y-109481952D01*
X160146904Y-109862904D01*
X160194523Y-109958142D01*
X160242142Y-110005761D01*
X160337380Y-110053380D01*
X160527857Y-110053380D01*
X160623095Y-110005761D01*
X160670714Y-109958142D01*
X160718333Y-109862904D01*
X160718333Y-109624809D01*
X160670714Y-109529571D01*
X160623095Y-109481952D01*
X160527857Y-109434333D01*
X160337380Y-109434333D01*
X160242142Y-109481952D01*
X160194523Y-109529571D01*
X160146904Y-109624809D01*
X177101666Y-90955761D02*
X177244523Y-91003380D01*
X177482619Y-91003380D01*
X177577857Y-90955761D01*
X177625476Y-90908142D01*
X177673095Y-90812904D01*
X177673095Y-90717666D01*
X177625476Y-90622428D01*
X177577857Y-90574809D01*
X177482619Y-90527190D01*
X177292142Y-90479571D01*
X177196904Y-90431952D01*
X177149285Y-90384333D01*
X177101666Y-90289095D01*
X177101666Y-90193857D01*
X177149285Y-90098619D01*
X177196904Y-90051000D01*
X177292142Y-90003380D01*
X177530238Y-90003380D01*
X177673095Y-90051000D01*
X178006428Y-90003380D02*
X178244523Y-91003380D01*
X178435000Y-90289095D01*
X178625476Y-91003380D01*
X178863571Y-90003380D01*
X179149285Y-90003380D02*
X179815952Y-90003380D01*
X179387380Y-91003380D01*
X177101666Y-110005761D02*
X177244523Y-110053380D01*
X177482619Y-110053380D01*
X177577857Y-110005761D01*
X177625476Y-109958142D01*
X177673095Y-109862904D01*
X177673095Y-109767666D01*
X177625476Y-109672428D01*
X177577857Y-109624809D01*
X177482619Y-109577190D01*
X177292142Y-109529571D01*
X177196904Y-109481952D01*
X177149285Y-109434333D01*
X177101666Y-109339095D01*
X177101666Y-109243857D01*
X177149285Y-109148619D01*
X177196904Y-109101000D01*
X177292142Y-109053380D01*
X177530238Y-109053380D01*
X177673095Y-109101000D01*
X178006428Y-109053380D02*
X178244523Y-110053380D01*
X178435000Y-109339095D01*
X178625476Y-110053380D01*
X178863571Y-109053380D01*
X179387380Y-109481952D02*
X179292142Y-109434333D01*
X179244523Y-109386714D01*
X179196904Y-109291476D01*
X179196904Y-109243857D01*
X179244523Y-109148619D01*
X179292142Y-109101000D01*
X179387380Y-109053380D01*
X179577857Y-109053380D01*
X179673095Y-109101000D01*
X179720714Y-109148619D01*
X179768333Y-109243857D01*
X179768333Y-109291476D01*
X179720714Y-109386714D01*
X179673095Y-109434333D01*
X179577857Y-109481952D01*
X179387380Y-109481952D01*
X179292142Y-109529571D01*
X179244523Y-109577190D01*
X179196904Y-109672428D01*
X179196904Y-109862904D01*
X179244523Y-109958142D01*
X179292142Y-110005761D01*
X179387380Y-110053380D01*
X179577857Y-110053380D01*
X179673095Y-110005761D01*
X179720714Y-109958142D01*
X179768333Y-109862904D01*
X179768333Y-109672428D01*
X179720714Y-109577190D01*
X179673095Y-109529571D01*
X179577857Y-109481952D01*
X143785714Y-91987380D02*
X143785714Y-90987380D01*
X144023809Y-90987380D01*
X144166666Y-91035000D01*
X144261904Y-91130238D01*
X144309523Y-91225476D01*
X144357142Y-91415952D01*
X144357142Y-91558809D01*
X144309523Y-91749285D01*
X144261904Y-91844523D01*
X144166666Y-91939761D01*
X144023809Y-91987380D01*
X143785714Y-91987380D01*
X145309523Y-91987380D02*
X144738095Y-91987380D01*
X145023809Y-91987380D02*
X145023809Y-90987380D01*
X144928571Y-91130238D01*
X144833333Y-91225476D01*
X144738095Y-91273095D01*
X146261904Y-91987380D02*
X145690476Y-91987380D01*
X145976190Y-91987380D02*
X145976190Y-90987380D01*
X145880952Y-91130238D01*
X145785714Y-91225476D01*
X145690476Y-91273095D01*
X135072380Y-104084285D02*
X134072380Y-104084285D01*
X134072380Y-103846190D01*
X134120000Y-103703333D01*
X134215238Y-103608095D01*
X134310476Y-103560476D01*
X134500952Y-103512857D01*
X134643809Y-103512857D01*
X134834285Y-103560476D01*
X134929523Y-103608095D01*
X135024761Y-103703333D01*
X135072380Y-103846190D01*
X135072380Y-104084285D01*
X135072380Y-102560476D02*
X135072380Y-103131904D01*
X135072380Y-102846190D02*
X134072380Y-102846190D01*
X134215238Y-102941428D01*
X134310476Y-103036666D01*
X134358095Y-103131904D01*
X134167619Y-102179523D02*
X134120000Y-102131904D01*
X134072380Y-102036666D01*
X134072380Y-101798571D01*
X134120000Y-101703333D01*
X134167619Y-101655714D01*
X134262857Y-101608095D01*
X134358095Y-101608095D01*
X134500952Y-101655714D01*
X135072380Y-102227142D01*
X135072380Y-101608095D01*
X148645714Y-118562380D02*
X148645714Y-117562380D01*
X148883809Y-117562380D01*
X149026666Y-117610000D01*
X149121904Y-117705238D01*
X149169523Y-117800476D01*
X149217142Y-117990952D01*
X149217142Y-118133809D01*
X149169523Y-118324285D01*
X149121904Y-118419523D01*
X149026666Y-118514761D01*
X148883809Y-118562380D01*
X148645714Y-118562380D01*
X150169523Y-118562380D02*
X149598095Y-118562380D01*
X149883809Y-118562380D02*
X149883809Y-117562380D01*
X149788571Y-117705238D01*
X149693333Y-117800476D01*
X149598095Y-117848095D01*
X150502857Y-117562380D02*
X151121904Y-117562380D01*
X150788571Y-117943333D01*
X150931428Y-117943333D01*
X151026666Y-117990952D01*
X151074285Y-118038571D01*
X151121904Y-118133809D01*
X151121904Y-118371904D01*
X151074285Y-118467142D01*
X151026666Y-118514761D01*
X150931428Y-118562380D01*
X150645714Y-118562380D01*
X150550476Y-118514761D01*
X150502857Y-118467142D01*
X167695714Y-118562380D02*
X167695714Y-117562380D01*
X167933809Y-117562380D01*
X168076666Y-117610000D01*
X168171904Y-117705238D01*
X168219523Y-117800476D01*
X168267142Y-117990952D01*
X168267142Y-118133809D01*
X168219523Y-118324285D01*
X168171904Y-118419523D01*
X168076666Y-118514761D01*
X167933809Y-118562380D01*
X167695714Y-118562380D01*
X169219523Y-118562380D02*
X168648095Y-118562380D01*
X168933809Y-118562380D02*
X168933809Y-117562380D01*
X168838571Y-117705238D01*
X168743333Y-117800476D01*
X168648095Y-117848095D01*
X170076666Y-117895714D02*
X170076666Y-118562380D01*
X169838571Y-117514761D02*
X169600476Y-118229047D01*
X170219523Y-118229047D01*
X167695714Y-96972380D02*
X167695714Y-95972380D01*
X167933809Y-95972380D01*
X168076666Y-96020000D01*
X168171904Y-96115238D01*
X168219523Y-96210476D01*
X168267142Y-96400952D01*
X168267142Y-96543809D01*
X168219523Y-96734285D01*
X168171904Y-96829523D01*
X168076666Y-96924761D01*
X167933809Y-96972380D01*
X167695714Y-96972380D01*
X169219523Y-96972380D02*
X168648095Y-96972380D01*
X168933809Y-96972380D02*
X168933809Y-95972380D01*
X168838571Y-96115238D01*
X168743333Y-96210476D01*
X168648095Y-96258095D01*
X170124285Y-95972380D02*
X169648095Y-95972380D01*
X169600476Y-96448571D01*
X169648095Y-96400952D01*
X169743333Y-96353333D01*
X169981428Y-96353333D01*
X170076666Y-96400952D01*
X170124285Y-96448571D01*
X170171904Y-96543809D01*
X170171904Y-96781904D01*
X170124285Y-96877142D01*
X170076666Y-96924761D01*
X169981428Y-96972380D01*
X169743333Y-96972380D01*
X169648095Y-96924761D01*
X169600476Y-96877142D01*
M02*
