M48
;DRILL file {KiCad (5.0.0-rc2-dev-471-ge4feb315d)} date Sat May  5 14:14:49 2018
;FORMAT={-:-/ absolute / inch / decimal}
FMAT,2
INCH,TZ
T1C0.0157
T2C0.0394
T3C0.0591
T4C0.0669
T5C0.0866
T6C0.1201
T7C0.1575
%
G90
G05
M72
T1
X5.1Y-4.825
X5.25Y-5.0234
X5.275Y-4.9
X5.325Y-4.75
X5.35Y-4.9
X5.6Y-4.275
X5.625Y-4.2
X5.675Y-4.025
X5.7Y-4.1215
X5.7Y-4.75
X5.7Y-4.825
X5.725Y-4.
X5.725Y-4.25
X5.875Y-3.525
X5.9Y-4.35
X6.025Y-4.9
X6.075Y-4.0035
X6.075Y-4.1
X6.075Y-4.75
X6.1Y-4.9
X6.15Y-3.975
X6.15Y-4.025
X6.25Y-4.075
X6.425Y-4.9965
X6.45Y-3.925
X6.5Y-4.825
X6.55Y-3.975
X6.55Y-4.025
X6.55Y-4.975
X6.675Y-4.35
X6.725Y-4.025
X6.775Y-3.5285
X6.775Y-4.9
X6.85Y-4.225
X6.85Y-4.75
X6.85Y-4.9
X7.2Y-4.35
X7.2Y-4.825
X7.275Y-4.425
X7.3Y-4.1
X7.3Y-4.55
T2
X5.075Y-3.95
X5.075Y-4.05
X5.075Y-4.15
X5.075Y-4.25
X5.075Y-4.35
X5.075Y-4.45
X5.075Y-4.55
X7.475Y-3.95
X7.475Y-4.05
X7.475Y-4.15
X7.475Y-4.25
X7.475Y-4.35
X7.475Y-4.45
X7.475Y-4.55
T3
X5.375Y-4.525
X5.625Y-4.425
X5.8Y-3.675
X6.05Y-3.775
X6.875Y-3.775
X7.125Y-3.675
X6.125Y-4.525
X6.375Y-4.425
X6.925Y-3.675
X7.175Y-3.775
X6.875Y-4.525
X7.125Y-4.425
X6.925Y-4.425
X7.175Y-4.525
X6.175Y-4.425
X6.425Y-4.525
X5.75Y-3.775
X6.Y-3.675
X5.425Y-4.425
X5.675Y-4.525
T4
X5.7Y-3.875
X6.1Y-3.875
X5.7Y-3.875
X6.1Y-3.875
T5
X7.45Y-4.95
X7.45Y-3.55
X5.1Y-3.55
X5.1Y-4.95
T6
X5.4315Y-3.5994
X6.3685Y-3.5994
X5.4315Y-3.5994
X6.3685Y-3.5994
T7
X6.275Y-4.625
X5.525Y-4.625
X5.525Y-4.625
X7.025Y-3.875
X7.025Y-4.625
X7.025Y-4.625
X6.275Y-4.625
X5.4315Y-4.1994
X5.9Y-3.875
X6.3685Y-4.1994
X5.4315Y-4.1994
X5.9Y-3.875
X6.3685Y-4.1994
X7.025Y-3.875
T0
M30
