G04 #@! TF.GenerationSoftware,KiCad,Pcbnew,(5.0.0-rc2-dev-471-ge4feb315d)*
G04 #@! TF.CreationDate,2018-05-05T14:20:45+01:00*
G04 #@! TF.ProjectId,panel,70616E656C2E6B696361645F70636200,rev?*
G04 #@! TF.SameCoordinates,Original*
G04 #@! TF.FileFunction,Paste,Top*
G04 #@! TF.FilePolarity,Positive*
%FSLAX46Y46*%
G04 Gerber Fmt 4.6, Leading zero omitted, Abs format (unit mm)*
G04 Created by KiCad (PCBNEW (5.0.0-rc2-dev-471-ge4feb315d)) date Sat May  5 14:20:45 2018*
%MOMM*%
%LPD*%
G01*
G04 APERTURE LIST*
%ADD10C,0.550000*%
%ADD11C,0.100000*%
%ADD12C,0.675000*%
%ADD13R,0.500000X0.850000*%
%ADD14R,1.200000X0.900000*%
%ADD15R,0.900000X1.200000*%
G04 APERTURE END LIST*
D10*
X157547918Y-112521064D03*
D11*
G36*
X156823134Y-112185188D02*
X157212042Y-111796280D01*
X158272702Y-112856940D01*
X157883794Y-113245848D01*
X156823134Y-112185188D01*
X156823134Y-112185188D01*
G37*
D10*
X156982233Y-113086750D03*
D11*
G36*
X156257449Y-112750874D02*
X156646357Y-112361966D01*
X157707017Y-113422626D01*
X157318109Y-113811534D01*
X156257449Y-112750874D01*
X156257449Y-112750874D01*
G37*
D10*
X156416548Y-113652435D03*
D11*
G36*
X155691764Y-113316559D02*
X156080672Y-112927651D01*
X157141332Y-113988311D01*
X156752424Y-114377219D01*
X155691764Y-113316559D01*
X155691764Y-113316559D01*
G37*
D10*
X155850862Y-114218120D03*
D11*
G36*
X155126078Y-113882244D02*
X155514986Y-113493336D01*
X156575646Y-114553996D01*
X156186738Y-114942904D01*
X155126078Y-113882244D01*
X155126078Y-113882244D01*
G37*
D10*
X155285177Y-114783806D03*
D11*
G36*
X154560393Y-114447930D02*
X154949301Y-114059022D01*
X156009961Y-115119682D01*
X155621053Y-115508590D01*
X154560393Y-114447930D01*
X154560393Y-114447930D01*
G37*
D10*
X154719491Y-115349491D03*
D11*
G36*
X153994707Y-115013615D02*
X154383615Y-114624707D01*
X155444275Y-115685367D01*
X155055367Y-116074275D01*
X153994707Y-115013615D01*
X153994707Y-115013615D01*
G37*
D10*
X154153806Y-115915177D03*
D11*
G36*
X153429022Y-115579301D02*
X153817930Y-115190393D01*
X154878590Y-116251053D01*
X154489682Y-116639961D01*
X153429022Y-115579301D01*
X153429022Y-115579301D01*
G37*
D10*
X153588120Y-116480862D03*
D11*
G36*
X152863336Y-116144986D02*
X153252244Y-115756078D01*
X154312904Y-116816738D01*
X153923996Y-117205646D01*
X152863336Y-116144986D01*
X152863336Y-116144986D01*
G37*
D10*
X153022435Y-117046548D03*
D11*
G36*
X152297651Y-116710672D02*
X152686559Y-116321764D01*
X153747219Y-117382424D01*
X153358311Y-117771332D01*
X152297651Y-116710672D01*
X152297651Y-116710672D01*
G37*
D10*
X152456750Y-117612233D03*
D11*
G36*
X151731966Y-117276357D02*
X152120874Y-116887449D01*
X153181534Y-117948109D01*
X152792626Y-118337017D01*
X151731966Y-117276357D01*
X151731966Y-117276357D01*
G37*
D10*
X151891064Y-118177918D03*
D11*
G36*
X151166280Y-117842042D02*
X151555188Y-117453134D01*
X152615848Y-118513794D01*
X152226940Y-118902702D01*
X151166280Y-117842042D01*
X151166280Y-117842042D01*
G37*
D10*
X151891064Y-120582082D03*
D11*
G36*
X151555188Y-121306866D02*
X151166280Y-120917958D01*
X152226940Y-119857298D01*
X152615848Y-120246206D01*
X151555188Y-121306866D01*
X151555188Y-121306866D01*
G37*
D10*
X152456750Y-121147767D03*
D11*
G36*
X152120874Y-121872551D02*
X151731966Y-121483643D01*
X152792626Y-120422983D01*
X153181534Y-120811891D01*
X152120874Y-121872551D01*
X152120874Y-121872551D01*
G37*
D10*
X153022435Y-121713452D03*
D11*
G36*
X152686559Y-122438236D02*
X152297651Y-122049328D01*
X153358311Y-120988668D01*
X153747219Y-121377576D01*
X152686559Y-122438236D01*
X152686559Y-122438236D01*
G37*
D10*
X153588120Y-122279138D03*
D11*
G36*
X153252244Y-123003922D02*
X152863336Y-122615014D01*
X153923996Y-121554354D01*
X154312904Y-121943262D01*
X153252244Y-123003922D01*
X153252244Y-123003922D01*
G37*
D10*
X154153806Y-122844823D03*
D11*
G36*
X153817930Y-123569607D02*
X153429022Y-123180699D01*
X154489682Y-122120039D01*
X154878590Y-122508947D01*
X153817930Y-123569607D01*
X153817930Y-123569607D01*
G37*
D10*
X154719491Y-123410509D03*
D11*
G36*
X154383615Y-124135293D02*
X153994707Y-123746385D01*
X155055367Y-122685725D01*
X155444275Y-123074633D01*
X154383615Y-124135293D01*
X154383615Y-124135293D01*
G37*
D10*
X155285177Y-123976194D03*
D11*
G36*
X154949301Y-124700978D02*
X154560393Y-124312070D01*
X155621053Y-123251410D01*
X156009961Y-123640318D01*
X154949301Y-124700978D01*
X154949301Y-124700978D01*
G37*
D10*
X155850862Y-124541880D03*
D11*
G36*
X155514986Y-125266664D02*
X155126078Y-124877756D01*
X156186738Y-123817096D01*
X156575646Y-124206004D01*
X155514986Y-125266664D01*
X155514986Y-125266664D01*
G37*
D10*
X156416548Y-125107565D03*
D11*
G36*
X156080672Y-125832349D02*
X155691764Y-125443441D01*
X156752424Y-124382781D01*
X157141332Y-124771689D01*
X156080672Y-125832349D01*
X156080672Y-125832349D01*
G37*
D10*
X156982233Y-125673250D03*
D11*
G36*
X156646357Y-126398034D02*
X156257449Y-126009126D01*
X157318109Y-124948466D01*
X157707017Y-125337374D01*
X156646357Y-126398034D01*
X156646357Y-126398034D01*
G37*
D10*
X157547918Y-126238936D03*
D11*
G36*
X157212042Y-126963720D02*
X156823134Y-126574812D01*
X157883794Y-125514152D01*
X158272702Y-125903060D01*
X157212042Y-126963720D01*
X157212042Y-126963720D01*
G37*
D10*
X159952082Y-126238936D03*
D11*
G36*
X159227298Y-125903060D02*
X159616206Y-125514152D01*
X160676866Y-126574812D01*
X160287958Y-126963720D01*
X159227298Y-125903060D01*
X159227298Y-125903060D01*
G37*
D10*
X160517767Y-125673250D03*
D11*
G36*
X159792983Y-125337374D02*
X160181891Y-124948466D01*
X161242551Y-126009126D01*
X160853643Y-126398034D01*
X159792983Y-125337374D01*
X159792983Y-125337374D01*
G37*
D10*
X161083452Y-125107565D03*
D11*
G36*
X160358668Y-124771689D02*
X160747576Y-124382781D01*
X161808236Y-125443441D01*
X161419328Y-125832349D01*
X160358668Y-124771689D01*
X160358668Y-124771689D01*
G37*
D10*
X161649138Y-124541880D03*
D11*
G36*
X160924354Y-124206004D02*
X161313262Y-123817096D01*
X162373922Y-124877756D01*
X161985014Y-125266664D01*
X160924354Y-124206004D01*
X160924354Y-124206004D01*
G37*
D10*
X162214823Y-123976194D03*
D11*
G36*
X161490039Y-123640318D02*
X161878947Y-123251410D01*
X162939607Y-124312070D01*
X162550699Y-124700978D01*
X161490039Y-123640318D01*
X161490039Y-123640318D01*
G37*
D10*
X162780509Y-123410509D03*
D11*
G36*
X162055725Y-123074633D02*
X162444633Y-122685725D01*
X163505293Y-123746385D01*
X163116385Y-124135293D01*
X162055725Y-123074633D01*
X162055725Y-123074633D01*
G37*
D10*
X163346194Y-122844823D03*
D11*
G36*
X162621410Y-122508947D02*
X163010318Y-122120039D01*
X164070978Y-123180699D01*
X163682070Y-123569607D01*
X162621410Y-122508947D01*
X162621410Y-122508947D01*
G37*
D10*
X163911880Y-122279138D03*
D11*
G36*
X163187096Y-121943262D02*
X163576004Y-121554354D01*
X164636664Y-122615014D01*
X164247756Y-123003922D01*
X163187096Y-121943262D01*
X163187096Y-121943262D01*
G37*
D10*
X164477565Y-121713452D03*
D11*
G36*
X163752781Y-121377576D02*
X164141689Y-120988668D01*
X165202349Y-122049328D01*
X164813441Y-122438236D01*
X163752781Y-121377576D01*
X163752781Y-121377576D01*
G37*
D10*
X165043250Y-121147767D03*
D11*
G36*
X164318466Y-120811891D02*
X164707374Y-120422983D01*
X165768034Y-121483643D01*
X165379126Y-121872551D01*
X164318466Y-120811891D01*
X164318466Y-120811891D01*
G37*
D10*
X165608936Y-120582082D03*
D11*
G36*
X164884152Y-120246206D02*
X165273060Y-119857298D01*
X166333720Y-120917958D01*
X165944812Y-121306866D01*
X164884152Y-120246206D01*
X164884152Y-120246206D01*
G37*
D10*
X165608936Y-118177918D03*
D11*
G36*
X165273060Y-118902702D02*
X164884152Y-118513794D01*
X165944812Y-117453134D01*
X166333720Y-117842042D01*
X165273060Y-118902702D01*
X165273060Y-118902702D01*
G37*
D10*
X165043250Y-117612233D03*
D11*
G36*
X164707374Y-118337017D02*
X164318466Y-117948109D01*
X165379126Y-116887449D01*
X165768034Y-117276357D01*
X164707374Y-118337017D01*
X164707374Y-118337017D01*
G37*
D10*
X164477565Y-117046548D03*
D11*
G36*
X164141689Y-117771332D02*
X163752781Y-117382424D01*
X164813441Y-116321764D01*
X165202349Y-116710672D01*
X164141689Y-117771332D01*
X164141689Y-117771332D01*
G37*
D10*
X163911880Y-116480862D03*
D11*
G36*
X163576004Y-117205646D02*
X163187096Y-116816738D01*
X164247756Y-115756078D01*
X164636664Y-116144986D01*
X163576004Y-117205646D01*
X163576004Y-117205646D01*
G37*
D10*
X163346194Y-115915177D03*
D11*
G36*
X163010318Y-116639961D02*
X162621410Y-116251053D01*
X163682070Y-115190393D01*
X164070978Y-115579301D01*
X163010318Y-116639961D01*
X163010318Y-116639961D01*
G37*
D10*
X162780509Y-115349491D03*
D11*
G36*
X162444633Y-116074275D02*
X162055725Y-115685367D01*
X163116385Y-114624707D01*
X163505293Y-115013615D01*
X162444633Y-116074275D01*
X162444633Y-116074275D01*
G37*
D10*
X162214823Y-114783806D03*
D11*
G36*
X161878947Y-115508590D02*
X161490039Y-115119682D01*
X162550699Y-114059022D01*
X162939607Y-114447930D01*
X161878947Y-115508590D01*
X161878947Y-115508590D01*
G37*
D10*
X161649138Y-114218120D03*
D11*
G36*
X161313262Y-114942904D02*
X160924354Y-114553996D01*
X161985014Y-113493336D01*
X162373922Y-113882244D01*
X161313262Y-114942904D01*
X161313262Y-114942904D01*
G37*
D10*
X161083452Y-113652435D03*
D11*
G36*
X160747576Y-114377219D02*
X160358668Y-113988311D01*
X161419328Y-112927651D01*
X161808236Y-113316559D01*
X160747576Y-114377219D01*
X160747576Y-114377219D01*
G37*
D10*
X160517767Y-113086750D03*
D11*
G36*
X160181891Y-113811534D02*
X159792983Y-113422626D01*
X160853643Y-112361966D01*
X161242551Y-112750874D01*
X160181891Y-113811534D01*
X160181891Y-113811534D01*
G37*
D10*
X159952082Y-112521064D03*
D11*
G36*
X159616206Y-113245848D02*
X159227298Y-112856940D01*
X160287958Y-111796280D01*
X160676866Y-112185188D01*
X159616206Y-113245848D01*
X159616206Y-113245848D01*
G37*
D12*
X158750000Y-121766485D03*
D11*
G36*
X158272703Y-121766485D02*
X158750000Y-121289188D01*
X159227297Y-121766485D01*
X158750000Y-122243782D01*
X158272703Y-121766485D01*
X158272703Y-121766485D01*
G37*
D12*
X159545495Y-120970990D03*
D11*
G36*
X159068198Y-120970990D02*
X159545495Y-120493693D01*
X160022792Y-120970990D01*
X159545495Y-121448287D01*
X159068198Y-120970990D01*
X159068198Y-120970990D01*
G37*
D12*
X160340990Y-120175495D03*
D11*
G36*
X159863693Y-120175495D02*
X160340990Y-119698198D01*
X160818287Y-120175495D01*
X160340990Y-120652792D01*
X159863693Y-120175495D01*
X159863693Y-120175495D01*
G37*
D12*
X161136485Y-119380000D03*
D11*
G36*
X160659188Y-119380000D02*
X161136485Y-118902703D01*
X161613782Y-119380000D01*
X161136485Y-119857297D01*
X160659188Y-119380000D01*
X160659188Y-119380000D01*
G37*
D12*
X157954505Y-120970990D03*
D11*
G36*
X157477208Y-120970990D02*
X157954505Y-120493693D01*
X158431802Y-120970990D01*
X157954505Y-121448287D01*
X157477208Y-120970990D01*
X157477208Y-120970990D01*
G37*
D12*
X158750000Y-120175495D03*
D11*
G36*
X158272703Y-120175495D02*
X158750000Y-119698198D01*
X159227297Y-120175495D01*
X158750000Y-120652792D01*
X158272703Y-120175495D01*
X158272703Y-120175495D01*
G37*
D12*
X159545495Y-119380000D03*
D11*
G36*
X159068198Y-119380000D02*
X159545495Y-118902703D01*
X160022792Y-119380000D01*
X159545495Y-119857297D01*
X159068198Y-119380000D01*
X159068198Y-119380000D01*
G37*
D12*
X160340990Y-118584505D03*
D11*
G36*
X159863693Y-118584505D02*
X160340990Y-118107208D01*
X160818287Y-118584505D01*
X160340990Y-119061802D01*
X159863693Y-118584505D01*
X159863693Y-118584505D01*
G37*
D12*
X157159010Y-120175495D03*
D11*
G36*
X156681713Y-120175495D02*
X157159010Y-119698198D01*
X157636307Y-120175495D01*
X157159010Y-120652792D01*
X156681713Y-120175495D01*
X156681713Y-120175495D01*
G37*
D12*
X157954505Y-119380000D03*
D11*
G36*
X157477208Y-119380000D02*
X157954505Y-118902703D01*
X158431802Y-119380000D01*
X157954505Y-119857297D01*
X157477208Y-119380000D01*
X157477208Y-119380000D01*
G37*
D12*
X158750000Y-118584505D03*
D11*
G36*
X158272703Y-118584505D02*
X158750000Y-118107208D01*
X159227297Y-118584505D01*
X158750000Y-119061802D01*
X158272703Y-118584505D01*
X158272703Y-118584505D01*
G37*
D12*
X159545495Y-117789010D03*
D11*
G36*
X159068198Y-117789010D02*
X159545495Y-117311713D01*
X160022792Y-117789010D01*
X159545495Y-118266307D01*
X159068198Y-117789010D01*
X159068198Y-117789010D01*
G37*
D12*
X156363515Y-119380000D03*
D11*
G36*
X155886218Y-119380000D02*
X156363515Y-118902703D01*
X156840812Y-119380000D01*
X156363515Y-119857297D01*
X155886218Y-119380000D01*
X155886218Y-119380000D01*
G37*
D12*
X157159010Y-118584505D03*
D11*
G36*
X156681713Y-118584505D02*
X157159010Y-118107208D01*
X157636307Y-118584505D01*
X157159010Y-119061802D01*
X156681713Y-118584505D01*
X156681713Y-118584505D01*
G37*
D12*
X157954505Y-117789010D03*
D11*
G36*
X157477208Y-117789010D02*
X157954505Y-117311713D01*
X158431802Y-117789010D01*
X157954505Y-118266307D01*
X157477208Y-117789010D01*
X157477208Y-117789010D01*
G37*
D12*
X158750000Y-116993515D03*
D11*
G36*
X158272703Y-116993515D02*
X158750000Y-116516218D01*
X159227297Y-116993515D01*
X158750000Y-117470812D01*
X158272703Y-116993515D01*
X158272703Y-116993515D01*
G37*
D12*
X129540000Y-116993515D03*
D11*
G36*
X129062703Y-116993515D02*
X129540000Y-116516218D01*
X130017297Y-116993515D01*
X129540000Y-117470812D01*
X129062703Y-116993515D01*
X129062703Y-116993515D01*
G37*
D12*
X128744505Y-117789010D03*
D11*
G36*
X128267208Y-117789010D02*
X128744505Y-117311713D01*
X129221802Y-117789010D01*
X128744505Y-118266307D01*
X128267208Y-117789010D01*
X128267208Y-117789010D01*
G37*
D12*
X127949010Y-118584505D03*
D11*
G36*
X127471713Y-118584505D02*
X127949010Y-118107208D01*
X128426307Y-118584505D01*
X127949010Y-119061802D01*
X127471713Y-118584505D01*
X127471713Y-118584505D01*
G37*
D12*
X127153515Y-119380000D03*
D11*
G36*
X126676218Y-119380000D02*
X127153515Y-118902703D01*
X127630812Y-119380000D01*
X127153515Y-119857297D01*
X126676218Y-119380000D01*
X126676218Y-119380000D01*
G37*
D12*
X130335495Y-117789010D03*
D11*
G36*
X129858198Y-117789010D02*
X130335495Y-117311713D01*
X130812792Y-117789010D01*
X130335495Y-118266307D01*
X129858198Y-117789010D01*
X129858198Y-117789010D01*
G37*
D12*
X129540000Y-118584505D03*
D11*
G36*
X129062703Y-118584505D02*
X129540000Y-118107208D01*
X130017297Y-118584505D01*
X129540000Y-119061802D01*
X129062703Y-118584505D01*
X129062703Y-118584505D01*
G37*
D12*
X128744505Y-119380000D03*
D11*
G36*
X128267208Y-119380000D02*
X128744505Y-118902703D01*
X129221802Y-119380000D01*
X128744505Y-119857297D01*
X128267208Y-119380000D01*
X128267208Y-119380000D01*
G37*
D12*
X127949010Y-120175495D03*
D11*
G36*
X127471713Y-120175495D02*
X127949010Y-119698198D01*
X128426307Y-120175495D01*
X127949010Y-120652792D01*
X127471713Y-120175495D01*
X127471713Y-120175495D01*
G37*
D12*
X131130990Y-118584505D03*
D11*
G36*
X130653693Y-118584505D02*
X131130990Y-118107208D01*
X131608287Y-118584505D01*
X131130990Y-119061802D01*
X130653693Y-118584505D01*
X130653693Y-118584505D01*
G37*
D12*
X130335495Y-119380000D03*
D11*
G36*
X129858198Y-119380000D02*
X130335495Y-118902703D01*
X130812792Y-119380000D01*
X130335495Y-119857297D01*
X129858198Y-119380000D01*
X129858198Y-119380000D01*
G37*
D12*
X129540000Y-120175495D03*
D11*
G36*
X129062703Y-120175495D02*
X129540000Y-119698198D01*
X130017297Y-120175495D01*
X129540000Y-120652792D01*
X129062703Y-120175495D01*
X129062703Y-120175495D01*
G37*
D12*
X128744505Y-120970990D03*
D11*
G36*
X128267208Y-120970990D02*
X128744505Y-120493693D01*
X129221802Y-120970990D01*
X128744505Y-121448287D01*
X128267208Y-120970990D01*
X128267208Y-120970990D01*
G37*
D12*
X131926485Y-119380000D03*
D11*
G36*
X131449188Y-119380000D02*
X131926485Y-118902703D01*
X132403782Y-119380000D01*
X131926485Y-119857297D01*
X131449188Y-119380000D01*
X131449188Y-119380000D01*
G37*
D12*
X131130990Y-120175495D03*
D11*
G36*
X130653693Y-120175495D02*
X131130990Y-119698198D01*
X131608287Y-120175495D01*
X131130990Y-120652792D01*
X130653693Y-120175495D01*
X130653693Y-120175495D01*
G37*
D12*
X130335495Y-120970990D03*
D11*
G36*
X129858198Y-120970990D02*
X130335495Y-120493693D01*
X130812792Y-120970990D01*
X130335495Y-121448287D01*
X129858198Y-120970990D01*
X129858198Y-120970990D01*
G37*
D12*
X129540000Y-121766485D03*
D11*
G36*
X129062703Y-121766485D02*
X129540000Y-121289188D01*
X130017297Y-121766485D01*
X129540000Y-122243782D01*
X129062703Y-121766485D01*
X129062703Y-121766485D01*
G37*
D10*
X130742082Y-112521064D03*
D11*
G36*
X130406206Y-113245848D02*
X130017298Y-112856940D01*
X131077958Y-111796280D01*
X131466866Y-112185188D01*
X130406206Y-113245848D01*
X130406206Y-113245848D01*
G37*
D10*
X131307767Y-113086750D03*
D11*
G36*
X130971891Y-113811534D02*
X130582983Y-113422626D01*
X131643643Y-112361966D01*
X132032551Y-112750874D01*
X130971891Y-113811534D01*
X130971891Y-113811534D01*
G37*
D10*
X131873452Y-113652435D03*
D11*
G36*
X131537576Y-114377219D02*
X131148668Y-113988311D01*
X132209328Y-112927651D01*
X132598236Y-113316559D01*
X131537576Y-114377219D01*
X131537576Y-114377219D01*
G37*
D10*
X132439138Y-114218120D03*
D11*
G36*
X132103262Y-114942904D02*
X131714354Y-114553996D01*
X132775014Y-113493336D01*
X133163922Y-113882244D01*
X132103262Y-114942904D01*
X132103262Y-114942904D01*
G37*
D10*
X133004823Y-114783806D03*
D11*
G36*
X132668947Y-115508590D02*
X132280039Y-115119682D01*
X133340699Y-114059022D01*
X133729607Y-114447930D01*
X132668947Y-115508590D01*
X132668947Y-115508590D01*
G37*
D10*
X133570509Y-115349491D03*
D11*
G36*
X133234633Y-116074275D02*
X132845725Y-115685367D01*
X133906385Y-114624707D01*
X134295293Y-115013615D01*
X133234633Y-116074275D01*
X133234633Y-116074275D01*
G37*
D10*
X134136194Y-115915177D03*
D11*
G36*
X133800318Y-116639961D02*
X133411410Y-116251053D01*
X134472070Y-115190393D01*
X134860978Y-115579301D01*
X133800318Y-116639961D01*
X133800318Y-116639961D01*
G37*
D10*
X134701880Y-116480862D03*
D11*
G36*
X134366004Y-117205646D02*
X133977096Y-116816738D01*
X135037756Y-115756078D01*
X135426664Y-116144986D01*
X134366004Y-117205646D01*
X134366004Y-117205646D01*
G37*
D10*
X135267565Y-117046548D03*
D11*
G36*
X134931689Y-117771332D02*
X134542781Y-117382424D01*
X135603441Y-116321764D01*
X135992349Y-116710672D01*
X134931689Y-117771332D01*
X134931689Y-117771332D01*
G37*
D10*
X135833250Y-117612233D03*
D11*
G36*
X135497374Y-118337017D02*
X135108466Y-117948109D01*
X136169126Y-116887449D01*
X136558034Y-117276357D01*
X135497374Y-118337017D01*
X135497374Y-118337017D01*
G37*
D10*
X136398936Y-118177918D03*
D11*
G36*
X136063060Y-118902702D02*
X135674152Y-118513794D01*
X136734812Y-117453134D01*
X137123720Y-117842042D01*
X136063060Y-118902702D01*
X136063060Y-118902702D01*
G37*
D10*
X136398936Y-120582082D03*
D11*
G36*
X135674152Y-120246206D02*
X136063060Y-119857298D01*
X137123720Y-120917958D01*
X136734812Y-121306866D01*
X135674152Y-120246206D01*
X135674152Y-120246206D01*
G37*
D10*
X135833250Y-121147767D03*
D11*
G36*
X135108466Y-120811891D02*
X135497374Y-120422983D01*
X136558034Y-121483643D01*
X136169126Y-121872551D01*
X135108466Y-120811891D01*
X135108466Y-120811891D01*
G37*
D10*
X135267565Y-121713452D03*
D11*
G36*
X134542781Y-121377576D02*
X134931689Y-120988668D01*
X135992349Y-122049328D01*
X135603441Y-122438236D01*
X134542781Y-121377576D01*
X134542781Y-121377576D01*
G37*
D10*
X134701880Y-122279138D03*
D11*
G36*
X133977096Y-121943262D02*
X134366004Y-121554354D01*
X135426664Y-122615014D01*
X135037756Y-123003922D01*
X133977096Y-121943262D01*
X133977096Y-121943262D01*
G37*
D10*
X134136194Y-122844823D03*
D11*
G36*
X133411410Y-122508947D02*
X133800318Y-122120039D01*
X134860978Y-123180699D01*
X134472070Y-123569607D01*
X133411410Y-122508947D01*
X133411410Y-122508947D01*
G37*
D10*
X133570509Y-123410509D03*
D11*
G36*
X132845725Y-123074633D02*
X133234633Y-122685725D01*
X134295293Y-123746385D01*
X133906385Y-124135293D01*
X132845725Y-123074633D01*
X132845725Y-123074633D01*
G37*
D10*
X133004823Y-123976194D03*
D11*
G36*
X132280039Y-123640318D02*
X132668947Y-123251410D01*
X133729607Y-124312070D01*
X133340699Y-124700978D01*
X132280039Y-123640318D01*
X132280039Y-123640318D01*
G37*
D10*
X132439138Y-124541880D03*
D11*
G36*
X131714354Y-124206004D02*
X132103262Y-123817096D01*
X133163922Y-124877756D01*
X132775014Y-125266664D01*
X131714354Y-124206004D01*
X131714354Y-124206004D01*
G37*
D10*
X131873452Y-125107565D03*
D11*
G36*
X131148668Y-124771689D02*
X131537576Y-124382781D01*
X132598236Y-125443441D01*
X132209328Y-125832349D01*
X131148668Y-124771689D01*
X131148668Y-124771689D01*
G37*
D10*
X131307767Y-125673250D03*
D11*
G36*
X130582983Y-125337374D02*
X130971891Y-124948466D01*
X132032551Y-126009126D01*
X131643643Y-126398034D01*
X130582983Y-125337374D01*
X130582983Y-125337374D01*
G37*
D10*
X130742082Y-126238936D03*
D11*
G36*
X130017298Y-125903060D02*
X130406206Y-125514152D01*
X131466866Y-126574812D01*
X131077958Y-126963720D01*
X130017298Y-125903060D01*
X130017298Y-125903060D01*
G37*
D10*
X128337918Y-126238936D03*
D11*
G36*
X128002042Y-126963720D02*
X127613134Y-126574812D01*
X128673794Y-125514152D01*
X129062702Y-125903060D01*
X128002042Y-126963720D01*
X128002042Y-126963720D01*
G37*
D10*
X127772233Y-125673250D03*
D11*
G36*
X127436357Y-126398034D02*
X127047449Y-126009126D01*
X128108109Y-124948466D01*
X128497017Y-125337374D01*
X127436357Y-126398034D01*
X127436357Y-126398034D01*
G37*
D10*
X127206548Y-125107565D03*
D11*
G36*
X126870672Y-125832349D02*
X126481764Y-125443441D01*
X127542424Y-124382781D01*
X127931332Y-124771689D01*
X126870672Y-125832349D01*
X126870672Y-125832349D01*
G37*
D10*
X126640862Y-124541880D03*
D11*
G36*
X126304986Y-125266664D02*
X125916078Y-124877756D01*
X126976738Y-123817096D01*
X127365646Y-124206004D01*
X126304986Y-125266664D01*
X126304986Y-125266664D01*
G37*
D10*
X126075177Y-123976194D03*
D11*
G36*
X125739301Y-124700978D02*
X125350393Y-124312070D01*
X126411053Y-123251410D01*
X126799961Y-123640318D01*
X125739301Y-124700978D01*
X125739301Y-124700978D01*
G37*
D10*
X125509491Y-123410509D03*
D11*
G36*
X125173615Y-124135293D02*
X124784707Y-123746385D01*
X125845367Y-122685725D01*
X126234275Y-123074633D01*
X125173615Y-124135293D01*
X125173615Y-124135293D01*
G37*
D10*
X124943806Y-122844823D03*
D11*
G36*
X124607930Y-123569607D02*
X124219022Y-123180699D01*
X125279682Y-122120039D01*
X125668590Y-122508947D01*
X124607930Y-123569607D01*
X124607930Y-123569607D01*
G37*
D10*
X124378120Y-122279138D03*
D11*
G36*
X124042244Y-123003922D02*
X123653336Y-122615014D01*
X124713996Y-121554354D01*
X125102904Y-121943262D01*
X124042244Y-123003922D01*
X124042244Y-123003922D01*
G37*
D10*
X123812435Y-121713452D03*
D11*
G36*
X123476559Y-122438236D02*
X123087651Y-122049328D01*
X124148311Y-120988668D01*
X124537219Y-121377576D01*
X123476559Y-122438236D01*
X123476559Y-122438236D01*
G37*
D10*
X123246750Y-121147767D03*
D11*
G36*
X122910874Y-121872551D02*
X122521966Y-121483643D01*
X123582626Y-120422983D01*
X123971534Y-120811891D01*
X122910874Y-121872551D01*
X122910874Y-121872551D01*
G37*
D10*
X122681064Y-120582082D03*
D11*
G36*
X122345188Y-121306866D02*
X121956280Y-120917958D01*
X123016940Y-119857298D01*
X123405848Y-120246206D01*
X122345188Y-121306866D01*
X122345188Y-121306866D01*
G37*
D10*
X122681064Y-118177918D03*
D11*
G36*
X121956280Y-117842042D02*
X122345188Y-117453134D01*
X123405848Y-118513794D01*
X123016940Y-118902702D01*
X121956280Y-117842042D01*
X121956280Y-117842042D01*
G37*
D10*
X123246750Y-117612233D03*
D11*
G36*
X122521966Y-117276357D02*
X122910874Y-116887449D01*
X123971534Y-117948109D01*
X123582626Y-118337017D01*
X122521966Y-117276357D01*
X122521966Y-117276357D01*
G37*
D10*
X123812435Y-117046548D03*
D11*
G36*
X123087651Y-116710672D02*
X123476559Y-116321764D01*
X124537219Y-117382424D01*
X124148311Y-117771332D01*
X123087651Y-116710672D01*
X123087651Y-116710672D01*
G37*
D10*
X124378120Y-116480862D03*
D11*
G36*
X123653336Y-116144986D02*
X124042244Y-115756078D01*
X125102904Y-116816738D01*
X124713996Y-117205646D01*
X123653336Y-116144986D01*
X123653336Y-116144986D01*
G37*
D10*
X124943806Y-115915177D03*
D11*
G36*
X124219022Y-115579301D02*
X124607930Y-115190393D01*
X125668590Y-116251053D01*
X125279682Y-116639961D01*
X124219022Y-115579301D01*
X124219022Y-115579301D01*
G37*
D10*
X125509491Y-115349491D03*
D11*
G36*
X124784707Y-115013615D02*
X125173615Y-114624707D01*
X126234275Y-115685367D01*
X125845367Y-116074275D01*
X124784707Y-115013615D01*
X124784707Y-115013615D01*
G37*
D10*
X126075177Y-114783806D03*
D11*
G36*
X125350393Y-114447930D02*
X125739301Y-114059022D01*
X126799961Y-115119682D01*
X126411053Y-115508590D01*
X125350393Y-114447930D01*
X125350393Y-114447930D01*
G37*
D10*
X126640862Y-114218120D03*
D11*
G36*
X125916078Y-113882244D02*
X126304986Y-113493336D01*
X127365646Y-114553996D01*
X126976738Y-114942904D01*
X125916078Y-113882244D01*
X125916078Y-113882244D01*
G37*
D10*
X127206548Y-113652435D03*
D11*
G36*
X126481764Y-113316559D02*
X126870672Y-112927651D01*
X127931332Y-113988311D01*
X127542424Y-114377219D01*
X126481764Y-113316559D01*
X126481764Y-113316559D01*
G37*
D10*
X127772233Y-113086750D03*
D11*
G36*
X127047449Y-112750874D02*
X127436357Y-112361966D01*
X128497017Y-113422626D01*
X128108109Y-113811534D01*
X127047449Y-112750874D01*
X127047449Y-112750874D01*
G37*
D10*
X128337918Y-112521064D03*
D11*
G36*
X127613134Y-112185188D02*
X128002042Y-111796280D01*
X129062702Y-112856940D01*
X128673794Y-113245848D01*
X127613134Y-112185188D01*
X127613134Y-112185188D01*
G37*
D13*
X89670000Y-129805000D03*
X90670000Y-129805000D03*
X90670000Y-128005000D03*
X89670000Y-128005000D03*
X108720000Y-137530000D03*
X109720000Y-137530000D03*
X109720000Y-139330000D03*
X108720000Y-139330000D03*
X108720000Y-120280000D03*
X109720000Y-120280000D03*
X109720000Y-118480000D03*
X108720000Y-118480000D03*
X89670000Y-99430000D03*
X90670000Y-99430000D03*
X90670000Y-101230000D03*
X89670000Y-101230000D03*
X108720000Y-101230000D03*
X109720000Y-101230000D03*
X109720000Y-99430000D03*
X108720000Y-99430000D03*
D14*
X76200000Y-135415000D03*
X76200000Y-132115000D03*
D15*
X87885000Y-146050000D03*
X91185000Y-146050000D03*
X102615000Y-128905000D03*
X99315000Y-128905000D03*
X99315000Y-109855000D03*
X102615000Y-109855000D03*
X81025000Y-109855000D03*
X77725000Y-109855000D03*
M02*
