G04 #@! TF.GenerationSoftware,KiCad,Pcbnew,(5.0.0-rc2-dev-471-ge4feb315d)*
G04 #@! TF.CreationDate,2018-05-05T14:20:45+01:00*
G04 #@! TF.ProjectId,panel,70616E656C2E6B696361645F70636200,rev?*
G04 #@! TF.SameCoordinates,Original*
G04 #@! TF.FileFunction,Legend,Top*
G04 #@! TF.FilePolarity,Positive*
%FSLAX46Y46*%
G04 Gerber Fmt 4.6, Leading zero omitted, Abs format (unit mm)*
G04 Created by KiCad (PCBNEW (5.0.0-rc2-dev-471-ge4feb315d)) date Sat May  5 14:20:45 2018*
%MOMM*%
%LPD*%
G01*
G04 APERTURE LIST*
%ADD10C,0.300000*%
%ADD11C,0.120000*%
%ADD12C,0.150000*%
G04 APERTURE END LIST*
D10*
X158428571Y-143664285D02*
X159928571Y-143664285D01*
X159357142Y-143664285D02*
X159428571Y-143807142D01*
X159428571Y-144092857D01*
X159357142Y-144235714D01*
X159285714Y-144307142D01*
X159142857Y-144378571D01*
X158714285Y-144378571D01*
X158571428Y-144307142D01*
X158500000Y-144235714D01*
X158428571Y-144092857D01*
X158428571Y-143807142D01*
X158500000Y-143664285D01*
X158428571Y-143092857D02*
X159428571Y-142807142D01*
X158714285Y-142521428D01*
X159428571Y-142235714D01*
X158428571Y-141950000D01*
X159428571Y-140735714D02*
X158642857Y-140735714D01*
X158500000Y-140807142D01*
X158428571Y-140950000D01*
X158428571Y-141235714D01*
X158500000Y-141378571D01*
X159357142Y-140735714D02*
X159428571Y-140878571D01*
X159428571Y-141235714D01*
X159357142Y-141378571D01*
X159214285Y-141450000D01*
X159071428Y-141450000D01*
X158928571Y-141378571D01*
X158857142Y-141235714D01*
X158857142Y-140878571D01*
X158785714Y-140735714D01*
X158428571Y-140235714D02*
X158428571Y-139664285D01*
X157928571Y-140021428D02*
X159214285Y-140021428D01*
X159357142Y-139950000D01*
X159428571Y-139807142D01*
X159428571Y-139664285D01*
X158428571Y-139378571D02*
X158428571Y-138807142D01*
X157928571Y-139164285D02*
X159214285Y-139164285D01*
X159357142Y-139092857D01*
X159428571Y-138950000D01*
X159428571Y-138807142D01*
X159428571Y-137664285D02*
X158642857Y-137664285D01*
X158500000Y-137735714D01*
X158428571Y-137878571D01*
X158428571Y-138164285D01*
X158500000Y-138307142D01*
X159357142Y-137664285D02*
X159428571Y-137807142D01*
X159428571Y-138164285D01*
X159357142Y-138307142D01*
X159214285Y-138378571D01*
X159071428Y-138378571D01*
X158928571Y-138307142D01*
X158857142Y-138164285D01*
X158857142Y-137807142D01*
X158785714Y-137664285D01*
X159357142Y-137021428D02*
X159428571Y-136878571D01*
X159428571Y-136592857D01*
X159357142Y-136450000D01*
X159214285Y-136378571D01*
X159142857Y-136378571D01*
X159000000Y-136450000D01*
X158928571Y-136592857D01*
X158928571Y-136807142D01*
X158857142Y-136950000D01*
X158714285Y-137021428D01*
X158642857Y-137021428D01*
X158500000Y-136950000D01*
X158428571Y-136807142D01*
X158428571Y-136592857D01*
X158500000Y-136450000D01*
X159428571Y-135735714D02*
X157928571Y-135735714D01*
X159428571Y-135092857D02*
X158642857Y-135092857D01*
X158500000Y-135164285D01*
X158428571Y-135307142D01*
X158428571Y-135521428D01*
X158500000Y-135664285D01*
X158571428Y-135735714D01*
X129218571Y-143664285D02*
X130718571Y-143664285D01*
X130147142Y-143664285D02*
X130218571Y-143807142D01*
X130218571Y-144092857D01*
X130147142Y-144235714D01*
X130075714Y-144307142D01*
X129932857Y-144378571D01*
X129504285Y-144378571D01*
X129361428Y-144307142D01*
X129290000Y-144235714D01*
X129218571Y-144092857D01*
X129218571Y-143807142D01*
X129290000Y-143664285D01*
X129218571Y-143092857D02*
X130218571Y-142807142D01*
X129504285Y-142521428D01*
X130218571Y-142235714D01*
X129218571Y-141950000D01*
X130218571Y-140735714D02*
X129432857Y-140735714D01*
X129290000Y-140807142D01*
X129218571Y-140950000D01*
X129218571Y-141235714D01*
X129290000Y-141378571D01*
X130147142Y-140735714D02*
X130218571Y-140878571D01*
X130218571Y-141235714D01*
X130147142Y-141378571D01*
X130004285Y-141450000D01*
X129861428Y-141450000D01*
X129718571Y-141378571D01*
X129647142Y-141235714D01*
X129647142Y-140878571D01*
X129575714Y-140735714D01*
X129218571Y-140235714D02*
X129218571Y-139664285D01*
X128718571Y-140021428D02*
X130004285Y-140021428D01*
X130147142Y-139950000D01*
X130218571Y-139807142D01*
X130218571Y-139664285D01*
X129218571Y-139378571D02*
X129218571Y-138807142D01*
X128718571Y-139164285D02*
X130004285Y-139164285D01*
X130147142Y-139092857D01*
X130218571Y-138950000D01*
X130218571Y-138807142D01*
X130218571Y-137664285D02*
X129432857Y-137664285D01*
X129290000Y-137735714D01*
X129218571Y-137878571D01*
X129218571Y-138164285D01*
X129290000Y-138307142D01*
X130147142Y-137664285D02*
X130218571Y-137807142D01*
X130218571Y-138164285D01*
X130147142Y-138307142D01*
X130004285Y-138378571D01*
X129861428Y-138378571D01*
X129718571Y-138307142D01*
X129647142Y-138164285D01*
X129647142Y-137807142D01*
X129575714Y-137664285D01*
X130147142Y-137021428D02*
X130218571Y-136878571D01*
X130218571Y-136592857D01*
X130147142Y-136450000D01*
X130004285Y-136378571D01*
X129932857Y-136378571D01*
X129790000Y-136450000D01*
X129718571Y-136592857D01*
X129718571Y-136807142D01*
X129647142Y-136950000D01*
X129504285Y-137021428D01*
X129432857Y-137021428D01*
X129290000Y-136950000D01*
X129218571Y-136807142D01*
X129218571Y-136592857D01*
X129290000Y-136450000D01*
X130218571Y-135735714D02*
X128718571Y-135735714D01*
X130218571Y-135092857D02*
X129432857Y-135092857D01*
X129290000Y-135164285D01*
X129218571Y-135307142D01*
X129218571Y-135521428D01*
X129290000Y-135664285D01*
X129361428Y-135735714D01*
X149018571Y-92118571D02*
X148161428Y-92118571D01*
X148590000Y-92118571D02*
X148590000Y-90618571D01*
X148447142Y-90832857D01*
X148304285Y-90975714D01*
X148161428Y-91047142D01*
X148161428Y-93301428D02*
X148232857Y-93230000D01*
X148375714Y-93158571D01*
X148732857Y-93158571D01*
X148875714Y-93230000D01*
X148947142Y-93301428D01*
X149018571Y-93444285D01*
X149018571Y-93587142D01*
X148947142Y-93801428D01*
X148090000Y-94658571D01*
X149018571Y-94658571D01*
X148090000Y-95698571D02*
X149018571Y-95698571D01*
X148518571Y-96270000D01*
X148732857Y-96270000D01*
X148875714Y-96341428D01*
X148947142Y-96412857D01*
X149018571Y-96555714D01*
X149018571Y-96912857D01*
X148947142Y-97055714D01*
X148875714Y-97127142D01*
X148732857Y-97198571D01*
X148304285Y-97198571D01*
X148161428Y-97127142D01*
X148090000Y-97055714D01*
X148875714Y-98738571D02*
X148875714Y-99738571D01*
X148518571Y-98167142D02*
X148161428Y-99238571D01*
X149090000Y-99238571D01*
X148947142Y-100778571D02*
X148232857Y-100778571D01*
X148161428Y-101492857D01*
X148232857Y-101421428D01*
X148375714Y-101350000D01*
X148732857Y-101350000D01*
X148875714Y-101421428D01*
X148947142Y-101492857D01*
X149018571Y-101635714D01*
X149018571Y-101992857D01*
X148947142Y-102135714D01*
X148875714Y-102207142D01*
X148732857Y-102278571D01*
X148375714Y-102278571D01*
X148232857Y-102207142D01*
X148161428Y-102135714D01*
X148875714Y-103318571D02*
X148590000Y-103318571D01*
X148447142Y-103390000D01*
X148375714Y-103461428D01*
X148232857Y-103675714D01*
X148161428Y-103961428D01*
X148161428Y-104532857D01*
X148232857Y-104675714D01*
X148304285Y-104747142D01*
X148447142Y-104818571D01*
X148732857Y-104818571D01*
X148875714Y-104747142D01*
X148947142Y-104675714D01*
X149018571Y-104532857D01*
X149018571Y-104175714D01*
X148947142Y-104032857D01*
X148875714Y-103961428D01*
X148732857Y-103890000D01*
X148447142Y-103890000D01*
X148304285Y-103961428D01*
X148232857Y-104032857D01*
X148161428Y-104175714D01*
X148090000Y-105858571D02*
X149090000Y-105858571D01*
X148447142Y-107358571D01*
X148447142Y-109041428D02*
X148304285Y-108970000D01*
X148232857Y-108898571D01*
X148161428Y-108755714D01*
X148161428Y-108684285D01*
X148232857Y-108541428D01*
X148304285Y-108470000D01*
X148447142Y-108398571D01*
X148732857Y-108398571D01*
X148875714Y-108470000D01*
X148947142Y-108541428D01*
X149018571Y-108684285D01*
X149018571Y-108755714D01*
X148947142Y-108898571D01*
X148875714Y-108970000D01*
X148732857Y-109041428D01*
X148447142Y-109041428D01*
X148304285Y-109112857D01*
X148232857Y-109184285D01*
X148161428Y-109327142D01*
X148161428Y-109612857D01*
X148232857Y-109755714D01*
X148304285Y-109827142D01*
X148447142Y-109898571D01*
X148732857Y-109898571D01*
X148875714Y-109827142D01*
X148947142Y-109755714D01*
X149018571Y-109612857D01*
X149018571Y-109327142D01*
X148947142Y-109184285D01*
X148875714Y-109112857D01*
X148732857Y-109041428D01*
X148304285Y-112438571D02*
X148590000Y-112438571D01*
X148732857Y-112367142D01*
X148804285Y-112295714D01*
X148947142Y-112081428D01*
X149018571Y-111795714D01*
X149018571Y-111224285D01*
X148947142Y-111081428D01*
X148875714Y-111010000D01*
X148732857Y-110938571D01*
X148447142Y-110938571D01*
X148304285Y-111010000D01*
X148232857Y-111081428D01*
X148161428Y-111224285D01*
X148161428Y-111581428D01*
X148232857Y-111724285D01*
X148304285Y-111795714D01*
X148447142Y-111867142D01*
X148732857Y-111867142D01*
X148875714Y-111795714D01*
X148947142Y-111724285D01*
X149018571Y-111581428D01*
X148939285Y-114978571D02*
X148082142Y-114978571D01*
X148510714Y-114978571D02*
X148510714Y-113478571D01*
X148367857Y-113692857D01*
X148225000Y-113835714D01*
X148082142Y-113907142D01*
X149867857Y-113478571D02*
X150010714Y-113478571D01*
X150153571Y-113550000D01*
X150225000Y-113621428D01*
X150296428Y-113764285D01*
X150367857Y-114050000D01*
X150367857Y-114407142D01*
X150296428Y-114692857D01*
X150225000Y-114835714D01*
X150153571Y-114907142D01*
X150010714Y-114978571D01*
X149867857Y-114978571D01*
X149725000Y-114907142D01*
X149653571Y-114835714D01*
X149582142Y-114692857D01*
X149510714Y-114407142D01*
X149510714Y-114050000D01*
X149582142Y-113764285D01*
X149653571Y-113621428D01*
X149725000Y-113550000D01*
X149867857Y-113478571D01*
X148939285Y-117518571D02*
X148082142Y-117518571D01*
X148510714Y-117518571D02*
X148510714Y-116018571D01*
X148367857Y-116232857D01*
X148225000Y-116375714D01*
X148082142Y-116447142D01*
X150367857Y-117518571D02*
X149510714Y-117518571D01*
X149939285Y-117518571D02*
X149939285Y-116018571D01*
X149796428Y-116232857D01*
X149653571Y-116375714D01*
X149510714Y-116447142D01*
X148939285Y-122598571D02*
X148082142Y-122598571D01*
X148510714Y-122598571D02*
X148510714Y-121098571D01*
X148367857Y-121312857D01*
X148225000Y-121455714D01*
X148082142Y-121527142D01*
X149510714Y-121241428D02*
X149582142Y-121170000D01*
X149725000Y-121098571D01*
X150082142Y-121098571D01*
X150225000Y-121170000D01*
X150296428Y-121241428D01*
X150367857Y-121384285D01*
X150367857Y-121527142D01*
X150296428Y-121741428D01*
X149439285Y-122598571D01*
X150367857Y-122598571D01*
X148939285Y-125138571D02*
X148082142Y-125138571D01*
X148510714Y-125138571D02*
X148510714Y-123638571D01*
X148367857Y-123852857D01*
X148225000Y-123995714D01*
X148082142Y-124067142D01*
X149439285Y-123638571D02*
X150367857Y-123638571D01*
X149867857Y-124210000D01*
X150082142Y-124210000D01*
X150225000Y-124281428D01*
X150296428Y-124352857D01*
X150367857Y-124495714D01*
X150367857Y-124852857D01*
X150296428Y-124995714D01*
X150225000Y-125067142D01*
X150082142Y-125138571D01*
X149653571Y-125138571D01*
X149510714Y-125067142D01*
X149439285Y-124995714D01*
X148939285Y-127678571D02*
X148082142Y-127678571D01*
X148510714Y-127678571D02*
X148510714Y-126178571D01*
X148367857Y-126392857D01*
X148225000Y-126535714D01*
X148082142Y-126607142D01*
X150225000Y-126678571D02*
X150225000Y-127678571D01*
X149867857Y-126107142D02*
X149510714Y-127178571D01*
X150439285Y-127178571D01*
X148939285Y-130218571D02*
X148082142Y-130218571D01*
X148510714Y-130218571D02*
X148510714Y-128718571D01*
X148367857Y-128932857D01*
X148225000Y-129075714D01*
X148082142Y-129147142D01*
X150296428Y-128718571D02*
X149582142Y-128718571D01*
X149510714Y-129432857D01*
X149582142Y-129361428D01*
X149725000Y-129290000D01*
X150082142Y-129290000D01*
X150225000Y-129361428D01*
X150296428Y-129432857D01*
X150367857Y-129575714D01*
X150367857Y-129932857D01*
X150296428Y-130075714D01*
X150225000Y-130147142D01*
X150082142Y-130218571D01*
X149725000Y-130218571D01*
X149582142Y-130147142D01*
X149510714Y-130075714D01*
X148939285Y-132758571D02*
X148082142Y-132758571D01*
X148510714Y-132758571D02*
X148510714Y-131258571D01*
X148367857Y-131472857D01*
X148225000Y-131615714D01*
X148082142Y-131687142D01*
X150225000Y-131258571D02*
X149939285Y-131258571D01*
X149796428Y-131330000D01*
X149725000Y-131401428D01*
X149582142Y-131615714D01*
X149510714Y-131901428D01*
X149510714Y-132472857D01*
X149582142Y-132615714D01*
X149653571Y-132687142D01*
X149796428Y-132758571D01*
X150082142Y-132758571D01*
X150225000Y-132687142D01*
X150296428Y-132615714D01*
X150367857Y-132472857D01*
X150367857Y-132115714D01*
X150296428Y-131972857D01*
X150225000Y-131901428D01*
X150082142Y-131830000D01*
X149796428Y-131830000D01*
X149653571Y-131901428D01*
X149582142Y-131972857D01*
X149510714Y-132115714D01*
X148939285Y-135298571D02*
X148082142Y-135298571D01*
X148510714Y-135298571D02*
X148510714Y-133798571D01*
X148367857Y-134012857D01*
X148225000Y-134155714D01*
X148082142Y-134227142D01*
X149439285Y-133798571D02*
X150439285Y-133798571D01*
X149796428Y-135298571D01*
X148939285Y-137838571D02*
X148082142Y-137838571D01*
X148510714Y-137838571D02*
X148510714Y-136338571D01*
X148367857Y-136552857D01*
X148225000Y-136695714D01*
X148082142Y-136767142D01*
X149796428Y-136981428D02*
X149653571Y-136910000D01*
X149582142Y-136838571D01*
X149510714Y-136695714D01*
X149510714Y-136624285D01*
X149582142Y-136481428D01*
X149653571Y-136410000D01*
X149796428Y-136338571D01*
X150082142Y-136338571D01*
X150225000Y-136410000D01*
X150296428Y-136481428D01*
X150367857Y-136624285D01*
X150367857Y-136695714D01*
X150296428Y-136838571D01*
X150225000Y-136910000D01*
X150082142Y-136981428D01*
X149796428Y-136981428D01*
X149653571Y-137052857D01*
X149582142Y-137124285D01*
X149510714Y-137267142D01*
X149510714Y-137552857D01*
X149582142Y-137695714D01*
X149653571Y-137767142D01*
X149796428Y-137838571D01*
X150082142Y-137838571D01*
X150225000Y-137767142D01*
X150296428Y-137695714D01*
X150367857Y-137552857D01*
X150367857Y-137267142D01*
X150296428Y-137124285D01*
X150225000Y-137052857D01*
X150082142Y-136981428D01*
X148939285Y-140378571D02*
X148082142Y-140378571D01*
X148510714Y-140378571D02*
X148510714Y-138878571D01*
X148367857Y-139092857D01*
X148225000Y-139235714D01*
X148082142Y-139307142D01*
X149653571Y-140378571D02*
X149939285Y-140378571D01*
X150082142Y-140307142D01*
X150153571Y-140235714D01*
X150296428Y-140021428D01*
X150367857Y-139735714D01*
X150367857Y-139164285D01*
X150296428Y-139021428D01*
X150225000Y-138950000D01*
X150082142Y-138878571D01*
X149796428Y-138878571D01*
X149653571Y-138950000D01*
X149582142Y-139021428D01*
X149510714Y-139164285D01*
X149510714Y-139521428D01*
X149582142Y-139664285D01*
X149653571Y-139735714D01*
X149796428Y-139807142D01*
X150082142Y-139807142D01*
X150225000Y-139735714D01*
X150296428Y-139664285D01*
X150367857Y-139521428D01*
X148082142Y-141561428D02*
X148153571Y-141490000D01*
X148296428Y-141418571D01*
X148653571Y-141418571D01*
X148796428Y-141490000D01*
X148867857Y-141561428D01*
X148939285Y-141704285D01*
X148939285Y-141847142D01*
X148867857Y-142061428D01*
X148010714Y-142918571D01*
X148939285Y-142918571D01*
X149867857Y-141418571D02*
X150010714Y-141418571D01*
X150153571Y-141490000D01*
X150225000Y-141561428D01*
X150296428Y-141704285D01*
X150367857Y-141990000D01*
X150367857Y-142347142D01*
X150296428Y-142632857D01*
X150225000Y-142775714D01*
X150153571Y-142847142D01*
X150010714Y-142918571D01*
X149867857Y-142918571D01*
X149725000Y-142847142D01*
X149653571Y-142775714D01*
X149582142Y-142632857D01*
X149510714Y-142347142D01*
X149510714Y-141990000D01*
X149582142Y-141704285D01*
X149653571Y-141561428D01*
X149725000Y-141490000D01*
X149867857Y-141418571D01*
X148082142Y-144101428D02*
X148153571Y-144030000D01*
X148296428Y-143958571D01*
X148653571Y-143958571D01*
X148796428Y-144030000D01*
X148867857Y-144101428D01*
X148939285Y-144244285D01*
X148939285Y-144387142D01*
X148867857Y-144601428D01*
X148010714Y-145458571D01*
X148939285Y-145458571D01*
X150367857Y-145458571D02*
X149510714Y-145458571D01*
X149939285Y-145458571D02*
X149939285Y-143958571D01*
X149796428Y-144172857D01*
X149653571Y-144315714D01*
X149510714Y-144387142D01*
X148082142Y-146641428D02*
X148153571Y-146570000D01*
X148296428Y-146498571D01*
X148653571Y-146498571D01*
X148796428Y-146570000D01*
X148867857Y-146641428D01*
X148939285Y-146784285D01*
X148939285Y-146927142D01*
X148867857Y-147141428D01*
X148010714Y-147998571D01*
X148939285Y-147998571D01*
X149510714Y-146641428D02*
X149582142Y-146570000D01*
X149725000Y-146498571D01*
X150082142Y-146498571D01*
X150225000Y-146570000D01*
X150296428Y-146641428D01*
X150367857Y-146784285D01*
X150367857Y-146927142D01*
X150296428Y-147141428D01*
X149439285Y-147998571D01*
X150367857Y-147998571D01*
X167132142Y-149181428D02*
X167203571Y-149110000D01*
X167346428Y-149038571D01*
X167703571Y-149038571D01*
X167846428Y-149110000D01*
X167917857Y-149181428D01*
X167989285Y-149324285D01*
X167989285Y-149467142D01*
X167917857Y-149681428D01*
X167060714Y-150538571D01*
X167989285Y-150538571D01*
X168489285Y-149038571D02*
X169417857Y-149038571D01*
X168917857Y-149610000D01*
X169132142Y-149610000D01*
X169275000Y-149681428D01*
X169346428Y-149752857D01*
X169417857Y-149895714D01*
X169417857Y-150252857D01*
X169346428Y-150395714D01*
X169275000Y-150467142D01*
X169132142Y-150538571D01*
X168703571Y-150538571D01*
X168560714Y-150467142D01*
X168489285Y-150395714D01*
X167132142Y-146641428D02*
X167203571Y-146570000D01*
X167346428Y-146498571D01*
X167703571Y-146498571D01*
X167846428Y-146570000D01*
X167917857Y-146641428D01*
X167989285Y-146784285D01*
X167989285Y-146927142D01*
X167917857Y-147141428D01*
X167060714Y-147998571D01*
X167989285Y-147998571D01*
X169275000Y-146998571D02*
X169275000Y-147998571D01*
X168917857Y-146427142D02*
X168560714Y-147498571D01*
X169489285Y-147498571D01*
X167132142Y-144101428D02*
X167203571Y-144030000D01*
X167346428Y-143958571D01*
X167703571Y-143958571D01*
X167846428Y-144030000D01*
X167917857Y-144101428D01*
X167989285Y-144244285D01*
X167989285Y-144387142D01*
X167917857Y-144601428D01*
X167060714Y-145458571D01*
X167989285Y-145458571D01*
X169346428Y-143958571D02*
X168632142Y-143958571D01*
X168560714Y-144672857D01*
X168632142Y-144601428D01*
X168775000Y-144530000D01*
X169132142Y-144530000D01*
X169275000Y-144601428D01*
X169346428Y-144672857D01*
X169417857Y-144815714D01*
X169417857Y-145172857D01*
X169346428Y-145315714D01*
X169275000Y-145387142D01*
X169132142Y-145458571D01*
X168775000Y-145458571D01*
X168632142Y-145387142D01*
X168560714Y-145315714D01*
X167132142Y-141561428D02*
X167203571Y-141490000D01*
X167346428Y-141418571D01*
X167703571Y-141418571D01*
X167846428Y-141490000D01*
X167917857Y-141561428D01*
X167989285Y-141704285D01*
X167989285Y-141847142D01*
X167917857Y-142061428D01*
X167060714Y-142918571D01*
X167989285Y-142918571D01*
X169275000Y-141418571D02*
X168989285Y-141418571D01*
X168846428Y-141490000D01*
X168775000Y-141561428D01*
X168632142Y-141775714D01*
X168560714Y-142061428D01*
X168560714Y-142632857D01*
X168632142Y-142775714D01*
X168703571Y-142847142D01*
X168846428Y-142918571D01*
X169132142Y-142918571D01*
X169275000Y-142847142D01*
X169346428Y-142775714D01*
X169417857Y-142632857D01*
X169417857Y-142275714D01*
X169346428Y-142132857D01*
X169275000Y-142061428D01*
X169132142Y-141990000D01*
X168846428Y-141990000D01*
X168703571Y-142061428D01*
X168632142Y-142132857D01*
X168560714Y-142275714D01*
X167132142Y-139021428D02*
X167203571Y-138950000D01*
X167346428Y-138878571D01*
X167703571Y-138878571D01*
X167846428Y-138950000D01*
X167917857Y-139021428D01*
X167989285Y-139164285D01*
X167989285Y-139307142D01*
X167917857Y-139521428D01*
X167060714Y-140378571D01*
X167989285Y-140378571D01*
X168489285Y-138878571D02*
X169489285Y-138878571D01*
X168846428Y-140378571D01*
X167132142Y-136481428D02*
X167203571Y-136410000D01*
X167346428Y-136338571D01*
X167703571Y-136338571D01*
X167846428Y-136410000D01*
X167917857Y-136481428D01*
X167989285Y-136624285D01*
X167989285Y-136767142D01*
X167917857Y-136981428D01*
X167060714Y-137838571D01*
X167989285Y-137838571D01*
X168846428Y-136981428D02*
X168703571Y-136910000D01*
X168632142Y-136838571D01*
X168560714Y-136695714D01*
X168560714Y-136624285D01*
X168632142Y-136481428D01*
X168703571Y-136410000D01*
X168846428Y-136338571D01*
X169132142Y-136338571D01*
X169275000Y-136410000D01*
X169346428Y-136481428D01*
X169417857Y-136624285D01*
X169417857Y-136695714D01*
X169346428Y-136838571D01*
X169275000Y-136910000D01*
X169132142Y-136981428D01*
X168846428Y-136981428D01*
X168703571Y-137052857D01*
X168632142Y-137124285D01*
X168560714Y-137267142D01*
X168560714Y-137552857D01*
X168632142Y-137695714D01*
X168703571Y-137767142D01*
X168846428Y-137838571D01*
X169132142Y-137838571D01*
X169275000Y-137767142D01*
X169346428Y-137695714D01*
X169417857Y-137552857D01*
X169417857Y-137267142D01*
X169346428Y-137124285D01*
X169275000Y-137052857D01*
X169132142Y-136981428D01*
X167132142Y-133941428D02*
X167203571Y-133870000D01*
X167346428Y-133798571D01*
X167703571Y-133798571D01*
X167846428Y-133870000D01*
X167917857Y-133941428D01*
X167989285Y-134084285D01*
X167989285Y-134227142D01*
X167917857Y-134441428D01*
X167060714Y-135298571D01*
X167989285Y-135298571D01*
X168703571Y-135298571D02*
X168989285Y-135298571D01*
X169132142Y-135227142D01*
X169203571Y-135155714D01*
X169346428Y-134941428D01*
X169417857Y-134655714D01*
X169417857Y-134084285D01*
X169346428Y-133941428D01*
X169275000Y-133870000D01*
X169132142Y-133798571D01*
X168846428Y-133798571D01*
X168703571Y-133870000D01*
X168632142Y-133941428D01*
X168560714Y-134084285D01*
X168560714Y-134441428D01*
X168632142Y-134584285D01*
X168703571Y-134655714D01*
X168846428Y-134727142D01*
X169132142Y-134727142D01*
X169275000Y-134655714D01*
X169346428Y-134584285D01*
X169417857Y-134441428D01*
X167060714Y-131258571D02*
X167989285Y-131258571D01*
X167489285Y-131830000D01*
X167703571Y-131830000D01*
X167846428Y-131901428D01*
X167917857Y-131972857D01*
X167989285Y-132115714D01*
X167989285Y-132472857D01*
X167917857Y-132615714D01*
X167846428Y-132687142D01*
X167703571Y-132758571D01*
X167275000Y-132758571D01*
X167132142Y-132687142D01*
X167060714Y-132615714D01*
X168917857Y-131258571D02*
X169060714Y-131258571D01*
X169203571Y-131330000D01*
X169275000Y-131401428D01*
X169346428Y-131544285D01*
X169417857Y-131830000D01*
X169417857Y-132187142D01*
X169346428Y-132472857D01*
X169275000Y-132615714D01*
X169203571Y-132687142D01*
X169060714Y-132758571D01*
X168917857Y-132758571D01*
X168775000Y-132687142D01*
X168703571Y-132615714D01*
X168632142Y-132472857D01*
X168560714Y-132187142D01*
X168560714Y-131830000D01*
X168632142Y-131544285D01*
X168703571Y-131401428D01*
X168775000Y-131330000D01*
X168917857Y-131258571D01*
X167060714Y-128718571D02*
X167989285Y-128718571D01*
X167489285Y-129290000D01*
X167703571Y-129290000D01*
X167846428Y-129361428D01*
X167917857Y-129432857D01*
X167989285Y-129575714D01*
X167989285Y-129932857D01*
X167917857Y-130075714D01*
X167846428Y-130147142D01*
X167703571Y-130218571D01*
X167275000Y-130218571D01*
X167132142Y-130147142D01*
X167060714Y-130075714D01*
X169417857Y-130218571D02*
X168560714Y-130218571D01*
X168989285Y-130218571D02*
X168989285Y-128718571D01*
X168846428Y-128932857D01*
X168703571Y-129075714D01*
X168560714Y-129147142D01*
X167060714Y-126178571D02*
X167989285Y-126178571D01*
X167489285Y-126750000D01*
X167703571Y-126750000D01*
X167846428Y-126821428D01*
X167917857Y-126892857D01*
X167989285Y-127035714D01*
X167989285Y-127392857D01*
X167917857Y-127535714D01*
X167846428Y-127607142D01*
X167703571Y-127678571D01*
X167275000Y-127678571D01*
X167132142Y-127607142D01*
X167060714Y-127535714D01*
X168560714Y-126321428D02*
X168632142Y-126250000D01*
X168775000Y-126178571D01*
X169132142Y-126178571D01*
X169275000Y-126250000D01*
X169346428Y-126321428D01*
X169417857Y-126464285D01*
X169417857Y-126607142D01*
X169346428Y-126821428D01*
X168489285Y-127678571D01*
X169417857Y-127678571D01*
X167060714Y-123638571D02*
X167989285Y-123638571D01*
X167489285Y-124210000D01*
X167703571Y-124210000D01*
X167846428Y-124281428D01*
X167917857Y-124352857D01*
X167989285Y-124495714D01*
X167989285Y-124852857D01*
X167917857Y-124995714D01*
X167846428Y-125067142D01*
X167703571Y-125138571D01*
X167275000Y-125138571D01*
X167132142Y-125067142D01*
X167060714Y-124995714D01*
X168489285Y-123638571D02*
X169417857Y-123638571D01*
X168917857Y-124210000D01*
X169132142Y-124210000D01*
X169275000Y-124281428D01*
X169346428Y-124352857D01*
X169417857Y-124495714D01*
X169417857Y-124852857D01*
X169346428Y-124995714D01*
X169275000Y-125067142D01*
X169132142Y-125138571D01*
X168703571Y-125138571D01*
X168560714Y-125067142D01*
X168489285Y-124995714D01*
X167060714Y-113478571D02*
X167989285Y-113478571D01*
X167489285Y-114050000D01*
X167703571Y-114050000D01*
X167846428Y-114121428D01*
X167917857Y-114192857D01*
X167989285Y-114335714D01*
X167989285Y-114692857D01*
X167917857Y-114835714D01*
X167846428Y-114907142D01*
X167703571Y-114978571D01*
X167275000Y-114978571D01*
X167132142Y-114907142D01*
X167060714Y-114835714D01*
X169275000Y-113978571D02*
X169275000Y-114978571D01*
X168917857Y-113407142D02*
X168560714Y-114478571D01*
X169489285Y-114478571D01*
X167060714Y-110938571D02*
X167989285Y-110938571D01*
X167489285Y-111510000D01*
X167703571Y-111510000D01*
X167846428Y-111581428D01*
X167917857Y-111652857D01*
X167989285Y-111795714D01*
X167989285Y-112152857D01*
X167917857Y-112295714D01*
X167846428Y-112367142D01*
X167703571Y-112438571D01*
X167275000Y-112438571D01*
X167132142Y-112367142D01*
X167060714Y-112295714D01*
X169346428Y-110938571D02*
X168632142Y-110938571D01*
X168560714Y-111652857D01*
X168632142Y-111581428D01*
X168775000Y-111510000D01*
X169132142Y-111510000D01*
X169275000Y-111581428D01*
X169346428Y-111652857D01*
X169417857Y-111795714D01*
X169417857Y-112152857D01*
X169346428Y-112295714D01*
X169275000Y-112367142D01*
X169132142Y-112438571D01*
X168775000Y-112438571D01*
X168632142Y-112367142D01*
X168560714Y-112295714D01*
X167060714Y-108398571D02*
X167989285Y-108398571D01*
X167489285Y-108970000D01*
X167703571Y-108970000D01*
X167846428Y-109041428D01*
X167917857Y-109112857D01*
X167989285Y-109255714D01*
X167989285Y-109612857D01*
X167917857Y-109755714D01*
X167846428Y-109827142D01*
X167703571Y-109898571D01*
X167275000Y-109898571D01*
X167132142Y-109827142D01*
X167060714Y-109755714D01*
X169275000Y-108398571D02*
X168989285Y-108398571D01*
X168846428Y-108470000D01*
X168775000Y-108541428D01*
X168632142Y-108755714D01*
X168560714Y-109041428D01*
X168560714Y-109612857D01*
X168632142Y-109755714D01*
X168703571Y-109827142D01*
X168846428Y-109898571D01*
X169132142Y-109898571D01*
X169275000Y-109827142D01*
X169346428Y-109755714D01*
X169417857Y-109612857D01*
X169417857Y-109255714D01*
X169346428Y-109112857D01*
X169275000Y-109041428D01*
X169132142Y-108970000D01*
X168846428Y-108970000D01*
X168703571Y-109041428D01*
X168632142Y-109112857D01*
X168560714Y-109255714D01*
X167060714Y-105858571D02*
X167989285Y-105858571D01*
X167489285Y-106430000D01*
X167703571Y-106430000D01*
X167846428Y-106501428D01*
X167917857Y-106572857D01*
X167989285Y-106715714D01*
X167989285Y-107072857D01*
X167917857Y-107215714D01*
X167846428Y-107287142D01*
X167703571Y-107358571D01*
X167275000Y-107358571D01*
X167132142Y-107287142D01*
X167060714Y-107215714D01*
X168489285Y-105858571D02*
X169489285Y-105858571D01*
X168846428Y-107358571D01*
X167060714Y-103318571D02*
X167989285Y-103318571D01*
X167489285Y-103890000D01*
X167703571Y-103890000D01*
X167846428Y-103961428D01*
X167917857Y-104032857D01*
X167989285Y-104175714D01*
X167989285Y-104532857D01*
X167917857Y-104675714D01*
X167846428Y-104747142D01*
X167703571Y-104818571D01*
X167275000Y-104818571D01*
X167132142Y-104747142D01*
X167060714Y-104675714D01*
X168846428Y-103961428D02*
X168703571Y-103890000D01*
X168632142Y-103818571D01*
X168560714Y-103675714D01*
X168560714Y-103604285D01*
X168632142Y-103461428D01*
X168703571Y-103390000D01*
X168846428Y-103318571D01*
X169132142Y-103318571D01*
X169275000Y-103390000D01*
X169346428Y-103461428D01*
X169417857Y-103604285D01*
X169417857Y-103675714D01*
X169346428Y-103818571D01*
X169275000Y-103890000D01*
X169132142Y-103961428D01*
X168846428Y-103961428D01*
X168703571Y-104032857D01*
X168632142Y-104104285D01*
X168560714Y-104247142D01*
X168560714Y-104532857D01*
X168632142Y-104675714D01*
X168703571Y-104747142D01*
X168846428Y-104818571D01*
X169132142Y-104818571D01*
X169275000Y-104747142D01*
X169346428Y-104675714D01*
X169417857Y-104532857D01*
X169417857Y-104247142D01*
X169346428Y-104104285D01*
X169275000Y-104032857D01*
X169132142Y-103961428D01*
X167060714Y-100778571D02*
X167989285Y-100778571D01*
X167489285Y-101350000D01*
X167703571Y-101350000D01*
X167846428Y-101421428D01*
X167917857Y-101492857D01*
X167989285Y-101635714D01*
X167989285Y-101992857D01*
X167917857Y-102135714D01*
X167846428Y-102207142D01*
X167703571Y-102278571D01*
X167275000Y-102278571D01*
X167132142Y-102207142D01*
X167060714Y-102135714D01*
X168703571Y-102278571D02*
X168989285Y-102278571D01*
X169132142Y-102207142D01*
X169203571Y-102135714D01*
X169346428Y-101921428D01*
X169417857Y-101635714D01*
X169417857Y-101064285D01*
X169346428Y-100921428D01*
X169275000Y-100850000D01*
X169132142Y-100778571D01*
X168846428Y-100778571D01*
X168703571Y-100850000D01*
X168632142Y-100921428D01*
X168560714Y-101064285D01*
X168560714Y-101421428D01*
X168632142Y-101564285D01*
X168703571Y-101635714D01*
X168846428Y-101707142D01*
X169132142Y-101707142D01*
X169275000Y-101635714D01*
X169346428Y-101564285D01*
X169417857Y-101421428D01*
X167846428Y-98738571D02*
X167846428Y-99738571D01*
X167489285Y-98167142D02*
X167132142Y-99238571D01*
X168060714Y-99238571D01*
X168917857Y-98238571D02*
X169060714Y-98238571D01*
X169203571Y-98310000D01*
X169275000Y-98381428D01*
X169346428Y-98524285D01*
X169417857Y-98810000D01*
X169417857Y-99167142D01*
X169346428Y-99452857D01*
X169275000Y-99595714D01*
X169203571Y-99667142D01*
X169060714Y-99738571D01*
X168917857Y-99738571D01*
X168775000Y-99667142D01*
X168703571Y-99595714D01*
X168632142Y-99452857D01*
X168560714Y-99167142D01*
X168560714Y-98810000D01*
X168632142Y-98524285D01*
X168703571Y-98381428D01*
X168775000Y-98310000D01*
X168917857Y-98238571D01*
X167846428Y-96198571D02*
X167846428Y-97198571D01*
X167489285Y-95627142D02*
X167132142Y-96698571D01*
X168060714Y-96698571D01*
X169417857Y-97198571D02*
X168560714Y-97198571D01*
X168989285Y-97198571D02*
X168989285Y-95698571D01*
X168846428Y-95912857D01*
X168703571Y-96055714D01*
X168560714Y-96127142D01*
X167846428Y-93658571D02*
X167846428Y-94658571D01*
X167489285Y-93087142D02*
X167132142Y-94158571D01*
X168060714Y-94158571D01*
X168560714Y-93301428D02*
X168632142Y-93230000D01*
X168775000Y-93158571D01*
X169132142Y-93158571D01*
X169275000Y-93230000D01*
X169346428Y-93301428D01*
X169417857Y-93444285D01*
X169417857Y-93587142D01*
X169346428Y-93801428D01*
X168489285Y-94658571D01*
X169417857Y-94658571D01*
X167846428Y-91118571D02*
X167846428Y-92118571D01*
X167489285Y-90547142D02*
X167132142Y-91618571D01*
X168060714Y-91618571D01*
X168489285Y-90618571D02*
X169417857Y-90618571D01*
X168917857Y-91190000D01*
X169132142Y-91190000D01*
X169275000Y-91261428D01*
X169346428Y-91332857D01*
X169417857Y-91475714D01*
X169417857Y-91832857D01*
X169346428Y-91975714D01*
X169275000Y-92047142D01*
X169132142Y-92118571D01*
X168703571Y-92118571D01*
X168560714Y-92047142D01*
X168489285Y-91975714D01*
X167846428Y-88578571D02*
X167846428Y-89578571D01*
X167489285Y-88007142D02*
X167132142Y-89078571D01*
X168060714Y-89078571D01*
X169275000Y-88578571D02*
X169275000Y-89578571D01*
X168917857Y-88007142D02*
X168560714Y-89078571D01*
X169489285Y-89078571D01*
X168160000Y-120522857D02*
X168088571Y-120665714D01*
X168088571Y-120880000D01*
X168160000Y-121094285D01*
X168302857Y-121237142D01*
X168445714Y-121308571D01*
X168731428Y-121380000D01*
X168945714Y-121380000D01*
X169231428Y-121308571D01*
X169374285Y-121237142D01*
X169517142Y-121094285D01*
X169588571Y-120880000D01*
X169588571Y-120737142D01*
X169517142Y-120522857D01*
X169445714Y-120451428D01*
X168945714Y-120451428D01*
X168945714Y-120737142D01*
X169588571Y-119808571D02*
X168088571Y-119808571D01*
X169588571Y-118951428D01*
X168088571Y-118951428D01*
X169588571Y-118237142D02*
X168088571Y-118237142D01*
X168088571Y-117880000D01*
X168160000Y-117665714D01*
X168302857Y-117522857D01*
X168445714Y-117451428D01*
X168731428Y-117380000D01*
X168945714Y-117380000D01*
X169231428Y-117451428D01*
X169374285Y-117522857D01*
X169517142Y-117665714D01*
X169588571Y-117880000D01*
X169588571Y-118237142D01*
X156653571Y-104024285D02*
X156653571Y-103167142D01*
X158153571Y-103595714D02*
X156653571Y-103595714D01*
X158296428Y-101667142D02*
X158225000Y-101810000D01*
X158082142Y-101952857D01*
X157867857Y-102167142D01*
X157796428Y-102310000D01*
X157796428Y-102452857D01*
X158153571Y-102381428D02*
X158082142Y-102524285D01*
X157939285Y-102667142D01*
X157653571Y-102738571D01*
X157153571Y-102738571D01*
X156867857Y-102667142D01*
X156725000Y-102524285D01*
X156653571Y-102381428D01*
X156653571Y-102095714D01*
X156725000Y-101952857D01*
X156867857Y-101810000D01*
X157153571Y-101738571D01*
X157653571Y-101738571D01*
X157939285Y-101810000D01*
X158082142Y-101952857D01*
X158153571Y-102095714D01*
X158153571Y-102381428D01*
X157367857Y-100595714D02*
X157367857Y-101095714D01*
X158153571Y-101095714D02*
X156653571Y-101095714D01*
X156653571Y-100381428D01*
X158153571Y-99810000D02*
X156653571Y-99810000D01*
X156653571Y-99238571D01*
X156725000Y-99095714D01*
X156796428Y-99024285D01*
X156939285Y-98952857D01*
X157153571Y-98952857D01*
X157296428Y-99024285D01*
X157367857Y-99095714D01*
X157439285Y-99238571D01*
X157439285Y-99810000D01*
X157582142Y-98310000D02*
X157582142Y-97167142D01*
X157153571Y-95810000D02*
X158153571Y-95810000D01*
X156582142Y-96167142D02*
X157653571Y-96524285D01*
X157653571Y-95595714D01*
X157153571Y-94381428D02*
X158153571Y-94381428D01*
X156582142Y-94738571D02*
X157653571Y-95095714D01*
X157653571Y-94167142D01*
X159203571Y-102202857D02*
X159203571Y-102060000D01*
X159275000Y-101917142D01*
X159346428Y-101845714D01*
X159489285Y-101774285D01*
X159775000Y-101702857D01*
X160132142Y-101702857D01*
X160417857Y-101774285D01*
X160560714Y-101845714D01*
X160632142Y-101917142D01*
X160703571Y-102060000D01*
X160703571Y-102202857D01*
X160632142Y-102345714D01*
X160560714Y-102417142D01*
X160417857Y-102488571D01*
X160132142Y-102560000D01*
X159775000Y-102560000D01*
X159489285Y-102488571D01*
X159346428Y-102417142D01*
X159275000Y-102345714D01*
X159203571Y-102202857D01*
X160560714Y-101060000D02*
X160632142Y-100988571D01*
X160703571Y-101060000D01*
X160632142Y-101131428D01*
X160560714Y-101060000D01*
X160703571Y-101060000D01*
X159846428Y-100131428D02*
X159775000Y-100274285D01*
X159703571Y-100345714D01*
X159560714Y-100417142D01*
X159489285Y-100417142D01*
X159346428Y-100345714D01*
X159275000Y-100274285D01*
X159203571Y-100131428D01*
X159203571Y-99845714D01*
X159275000Y-99702857D01*
X159346428Y-99631428D01*
X159489285Y-99560000D01*
X159560714Y-99560000D01*
X159703571Y-99631428D01*
X159775000Y-99702857D01*
X159846428Y-99845714D01*
X159846428Y-100131428D01*
X159917857Y-100274285D01*
X159989285Y-100345714D01*
X160132142Y-100417142D01*
X160417857Y-100417142D01*
X160560714Y-100345714D01*
X160632142Y-100274285D01*
X160703571Y-100131428D01*
X160703571Y-99845714D01*
X160632142Y-99702857D01*
X160560714Y-99631428D01*
X160417857Y-99560000D01*
X160132142Y-99560000D01*
X159989285Y-99631428D01*
X159917857Y-99702857D01*
X159846428Y-99845714D01*
X160703571Y-98917142D02*
X159703571Y-98917142D01*
X159846428Y-98917142D02*
X159775000Y-98845714D01*
X159703571Y-98702857D01*
X159703571Y-98488571D01*
X159775000Y-98345714D01*
X159917857Y-98274285D01*
X160703571Y-98274285D01*
X159917857Y-98274285D02*
X159775000Y-98202857D01*
X159703571Y-98060000D01*
X159703571Y-97845714D01*
X159775000Y-97702857D01*
X159917857Y-97631428D01*
X160703571Y-97631428D01*
X160703571Y-96917142D02*
X159703571Y-96917142D01*
X159846428Y-96917142D02*
X159775000Y-96845714D01*
X159703571Y-96702857D01*
X159703571Y-96488571D01*
X159775000Y-96345714D01*
X159917857Y-96274285D01*
X160703571Y-96274285D01*
X159917857Y-96274285D02*
X159775000Y-96202857D01*
X159703571Y-96060000D01*
X159703571Y-95845714D01*
X159775000Y-95702857D01*
X159917857Y-95631428D01*
X160703571Y-95631428D01*
X127443571Y-104024285D02*
X127443571Y-103167142D01*
X128943571Y-103595714D02*
X127443571Y-103595714D01*
X129086428Y-101667142D02*
X129015000Y-101810000D01*
X128872142Y-101952857D01*
X128657857Y-102167142D01*
X128586428Y-102310000D01*
X128586428Y-102452857D01*
X128943571Y-102381428D02*
X128872142Y-102524285D01*
X128729285Y-102667142D01*
X128443571Y-102738571D01*
X127943571Y-102738571D01*
X127657857Y-102667142D01*
X127515000Y-102524285D01*
X127443571Y-102381428D01*
X127443571Y-102095714D01*
X127515000Y-101952857D01*
X127657857Y-101810000D01*
X127943571Y-101738571D01*
X128443571Y-101738571D01*
X128729285Y-101810000D01*
X128872142Y-101952857D01*
X128943571Y-102095714D01*
X128943571Y-102381428D01*
X128157857Y-100595714D02*
X128157857Y-101095714D01*
X128943571Y-101095714D02*
X127443571Y-101095714D01*
X127443571Y-100381428D01*
X128943571Y-99810000D02*
X127443571Y-99810000D01*
X127443571Y-99238571D01*
X127515000Y-99095714D01*
X127586428Y-99024285D01*
X127729285Y-98952857D01*
X127943571Y-98952857D01*
X128086428Y-99024285D01*
X128157857Y-99095714D01*
X128229285Y-99238571D01*
X128229285Y-99810000D01*
X128372142Y-98310000D02*
X128372142Y-97167142D01*
X127943571Y-95810000D02*
X128943571Y-95810000D01*
X127372142Y-96167142D02*
X128443571Y-96524285D01*
X128443571Y-95595714D01*
X127943571Y-94381428D02*
X128943571Y-94381428D01*
X127372142Y-94738571D02*
X128443571Y-95095714D01*
X128443571Y-94167142D01*
X129993571Y-102202857D02*
X129993571Y-102060000D01*
X130065000Y-101917142D01*
X130136428Y-101845714D01*
X130279285Y-101774285D01*
X130565000Y-101702857D01*
X130922142Y-101702857D01*
X131207857Y-101774285D01*
X131350714Y-101845714D01*
X131422142Y-101917142D01*
X131493571Y-102060000D01*
X131493571Y-102202857D01*
X131422142Y-102345714D01*
X131350714Y-102417142D01*
X131207857Y-102488571D01*
X130922142Y-102560000D01*
X130565000Y-102560000D01*
X130279285Y-102488571D01*
X130136428Y-102417142D01*
X130065000Y-102345714D01*
X129993571Y-102202857D01*
X131350714Y-101060000D02*
X131422142Y-100988571D01*
X131493571Y-101060000D01*
X131422142Y-101131428D01*
X131350714Y-101060000D01*
X131493571Y-101060000D01*
X130636428Y-100131428D02*
X130565000Y-100274285D01*
X130493571Y-100345714D01*
X130350714Y-100417142D01*
X130279285Y-100417142D01*
X130136428Y-100345714D01*
X130065000Y-100274285D01*
X129993571Y-100131428D01*
X129993571Y-99845714D01*
X130065000Y-99702857D01*
X130136428Y-99631428D01*
X130279285Y-99560000D01*
X130350714Y-99560000D01*
X130493571Y-99631428D01*
X130565000Y-99702857D01*
X130636428Y-99845714D01*
X130636428Y-100131428D01*
X130707857Y-100274285D01*
X130779285Y-100345714D01*
X130922142Y-100417142D01*
X131207857Y-100417142D01*
X131350714Y-100345714D01*
X131422142Y-100274285D01*
X131493571Y-100131428D01*
X131493571Y-99845714D01*
X131422142Y-99702857D01*
X131350714Y-99631428D01*
X131207857Y-99560000D01*
X130922142Y-99560000D01*
X130779285Y-99631428D01*
X130707857Y-99702857D01*
X130636428Y-99845714D01*
X131493571Y-98917142D02*
X130493571Y-98917142D01*
X130636428Y-98917142D02*
X130565000Y-98845714D01*
X130493571Y-98702857D01*
X130493571Y-98488571D01*
X130565000Y-98345714D01*
X130707857Y-98274285D01*
X131493571Y-98274285D01*
X130707857Y-98274285D02*
X130565000Y-98202857D01*
X130493571Y-98060000D01*
X130493571Y-97845714D01*
X130565000Y-97702857D01*
X130707857Y-97631428D01*
X131493571Y-97631428D01*
X131493571Y-96917142D02*
X130493571Y-96917142D01*
X130636428Y-96917142D02*
X130565000Y-96845714D01*
X130493571Y-96702857D01*
X130493571Y-96488571D01*
X130565000Y-96345714D01*
X130707857Y-96274285D01*
X131493571Y-96274285D01*
X130707857Y-96274285D02*
X130565000Y-96202857D01*
X130493571Y-96060000D01*
X130493571Y-95845714D01*
X130565000Y-95702857D01*
X130707857Y-95631428D01*
X131493571Y-95631428D01*
X138950000Y-120522857D02*
X138878571Y-120665714D01*
X138878571Y-120880000D01*
X138950000Y-121094285D01*
X139092857Y-121237142D01*
X139235714Y-121308571D01*
X139521428Y-121380000D01*
X139735714Y-121380000D01*
X140021428Y-121308571D01*
X140164285Y-121237142D01*
X140307142Y-121094285D01*
X140378571Y-120880000D01*
X140378571Y-120737142D01*
X140307142Y-120522857D01*
X140235714Y-120451428D01*
X139735714Y-120451428D01*
X139735714Y-120737142D01*
X140378571Y-119808571D02*
X138878571Y-119808571D01*
X140378571Y-118951428D01*
X138878571Y-118951428D01*
X140378571Y-118237142D02*
X138878571Y-118237142D01*
X138878571Y-117880000D01*
X138950000Y-117665714D01*
X139092857Y-117522857D01*
X139235714Y-117451428D01*
X139521428Y-117380000D01*
X139735714Y-117380000D01*
X140021428Y-117451428D01*
X140164285Y-117522857D01*
X140307142Y-117665714D01*
X140378571Y-117880000D01*
X140378571Y-118237142D01*
X138636428Y-88578571D02*
X138636428Y-89578571D01*
X138279285Y-88007142D02*
X137922142Y-89078571D01*
X138850714Y-89078571D01*
X140065000Y-88578571D02*
X140065000Y-89578571D01*
X139707857Y-88007142D02*
X139350714Y-89078571D01*
X140279285Y-89078571D01*
X138636428Y-91118571D02*
X138636428Y-92118571D01*
X138279285Y-90547142D02*
X137922142Y-91618571D01*
X138850714Y-91618571D01*
X139279285Y-90618571D02*
X140207857Y-90618571D01*
X139707857Y-91190000D01*
X139922142Y-91190000D01*
X140065000Y-91261428D01*
X140136428Y-91332857D01*
X140207857Y-91475714D01*
X140207857Y-91832857D01*
X140136428Y-91975714D01*
X140065000Y-92047142D01*
X139922142Y-92118571D01*
X139493571Y-92118571D01*
X139350714Y-92047142D01*
X139279285Y-91975714D01*
X138636428Y-93658571D02*
X138636428Y-94658571D01*
X138279285Y-93087142D02*
X137922142Y-94158571D01*
X138850714Y-94158571D01*
X139350714Y-93301428D02*
X139422142Y-93230000D01*
X139565000Y-93158571D01*
X139922142Y-93158571D01*
X140065000Y-93230000D01*
X140136428Y-93301428D01*
X140207857Y-93444285D01*
X140207857Y-93587142D01*
X140136428Y-93801428D01*
X139279285Y-94658571D01*
X140207857Y-94658571D01*
X138636428Y-96198571D02*
X138636428Y-97198571D01*
X138279285Y-95627142D02*
X137922142Y-96698571D01*
X138850714Y-96698571D01*
X140207857Y-97198571D02*
X139350714Y-97198571D01*
X139779285Y-97198571D02*
X139779285Y-95698571D01*
X139636428Y-95912857D01*
X139493571Y-96055714D01*
X139350714Y-96127142D01*
X138636428Y-98738571D02*
X138636428Y-99738571D01*
X138279285Y-98167142D02*
X137922142Y-99238571D01*
X138850714Y-99238571D01*
X139707857Y-98238571D02*
X139850714Y-98238571D01*
X139993571Y-98310000D01*
X140065000Y-98381428D01*
X140136428Y-98524285D01*
X140207857Y-98810000D01*
X140207857Y-99167142D01*
X140136428Y-99452857D01*
X140065000Y-99595714D01*
X139993571Y-99667142D01*
X139850714Y-99738571D01*
X139707857Y-99738571D01*
X139565000Y-99667142D01*
X139493571Y-99595714D01*
X139422142Y-99452857D01*
X139350714Y-99167142D01*
X139350714Y-98810000D01*
X139422142Y-98524285D01*
X139493571Y-98381428D01*
X139565000Y-98310000D01*
X139707857Y-98238571D01*
X137850714Y-100778571D02*
X138779285Y-100778571D01*
X138279285Y-101350000D01*
X138493571Y-101350000D01*
X138636428Y-101421428D01*
X138707857Y-101492857D01*
X138779285Y-101635714D01*
X138779285Y-101992857D01*
X138707857Y-102135714D01*
X138636428Y-102207142D01*
X138493571Y-102278571D01*
X138065000Y-102278571D01*
X137922142Y-102207142D01*
X137850714Y-102135714D01*
X139493571Y-102278571D02*
X139779285Y-102278571D01*
X139922142Y-102207142D01*
X139993571Y-102135714D01*
X140136428Y-101921428D01*
X140207857Y-101635714D01*
X140207857Y-101064285D01*
X140136428Y-100921428D01*
X140065000Y-100850000D01*
X139922142Y-100778571D01*
X139636428Y-100778571D01*
X139493571Y-100850000D01*
X139422142Y-100921428D01*
X139350714Y-101064285D01*
X139350714Y-101421428D01*
X139422142Y-101564285D01*
X139493571Y-101635714D01*
X139636428Y-101707142D01*
X139922142Y-101707142D01*
X140065000Y-101635714D01*
X140136428Y-101564285D01*
X140207857Y-101421428D01*
X137850714Y-103318571D02*
X138779285Y-103318571D01*
X138279285Y-103890000D01*
X138493571Y-103890000D01*
X138636428Y-103961428D01*
X138707857Y-104032857D01*
X138779285Y-104175714D01*
X138779285Y-104532857D01*
X138707857Y-104675714D01*
X138636428Y-104747142D01*
X138493571Y-104818571D01*
X138065000Y-104818571D01*
X137922142Y-104747142D01*
X137850714Y-104675714D01*
X139636428Y-103961428D02*
X139493571Y-103890000D01*
X139422142Y-103818571D01*
X139350714Y-103675714D01*
X139350714Y-103604285D01*
X139422142Y-103461428D01*
X139493571Y-103390000D01*
X139636428Y-103318571D01*
X139922142Y-103318571D01*
X140065000Y-103390000D01*
X140136428Y-103461428D01*
X140207857Y-103604285D01*
X140207857Y-103675714D01*
X140136428Y-103818571D01*
X140065000Y-103890000D01*
X139922142Y-103961428D01*
X139636428Y-103961428D01*
X139493571Y-104032857D01*
X139422142Y-104104285D01*
X139350714Y-104247142D01*
X139350714Y-104532857D01*
X139422142Y-104675714D01*
X139493571Y-104747142D01*
X139636428Y-104818571D01*
X139922142Y-104818571D01*
X140065000Y-104747142D01*
X140136428Y-104675714D01*
X140207857Y-104532857D01*
X140207857Y-104247142D01*
X140136428Y-104104285D01*
X140065000Y-104032857D01*
X139922142Y-103961428D01*
X137850714Y-105858571D02*
X138779285Y-105858571D01*
X138279285Y-106430000D01*
X138493571Y-106430000D01*
X138636428Y-106501428D01*
X138707857Y-106572857D01*
X138779285Y-106715714D01*
X138779285Y-107072857D01*
X138707857Y-107215714D01*
X138636428Y-107287142D01*
X138493571Y-107358571D01*
X138065000Y-107358571D01*
X137922142Y-107287142D01*
X137850714Y-107215714D01*
X139279285Y-105858571D02*
X140279285Y-105858571D01*
X139636428Y-107358571D01*
X137850714Y-108398571D02*
X138779285Y-108398571D01*
X138279285Y-108970000D01*
X138493571Y-108970000D01*
X138636428Y-109041428D01*
X138707857Y-109112857D01*
X138779285Y-109255714D01*
X138779285Y-109612857D01*
X138707857Y-109755714D01*
X138636428Y-109827142D01*
X138493571Y-109898571D01*
X138065000Y-109898571D01*
X137922142Y-109827142D01*
X137850714Y-109755714D01*
X140065000Y-108398571D02*
X139779285Y-108398571D01*
X139636428Y-108470000D01*
X139565000Y-108541428D01*
X139422142Y-108755714D01*
X139350714Y-109041428D01*
X139350714Y-109612857D01*
X139422142Y-109755714D01*
X139493571Y-109827142D01*
X139636428Y-109898571D01*
X139922142Y-109898571D01*
X140065000Y-109827142D01*
X140136428Y-109755714D01*
X140207857Y-109612857D01*
X140207857Y-109255714D01*
X140136428Y-109112857D01*
X140065000Y-109041428D01*
X139922142Y-108970000D01*
X139636428Y-108970000D01*
X139493571Y-109041428D01*
X139422142Y-109112857D01*
X139350714Y-109255714D01*
X137850714Y-110938571D02*
X138779285Y-110938571D01*
X138279285Y-111510000D01*
X138493571Y-111510000D01*
X138636428Y-111581428D01*
X138707857Y-111652857D01*
X138779285Y-111795714D01*
X138779285Y-112152857D01*
X138707857Y-112295714D01*
X138636428Y-112367142D01*
X138493571Y-112438571D01*
X138065000Y-112438571D01*
X137922142Y-112367142D01*
X137850714Y-112295714D01*
X140136428Y-110938571D02*
X139422142Y-110938571D01*
X139350714Y-111652857D01*
X139422142Y-111581428D01*
X139565000Y-111510000D01*
X139922142Y-111510000D01*
X140065000Y-111581428D01*
X140136428Y-111652857D01*
X140207857Y-111795714D01*
X140207857Y-112152857D01*
X140136428Y-112295714D01*
X140065000Y-112367142D01*
X139922142Y-112438571D01*
X139565000Y-112438571D01*
X139422142Y-112367142D01*
X139350714Y-112295714D01*
X137850714Y-113478571D02*
X138779285Y-113478571D01*
X138279285Y-114050000D01*
X138493571Y-114050000D01*
X138636428Y-114121428D01*
X138707857Y-114192857D01*
X138779285Y-114335714D01*
X138779285Y-114692857D01*
X138707857Y-114835714D01*
X138636428Y-114907142D01*
X138493571Y-114978571D01*
X138065000Y-114978571D01*
X137922142Y-114907142D01*
X137850714Y-114835714D01*
X140065000Y-113978571D02*
X140065000Y-114978571D01*
X139707857Y-113407142D02*
X139350714Y-114478571D01*
X140279285Y-114478571D01*
X137850714Y-123638571D02*
X138779285Y-123638571D01*
X138279285Y-124210000D01*
X138493571Y-124210000D01*
X138636428Y-124281428D01*
X138707857Y-124352857D01*
X138779285Y-124495714D01*
X138779285Y-124852857D01*
X138707857Y-124995714D01*
X138636428Y-125067142D01*
X138493571Y-125138571D01*
X138065000Y-125138571D01*
X137922142Y-125067142D01*
X137850714Y-124995714D01*
X139279285Y-123638571D02*
X140207857Y-123638571D01*
X139707857Y-124210000D01*
X139922142Y-124210000D01*
X140065000Y-124281428D01*
X140136428Y-124352857D01*
X140207857Y-124495714D01*
X140207857Y-124852857D01*
X140136428Y-124995714D01*
X140065000Y-125067142D01*
X139922142Y-125138571D01*
X139493571Y-125138571D01*
X139350714Y-125067142D01*
X139279285Y-124995714D01*
X137850714Y-126178571D02*
X138779285Y-126178571D01*
X138279285Y-126750000D01*
X138493571Y-126750000D01*
X138636428Y-126821428D01*
X138707857Y-126892857D01*
X138779285Y-127035714D01*
X138779285Y-127392857D01*
X138707857Y-127535714D01*
X138636428Y-127607142D01*
X138493571Y-127678571D01*
X138065000Y-127678571D01*
X137922142Y-127607142D01*
X137850714Y-127535714D01*
X139350714Y-126321428D02*
X139422142Y-126250000D01*
X139565000Y-126178571D01*
X139922142Y-126178571D01*
X140065000Y-126250000D01*
X140136428Y-126321428D01*
X140207857Y-126464285D01*
X140207857Y-126607142D01*
X140136428Y-126821428D01*
X139279285Y-127678571D01*
X140207857Y-127678571D01*
X137850714Y-128718571D02*
X138779285Y-128718571D01*
X138279285Y-129290000D01*
X138493571Y-129290000D01*
X138636428Y-129361428D01*
X138707857Y-129432857D01*
X138779285Y-129575714D01*
X138779285Y-129932857D01*
X138707857Y-130075714D01*
X138636428Y-130147142D01*
X138493571Y-130218571D01*
X138065000Y-130218571D01*
X137922142Y-130147142D01*
X137850714Y-130075714D01*
X140207857Y-130218571D02*
X139350714Y-130218571D01*
X139779285Y-130218571D02*
X139779285Y-128718571D01*
X139636428Y-128932857D01*
X139493571Y-129075714D01*
X139350714Y-129147142D01*
X137850714Y-131258571D02*
X138779285Y-131258571D01*
X138279285Y-131830000D01*
X138493571Y-131830000D01*
X138636428Y-131901428D01*
X138707857Y-131972857D01*
X138779285Y-132115714D01*
X138779285Y-132472857D01*
X138707857Y-132615714D01*
X138636428Y-132687142D01*
X138493571Y-132758571D01*
X138065000Y-132758571D01*
X137922142Y-132687142D01*
X137850714Y-132615714D01*
X139707857Y-131258571D02*
X139850714Y-131258571D01*
X139993571Y-131330000D01*
X140065000Y-131401428D01*
X140136428Y-131544285D01*
X140207857Y-131830000D01*
X140207857Y-132187142D01*
X140136428Y-132472857D01*
X140065000Y-132615714D01*
X139993571Y-132687142D01*
X139850714Y-132758571D01*
X139707857Y-132758571D01*
X139565000Y-132687142D01*
X139493571Y-132615714D01*
X139422142Y-132472857D01*
X139350714Y-132187142D01*
X139350714Y-131830000D01*
X139422142Y-131544285D01*
X139493571Y-131401428D01*
X139565000Y-131330000D01*
X139707857Y-131258571D01*
X137922142Y-133941428D02*
X137993571Y-133870000D01*
X138136428Y-133798571D01*
X138493571Y-133798571D01*
X138636428Y-133870000D01*
X138707857Y-133941428D01*
X138779285Y-134084285D01*
X138779285Y-134227142D01*
X138707857Y-134441428D01*
X137850714Y-135298571D01*
X138779285Y-135298571D01*
X139493571Y-135298571D02*
X139779285Y-135298571D01*
X139922142Y-135227142D01*
X139993571Y-135155714D01*
X140136428Y-134941428D01*
X140207857Y-134655714D01*
X140207857Y-134084285D01*
X140136428Y-133941428D01*
X140065000Y-133870000D01*
X139922142Y-133798571D01*
X139636428Y-133798571D01*
X139493571Y-133870000D01*
X139422142Y-133941428D01*
X139350714Y-134084285D01*
X139350714Y-134441428D01*
X139422142Y-134584285D01*
X139493571Y-134655714D01*
X139636428Y-134727142D01*
X139922142Y-134727142D01*
X140065000Y-134655714D01*
X140136428Y-134584285D01*
X140207857Y-134441428D01*
X137922142Y-136481428D02*
X137993571Y-136410000D01*
X138136428Y-136338571D01*
X138493571Y-136338571D01*
X138636428Y-136410000D01*
X138707857Y-136481428D01*
X138779285Y-136624285D01*
X138779285Y-136767142D01*
X138707857Y-136981428D01*
X137850714Y-137838571D01*
X138779285Y-137838571D01*
X139636428Y-136981428D02*
X139493571Y-136910000D01*
X139422142Y-136838571D01*
X139350714Y-136695714D01*
X139350714Y-136624285D01*
X139422142Y-136481428D01*
X139493571Y-136410000D01*
X139636428Y-136338571D01*
X139922142Y-136338571D01*
X140065000Y-136410000D01*
X140136428Y-136481428D01*
X140207857Y-136624285D01*
X140207857Y-136695714D01*
X140136428Y-136838571D01*
X140065000Y-136910000D01*
X139922142Y-136981428D01*
X139636428Y-136981428D01*
X139493571Y-137052857D01*
X139422142Y-137124285D01*
X139350714Y-137267142D01*
X139350714Y-137552857D01*
X139422142Y-137695714D01*
X139493571Y-137767142D01*
X139636428Y-137838571D01*
X139922142Y-137838571D01*
X140065000Y-137767142D01*
X140136428Y-137695714D01*
X140207857Y-137552857D01*
X140207857Y-137267142D01*
X140136428Y-137124285D01*
X140065000Y-137052857D01*
X139922142Y-136981428D01*
X137922142Y-139021428D02*
X137993571Y-138950000D01*
X138136428Y-138878571D01*
X138493571Y-138878571D01*
X138636428Y-138950000D01*
X138707857Y-139021428D01*
X138779285Y-139164285D01*
X138779285Y-139307142D01*
X138707857Y-139521428D01*
X137850714Y-140378571D01*
X138779285Y-140378571D01*
X139279285Y-138878571D02*
X140279285Y-138878571D01*
X139636428Y-140378571D01*
X137922142Y-141561428D02*
X137993571Y-141490000D01*
X138136428Y-141418571D01*
X138493571Y-141418571D01*
X138636428Y-141490000D01*
X138707857Y-141561428D01*
X138779285Y-141704285D01*
X138779285Y-141847142D01*
X138707857Y-142061428D01*
X137850714Y-142918571D01*
X138779285Y-142918571D01*
X140065000Y-141418571D02*
X139779285Y-141418571D01*
X139636428Y-141490000D01*
X139565000Y-141561428D01*
X139422142Y-141775714D01*
X139350714Y-142061428D01*
X139350714Y-142632857D01*
X139422142Y-142775714D01*
X139493571Y-142847142D01*
X139636428Y-142918571D01*
X139922142Y-142918571D01*
X140065000Y-142847142D01*
X140136428Y-142775714D01*
X140207857Y-142632857D01*
X140207857Y-142275714D01*
X140136428Y-142132857D01*
X140065000Y-142061428D01*
X139922142Y-141990000D01*
X139636428Y-141990000D01*
X139493571Y-142061428D01*
X139422142Y-142132857D01*
X139350714Y-142275714D01*
X137922142Y-144101428D02*
X137993571Y-144030000D01*
X138136428Y-143958571D01*
X138493571Y-143958571D01*
X138636428Y-144030000D01*
X138707857Y-144101428D01*
X138779285Y-144244285D01*
X138779285Y-144387142D01*
X138707857Y-144601428D01*
X137850714Y-145458571D01*
X138779285Y-145458571D01*
X140136428Y-143958571D02*
X139422142Y-143958571D01*
X139350714Y-144672857D01*
X139422142Y-144601428D01*
X139565000Y-144530000D01*
X139922142Y-144530000D01*
X140065000Y-144601428D01*
X140136428Y-144672857D01*
X140207857Y-144815714D01*
X140207857Y-145172857D01*
X140136428Y-145315714D01*
X140065000Y-145387142D01*
X139922142Y-145458571D01*
X139565000Y-145458571D01*
X139422142Y-145387142D01*
X139350714Y-145315714D01*
X137922142Y-146641428D02*
X137993571Y-146570000D01*
X138136428Y-146498571D01*
X138493571Y-146498571D01*
X138636428Y-146570000D01*
X138707857Y-146641428D01*
X138779285Y-146784285D01*
X138779285Y-146927142D01*
X138707857Y-147141428D01*
X137850714Y-147998571D01*
X138779285Y-147998571D01*
X140065000Y-146998571D02*
X140065000Y-147998571D01*
X139707857Y-146427142D02*
X139350714Y-147498571D01*
X140279285Y-147498571D01*
X137922142Y-149181428D02*
X137993571Y-149110000D01*
X138136428Y-149038571D01*
X138493571Y-149038571D01*
X138636428Y-149110000D01*
X138707857Y-149181428D01*
X138779285Y-149324285D01*
X138779285Y-149467142D01*
X138707857Y-149681428D01*
X137850714Y-150538571D01*
X138779285Y-150538571D01*
X139279285Y-149038571D02*
X140207857Y-149038571D01*
X139707857Y-149610000D01*
X139922142Y-149610000D01*
X140065000Y-149681428D01*
X140136428Y-149752857D01*
X140207857Y-149895714D01*
X140207857Y-150252857D01*
X140136428Y-150395714D01*
X140065000Y-150467142D01*
X139922142Y-150538571D01*
X139493571Y-150538571D01*
X139350714Y-150467142D01*
X139279285Y-150395714D01*
X118872142Y-146641428D02*
X118943571Y-146570000D01*
X119086428Y-146498571D01*
X119443571Y-146498571D01*
X119586428Y-146570000D01*
X119657857Y-146641428D01*
X119729285Y-146784285D01*
X119729285Y-146927142D01*
X119657857Y-147141428D01*
X118800714Y-147998571D01*
X119729285Y-147998571D01*
X120300714Y-146641428D02*
X120372142Y-146570000D01*
X120515000Y-146498571D01*
X120872142Y-146498571D01*
X121015000Y-146570000D01*
X121086428Y-146641428D01*
X121157857Y-146784285D01*
X121157857Y-146927142D01*
X121086428Y-147141428D01*
X120229285Y-147998571D01*
X121157857Y-147998571D01*
X118872142Y-144101428D02*
X118943571Y-144030000D01*
X119086428Y-143958571D01*
X119443571Y-143958571D01*
X119586428Y-144030000D01*
X119657857Y-144101428D01*
X119729285Y-144244285D01*
X119729285Y-144387142D01*
X119657857Y-144601428D01*
X118800714Y-145458571D01*
X119729285Y-145458571D01*
X121157857Y-145458571D02*
X120300714Y-145458571D01*
X120729285Y-145458571D02*
X120729285Y-143958571D01*
X120586428Y-144172857D01*
X120443571Y-144315714D01*
X120300714Y-144387142D01*
X118872142Y-141561428D02*
X118943571Y-141490000D01*
X119086428Y-141418571D01*
X119443571Y-141418571D01*
X119586428Y-141490000D01*
X119657857Y-141561428D01*
X119729285Y-141704285D01*
X119729285Y-141847142D01*
X119657857Y-142061428D01*
X118800714Y-142918571D01*
X119729285Y-142918571D01*
X120657857Y-141418571D02*
X120800714Y-141418571D01*
X120943571Y-141490000D01*
X121015000Y-141561428D01*
X121086428Y-141704285D01*
X121157857Y-141990000D01*
X121157857Y-142347142D01*
X121086428Y-142632857D01*
X121015000Y-142775714D01*
X120943571Y-142847142D01*
X120800714Y-142918571D01*
X120657857Y-142918571D01*
X120515000Y-142847142D01*
X120443571Y-142775714D01*
X120372142Y-142632857D01*
X120300714Y-142347142D01*
X120300714Y-141990000D01*
X120372142Y-141704285D01*
X120443571Y-141561428D01*
X120515000Y-141490000D01*
X120657857Y-141418571D01*
X119729285Y-140378571D02*
X118872142Y-140378571D01*
X119300714Y-140378571D02*
X119300714Y-138878571D01*
X119157857Y-139092857D01*
X119015000Y-139235714D01*
X118872142Y-139307142D01*
X120443571Y-140378571D02*
X120729285Y-140378571D01*
X120872142Y-140307142D01*
X120943571Y-140235714D01*
X121086428Y-140021428D01*
X121157857Y-139735714D01*
X121157857Y-139164285D01*
X121086428Y-139021428D01*
X121015000Y-138950000D01*
X120872142Y-138878571D01*
X120586428Y-138878571D01*
X120443571Y-138950000D01*
X120372142Y-139021428D01*
X120300714Y-139164285D01*
X120300714Y-139521428D01*
X120372142Y-139664285D01*
X120443571Y-139735714D01*
X120586428Y-139807142D01*
X120872142Y-139807142D01*
X121015000Y-139735714D01*
X121086428Y-139664285D01*
X121157857Y-139521428D01*
X119729285Y-137838571D02*
X118872142Y-137838571D01*
X119300714Y-137838571D02*
X119300714Y-136338571D01*
X119157857Y-136552857D01*
X119015000Y-136695714D01*
X118872142Y-136767142D01*
X120586428Y-136981428D02*
X120443571Y-136910000D01*
X120372142Y-136838571D01*
X120300714Y-136695714D01*
X120300714Y-136624285D01*
X120372142Y-136481428D01*
X120443571Y-136410000D01*
X120586428Y-136338571D01*
X120872142Y-136338571D01*
X121015000Y-136410000D01*
X121086428Y-136481428D01*
X121157857Y-136624285D01*
X121157857Y-136695714D01*
X121086428Y-136838571D01*
X121015000Y-136910000D01*
X120872142Y-136981428D01*
X120586428Y-136981428D01*
X120443571Y-137052857D01*
X120372142Y-137124285D01*
X120300714Y-137267142D01*
X120300714Y-137552857D01*
X120372142Y-137695714D01*
X120443571Y-137767142D01*
X120586428Y-137838571D01*
X120872142Y-137838571D01*
X121015000Y-137767142D01*
X121086428Y-137695714D01*
X121157857Y-137552857D01*
X121157857Y-137267142D01*
X121086428Y-137124285D01*
X121015000Y-137052857D01*
X120872142Y-136981428D01*
X119729285Y-135298571D02*
X118872142Y-135298571D01*
X119300714Y-135298571D02*
X119300714Y-133798571D01*
X119157857Y-134012857D01*
X119015000Y-134155714D01*
X118872142Y-134227142D01*
X120229285Y-133798571D02*
X121229285Y-133798571D01*
X120586428Y-135298571D01*
X119729285Y-132758571D02*
X118872142Y-132758571D01*
X119300714Y-132758571D02*
X119300714Y-131258571D01*
X119157857Y-131472857D01*
X119015000Y-131615714D01*
X118872142Y-131687142D01*
X121015000Y-131258571D02*
X120729285Y-131258571D01*
X120586428Y-131330000D01*
X120515000Y-131401428D01*
X120372142Y-131615714D01*
X120300714Y-131901428D01*
X120300714Y-132472857D01*
X120372142Y-132615714D01*
X120443571Y-132687142D01*
X120586428Y-132758571D01*
X120872142Y-132758571D01*
X121015000Y-132687142D01*
X121086428Y-132615714D01*
X121157857Y-132472857D01*
X121157857Y-132115714D01*
X121086428Y-131972857D01*
X121015000Y-131901428D01*
X120872142Y-131830000D01*
X120586428Y-131830000D01*
X120443571Y-131901428D01*
X120372142Y-131972857D01*
X120300714Y-132115714D01*
X119729285Y-130218571D02*
X118872142Y-130218571D01*
X119300714Y-130218571D02*
X119300714Y-128718571D01*
X119157857Y-128932857D01*
X119015000Y-129075714D01*
X118872142Y-129147142D01*
X121086428Y-128718571D02*
X120372142Y-128718571D01*
X120300714Y-129432857D01*
X120372142Y-129361428D01*
X120515000Y-129290000D01*
X120872142Y-129290000D01*
X121015000Y-129361428D01*
X121086428Y-129432857D01*
X121157857Y-129575714D01*
X121157857Y-129932857D01*
X121086428Y-130075714D01*
X121015000Y-130147142D01*
X120872142Y-130218571D01*
X120515000Y-130218571D01*
X120372142Y-130147142D01*
X120300714Y-130075714D01*
X119729285Y-127678571D02*
X118872142Y-127678571D01*
X119300714Y-127678571D02*
X119300714Y-126178571D01*
X119157857Y-126392857D01*
X119015000Y-126535714D01*
X118872142Y-126607142D01*
X121015000Y-126678571D02*
X121015000Y-127678571D01*
X120657857Y-126107142D02*
X120300714Y-127178571D01*
X121229285Y-127178571D01*
X119729285Y-125138571D02*
X118872142Y-125138571D01*
X119300714Y-125138571D02*
X119300714Y-123638571D01*
X119157857Y-123852857D01*
X119015000Y-123995714D01*
X118872142Y-124067142D01*
X120229285Y-123638571D02*
X121157857Y-123638571D01*
X120657857Y-124210000D01*
X120872142Y-124210000D01*
X121015000Y-124281428D01*
X121086428Y-124352857D01*
X121157857Y-124495714D01*
X121157857Y-124852857D01*
X121086428Y-124995714D01*
X121015000Y-125067142D01*
X120872142Y-125138571D01*
X120443571Y-125138571D01*
X120300714Y-125067142D01*
X120229285Y-124995714D01*
X119729285Y-122598571D02*
X118872142Y-122598571D01*
X119300714Y-122598571D02*
X119300714Y-121098571D01*
X119157857Y-121312857D01*
X119015000Y-121455714D01*
X118872142Y-121527142D01*
X120300714Y-121241428D02*
X120372142Y-121170000D01*
X120515000Y-121098571D01*
X120872142Y-121098571D01*
X121015000Y-121170000D01*
X121086428Y-121241428D01*
X121157857Y-121384285D01*
X121157857Y-121527142D01*
X121086428Y-121741428D01*
X120229285Y-122598571D01*
X121157857Y-122598571D01*
X119729285Y-117518571D02*
X118872142Y-117518571D01*
X119300714Y-117518571D02*
X119300714Y-116018571D01*
X119157857Y-116232857D01*
X119015000Y-116375714D01*
X118872142Y-116447142D01*
X121157857Y-117518571D02*
X120300714Y-117518571D01*
X120729285Y-117518571D02*
X120729285Y-116018571D01*
X120586428Y-116232857D01*
X120443571Y-116375714D01*
X120300714Y-116447142D01*
X119729285Y-114978571D02*
X118872142Y-114978571D01*
X119300714Y-114978571D02*
X119300714Y-113478571D01*
X119157857Y-113692857D01*
X119015000Y-113835714D01*
X118872142Y-113907142D01*
X120657857Y-113478571D02*
X120800714Y-113478571D01*
X120943571Y-113550000D01*
X121015000Y-113621428D01*
X121086428Y-113764285D01*
X121157857Y-114050000D01*
X121157857Y-114407142D01*
X121086428Y-114692857D01*
X121015000Y-114835714D01*
X120943571Y-114907142D01*
X120800714Y-114978571D01*
X120657857Y-114978571D01*
X120515000Y-114907142D01*
X120443571Y-114835714D01*
X120372142Y-114692857D01*
X120300714Y-114407142D01*
X120300714Y-114050000D01*
X120372142Y-113764285D01*
X120443571Y-113621428D01*
X120515000Y-113550000D01*
X120657857Y-113478571D01*
X119094285Y-112438571D02*
X119380000Y-112438571D01*
X119522857Y-112367142D01*
X119594285Y-112295714D01*
X119737142Y-112081428D01*
X119808571Y-111795714D01*
X119808571Y-111224285D01*
X119737142Y-111081428D01*
X119665714Y-111010000D01*
X119522857Y-110938571D01*
X119237142Y-110938571D01*
X119094285Y-111010000D01*
X119022857Y-111081428D01*
X118951428Y-111224285D01*
X118951428Y-111581428D01*
X119022857Y-111724285D01*
X119094285Y-111795714D01*
X119237142Y-111867142D01*
X119522857Y-111867142D01*
X119665714Y-111795714D01*
X119737142Y-111724285D01*
X119808571Y-111581428D01*
X119237142Y-109041428D02*
X119094285Y-108970000D01*
X119022857Y-108898571D01*
X118951428Y-108755714D01*
X118951428Y-108684285D01*
X119022857Y-108541428D01*
X119094285Y-108470000D01*
X119237142Y-108398571D01*
X119522857Y-108398571D01*
X119665714Y-108470000D01*
X119737142Y-108541428D01*
X119808571Y-108684285D01*
X119808571Y-108755714D01*
X119737142Y-108898571D01*
X119665714Y-108970000D01*
X119522857Y-109041428D01*
X119237142Y-109041428D01*
X119094285Y-109112857D01*
X119022857Y-109184285D01*
X118951428Y-109327142D01*
X118951428Y-109612857D01*
X119022857Y-109755714D01*
X119094285Y-109827142D01*
X119237142Y-109898571D01*
X119522857Y-109898571D01*
X119665714Y-109827142D01*
X119737142Y-109755714D01*
X119808571Y-109612857D01*
X119808571Y-109327142D01*
X119737142Y-109184285D01*
X119665714Y-109112857D01*
X119522857Y-109041428D01*
X118880000Y-105858571D02*
X119880000Y-105858571D01*
X119237142Y-107358571D01*
X119665714Y-103318571D02*
X119380000Y-103318571D01*
X119237142Y-103390000D01*
X119165714Y-103461428D01*
X119022857Y-103675714D01*
X118951428Y-103961428D01*
X118951428Y-104532857D01*
X119022857Y-104675714D01*
X119094285Y-104747142D01*
X119237142Y-104818571D01*
X119522857Y-104818571D01*
X119665714Y-104747142D01*
X119737142Y-104675714D01*
X119808571Y-104532857D01*
X119808571Y-104175714D01*
X119737142Y-104032857D01*
X119665714Y-103961428D01*
X119522857Y-103890000D01*
X119237142Y-103890000D01*
X119094285Y-103961428D01*
X119022857Y-104032857D01*
X118951428Y-104175714D01*
X119737142Y-100778571D02*
X119022857Y-100778571D01*
X118951428Y-101492857D01*
X119022857Y-101421428D01*
X119165714Y-101350000D01*
X119522857Y-101350000D01*
X119665714Y-101421428D01*
X119737142Y-101492857D01*
X119808571Y-101635714D01*
X119808571Y-101992857D01*
X119737142Y-102135714D01*
X119665714Y-102207142D01*
X119522857Y-102278571D01*
X119165714Y-102278571D01*
X119022857Y-102207142D01*
X118951428Y-102135714D01*
X119665714Y-98738571D02*
X119665714Y-99738571D01*
X119308571Y-98167142D02*
X118951428Y-99238571D01*
X119880000Y-99238571D01*
X118880000Y-95698571D02*
X119808571Y-95698571D01*
X119308571Y-96270000D01*
X119522857Y-96270000D01*
X119665714Y-96341428D01*
X119737142Y-96412857D01*
X119808571Y-96555714D01*
X119808571Y-96912857D01*
X119737142Y-97055714D01*
X119665714Y-97127142D01*
X119522857Y-97198571D01*
X119094285Y-97198571D01*
X118951428Y-97127142D01*
X118880000Y-97055714D01*
X118951428Y-93301428D02*
X119022857Y-93230000D01*
X119165714Y-93158571D01*
X119522857Y-93158571D01*
X119665714Y-93230000D01*
X119737142Y-93301428D01*
X119808571Y-93444285D01*
X119808571Y-93587142D01*
X119737142Y-93801428D01*
X118880000Y-94658571D01*
X119808571Y-94658571D01*
X119808571Y-92118571D02*
X118951428Y-92118571D01*
X119380000Y-92118571D02*
X119380000Y-90618571D01*
X119237142Y-90832857D01*
X119094285Y-90975714D01*
X118951428Y-91047142D01*
X109263571Y-90499285D02*
X109263571Y-91213571D01*
X107763571Y-91213571D01*
X107906428Y-90070714D02*
X107835000Y-89999285D01*
X107763571Y-89856428D01*
X107763571Y-89499285D01*
X107835000Y-89356428D01*
X107906428Y-89285000D01*
X108049285Y-89213571D01*
X108192142Y-89213571D01*
X108406428Y-89285000D01*
X109263571Y-90142142D01*
X109263571Y-89213571D01*
X107763571Y-88713571D02*
X107763571Y-87785000D01*
X108335000Y-88285000D01*
X108335000Y-88070714D01*
X108406428Y-87927857D01*
X108477857Y-87856428D01*
X108620714Y-87785000D01*
X108977857Y-87785000D01*
X109120714Y-87856428D01*
X109192142Y-87927857D01*
X109263571Y-88070714D01*
X109263571Y-88499285D01*
X109192142Y-88642142D01*
X109120714Y-88713571D01*
X107358571Y-90499285D02*
X107358571Y-91213571D01*
X105858571Y-91213571D01*
X106001428Y-90070714D02*
X105930000Y-89999285D01*
X105858571Y-89856428D01*
X105858571Y-89499285D01*
X105930000Y-89356428D01*
X106001428Y-89285000D01*
X106144285Y-89213571D01*
X106287142Y-89213571D01*
X106501428Y-89285000D01*
X107358571Y-90142142D01*
X107358571Y-89213571D01*
X106358571Y-87927857D02*
X107358571Y-87927857D01*
X105787142Y-88285000D02*
X106858571Y-88642142D01*
X106858571Y-87713571D01*
X105453571Y-89150000D02*
X104739285Y-89650000D01*
X105453571Y-90007142D02*
X103953571Y-90007142D01*
X103953571Y-89435714D01*
X104025000Y-89292857D01*
X104096428Y-89221428D01*
X104239285Y-89150000D01*
X104453571Y-89150000D01*
X104596428Y-89221428D01*
X104667857Y-89292857D01*
X104739285Y-89435714D01*
X104739285Y-90007142D01*
X104096428Y-88578571D02*
X104025000Y-88507142D01*
X103953571Y-88364285D01*
X103953571Y-88007142D01*
X104025000Y-87864285D01*
X104096428Y-87792857D01*
X104239285Y-87721428D01*
X104382142Y-87721428D01*
X104596428Y-87792857D01*
X105453571Y-88650000D01*
X105453571Y-87721428D01*
X85133571Y-89150000D02*
X84419285Y-89650000D01*
X85133571Y-90007142D02*
X83633571Y-90007142D01*
X83633571Y-89435714D01*
X83705000Y-89292857D01*
X83776428Y-89221428D01*
X83919285Y-89150000D01*
X84133571Y-89150000D01*
X84276428Y-89221428D01*
X84347857Y-89292857D01*
X84419285Y-89435714D01*
X84419285Y-90007142D01*
X85133571Y-87721428D02*
X85133571Y-88578571D01*
X85133571Y-88150000D02*
X83633571Y-88150000D01*
X83847857Y-88292857D01*
X83990714Y-88435714D01*
X84062142Y-88578571D01*
X83085714Y-89150000D02*
X83157142Y-89221428D01*
X83228571Y-89435714D01*
X83228571Y-89578571D01*
X83157142Y-89792857D01*
X83014285Y-89935714D01*
X82871428Y-90007142D01*
X82585714Y-90078571D01*
X82371428Y-90078571D01*
X82085714Y-90007142D01*
X81942857Y-89935714D01*
X81800000Y-89792857D01*
X81728571Y-89578571D01*
X81728571Y-89435714D01*
X81800000Y-89221428D01*
X81871428Y-89150000D01*
X81728571Y-88650000D02*
X81728571Y-87721428D01*
X82300000Y-88221428D01*
X82300000Y-88007142D01*
X82371428Y-87864285D01*
X82442857Y-87792857D01*
X82585714Y-87721428D01*
X82942857Y-87721428D01*
X83085714Y-87792857D01*
X83157142Y-87864285D01*
X83228571Y-88007142D01*
X83228571Y-88435714D01*
X83157142Y-88578571D01*
X83085714Y-88650000D01*
X81180714Y-89150000D02*
X81252142Y-89221428D01*
X81323571Y-89435714D01*
X81323571Y-89578571D01*
X81252142Y-89792857D01*
X81109285Y-89935714D01*
X80966428Y-90007142D01*
X80680714Y-90078571D01*
X80466428Y-90078571D01*
X80180714Y-90007142D01*
X80037857Y-89935714D01*
X79895000Y-89792857D01*
X79823571Y-89578571D01*
X79823571Y-89435714D01*
X79895000Y-89221428D01*
X79966428Y-89150000D01*
X79966428Y-88578571D02*
X79895000Y-88507142D01*
X79823571Y-88364285D01*
X79823571Y-88007142D01*
X79895000Y-87864285D01*
X79966428Y-87792857D01*
X80109285Y-87721428D01*
X80252142Y-87721428D01*
X80466428Y-87792857D01*
X81323571Y-88650000D01*
X81323571Y-87721428D01*
X79275714Y-91690000D02*
X79347142Y-91761428D01*
X79418571Y-91975714D01*
X79418571Y-92118571D01*
X79347142Y-92332857D01*
X79204285Y-92475714D01*
X79061428Y-92547142D01*
X78775714Y-92618571D01*
X78561428Y-92618571D01*
X78275714Y-92547142D01*
X78132857Y-92475714D01*
X77990000Y-92332857D01*
X77918571Y-92118571D01*
X77918571Y-91975714D01*
X77990000Y-91761428D01*
X78061428Y-91690000D01*
X79418571Y-90261428D02*
X79418571Y-91118571D01*
X79418571Y-90690000D02*
X77918571Y-90690000D01*
X78132857Y-90832857D01*
X78275714Y-90975714D01*
X78347142Y-91118571D01*
X109263571Y-150225000D02*
X109263571Y-150939285D01*
X107763571Y-150939285D01*
X109120714Y-148867857D02*
X109192142Y-148939285D01*
X109263571Y-149153571D01*
X109263571Y-149296428D01*
X109192142Y-149510714D01*
X109049285Y-149653571D01*
X108906428Y-149725000D01*
X108620714Y-149796428D01*
X108406428Y-149796428D01*
X108120714Y-149725000D01*
X107977857Y-149653571D01*
X107835000Y-149510714D01*
X107763571Y-149296428D01*
X107763571Y-149153571D01*
X107835000Y-148939285D01*
X107906428Y-148867857D01*
X107906428Y-148296428D02*
X107835000Y-148225000D01*
X107763571Y-148082142D01*
X107763571Y-147725000D01*
X107835000Y-147582142D01*
X107906428Y-147510714D01*
X108049285Y-147439285D01*
X108192142Y-147439285D01*
X108406428Y-147510714D01*
X109263571Y-148367857D01*
X109263571Y-147439285D01*
X107358571Y-150189285D02*
X107358571Y-150903571D01*
X105858571Y-150903571D01*
X106001428Y-149760714D02*
X105930000Y-149689285D01*
X105858571Y-149546428D01*
X105858571Y-149189285D01*
X105930000Y-149046428D01*
X106001428Y-148975000D01*
X106144285Y-148903571D01*
X106287142Y-148903571D01*
X106501428Y-148975000D01*
X107358571Y-149832142D01*
X107358571Y-148903571D01*
X106001428Y-148332142D02*
X105930000Y-148260714D01*
X105858571Y-148117857D01*
X105858571Y-147760714D01*
X105930000Y-147617857D01*
X106001428Y-147546428D01*
X106144285Y-147475000D01*
X106287142Y-147475000D01*
X106501428Y-147546428D01*
X107358571Y-148403571D01*
X107358571Y-147475000D01*
X105453571Y-150189285D02*
X105453571Y-150903571D01*
X103953571Y-150903571D01*
X105453571Y-148903571D02*
X105453571Y-149760714D01*
X105453571Y-149332142D02*
X103953571Y-149332142D01*
X104167857Y-149475000D01*
X104310714Y-149617857D01*
X104382142Y-149760714D01*
X104096428Y-148332142D02*
X104025000Y-148260714D01*
X103953571Y-148117857D01*
X103953571Y-147760714D01*
X104025000Y-147617857D01*
X104096428Y-147546428D01*
X104239285Y-147475000D01*
X104382142Y-147475000D01*
X104596428Y-147546428D01*
X105453571Y-148403571D01*
X105453571Y-147475000D01*
X85133571Y-150189285D02*
X85133571Y-150903571D01*
X83633571Y-150903571D01*
X85133571Y-148903571D02*
X85133571Y-149760714D01*
X85133571Y-149332142D02*
X83633571Y-149332142D01*
X83847857Y-149475000D01*
X83990714Y-149617857D01*
X84062142Y-149760714D01*
X83633571Y-148403571D02*
X83633571Y-147475000D01*
X84205000Y-147975000D01*
X84205000Y-147760714D01*
X84276428Y-147617857D01*
X84347857Y-147546428D01*
X84490714Y-147475000D01*
X84847857Y-147475000D01*
X84990714Y-147546428D01*
X85062142Y-147617857D01*
X85133571Y-147760714D01*
X85133571Y-148189285D01*
X85062142Y-148332142D01*
X84990714Y-148403571D01*
X83228571Y-150189285D02*
X83228571Y-150903571D01*
X81728571Y-150903571D01*
X83228571Y-148903571D02*
X83228571Y-149760714D01*
X83228571Y-149332142D02*
X81728571Y-149332142D01*
X81942857Y-149475000D01*
X82085714Y-149617857D01*
X82157142Y-149760714D01*
X82228571Y-147617857D02*
X83228571Y-147617857D01*
X81657142Y-147975000D02*
X82728571Y-148332142D01*
X82728571Y-147403571D01*
X81323571Y-150225000D02*
X81323571Y-150939285D01*
X79823571Y-150939285D01*
X81180714Y-148867857D02*
X81252142Y-148939285D01*
X81323571Y-149153571D01*
X81323571Y-149296428D01*
X81252142Y-149510714D01*
X81109285Y-149653571D01*
X80966428Y-149725000D01*
X80680714Y-149796428D01*
X80466428Y-149796428D01*
X80180714Y-149725000D01*
X80037857Y-149653571D01*
X79895000Y-149510714D01*
X79823571Y-149296428D01*
X79823571Y-149153571D01*
X79895000Y-148939285D01*
X79966428Y-148867857D01*
X81323571Y-147439285D02*
X81323571Y-148296428D01*
X81323571Y-147867857D02*
X79823571Y-147867857D01*
X80037857Y-148010714D01*
X80180714Y-148153571D01*
X80252142Y-148296428D01*
X79418571Y-146415000D02*
X79418571Y-147129285D01*
X77918571Y-147129285D01*
X79275714Y-145057857D02*
X79347142Y-145129285D01*
X79418571Y-145343571D01*
X79418571Y-145486428D01*
X79347142Y-145700714D01*
X79204285Y-145843571D01*
X79061428Y-145915000D01*
X78775714Y-145986428D01*
X78561428Y-145986428D01*
X78275714Y-145915000D01*
X78132857Y-145843571D01*
X77990000Y-145700714D01*
X77918571Y-145486428D01*
X77918571Y-145343571D01*
X77990000Y-145129285D01*
X78061428Y-145057857D01*
X77918571Y-144557857D02*
X77918571Y-143629285D01*
X78490000Y-144129285D01*
X78490000Y-143915000D01*
X78561428Y-143772142D01*
X78632857Y-143700714D01*
X78775714Y-143629285D01*
X79132857Y-143629285D01*
X79275714Y-143700714D01*
X79347142Y-143772142D01*
X79418571Y-143915000D01*
X79418571Y-144343571D01*
X79347142Y-144486428D01*
X79275714Y-144557857D01*
D11*
X170120000Y-120590000D02*
X171450000Y-120590000D01*
X170120000Y-121920000D02*
X170120000Y-120590000D01*
X170120000Y-123190000D02*
X172780000Y-123190000D01*
X172780000Y-123190000D02*
X172780000Y-151190000D01*
X170120000Y-123190000D02*
X170120000Y-151190000D01*
X170120000Y-151190000D02*
X172780000Y-151190000D01*
X147380000Y-118170000D02*
X146050000Y-118170000D01*
X147380000Y-116840000D02*
X147380000Y-118170000D01*
X147380000Y-115570000D02*
X144720000Y-115570000D01*
X144720000Y-115570000D02*
X144720000Y-87570000D01*
X147380000Y-115570000D02*
X147380000Y-87570000D01*
X147380000Y-87570000D02*
X144720000Y-87570000D01*
X170120000Y-118170000D02*
X172780000Y-118170000D01*
X170120000Y-90170000D02*
X170120000Y-118170000D01*
X172780000Y-90170000D02*
X172780000Y-118170000D01*
X170120000Y-90170000D02*
X172780000Y-90170000D01*
X170120000Y-88900000D02*
X170120000Y-87570000D01*
X170120000Y-87570000D02*
X171450000Y-87570000D01*
X170120000Y-120710000D02*
X172780000Y-120710000D01*
X170120000Y-120650000D02*
X170120000Y-120710000D01*
X172780000Y-120650000D02*
X172780000Y-120710000D01*
X170120000Y-120650000D02*
X172780000Y-120650000D01*
X170120000Y-119380000D02*
X170120000Y-118050000D01*
X170120000Y-118050000D02*
X171450000Y-118050000D01*
D12*
X158750000Y-112061445D02*
X158343414Y-112468031D01*
X166068555Y-119380000D02*
X165591258Y-119857297D01*
X158750000Y-126698555D02*
X159227297Y-126221258D01*
X151431445Y-119380000D02*
X151908742Y-118902703D01*
X158750000Y-112061445D02*
X159227297Y-112538742D01*
X151431445Y-119380000D02*
X151908742Y-119857297D01*
X158750000Y-126698555D02*
X158272703Y-126221258D01*
X166068555Y-119380000D02*
X165591258Y-118902703D01*
X158343414Y-112468031D02*
X157441852Y-111566470D01*
D11*
X147380000Y-120590000D02*
X144720000Y-120590000D01*
X147380000Y-148590000D02*
X147380000Y-120590000D01*
X144720000Y-148590000D02*
X144720000Y-120590000D01*
X147380000Y-148590000D02*
X144720000Y-148590000D01*
X147380000Y-149860000D02*
X147380000Y-151190000D01*
X147380000Y-151190000D02*
X146050000Y-151190000D01*
X118170000Y-151190000D02*
X116840000Y-151190000D01*
X118170000Y-149860000D02*
X118170000Y-151190000D01*
X118170000Y-148590000D02*
X115510000Y-148590000D01*
X115510000Y-148590000D02*
X115510000Y-120590000D01*
X118170000Y-148590000D02*
X118170000Y-120590000D01*
X118170000Y-120590000D02*
X115510000Y-120590000D01*
X118170000Y-87570000D02*
X115510000Y-87570000D01*
X118170000Y-115570000D02*
X118170000Y-87570000D01*
X115510000Y-115570000D02*
X115510000Y-87570000D01*
X118170000Y-115570000D02*
X115510000Y-115570000D01*
X118170000Y-116840000D02*
X118170000Y-118170000D01*
X118170000Y-118170000D02*
X116840000Y-118170000D01*
X140910000Y-151190000D02*
X143570000Y-151190000D01*
X140910000Y-123190000D02*
X140910000Y-151190000D01*
X143570000Y-123190000D02*
X143570000Y-151190000D01*
X140910000Y-123190000D02*
X143570000Y-123190000D01*
X140910000Y-121920000D02*
X140910000Y-120590000D01*
X140910000Y-120590000D02*
X142240000Y-120590000D01*
X140910000Y-87570000D02*
X142240000Y-87570000D01*
X140910000Y-88900000D02*
X140910000Y-87570000D01*
X140910000Y-90170000D02*
X143570000Y-90170000D01*
X143570000Y-90170000D02*
X143570000Y-118170000D01*
X140910000Y-90170000D02*
X140910000Y-118170000D01*
X140910000Y-118170000D02*
X143570000Y-118170000D01*
D12*
X129133414Y-112468031D02*
X128231852Y-111566470D01*
X136858555Y-119380000D02*
X136381258Y-118902703D01*
X129540000Y-126698555D02*
X129062703Y-126221258D01*
X122221445Y-119380000D02*
X122698742Y-119857297D01*
X129540000Y-112061445D02*
X130017297Y-112538742D01*
X122221445Y-119380000D02*
X122698742Y-118902703D01*
X129540000Y-126698555D02*
X130017297Y-126221258D01*
X136858555Y-119380000D02*
X136381258Y-119857297D01*
X129540000Y-112061445D02*
X129133414Y-112468031D01*
D11*
X140910000Y-118050000D02*
X142240000Y-118050000D01*
X140910000Y-119380000D02*
X140910000Y-118050000D01*
X140910000Y-120650000D02*
X143570000Y-120650000D01*
X143570000Y-120650000D02*
X143570000Y-120710000D01*
X140910000Y-120650000D02*
X140910000Y-120710000D01*
X140910000Y-120710000D02*
X143570000Y-120710000D01*
D12*
G36*
X89470000Y-128705000D02*
X90870000Y-128705000D01*
X90870000Y-128805000D01*
X90870000Y-128905000D01*
X90470000Y-128905000D01*
X90470000Y-129105000D01*
X90470000Y-129205000D01*
X89870000Y-129205000D01*
X89870000Y-128905000D01*
X89470000Y-128905000D01*
X89470000Y-128705000D01*
G37*
X89470000Y-128705000D02*
X90870000Y-128705000D01*
X90870000Y-128805000D01*
X90870000Y-128905000D01*
X90470000Y-128905000D01*
X90470000Y-129105000D01*
X90470000Y-129205000D01*
X89870000Y-129205000D01*
X89870000Y-128905000D01*
X89470000Y-128905000D01*
X89470000Y-128705000D01*
G36*
X108520000Y-138230000D02*
X109920000Y-138230000D01*
X109920000Y-138330000D01*
X109920000Y-138430000D01*
X109520000Y-138430000D01*
X109520000Y-138630000D01*
X109520000Y-138730000D01*
X108920000Y-138730000D01*
X108920000Y-138430000D01*
X108520000Y-138430000D01*
X108520000Y-138230000D01*
G37*
X108520000Y-138230000D02*
X109920000Y-138230000D01*
X109920000Y-138330000D01*
X109920000Y-138430000D01*
X109520000Y-138430000D01*
X109520000Y-138630000D01*
X109520000Y-138730000D01*
X108920000Y-138730000D01*
X108920000Y-138430000D01*
X108520000Y-138430000D01*
X108520000Y-138230000D01*
G36*
X108520000Y-119180000D02*
X109920000Y-119180000D01*
X109920000Y-119280000D01*
X109920000Y-119380000D01*
X109520000Y-119380000D01*
X109520000Y-119580000D01*
X109520000Y-119680000D01*
X108920000Y-119680000D01*
X108920000Y-119380000D01*
X108520000Y-119380000D01*
X108520000Y-119180000D01*
G37*
X108520000Y-119180000D02*
X109920000Y-119180000D01*
X109920000Y-119280000D01*
X109920000Y-119380000D01*
X109520000Y-119380000D01*
X109520000Y-119580000D01*
X109520000Y-119680000D01*
X108920000Y-119680000D01*
X108920000Y-119380000D01*
X108520000Y-119380000D01*
X108520000Y-119180000D01*
G36*
X89470000Y-100130000D02*
X90870000Y-100130000D01*
X90870000Y-100230000D01*
X90870000Y-100330000D01*
X90470000Y-100330000D01*
X90470000Y-100530000D01*
X90470000Y-100630000D01*
X89870000Y-100630000D01*
X89870000Y-100330000D01*
X89470000Y-100330000D01*
X89470000Y-100130000D01*
G37*
X89470000Y-100130000D02*
X90870000Y-100130000D01*
X90870000Y-100230000D01*
X90870000Y-100330000D01*
X90470000Y-100330000D01*
X90470000Y-100530000D01*
X90470000Y-100630000D01*
X89870000Y-100630000D01*
X89870000Y-100330000D01*
X89470000Y-100330000D01*
X89470000Y-100130000D01*
G36*
X108520000Y-100130000D02*
X109920000Y-100130000D01*
X109920000Y-100230000D01*
X109920000Y-100330000D01*
X109520000Y-100330000D01*
X109520000Y-100530000D01*
X109520000Y-100630000D01*
X108920000Y-100630000D01*
X108920000Y-100330000D01*
X108520000Y-100330000D01*
X108520000Y-100130000D01*
G37*
X108520000Y-100130000D02*
X109920000Y-100130000D01*
X109920000Y-100230000D01*
X109920000Y-100330000D01*
X109520000Y-100330000D01*
X109520000Y-100530000D01*
X109520000Y-100630000D01*
X108920000Y-100630000D01*
X108920000Y-100330000D01*
X108520000Y-100330000D01*
X108520000Y-100130000D01*
D11*
X103565000Y-151190000D02*
X103565000Y-148530000D01*
X88265000Y-151190000D02*
X103565000Y-151190000D01*
X88265000Y-148530000D02*
X103565000Y-148530000D01*
X88265000Y-151190000D02*
X88265000Y-148530000D01*
X86995000Y-151190000D02*
X85665000Y-151190000D01*
X85665000Y-151190000D02*
X85665000Y-149860000D01*
X85665000Y-90230000D02*
X85665000Y-88900000D01*
X86995000Y-90230000D02*
X85665000Y-90230000D01*
X88265000Y-90230000D02*
X88265000Y-87570000D01*
X88265000Y-87570000D02*
X103565000Y-87570000D01*
X88265000Y-90230000D02*
X103565000Y-90230000D01*
X103565000Y-90230000D02*
X103565000Y-87570000D01*
X92075000Y-135890000D02*
X78105000Y-135890000D01*
X92075000Y-121920000D02*
X92075000Y-135890000D01*
X78105000Y-121920000D02*
X92075000Y-121920000D01*
X78105000Y-135890000D02*
X78105000Y-121920000D01*
X111125000Y-145415000D02*
X97155000Y-145415000D01*
X111125000Y-131445000D02*
X111125000Y-145415000D01*
X97155000Y-131445000D02*
X111125000Y-131445000D01*
X97155000Y-145415000D02*
X97155000Y-131445000D01*
X97155000Y-126365000D02*
X97155000Y-112395000D01*
X97155000Y-112395000D02*
X111125000Y-112395000D01*
X111125000Y-112395000D02*
X111125000Y-126365000D01*
X111125000Y-126365000D02*
X97155000Y-126365000D01*
X92075000Y-107315000D02*
X78105000Y-107315000D01*
X92075000Y-93345000D02*
X92075000Y-107315000D01*
X78105000Y-93345000D02*
X92075000Y-93345000D01*
X78105000Y-107315000D02*
X78105000Y-93345000D01*
X111125000Y-107315000D02*
X97155000Y-107315000D01*
X111125000Y-93345000D02*
X111125000Y-107315000D01*
X97155000Y-93345000D02*
X111125000Y-93345000D01*
X97155000Y-107315000D02*
X97155000Y-93345000D01*
X77200000Y-131515000D02*
X77200000Y-135415000D01*
X75200000Y-131515000D02*
X75200000Y-135415000D01*
X77200000Y-131515000D02*
X75200000Y-131515000D01*
X87285000Y-145050000D02*
X87285000Y-147050000D01*
X87285000Y-147050000D02*
X91185000Y-147050000D01*
X87285000Y-145050000D02*
X91185000Y-145050000D01*
X98715000Y-127905000D02*
X102615000Y-127905000D01*
X98715000Y-129905000D02*
X102615000Y-129905000D01*
X98715000Y-127905000D02*
X98715000Y-129905000D01*
X98715000Y-108855000D02*
X98715000Y-110855000D01*
X98715000Y-110855000D02*
X102615000Y-110855000D01*
X98715000Y-108855000D02*
X102615000Y-108855000D01*
X77125000Y-108855000D02*
X81025000Y-108855000D01*
X77125000Y-110855000D02*
X81025000Y-110855000D01*
X77125000Y-108855000D02*
X77125000Y-110855000D01*
D12*
X163866423Y-113186080D02*
X163294003Y-113758500D01*
X163260331Y-113859515D01*
X163260331Y-113926859D01*
X163294003Y-114027874D01*
X163428690Y-114162561D01*
X163529705Y-114196233D01*
X163597049Y-114196233D01*
X163698064Y-114162561D01*
X164270484Y-113590141D01*
X164506186Y-113960531D02*
X164573529Y-113960531D01*
X164674545Y-113994202D01*
X164842903Y-114162561D01*
X164876575Y-114263576D01*
X164876575Y-114330920D01*
X164842903Y-114431935D01*
X164775560Y-114499279D01*
X164640873Y-114566622D01*
X163832751Y-114566622D01*
X164270484Y-115004355D01*
X134656423Y-113186080D02*
X134084003Y-113758500D01*
X134050331Y-113859515D01*
X134050331Y-113926859D01*
X134084003Y-114027874D01*
X134218690Y-114162561D01*
X134319705Y-114196233D01*
X134387049Y-114196233D01*
X134488064Y-114162561D01*
X135060484Y-113590141D01*
X135296186Y-113960531D02*
X135363529Y-113960531D01*
X135464545Y-113994202D01*
X135632903Y-114162561D01*
X135666575Y-114263576D01*
X135666575Y-114330920D01*
X135632903Y-114431935D01*
X135565560Y-114499279D01*
X135430873Y-114566622D01*
X134622751Y-114566622D01*
X135060484Y-115004355D01*
X88717380Y-129643095D02*
X87717380Y-129643095D01*
X87717380Y-129405000D01*
X87765000Y-129262142D01*
X87860238Y-129166904D01*
X87955476Y-129119285D01*
X88145952Y-129071666D01*
X88288809Y-129071666D01*
X88479285Y-129119285D01*
X88574523Y-129166904D01*
X88669761Y-129262142D01*
X88717380Y-129405000D01*
X88717380Y-129643095D01*
X88717380Y-128119285D02*
X88717380Y-128690714D01*
X88717380Y-128405000D02*
X87717380Y-128405000D01*
X87860238Y-128500238D01*
X87955476Y-128595476D01*
X88003095Y-128690714D01*
X107372380Y-139068095D02*
X106372380Y-139068095D01*
X106372380Y-138830000D01*
X106420000Y-138687142D01*
X106515238Y-138591904D01*
X106610476Y-138544285D01*
X106800952Y-138496666D01*
X106943809Y-138496666D01*
X107134285Y-138544285D01*
X107229523Y-138591904D01*
X107324761Y-138687142D01*
X107372380Y-138830000D01*
X107372380Y-139068095D01*
X106467619Y-138115714D02*
X106420000Y-138068095D01*
X106372380Y-137972857D01*
X106372380Y-137734761D01*
X106420000Y-137639523D01*
X106467619Y-137591904D01*
X106562857Y-137544285D01*
X106658095Y-137544285D01*
X106800952Y-137591904D01*
X107372380Y-138163333D01*
X107372380Y-137544285D01*
X107372380Y-120018095D02*
X106372380Y-120018095D01*
X106372380Y-119780000D01*
X106420000Y-119637142D01*
X106515238Y-119541904D01*
X106610476Y-119494285D01*
X106800952Y-119446666D01*
X106943809Y-119446666D01*
X107134285Y-119494285D01*
X107229523Y-119541904D01*
X107324761Y-119637142D01*
X107372380Y-119780000D01*
X107372380Y-120018095D01*
X106372380Y-118541904D02*
X106372380Y-119018095D01*
X106848571Y-119065714D01*
X106800952Y-119018095D01*
X106753333Y-118922857D01*
X106753333Y-118684761D01*
X106800952Y-118589523D01*
X106848571Y-118541904D01*
X106943809Y-118494285D01*
X107181904Y-118494285D01*
X107277142Y-118541904D01*
X107324761Y-118589523D01*
X107372380Y-118684761D01*
X107372380Y-118922857D01*
X107324761Y-119018095D01*
X107277142Y-119065714D01*
X88717380Y-101068095D02*
X87717380Y-101068095D01*
X87717380Y-100830000D01*
X87765000Y-100687142D01*
X87860238Y-100591904D01*
X87955476Y-100544285D01*
X88145952Y-100496666D01*
X88288809Y-100496666D01*
X88479285Y-100544285D01*
X88574523Y-100591904D01*
X88669761Y-100687142D01*
X88717380Y-100830000D01*
X88717380Y-101068095D01*
X87717380Y-100163333D02*
X87717380Y-99496666D01*
X88717380Y-99925238D01*
X107372380Y-100968095D02*
X106372380Y-100968095D01*
X106372380Y-100730000D01*
X106420000Y-100587142D01*
X106515238Y-100491904D01*
X106610476Y-100444285D01*
X106800952Y-100396666D01*
X106943809Y-100396666D01*
X107134285Y-100444285D01*
X107229523Y-100491904D01*
X107324761Y-100587142D01*
X107372380Y-100730000D01*
X107372380Y-100968095D01*
X106800952Y-99825238D02*
X106753333Y-99920476D01*
X106705714Y-99968095D01*
X106610476Y-100015714D01*
X106562857Y-100015714D01*
X106467619Y-99968095D01*
X106420000Y-99920476D01*
X106372380Y-99825238D01*
X106372380Y-99634761D01*
X106420000Y-99539523D01*
X106467619Y-99491904D01*
X106562857Y-99444285D01*
X106610476Y-99444285D01*
X106705714Y-99491904D01*
X106753333Y-99539523D01*
X106800952Y-99634761D01*
X106800952Y-99825238D01*
X106848571Y-99920476D01*
X106896190Y-99968095D01*
X106991428Y-100015714D01*
X107181904Y-100015714D01*
X107277142Y-99968095D01*
X107324761Y-99920476D01*
X107372380Y-99825238D01*
X107372380Y-99634761D01*
X107324761Y-99539523D01*
X107277142Y-99491904D01*
X107181904Y-99444285D01*
X106991428Y-99444285D01*
X106896190Y-99491904D01*
X106848571Y-99539523D01*
X106800952Y-99634761D01*
X77620761Y-130238333D02*
X77668380Y-130095476D01*
X77668380Y-129857380D01*
X77620761Y-129762142D01*
X77573142Y-129714523D01*
X77477904Y-129666904D01*
X77382666Y-129666904D01*
X77287428Y-129714523D01*
X77239809Y-129762142D01*
X77192190Y-129857380D01*
X77144571Y-130047857D01*
X77096952Y-130143095D01*
X77049333Y-130190714D01*
X76954095Y-130238333D01*
X76858857Y-130238333D01*
X76763619Y-130190714D01*
X76716000Y-130143095D01*
X76668380Y-130047857D01*
X76668380Y-129809761D01*
X76716000Y-129666904D01*
X76668380Y-129333571D02*
X77668380Y-129095476D01*
X76954095Y-128905000D01*
X77668380Y-128714523D01*
X76668380Y-128476428D01*
X77668380Y-127571666D02*
X77668380Y-128143095D01*
X77668380Y-127857380D02*
X76668380Y-127857380D01*
X76811238Y-127952619D01*
X76906476Y-128047857D01*
X76954095Y-128143095D01*
X96670761Y-139763333D02*
X96718380Y-139620476D01*
X96718380Y-139382380D01*
X96670761Y-139287142D01*
X96623142Y-139239523D01*
X96527904Y-139191904D01*
X96432666Y-139191904D01*
X96337428Y-139239523D01*
X96289809Y-139287142D01*
X96242190Y-139382380D01*
X96194571Y-139572857D01*
X96146952Y-139668095D01*
X96099333Y-139715714D01*
X96004095Y-139763333D01*
X95908857Y-139763333D01*
X95813619Y-139715714D01*
X95766000Y-139668095D01*
X95718380Y-139572857D01*
X95718380Y-139334761D01*
X95766000Y-139191904D01*
X95718380Y-138858571D02*
X96718380Y-138620476D01*
X96004095Y-138430000D01*
X96718380Y-138239523D01*
X95718380Y-138001428D01*
X95813619Y-137668095D02*
X95766000Y-137620476D01*
X95718380Y-137525238D01*
X95718380Y-137287142D01*
X95766000Y-137191904D01*
X95813619Y-137144285D01*
X95908857Y-137096666D01*
X96004095Y-137096666D01*
X96146952Y-137144285D01*
X96718380Y-137715714D01*
X96718380Y-137096666D01*
X96670761Y-120713333D02*
X96718380Y-120570476D01*
X96718380Y-120332380D01*
X96670761Y-120237142D01*
X96623142Y-120189523D01*
X96527904Y-120141904D01*
X96432666Y-120141904D01*
X96337428Y-120189523D01*
X96289809Y-120237142D01*
X96242190Y-120332380D01*
X96194571Y-120522857D01*
X96146952Y-120618095D01*
X96099333Y-120665714D01*
X96004095Y-120713333D01*
X95908857Y-120713333D01*
X95813619Y-120665714D01*
X95766000Y-120618095D01*
X95718380Y-120522857D01*
X95718380Y-120284761D01*
X95766000Y-120141904D01*
X95718380Y-119808571D02*
X96718380Y-119570476D01*
X96004095Y-119380000D01*
X96718380Y-119189523D01*
X95718380Y-118951428D01*
X95718380Y-118141904D02*
X95718380Y-118332380D01*
X95766000Y-118427619D01*
X95813619Y-118475238D01*
X95956476Y-118570476D01*
X96146952Y-118618095D01*
X96527904Y-118618095D01*
X96623142Y-118570476D01*
X96670761Y-118522857D01*
X96718380Y-118427619D01*
X96718380Y-118237142D01*
X96670761Y-118141904D01*
X96623142Y-118094285D01*
X96527904Y-118046666D01*
X96289809Y-118046666D01*
X96194571Y-118094285D01*
X96146952Y-118141904D01*
X96099333Y-118237142D01*
X96099333Y-118427619D01*
X96146952Y-118522857D01*
X96194571Y-118570476D01*
X96289809Y-118618095D01*
X77620761Y-101663333D02*
X77668380Y-101520476D01*
X77668380Y-101282380D01*
X77620761Y-101187142D01*
X77573142Y-101139523D01*
X77477904Y-101091904D01*
X77382666Y-101091904D01*
X77287428Y-101139523D01*
X77239809Y-101187142D01*
X77192190Y-101282380D01*
X77144571Y-101472857D01*
X77096952Y-101568095D01*
X77049333Y-101615714D01*
X76954095Y-101663333D01*
X76858857Y-101663333D01*
X76763619Y-101615714D01*
X76716000Y-101568095D01*
X76668380Y-101472857D01*
X76668380Y-101234761D01*
X76716000Y-101091904D01*
X76668380Y-100758571D02*
X77668380Y-100520476D01*
X76954095Y-100330000D01*
X77668380Y-100139523D01*
X76668380Y-99901428D01*
X76668380Y-99615714D02*
X76668380Y-98949047D01*
X77668380Y-99377619D01*
X96670761Y-101663333D02*
X96718380Y-101520476D01*
X96718380Y-101282380D01*
X96670761Y-101187142D01*
X96623142Y-101139523D01*
X96527904Y-101091904D01*
X96432666Y-101091904D01*
X96337428Y-101139523D01*
X96289809Y-101187142D01*
X96242190Y-101282380D01*
X96194571Y-101472857D01*
X96146952Y-101568095D01*
X96099333Y-101615714D01*
X96004095Y-101663333D01*
X95908857Y-101663333D01*
X95813619Y-101615714D01*
X95766000Y-101568095D01*
X95718380Y-101472857D01*
X95718380Y-101234761D01*
X95766000Y-101091904D01*
X95718380Y-100758571D02*
X96718380Y-100520476D01*
X96004095Y-100330000D01*
X96718380Y-100139523D01*
X95718380Y-99901428D01*
X96146952Y-99377619D02*
X96099333Y-99472857D01*
X96051714Y-99520476D01*
X95956476Y-99568095D01*
X95908857Y-99568095D01*
X95813619Y-99520476D01*
X95766000Y-99472857D01*
X95718380Y-99377619D01*
X95718380Y-99187142D01*
X95766000Y-99091904D01*
X95813619Y-99044285D01*
X95908857Y-98996666D01*
X95956476Y-98996666D01*
X96051714Y-99044285D01*
X96099333Y-99091904D01*
X96146952Y-99187142D01*
X96146952Y-99377619D01*
X96194571Y-99472857D01*
X96242190Y-99520476D01*
X96337428Y-99568095D01*
X96527904Y-99568095D01*
X96623142Y-99520476D01*
X96670761Y-99472857D01*
X96718380Y-99377619D01*
X96718380Y-99187142D01*
X96670761Y-99091904D01*
X96623142Y-99044285D01*
X96527904Y-98996666D01*
X96337428Y-98996666D01*
X96242190Y-99044285D01*
X96194571Y-99091904D01*
X96146952Y-99187142D01*
X78652380Y-134979285D02*
X77652380Y-134979285D01*
X77652380Y-134741190D01*
X77700000Y-134598333D01*
X77795238Y-134503095D01*
X77890476Y-134455476D01*
X78080952Y-134407857D01*
X78223809Y-134407857D01*
X78414285Y-134455476D01*
X78509523Y-134503095D01*
X78604761Y-134598333D01*
X78652380Y-134741190D01*
X78652380Y-134979285D01*
X78652380Y-133455476D02*
X78652380Y-134026904D01*
X78652380Y-133741190D02*
X77652380Y-133741190D01*
X77795238Y-133836428D01*
X77890476Y-133931666D01*
X77938095Y-134026904D01*
X78652380Y-132503095D02*
X78652380Y-133074523D01*
X78652380Y-132788809D02*
X77652380Y-132788809D01*
X77795238Y-132884047D01*
X77890476Y-132979285D01*
X77938095Y-133074523D01*
X88320714Y-144597380D02*
X88320714Y-143597380D01*
X88558809Y-143597380D01*
X88701666Y-143645000D01*
X88796904Y-143740238D01*
X88844523Y-143835476D01*
X88892142Y-144025952D01*
X88892142Y-144168809D01*
X88844523Y-144359285D01*
X88796904Y-144454523D01*
X88701666Y-144549761D01*
X88558809Y-144597380D01*
X88320714Y-144597380D01*
X89844523Y-144597380D02*
X89273095Y-144597380D01*
X89558809Y-144597380D02*
X89558809Y-143597380D01*
X89463571Y-143740238D01*
X89368333Y-143835476D01*
X89273095Y-143883095D01*
X90225476Y-143692619D02*
X90273095Y-143645000D01*
X90368333Y-143597380D01*
X90606428Y-143597380D01*
X90701666Y-143645000D01*
X90749285Y-143692619D01*
X90796904Y-143787857D01*
X90796904Y-143883095D01*
X90749285Y-144025952D01*
X90177857Y-144597380D01*
X90796904Y-144597380D01*
X104322619Y-127690714D02*
X105322619Y-127690714D01*
X105322619Y-127928809D01*
X105275000Y-128071666D01*
X105179761Y-128166904D01*
X105084523Y-128214523D01*
X104894047Y-128262142D01*
X104751190Y-128262142D01*
X104560714Y-128214523D01*
X104465476Y-128166904D01*
X104370238Y-128071666D01*
X104322619Y-127928809D01*
X104322619Y-127690714D01*
X104322619Y-129214523D02*
X104322619Y-128643095D01*
X104322619Y-128928809D02*
X105322619Y-128928809D01*
X105179761Y-128833571D01*
X105084523Y-128738333D01*
X105036904Y-128643095D01*
X105322619Y-129547857D02*
X105322619Y-130166904D01*
X104941666Y-129833571D01*
X104941666Y-129976428D01*
X104894047Y-130071666D01*
X104846428Y-130119285D01*
X104751190Y-130166904D01*
X104513095Y-130166904D01*
X104417857Y-130119285D01*
X104370238Y-130071666D01*
X104322619Y-129976428D01*
X104322619Y-129690714D01*
X104370238Y-129595476D01*
X104417857Y-129547857D01*
X104322619Y-108640714D02*
X105322619Y-108640714D01*
X105322619Y-108878809D01*
X105275000Y-109021666D01*
X105179761Y-109116904D01*
X105084523Y-109164523D01*
X104894047Y-109212142D01*
X104751190Y-109212142D01*
X104560714Y-109164523D01*
X104465476Y-109116904D01*
X104370238Y-109021666D01*
X104322619Y-108878809D01*
X104322619Y-108640714D01*
X104322619Y-110164523D02*
X104322619Y-109593095D01*
X104322619Y-109878809D02*
X105322619Y-109878809D01*
X105179761Y-109783571D01*
X105084523Y-109688333D01*
X105036904Y-109593095D01*
X104989285Y-111021666D02*
X104322619Y-111021666D01*
X105370238Y-110783571D02*
X104655952Y-110545476D01*
X104655952Y-111164523D01*
X82732619Y-108640714D02*
X83732619Y-108640714D01*
X83732619Y-108878809D01*
X83685000Y-109021666D01*
X83589761Y-109116904D01*
X83494523Y-109164523D01*
X83304047Y-109212142D01*
X83161190Y-109212142D01*
X82970714Y-109164523D01*
X82875476Y-109116904D01*
X82780238Y-109021666D01*
X82732619Y-108878809D01*
X82732619Y-108640714D01*
X82732619Y-110164523D02*
X82732619Y-109593095D01*
X82732619Y-109878809D02*
X83732619Y-109878809D01*
X83589761Y-109783571D01*
X83494523Y-109688333D01*
X83446904Y-109593095D01*
X83732619Y-111069285D02*
X83732619Y-110593095D01*
X83256428Y-110545476D01*
X83304047Y-110593095D01*
X83351666Y-110688333D01*
X83351666Y-110926428D01*
X83304047Y-111021666D01*
X83256428Y-111069285D01*
X83161190Y-111116904D01*
X82923095Y-111116904D01*
X82827857Y-111069285D01*
X82780238Y-111021666D01*
X82732619Y-110926428D01*
X82732619Y-110688333D01*
X82780238Y-110593095D01*
X82827857Y-110545476D01*
M02*
