G04 #@! TF.GenerationSoftware,KiCad,Pcbnew,(5.0.0-rc2-dev-471-ge4feb315d)*
G04 #@! TF.CreationDate,2018-05-05T14:20:45+01:00*
G04 #@! TF.ProjectId,panel,70616E656C2E6B696361645F70636200,rev?*
G04 #@! TF.SameCoordinates,Original*
G04 #@! TF.FileFunction,Copper,L1,Top,Signal*
G04 #@! TF.FilePolarity,Positive*
%FSLAX46Y46*%
G04 Gerber Fmt 4.6, Leading zero omitted, Abs format (unit mm)*
G04 Created by KiCad (PCBNEW (5.0.0-rc2-dev-471-ge4feb315d)) date Sat May  5 14:20:45 2018*
%MOMM*%
%LPD*%
G01*
G04 APERTURE LIST*
%ADD10O,1.700000X1.700000*%
%ADD11R,1.700000X1.700000*%
%ADD12C,0.550000*%
%ADD13C,0.100000*%
%ADD14C,1.125000*%
%ADD15R,0.500000X0.850000*%
%ADD16C,2.200000*%
%ADD17R,1.200000X0.900000*%
%ADD18R,0.900000X1.200000*%
%ADD19C,0.800000*%
%ADD20C,0.250000*%
G04 APERTURE END LIST*
D10*
X171450000Y-149860000D03*
X171450000Y-147320000D03*
X171450000Y-144780000D03*
X171450000Y-142240000D03*
X171450000Y-139700000D03*
X171450000Y-137160000D03*
X171450000Y-134620000D03*
X171450000Y-132080000D03*
X171450000Y-129540000D03*
X171450000Y-127000000D03*
X171450000Y-124460000D03*
D11*
X171450000Y-121920000D03*
D10*
X146050000Y-88900000D03*
X146050000Y-91440000D03*
X146050000Y-93980000D03*
X146050000Y-96520000D03*
X146050000Y-99060000D03*
X146050000Y-101600000D03*
X146050000Y-104140000D03*
X146050000Y-106680000D03*
X146050000Y-109220000D03*
X146050000Y-111760000D03*
X146050000Y-114300000D03*
D11*
X146050000Y-116840000D03*
X171450000Y-88900000D03*
D10*
X171450000Y-91440000D03*
X171450000Y-93980000D03*
X171450000Y-96520000D03*
X171450000Y-99060000D03*
X171450000Y-101600000D03*
X171450000Y-104140000D03*
X171450000Y-106680000D03*
X171450000Y-109220000D03*
X171450000Y-111760000D03*
X171450000Y-114300000D03*
X171450000Y-116840000D03*
D11*
X171450000Y-119380000D03*
D12*
X157547918Y-112521064D03*
D13*
G36*
X156823134Y-112185188D02*
X157212042Y-111796280D01*
X158272702Y-112856940D01*
X157883794Y-113245848D01*
X156823134Y-112185188D01*
X156823134Y-112185188D01*
G37*
D12*
X156982233Y-113086750D03*
D13*
G36*
X156257449Y-112750874D02*
X156646357Y-112361966D01*
X157707017Y-113422626D01*
X157318109Y-113811534D01*
X156257449Y-112750874D01*
X156257449Y-112750874D01*
G37*
D12*
X156416548Y-113652435D03*
D13*
G36*
X155691764Y-113316559D02*
X156080672Y-112927651D01*
X157141332Y-113988311D01*
X156752424Y-114377219D01*
X155691764Y-113316559D01*
X155691764Y-113316559D01*
G37*
D12*
X155850862Y-114218120D03*
D13*
G36*
X155126078Y-113882244D02*
X155514986Y-113493336D01*
X156575646Y-114553996D01*
X156186738Y-114942904D01*
X155126078Y-113882244D01*
X155126078Y-113882244D01*
G37*
D12*
X155285177Y-114783806D03*
D13*
G36*
X154560393Y-114447930D02*
X154949301Y-114059022D01*
X156009961Y-115119682D01*
X155621053Y-115508590D01*
X154560393Y-114447930D01*
X154560393Y-114447930D01*
G37*
D12*
X154719491Y-115349491D03*
D13*
G36*
X153994707Y-115013615D02*
X154383615Y-114624707D01*
X155444275Y-115685367D01*
X155055367Y-116074275D01*
X153994707Y-115013615D01*
X153994707Y-115013615D01*
G37*
D12*
X154153806Y-115915177D03*
D13*
G36*
X153429022Y-115579301D02*
X153817930Y-115190393D01*
X154878590Y-116251053D01*
X154489682Y-116639961D01*
X153429022Y-115579301D01*
X153429022Y-115579301D01*
G37*
D12*
X153588120Y-116480862D03*
D13*
G36*
X152863336Y-116144986D02*
X153252244Y-115756078D01*
X154312904Y-116816738D01*
X153923996Y-117205646D01*
X152863336Y-116144986D01*
X152863336Y-116144986D01*
G37*
D12*
X153022435Y-117046548D03*
D13*
G36*
X152297651Y-116710672D02*
X152686559Y-116321764D01*
X153747219Y-117382424D01*
X153358311Y-117771332D01*
X152297651Y-116710672D01*
X152297651Y-116710672D01*
G37*
D12*
X152456750Y-117612233D03*
D13*
G36*
X151731966Y-117276357D02*
X152120874Y-116887449D01*
X153181534Y-117948109D01*
X152792626Y-118337017D01*
X151731966Y-117276357D01*
X151731966Y-117276357D01*
G37*
D12*
X151891064Y-118177918D03*
D13*
G36*
X151166280Y-117842042D02*
X151555188Y-117453134D01*
X152615848Y-118513794D01*
X152226940Y-118902702D01*
X151166280Y-117842042D01*
X151166280Y-117842042D01*
G37*
D12*
X151891064Y-120582082D03*
D13*
G36*
X151555188Y-121306866D02*
X151166280Y-120917958D01*
X152226940Y-119857298D01*
X152615848Y-120246206D01*
X151555188Y-121306866D01*
X151555188Y-121306866D01*
G37*
D12*
X152456750Y-121147767D03*
D13*
G36*
X152120874Y-121872551D02*
X151731966Y-121483643D01*
X152792626Y-120422983D01*
X153181534Y-120811891D01*
X152120874Y-121872551D01*
X152120874Y-121872551D01*
G37*
D12*
X153022435Y-121713452D03*
D13*
G36*
X152686559Y-122438236D02*
X152297651Y-122049328D01*
X153358311Y-120988668D01*
X153747219Y-121377576D01*
X152686559Y-122438236D01*
X152686559Y-122438236D01*
G37*
D12*
X153588120Y-122279138D03*
D13*
G36*
X153252244Y-123003922D02*
X152863336Y-122615014D01*
X153923996Y-121554354D01*
X154312904Y-121943262D01*
X153252244Y-123003922D01*
X153252244Y-123003922D01*
G37*
D12*
X154153806Y-122844823D03*
D13*
G36*
X153817930Y-123569607D02*
X153429022Y-123180699D01*
X154489682Y-122120039D01*
X154878590Y-122508947D01*
X153817930Y-123569607D01*
X153817930Y-123569607D01*
G37*
D12*
X154719491Y-123410509D03*
D13*
G36*
X154383615Y-124135293D02*
X153994707Y-123746385D01*
X155055367Y-122685725D01*
X155444275Y-123074633D01*
X154383615Y-124135293D01*
X154383615Y-124135293D01*
G37*
D12*
X155285177Y-123976194D03*
D13*
G36*
X154949301Y-124700978D02*
X154560393Y-124312070D01*
X155621053Y-123251410D01*
X156009961Y-123640318D01*
X154949301Y-124700978D01*
X154949301Y-124700978D01*
G37*
D12*
X155850862Y-124541880D03*
D13*
G36*
X155514986Y-125266664D02*
X155126078Y-124877756D01*
X156186738Y-123817096D01*
X156575646Y-124206004D01*
X155514986Y-125266664D01*
X155514986Y-125266664D01*
G37*
D12*
X156416548Y-125107565D03*
D13*
G36*
X156080672Y-125832349D02*
X155691764Y-125443441D01*
X156752424Y-124382781D01*
X157141332Y-124771689D01*
X156080672Y-125832349D01*
X156080672Y-125832349D01*
G37*
D12*
X156982233Y-125673250D03*
D13*
G36*
X156646357Y-126398034D02*
X156257449Y-126009126D01*
X157318109Y-124948466D01*
X157707017Y-125337374D01*
X156646357Y-126398034D01*
X156646357Y-126398034D01*
G37*
D12*
X157547918Y-126238936D03*
D13*
G36*
X157212042Y-126963720D02*
X156823134Y-126574812D01*
X157883794Y-125514152D01*
X158272702Y-125903060D01*
X157212042Y-126963720D01*
X157212042Y-126963720D01*
G37*
D12*
X159952082Y-126238936D03*
D13*
G36*
X159227298Y-125903060D02*
X159616206Y-125514152D01*
X160676866Y-126574812D01*
X160287958Y-126963720D01*
X159227298Y-125903060D01*
X159227298Y-125903060D01*
G37*
D12*
X160517767Y-125673250D03*
D13*
G36*
X159792983Y-125337374D02*
X160181891Y-124948466D01*
X161242551Y-126009126D01*
X160853643Y-126398034D01*
X159792983Y-125337374D01*
X159792983Y-125337374D01*
G37*
D12*
X161083452Y-125107565D03*
D13*
G36*
X160358668Y-124771689D02*
X160747576Y-124382781D01*
X161808236Y-125443441D01*
X161419328Y-125832349D01*
X160358668Y-124771689D01*
X160358668Y-124771689D01*
G37*
D12*
X161649138Y-124541880D03*
D13*
G36*
X160924354Y-124206004D02*
X161313262Y-123817096D01*
X162373922Y-124877756D01*
X161985014Y-125266664D01*
X160924354Y-124206004D01*
X160924354Y-124206004D01*
G37*
D12*
X162214823Y-123976194D03*
D13*
G36*
X161490039Y-123640318D02*
X161878947Y-123251410D01*
X162939607Y-124312070D01*
X162550699Y-124700978D01*
X161490039Y-123640318D01*
X161490039Y-123640318D01*
G37*
D12*
X162780509Y-123410509D03*
D13*
G36*
X162055725Y-123074633D02*
X162444633Y-122685725D01*
X163505293Y-123746385D01*
X163116385Y-124135293D01*
X162055725Y-123074633D01*
X162055725Y-123074633D01*
G37*
D12*
X163346194Y-122844823D03*
D13*
G36*
X162621410Y-122508947D02*
X163010318Y-122120039D01*
X164070978Y-123180699D01*
X163682070Y-123569607D01*
X162621410Y-122508947D01*
X162621410Y-122508947D01*
G37*
D12*
X163911880Y-122279138D03*
D13*
G36*
X163187096Y-121943262D02*
X163576004Y-121554354D01*
X164636664Y-122615014D01*
X164247756Y-123003922D01*
X163187096Y-121943262D01*
X163187096Y-121943262D01*
G37*
D12*
X164477565Y-121713452D03*
D13*
G36*
X163752781Y-121377576D02*
X164141689Y-120988668D01*
X165202349Y-122049328D01*
X164813441Y-122438236D01*
X163752781Y-121377576D01*
X163752781Y-121377576D01*
G37*
D12*
X165043250Y-121147767D03*
D13*
G36*
X164318466Y-120811891D02*
X164707374Y-120422983D01*
X165768034Y-121483643D01*
X165379126Y-121872551D01*
X164318466Y-120811891D01*
X164318466Y-120811891D01*
G37*
D12*
X165608936Y-120582082D03*
D13*
G36*
X164884152Y-120246206D02*
X165273060Y-119857298D01*
X166333720Y-120917958D01*
X165944812Y-121306866D01*
X164884152Y-120246206D01*
X164884152Y-120246206D01*
G37*
D12*
X165608936Y-118177918D03*
D13*
G36*
X165273060Y-118902702D02*
X164884152Y-118513794D01*
X165944812Y-117453134D01*
X166333720Y-117842042D01*
X165273060Y-118902702D01*
X165273060Y-118902702D01*
G37*
D12*
X165043250Y-117612233D03*
D13*
G36*
X164707374Y-118337017D02*
X164318466Y-117948109D01*
X165379126Y-116887449D01*
X165768034Y-117276357D01*
X164707374Y-118337017D01*
X164707374Y-118337017D01*
G37*
D12*
X164477565Y-117046548D03*
D13*
G36*
X164141689Y-117771332D02*
X163752781Y-117382424D01*
X164813441Y-116321764D01*
X165202349Y-116710672D01*
X164141689Y-117771332D01*
X164141689Y-117771332D01*
G37*
D12*
X163911880Y-116480862D03*
D13*
G36*
X163576004Y-117205646D02*
X163187096Y-116816738D01*
X164247756Y-115756078D01*
X164636664Y-116144986D01*
X163576004Y-117205646D01*
X163576004Y-117205646D01*
G37*
D12*
X163346194Y-115915177D03*
D13*
G36*
X163010318Y-116639961D02*
X162621410Y-116251053D01*
X163682070Y-115190393D01*
X164070978Y-115579301D01*
X163010318Y-116639961D01*
X163010318Y-116639961D01*
G37*
D12*
X162780509Y-115349491D03*
D13*
G36*
X162444633Y-116074275D02*
X162055725Y-115685367D01*
X163116385Y-114624707D01*
X163505293Y-115013615D01*
X162444633Y-116074275D01*
X162444633Y-116074275D01*
G37*
D12*
X162214823Y-114783806D03*
D13*
G36*
X161878947Y-115508590D02*
X161490039Y-115119682D01*
X162550699Y-114059022D01*
X162939607Y-114447930D01*
X161878947Y-115508590D01*
X161878947Y-115508590D01*
G37*
D12*
X161649138Y-114218120D03*
D13*
G36*
X161313262Y-114942904D02*
X160924354Y-114553996D01*
X161985014Y-113493336D01*
X162373922Y-113882244D01*
X161313262Y-114942904D01*
X161313262Y-114942904D01*
G37*
D12*
X161083452Y-113652435D03*
D13*
G36*
X160747576Y-114377219D02*
X160358668Y-113988311D01*
X161419328Y-112927651D01*
X161808236Y-113316559D01*
X160747576Y-114377219D01*
X160747576Y-114377219D01*
G37*
D12*
X160517767Y-113086750D03*
D13*
G36*
X160181891Y-113811534D02*
X159792983Y-113422626D01*
X160853643Y-112361966D01*
X161242551Y-112750874D01*
X160181891Y-113811534D01*
X160181891Y-113811534D01*
G37*
D12*
X159952082Y-112521064D03*
D13*
G36*
X159616206Y-113245848D02*
X159227298Y-112856940D01*
X160287958Y-111796280D01*
X160676866Y-112185188D01*
X159616206Y-113245848D01*
X159616206Y-113245848D01*
G37*
D14*
X158750000Y-121766485D03*
D13*
G36*
X157954505Y-121766485D02*
X158750000Y-120970990D01*
X159545495Y-121766485D01*
X158750000Y-122561980D01*
X157954505Y-121766485D01*
X157954505Y-121766485D01*
G37*
D14*
X159545495Y-120970990D03*
D13*
G36*
X158750000Y-120970990D02*
X159545495Y-120175495D01*
X160340990Y-120970990D01*
X159545495Y-121766485D01*
X158750000Y-120970990D01*
X158750000Y-120970990D01*
G37*
D14*
X160340990Y-120175495D03*
D13*
G36*
X159545495Y-120175495D02*
X160340990Y-119380000D01*
X161136485Y-120175495D01*
X160340990Y-120970990D01*
X159545495Y-120175495D01*
X159545495Y-120175495D01*
G37*
D14*
X161136485Y-119380000D03*
D13*
G36*
X160340990Y-119380000D02*
X161136485Y-118584505D01*
X161931980Y-119380000D01*
X161136485Y-120175495D01*
X160340990Y-119380000D01*
X160340990Y-119380000D01*
G37*
D14*
X157954505Y-120970990D03*
D13*
G36*
X157159010Y-120970990D02*
X157954505Y-120175495D01*
X158750000Y-120970990D01*
X157954505Y-121766485D01*
X157159010Y-120970990D01*
X157159010Y-120970990D01*
G37*
D14*
X158750000Y-120175495D03*
D13*
G36*
X157954505Y-120175495D02*
X158750000Y-119380000D01*
X159545495Y-120175495D01*
X158750000Y-120970990D01*
X157954505Y-120175495D01*
X157954505Y-120175495D01*
G37*
D14*
X159545495Y-119380000D03*
D13*
G36*
X158750000Y-119380000D02*
X159545495Y-118584505D01*
X160340990Y-119380000D01*
X159545495Y-120175495D01*
X158750000Y-119380000D01*
X158750000Y-119380000D01*
G37*
D14*
X160340990Y-118584505D03*
D13*
G36*
X159545495Y-118584505D02*
X160340990Y-117789010D01*
X161136485Y-118584505D01*
X160340990Y-119380000D01*
X159545495Y-118584505D01*
X159545495Y-118584505D01*
G37*
D14*
X157159010Y-120175495D03*
D13*
G36*
X156363515Y-120175495D02*
X157159010Y-119380000D01*
X157954505Y-120175495D01*
X157159010Y-120970990D01*
X156363515Y-120175495D01*
X156363515Y-120175495D01*
G37*
D14*
X157954505Y-119380000D03*
D13*
G36*
X157159010Y-119380000D02*
X157954505Y-118584505D01*
X158750000Y-119380000D01*
X157954505Y-120175495D01*
X157159010Y-119380000D01*
X157159010Y-119380000D01*
G37*
D14*
X158750000Y-118584505D03*
D13*
G36*
X157954505Y-118584505D02*
X158750000Y-117789010D01*
X159545495Y-118584505D01*
X158750000Y-119380000D01*
X157954505Y-118584505D01*
X157954505Y-118584505D01*
G37*
D14*
X159545495Y-117789010D03*
D13*
G36*
X158750000Y-117789010D02*
X159545495Y-116993515D01*
X160340990Y-117789010D01*
X159545495Y-118584505D01*
X158750000Y-117789010D01*
X158750000Y-117789010D01*
G37*
D14*
X156363515Y-119380000D03*
D13*
G36*
X155568020Y-119380000D02*
X156363515Y-118584505D01*
X157159010Y-119380000D01*
X156363515Y-120175495D01*
X155568020Y-119380000D01*
X155568020Y-119380000D01*
G37*
D14*
X157159010Y-118584505D03*
D13*
G36*
X156363515Y-118584505D02*
X157159010Y-117789010D01*
X157954505Y-118584505D01*
X157159010Y-119380000D01*
X156363515Y-118584505D01*
X156363515Y-118584505D01*
G37*
D14*
X157954505Y-117789010D03*
D13*
G36*
X157159010Y-117789010D02*
X157954505Y-116993515D01*
X158750000Y-117789010D01*
X157954505Y-118584505D01*
X157159010Y-117789010D01*
X157159010Y-117789010D01*
G37*
D14*
X158750000Y-116993515D03*
D13*
G36*
X157954505Y-116993515D02*
X158750000Y-116198020D01*
X159545495Y-116993515D01*
X158750000Y-117789010D01*
X157954505Y-116993515D01*
X157954505Y-116993515D01*
G37*
D11*
X146050000Y-149860000D03*
D10*
X146050000Y-147320000D03*
X146050000Y-144780000D03*
X146050000Y-142240000D03*
X146050000Y-139700000D03*
X146050000Y-137160000D03*
X146050000Y-134620000D03*
X146050000Y-132080000D03*
X146050000Y-129540000D03*
X146050000Y-127000000D03*
X146050000Y-124460000D03*
X146050000Y-121920000D03*
X116840000Y-121920000D03*
X116840000Y-124460000D03*
X116840000Y-127000000D03*
X116840000Y-129540000D03*
X116840000Y-132080000D03*
X116840000Y-134620000D03*
X116840000Y-137160000D03*
X116840000Y-139700000D03*
X116840000Y-142240000D03*
X116840000Y-144780000D03*
X116840000Y-147320000D03*
D11*
X116840000Y-149860000D03*
X116840000Y-116840000D03*
D10*
X116840000Y-114300000D03*
X116840000Y-111760000D03*
X116840000Y-109220000D03*
X116840000Y-106680000D03*
X116840000Y-104140000D03*
X116840000Y-101600000D03*
X116840000Y-99060000D03*
X116840000Y-96520000D03*
X116840000Y-93980000D03*
X116840000Y-91440000D03*
X116840000Y-88900000D03*
D11*
X142240000Y-121920000D03*
D10*
X142240000Y-124460000D03*
X142240000Y-127000000D03*
X142240000Y-129540000D03*
X142240000Y-132080000D03*
X142240000Y-134620000D03*
X142240000Y-137160000D03*
X142240000Y-139700000D03*
X142240000Y-142240000D03*
X142240000Y-144780000D03*
X142240000Y-147320000D03*
X142240000Y-149860000D03*
X142240000Y-116840000D03*
X142240000Y-114300000D03*
X142240000Y-111760000D03*
X142240000Y-109220000D03*
X142240000Y-106680000D03*
X142240000Y-104140000D03*
X142240000Y-101600000D03*
X142240000Y-99060000D03*
X142240000Y-96520000D03*
X142240000Y-93980000D03*
X142240000Y-91440000D03*
D11*
X142240000Y-88900000D03*
D14*
X129540000Y-116993515D03*
D13*
G36*
X128744505Y-116993515D02*
X129540000Y-116198020D01*
X130335495Y-116993515D01*
X129540000Y-117789010D01*
X128744505Y-116993515D01*
X128744505Y-116993515D01*
G37*
D14*
X128744505Y-117789010D03*
D13*
G36*
X127949010Y-117789010D02*
X128744505Y-116993515D01*
X129540000Y-117789010D01*
X128744505Y-118584505D01*
X127949010Y-117789010D01*
X127949010Y-117789010D01*
G37*
D14*
X127949010Y-118584505D03*
D13*
G36*
X127153515Y-118584505D02*
X127949010Y-117789010D01*
X128744505Y-118584505D01*
X127949010Y-119380000D01*
X127153515Y-118584505D01*
X127153515Y-118584505D01*
G37*
D14*
X127153515Y-119380000D03*
D13*
G36*
X126358020Y-119380000D02*
X127153515Y-118584505D01*
X127949010Y-119380000D01*
X127153515Y-120175495D01*
X126358020Y-119380000D01*
X126358020Y-119380000D01*
G37*
D14*
X130335495Y-117789010D03*
D13*
G36*
X129540000Y-117789010D02*
X130335495Y-116993515D01*
X131130990Y-117789010D01*
X130335495Y-118584505D01*
X129540000Y-117789010D01*
X129540000Y-117789010D01*
G37*
D14*
X129540000Y-118584505D03*
D13*
G36*
X128744505Y-118584505D02*
X129540000Y-117789010D01*
X130335495Y-118584505D01*
X129540000Y-119380000D01*
X128744505Y-118584505D01*
X128744505Y-118584505D01*
G37*
D14*
X128744505Y-119380000D03*
D13*
G36*
X127949010Y-119380000D02*
X128744505Y-118584505D01*
X129540000Y-119380000D01*
X128744505Y-120175495D01*
X127949010Y-119380000D01*
X127949010Y-119380000D01*
G37*
D14*
X127949010Y-120175495D03*
D13*
G36*
X127153515Y-120175495D02*
X127949010Y-119380000D01*
X128744505Y-120175495D01*
X127949010Y-120970990D01*
X127153515Y-120175495D01*
X127153515Y-120175495D01*
G37*
D14*
X131130990Y-118584505D03*
D13*
G36*
X130335495Y-118584505D02*
X131130990Y-117789010D01*
X131926485Y-118584505D01*
X131130990Y-119380000D01*
X130335495Y-118584505D01*
X130335495Y-118584505D01*
G37*
D14*
X130335495Y-119380000D03*
D13*
G36*
X129540000Y-119380000D02*
X130335495Y-118584505D01*
X131130990Y-119380000D01*
X130335495Y-120175495D01*
X129540000Y-119380000D01*
X129540000Y-119380000D01*
G37*
D14*
X129540000Y-120175495D03*
D13*
G36*
X128744505Y-120175495D02*
X129540000Y-119380000D01*
X130335495Y-120175495D01*
X129540000Y-120970990D01*
X128744505Y-120175495D01*
X128744505Y-120175495D01*
G37*
D14*
X128744505Y-120970990D03*
D13*
G36*
X127949010Y-120970990D02*
X128744505Y-120175495D01*
X129540000Y-120970990D01*
X128744505Y-121766485D01*
X127949010Y-120970990D01*
X127949010Y-120970990D01*
G37*
D14*
X131926485Y-119380000D03*
D13*
G36*
X131130990Y-119380000D02*
X131926485Y-118584505D01*
X132721980Y-119380000D01*
X131926485Y-120175495D01*
X131130990Y-119380000D01*
X131130990Y-119380000D01*
G37*
D14*
X131130990Y-120175495D03*
D13*
G36*
X130335495Y-120175495D02*
X131130990Y-119380000D01*
X131926485Y-120175495D01*
X131130990Y-120970990D01*
X130335495Y-120175495D01*
X130335495Y-120175495D01*
G37*
D14*
X130335495Y-120970990D03*
D13*
G36*
X129540000Y-120970990D02*
X130335495Y-120175495D01*
X131130990Y-120970990D01*
X130335495Y-121766485D01*
X129540000Y-120970990D01*
X129540000Y-120970990D01*
G37*
D14*
X129540000Y-121766485D03*
D13*
G36*
X128744505Y-121766485D02*
X129540000Y-120970990D01*
X130335495Y-121766485D01*
X129540000Y-122561980D01*
X128744505Y-121766485D01*
X128744505Y-121766485D01*
G37*
D12*
X130742082Y-112521064D03*
D13*
G36*
X130406206Y-113245848D02*
X130017298Y-112856940D01*
X131077958Y-111796280D01*
X131466866Y-112185188D01*
X130406206Y-113245848D01*
X130406206Y-113245848D01*
G37*
D12*
X131307767Y-113086750D03*
D13*
G36*
X130971891Y-113811534D02*
X130582983Y-113422626D01*
X131643643Y-112361966D01*
X132032551Y-112750874D01*
X130971891Y-113811534D01*
X130971891Y-113811534D01*
G37*
D12*
X131873452Y-113652435D03*
D13*
G36*
X131537576Y-114377219D02*
X131148668Y-113988311D01*
X132209328Y-112927651D01*
X132598236Y-113316559D01*
X131537576Y-114377219D01*
X131537576Y-114377219D01*
G37*
D12*
X132439138Y-114218120D03*
D13*
G36*
X132103262Y-114942904D02*
X131714354Y-114553996D01*
X132775014Y-113493336D01*
X133163922Y-113882244D01*
X132103262Y-114942904D01*
X132103262Y-114942904D01*
G37*
D12*
X133004823Y-114783806D03*
D13*
G36*
X132668947Y-115508590D02*
X132280039Y-115119682D01*
X133340699Y-114059022D01*
X133729607Y-114447930D01*
X132668947Y-115508590D01*
X132668947Y-115508590D01*
G37*
D12*
X133570509Y-115349491D03*
D13*
G36*
X133234633Y-116074275D02*
X132845725Y-115685367D01*
X133906385Y-114624707D01*
X134295293Y-115013615D01*
X133234633Y-116074275D01*
X133234633Y-116074275D01*
G37*
D12*
X134136194Y-115915177D03*
D13*
G36*
X133800318Y-116639961D02*
X133411410Y-116251053D01*
X134472070Y-115190393D01*
X134860978Y-115579301D01*
X133800318Y-116639961D01*
X133800318Y-116639961D01*
G37*
D12*
X134701880Y-116480862D03*
D13*
G36*
X134366004Y-117205646D02*
X133977096Y-116816738D01*
X135037756Y-115756078D01*
X135426664Y-116144986D01*
X134366004Y-117205646D01*
X134366004Y-117205646D01*
G37*
D12*
X135267565Y-117046548D03*
D13*
G36*
X134931689Y-117771332D02*
X134542781Y-117382424D01*
X135603441Y-116321764D01*
X135992349Y-116710672D01*
X134931689Y-117771332D01*
X134931689Y-117771332D01*
G37*
D12*
X135833250Y-117612233D03*
D13*
G36*
X135497374Y-118337017D02*
X135108466Y-117948109D01*
X136169126Y-116887449D01*
X136558034Y-117276357D01*
X135497374Y-118337017D01*
X135497374Y-118337017D01*
G37*
D12*
X136398936Y-118177918D03*
D13*
G36*
X136063060Y-118902702D02*
X135674152Y-118513794D01*
X136734812Y-117453134D01*
X137123720Y-117842042D01*
X136063060Y-118902702D01*
X136063060Y-118902702D01*
G37*
D12*
X136398936Y-120582082D03*
D13*
G36*
X135674152Y-120246206D02*
X136063060Y-119857298D01*
X137123720Y-120917958D01*
X136734812Y-121306866D01*
X135674152Y-120246206D01*
X135674152Y-120246206D01*
G37*
D12*
X135833250Y-121147767D03*
D13*
G36*
X135108466Y-120811891D02*
X135497374Y-120422983D01*
X136558034Y-121483643D01*
X136169126Y-121872551D01*
X135108466Y-120811891D01*
X135108466Y-120811891D01*
G37*
D12*
X135267565Y-121713452D03*
D13*
G36*
X134542781Y-121377576D02*
X134931689Y-120988668D01*
X135992349Y-122049328D01*
X135603441Y-122438236D01*
X134542781Y-121377576D01*
X134542781Y-121377576D01*
G37*
D12*
X134701880Y-122279138D03*
D13*
G36*
X133977096Y-121943262D02*
X134366004Y-121554354D01*
X135426664Y-122615014D01*
X135037756Y-123003922D01*
X133977096Y-121943262D01*
X133977096Y-121943262D01*
G37*
D12*
X134136194Y-122844823D03*
D13*
G36*
X133411410Y-122508947D02*
X133800318Y-122120039D01*
X134860978Y-123180699D01*
X134472070Y-123569607D01*
X133411410Y-122508947D01*
X133411410Y-122508947D01*
G37*
D12*
X133570509Y-123410509D03*
D13*
G36*
X132845725Y-123074633D02*
X133234633Y-122685725D01*
X134295293Y-123746385D01*
X133906385Y-124135293D01*
X132845725Y-123074633D01*
X132845725Y-123074633D01*
G37*
D12*
X133004823Y-123976194D03*
D13*
G36*
X132280039Y-123640318D02*
X132668947Y-123251410D01*
X133729607Y-124312070D01*
X133340699Y-124700978D01*
X132280039Y-123640318D01*
X132280039Y-123640318D01*
G37*
D12*
X132439138Y-124541880D03*
D13*
G36*
X131714354Y-124206004D02*
X132103262Y-123817096D01*
X133163922Y-124877756D01*
X132775014Y-125266664D01*
X131714354Y-124206004D01*
X131714354Y-124206004D01*
G37*
D12*
X131873452Y-125107565D03*
D13*
G36*
X131148668Y-124771689D02*
X131537576Y-124382781D01*
X132598236Y-125443441D01*
X132209328Y-125832349D01*
X131148668Y-124771689D01*
X131148668Y-124771689D01*
G37*
D12*
X131307767Y-125673250D03*
D13*
G36*
X130582983Y-125337374D02*
X130971891Y-124948466D01*
X132032551Y-126009126D01*
X131643643Y-126398034D01*
X130582983Y-125337374D01*
X130582983Y-125337374D01*
G37*
D12*
X130742082Y-126238936D03*
D13*
G36*
X130017298Y-125903060D02*
X130406206Y-125514152D01*
X131466866Y-126574812D01*
X131077958Y-126963720D01*
X130017298Y-125903060D01*
X130017298Y-125903060D01*
G37*
D12*
X128337918Y-126238936D03*
D13*
G36*
X128002042Y-126963720D02*
X127613134Y-126574812D01*
X128673794Y-125514152D01*
X129062702Y-125903060D01*
X128002042Y-126963720D01*
X128002042Y-126963720D01*
G37*
D12*
X127772233Y-125673250D03*
D13*
G36*
X127436357Y-126398034D02*
X127047449Y-126009126D01*
X128108109Y-124948466D01*
X128497017Y-125337374D01*
X127436357Y-126398034D01*
X127436357Y-126398034D01*
G37*
D12*
X127206548Y-125107565D03*
D13*
G36*
X126870672Y-125832349D02*
X126481764Y-125443441D01*
X127542424Y-124382781D01*
X127931332Y-124771689D01*
X126870672Y-125832349D01*
X126870672Y-125832349D01*
G37*
D12*
X126640862Y-124541880D03*
D13*
G36*
X126304986Y-125266664D02*
X125916078Y-124877756D01*
X126976738Y-123817096D01*
X127365646Y-124206004D01*
X126304986Y-125266664D01*
X126304986Y-125266664D01*
G37*
D12*
X126075177Y-123976194D03*
D13*
G36*
X125739301Y-124700978D02*
X125350393Y-124312070D01*
X126411053Y-123251410D01*
X126799961Y-123640318D01*
X125739301Y-124700978D01*
X125739301Y-124700978D01*
G37*
D12*
X125509491Y-123410509D03*
D13*
G36*
X125173615Y-124135293D02*
X124784707Y-123746385D01*
X125845367Y-122685725D01*
X126234275Y-123074633D01*
X125173615Y-124135293D01*
X125173615Y-124135293D01*
G37*
D12*
X124943806Y-122844823D03*
D13*
G36*
X124607930Y-123569607D02*
X124219022Y-123180699D01*
X125279682Y-122120039D01*
X125668590Y-122508947D01*
X124607930Y-123569607D01*
X124607930Y-123569607D01*
G37*
D12*
X124378120Y-122279138D03*
D13*
G36*
X124042244Y-123003922D02*
X123653336Y-122615014D01*
X124713996Y-121554354D01*
X125102904Y-121943262D01*
X124042244Y-123003922D01*
X124042244Y-123003922D01*
G37*
D12*
X123812435Y-121713452D03*
D13*
G36*
X123476559Y-122438236D02*
X123087651Y-122049328D01*
X124148311Y-120988668D01*
X124537219Y-121377576D01*
X123476559Y-122438236D01*
X123476559Y-122438236D01*
G37*
D12*
X123246750Y-121147767D03*
D13*
G36*
X122910874Y-121872551D02*
X122521966Y-121483643D01*
X123582626Y-120422983D01*
X123971534Y-120811891D01*
X122910874Y-121872551D01*
X122910874Y-121872551D01*
G37*
D12*
X122681064Y-120582082D03*
D13*
G36*
X122345188Y-121306866D02*
X121956280Y-120917958D01*
X123016940Y-119857298D01*
X123405848Y-120246206D01*
X122345188Y-121306866D01*
X122345188Y-121306866D01*
G37*
D12*
X122681064Y-118177918D03*
D13*
G36*
X121956280Y-117842042D02*
X122345188Y-117453134D01*
X123405848Y-118513794D01*
X123016940Y-118902702D01*
X121956280Y-117842042D01*
X121956280Y-117842042D01*
G37*
D12*
X123246750Y-117612233D03*
D13*
G36*
X122521966Y-117276357D02*
X122910874Y-116887449D01*
X123971534Y-117948109D01*
X123582626Y-118337017D01*
X122521966Y-117276357D01*
X122521966Y-117276357D01*
G37*
D12*
X123812435Y-117046548D03*
D13*
G36*
X123087651Y-116710672D02*
X123476559Y-116321764D01*
X124537219Y-117382424D01*
X124148311Y-117771332D01*
X123087651Y-116710672D01*
X123087651Y-116710672D01*
G37*
D12*
X124378120Y-116480862D03*
D13*
G36*
X123653336Y-116144986D02*
X124042244Y-115756078D01*
X125102904Y-116816738D01*
X124713996Y-117205646D01*
X123653336Y-116144986D01*
X123653336Y-116144986D01*
G37*
D12*
X124943806Y-115915177D03*
D13*
G36*
X124219022Y-115579301D02*
X124607930Y-115190393D01*
X125668590Y-116251053D01*
X125279682Y-116639961D01*
X124219022Y-115579301D01*
X124219022Y-115579301D01*
G37*
D12*
X125509491Y-115349491D03*
D13*
G36*
X124784707Y-115013615D02*
X125173615Y-114624707D01*
X126234275Y-115685367D01*
X125845367Y-116074275D01*
X124784707Y-115013615D01*
X124784707Y-115013615D01*
G37*
D12*
X126075177Y-114783806D03*
D13*
G36*
X125350393Y-114447930D02*
X125739301Y-114059022D01*
X126799961Y-115119682D01*
X126411053Y-115508590D01*
X125350393Y-114447930D01*
X125350393Y-114447930D01*
G37*
D12*
X126640862Y-114218120D03*
D13*
G36*
X125916078Y-113882244D02*
X126304986Y-113493336D01*
X127365646Y-114553996D01*
X126976738Y-114942904D01*
X125916078Y-113882244D01*
X125916078Y-113882244D01*
G37*
D12*
X127206548Y-113652435D03*
D13*
G36*
X126481764Y-113316559D02*
X126870672Y-112927651D01*
X127931332Y-113988311D01*
X127542424Y-114377219D01*
X126481764Y-113316559D01*
X126481764Y-113316559D01*
G37*
D12*
X127772233Y-113086750D03*
D13*
G36*
X127047449Y-112750874D02*
X127436357Y-112361966D01*
X128497017Y-113422626D01*
X128108109Y-113811534D01*
X127047449Y-112750874D01*
X127047449Y-112750874D01*
G37*
D12*
X128337918Y-112521064D03*
D13*
G36*
X127613134Y-112185188D02*
X128002042Y-111796280D01*
X129062702Y-112856940D01*
X128673794Y-113245848D01*
X127613134Y-112185188D01*
X127613134Y-112185188D01*
G37*
D11*
X142240000Y-119380000D03*
D15*
X89670000Y-129805000D03*
X90670000Y-129805000D03*
X90670000Y-128005000D03*
X89670000Y-128005000D03*
X108720000Y-137530000D03*
X109720000Y-137530000D03*
X109720000Y-139330000D03*
X108720000Y-139330000D03*
X108720000Y-120280000D03*
X109720000Y-120280000D03*
X109720000Y-118480000D03*
X108720000Y-118480000D03*
X89670000Y-99430000D03*
X90670000Y-99430000D03*
X90670000Y-101230000D03*
X89670000Y-101230000D03*
X108720000Y-101230000D03*
X109720000Y-101230000D03*
X109720000Y-99430000D03*
X108720000Y-99430000D03*
D11*
X86995000Y-149860000D03*
D10*
X89535000Y-149860000D03*
X92075000Y-149860000D03*
X94615000Y-149860000D03*
X97155000Y-149860000D03*
X99695000Y-149860000D03*
X102235000Y-149860000D03*
X102235000Y-88900000D03*
X99695000Y-88900000D03*
X97155000Y-88900000D03*
X94615000Y-88900000D03*
X92075000Y-88900000D03*
X89535000Y-88900000D03*
D11*
X86995000Y-88900000D03*
D16*
X82550000Y-132715000D03*
X80010000Y-126365000D03*
X101600000Y-142240000D03*
X99060000Y-135890000D03*
X99060000Y-140970000D03*
X101600000Y-134620000D03*
X80010000Y-131445000D03*
X82550000Y-125095000D03*
X101600000Y-115570000D03*
X99060000Y-121920000D03*
X99060000Y-116840000D03*
X101600000Y-123190000D03*
X82550000Y-104140000D03*
X80010000Y-97790000D03*
X101600000Y-104140000D03*
X99060000Y-97790000D03*
X99060000Y-102870000D03*
X101600000Y-96520000D03*
X80010000Y-102870000D03*
X82550000Y-96520000D03*
D17*
X76200000Y-135415000D03*
X76200000Y-132115000D03*
D18*
X87885000Y-146050000D03*
X91185000Y-146050000D03*
X102615000Y-128905000D03*
X99315000Y-128905000D03*
X99315000Y-109855000D03*
X102615000Y-109855000D03*
X81025000Y-109855000D03*
X77725000Y-109855000D03*
D19*
X129540000Y-118110000D03*
X128270000Y-119380000D03*
X129540000Y-120650000D03*
X130810000Y-119380000D03*
X158750000Y-118110000D03*
X157480000Y-119380000D03*
X158750000Y-120650000D03*
X160020000Y-119380000D03*
X76200000Y-129540000D03*
X76290000Y-106680000D03*
X97155000Y-109220000D03*
X97155000Y-128905000D03*
X95250000Y-136525000D03*
X90805000Y-93345000D03*
X87630000Y-112395000D03*
X87630000Y-122555000D03*
X90805000Y-124460000D03*
X93345000Y-135890000D03*
X94615000Y-133350000D03*
X109220000Y-133985000D03*
X111125000Y-106680000D03*
X111125000Y-125730000D03*
X111125000Y-144780000D03*
X113575000Y-115570000D03*
X111125000Y-104775000D03*
X111125000Y-123825000D03*
X111125000Y-142875000D03*
X113030000Y-112395000D03*
X102235000Y-93345000D03*
X107315000Y-104775000D03*
X107315000Y-124460000D03*
X107315000Y-133985000D03*
X107315000Y-143510000D03*
X97155000Y-95885000D03*
X99060000Y-93980000D03*
X109220000Y-95885000D03*
X109220000Y-113665000D03*
X88900000Y-134620000D03*
X88900000Y-122555000D03*
X88900000Y-112395000D03*
X91350000Y-133985000D03*
X93980000Y-104775000D03*
X109220000Y-149225000D03*
X114260000Y-145415000D03*
X88265000Y-133350000D03*
X88355000Y-124460000D03*
X90170000Y-120015000D03*
X86360000Y-114935000D03*
X88900000Y-107950000D03*
D20*
X120015000Y-139700000D02*
X116840000Y-139700000D01*
X120650000Y-139065000D02*
X120015000Y-139700000D01*
X126640862Y-124541880D02*
X120650000Y-130532742D01*
X120650000Y-130532742D02*
X120650000Y-139065000D01*
X149225000Y-139700000D02*
X146050000Y-139700000D01*
X149860000Y-139065000D02*
X149225000Y-139700000D01*
X155850862Y-124541880D02*
X149860000Y-130532742D01*
X149860000Y-130532742D02*
X149860000Y-139065000D01*
X120015000Y-136525000D02*
X119380000Y-137160000D01*
X119380000Y-137160000D02*
X116840000Y-137160000D01*
X126075177Y-123976194D02*
X120015000Y-130036371D01*
X120015000Y-130036371D02*
X120015000Y-136525000D01*
X149225000Y-136525000D02*
X148590000Y-137160000D01*
X148590000Y-137160000D02*
X146050000Y-137160000D01*
X155285177Y-123976194D02*
X149225000Y-130036371D01*
X149225000Y-130036371D02*
X149225000Y-136525000D01*
X118745000Y-134620000D02*
X119380000Y-133985000D01*
X125509491Y-123410509D02*
X119380000Y-129540000D01*
X119380000Y-133985000D02*
X119380000Y-129540000D01*
X118745000Y-134620000D02*
X116840000Y-134620000D01*
X147955000Y-134620000D02*
X148590000Y-133985000D01*
X154719491Y-123410509D02*
X148590000Y-129540000D01*
X148590000Y-133985000D02*
X148590000Y-129540000D01*
X147955000Y-134620000D02*
X146050000Y-134620000D01*
X121343146Y-121920000D02*
X121216146Y-121920000D01*
X122681064Y-120582082D02*
X121343146Y-121920000D01*
X121216146Y-121920000D02*
X116840000Y-121920000D01*
X150553146Y-121920000D02*
X150426146Y-121920000D01*
X151891064Y-120582082D02*
X150553146Y-121920000D01*
X150426146Y-121920000D02*
X146050000Y-121920000D01*
X119934517Y-124460000D02*
X119380000Y-124460000D01*
X123246750Y-121147767D02*
X119934517Y-124460000D01*
X119380000Y-124460000D02*
X116840000Y-124460000D01*
X149144517Y-124460000D02*
X148590000Y-124460000D01*
X152456750Y-121147767D02*
X149144517Y-124460000D01*
X148590000Y-124460000D02*
X146050000Y-124460000D01*
X123812435Y-121713452D02*
X118525887Y-127000000D01*
X118525887Y-127000000D02*
X116840000Y-127000000D01*
X153022435Y-121713452D02*
X147735887Y-127000000D01*
X147735887Y-127000000D02*
X146050000Y-127000000D01*
X118110000Y-128547258D02*
X124378120Y-122279138D01*
X117967257Y-128690001D02*
X118110000Y-128547258D01*
X117689999Y-128690001D02*
X117967257Y-128690001D01*
X116840000Y-129540000D02*
X117689999Y-128690001D01*
X147320000Y-128547258D02*
X153588120Y-122279138D01*
X147177257Y-128690001D02*
X147320000Y-128547258D01*
X146899999Y-128690001D02*
X147177257Y-128690001D01*
X146050000Y-129540000D02*
X146899999Y-128690001D01*
X116205000Y-132058134D02*
X116205000Y-132080000D01*
X118110000Y-132080000D02*
X116840000Y-132080000D01*
X118745000Y-131445000D02*
X118110000Y-132080000D01*
X124943806Y-122844823D02*
X118745000Y-129043629D01*
X118745000Y-129043629D02*
X118745000Y-131445000D01*
X145415000Y-132058134D02*
X145415000Y-132080000D01*
X147320000Y-132080000D02*
X146050000Y-132080000D01*
X147955000Y-131445000D02*
X147320000Y-132080000D01*
X154153806Y-122844823D02*
X147955000Y-129043629D01*
X147955000Y-129043629D02*
X147955000Y-131445000D01*
X120015000Y-142240000D02*
X116840000Y-142240000D01*
X121285000Y-140970000D02*
X120015000Y-142240000D01*
X127206548Y-125107565D02*
X121285000Y-131029113D01*
X121285000Y-131029113D02*
X121285000Y-140970000D01*
X149225000Y-142240000D02*
X146050000Y-142240000D01*
X150495000Y-140970000D02*
X149225000Y-142240000D01*
X156416548Y-125107565D02*
X150495000Y-131029113D01*
X150495000Y-131029113D02*
X150495000Y-140970000D01*
X121920000Y-143510000D02*
X120650000Y-144780000D01*
X127772233Y-125673250D02*
X121920000Y-131525483D01*
X120650000Y-144780000D02*
X116840000Y-144780000D01*
X121920000Y-131525483D02*
X121920000Y-143510000D01*
X151130000Y-143510000D02*
X149860000Y-144780000D01*
X156982233Y-125673250D02*
X151130000Y-131525483D01*
X149860000Y-144780000D02*
X146050000Y-144780000D01*
X151130000Y-131525483D02*
X151130000Y-143510000D01*
X120650000Y-147320000D02*
X116840000Y-147320000D01*
X122555000Y-145415000D02*
X120650000Y-147320000D01*
X128337918Y-126238936D02*
X122555000Y-132021854D01*
X122555000Y-132021854D02*
X122555000Y-145415000D01*
X149860000Y-147320000D02*
X146050000Y-147320000D01*
X151765000Y-145415000D02*
X149860000Y-147320000D01*
X157547918Y-126238936D02*
X151765000Y-132021854D01*
X151765000Y-132021854D02*
X151765000Y-145415000D01*
X121343146Y-116840000D02*
X121285000Y-116840000D01*
X122681064Y-118177918D02*
X121343146Y-116840000D01*
X121343146Y-116840000D02*
X116840000Y-116840000D01*
X150553146Y-116840000D02*
X150495000Y-116840000D01*
X151891064Y-118177918D02*
X150553146Y-116840000D01*
X150553146Y-116840000D02*
X146050000Y-116840000D01*
X74930000Y-125730000D02*
X75565000Y-126365000D01*
X77470000Y-126365000D02*
X80010000Y-126365000D01*
X75565000Y-126365000D02*
X77470000Y-126365000D01*
X81280000Y-123825000D02*
X82550000Y-125095000D01*
X79375000Y-123825000D02*
X81280000Y-123825000D01*
X77470000Y-126365000D02*
X77470000Y-125730000D01*
X77470000Y-125730000D02*
X79375000Y-123825000D01*
X79375000Y-123825000D02*
X81915000Y-121285000D01*
X81915000Y-121285000D02*
X92710000Y-121285000D01*
X92710000Y-121285000D02*
X93345000Y-121920000D01*
X97790000Y-134620000D02*
X99060000Y-135890000D01*
X93345000Y-121920000D02*
X93345000Y-133985000D01*
X93345000Y-133985000D02*
X93980000Y-134620000D01*
X93980000Y-134620000D02*
X97790000Y-134620000D01*
X97790000Y-134620000D02*
X99060000Y-133350000D01*
X99060000Y-133350000D02*
X100330000Y-133350000D01*
X100330000Y-133350000D02*
X101600000Y-134620000D01*
X123246750Y-117612233D02*
X119934517Y-114300000D01*
X119934517Y-114300000D02*
X119380000Y-114300000D01*
X119380000Y-114300000D02*
X116840000Y-114300000D01*
X152456750Y-117612233D02*
X149144517Y-114300000D01*
X149144517Y-114300000D02*
X148590000Y-114300000D01*
X148590000Y-114300000D02*
X146050000Y-114300000D01*
X95885000Y-113665000D02*
X99060000Y-116840000D01*
X76200000Y-113665000D02*
X95885000Y-113665000D01*
X89535000Y-90170000D02*
X88900000Y-90805000D01*
X89535000Y-88900000D02*
X89535000Y-90170000D01*
X75565000Y-113030000D02*
X76200000Y-113665000D01*
X99695000Y-113665000D02*
X95885000Y-113665000D01*
X101600000Y-115570000D02*
X99695000Y-113665000D01*
X123812435Y-117046548D02*
X118525887Y-111760000D01*
X118525887Y-111760000D02*
X116840000Y-111760000D01*
X153022435Y-117046548D02*
X147735887Y-111760000D01*
X147735887Y-111760000D02*
X146050000Y-111760000D01*
X92075000Y-90102081D02*
X90737081Y-91440000D01*
X92075000Y-88900000D02*
X92075000Y-90102081D01*
X80645000Y-94615000D02*
X82550000Y-96520000D01*
X80645000Y-91440000D02*
X80645000Y-94615000D01*
X90737081Y-91440000D02*
X80645000Y-91440000D01*
X99060000Y-95885000D02*
X99060000Y-97790000D01*
X90737081Y-91440000D02*
X94615000Y-91440000D01*
X100330000Y-95250000D02*
X101600000Y-96520000D01*
X98425000Y-95250000D02*
X99060000Y-95885000D01*
X98425000Y-95250000D02*
X100330000Y-95250000D01*
X94615000Y-91440000D02*
X98425000Y-95250000D01*
X117832742Y-110212742D02*
X118110000Y-110212742D01*
X116840000Y-109220000D02*
X117832742Y-110212742D01*
X124378120Y-116480862D02*
X118110000Y-110212742D01*
X147042742Y-110212742D02*
X147320000Y-110212742D01*
X146050000Y-109220000D02*
X147042742Y-110212742D01*
X153588120Y-116480862D02*
X147320000Y-110212742D01*
X116205000Y-106701866D02*
X116205000Y-106680000D01*
X118745000Y-107315000D02*
X118745000Y-109716371D01*
X118745000Y-109716371D02*
X124943806Y-115915177D01*
X118110000Y-106680000D02*
X118745000Y-107315000D01*
X118110000Y-106680000D02*
X116840000Y-106680000D01*
X145415000Y-106701866D02*
X145415000Y-106680000D01*
X147955000Y-107315000D02*
X147955000Y-109716371D01*
X147955000Y-109716371D02*
X154153806Y-115915177D01*
X147320000Y-106680000D02*
X147955000Y-107315000D01*
X147320000Y-106680000D02*
X146050000Y-106680000D01*
X119380000Y-109220000D02*
X125509491Y-115349491D01*
X119380000Y-104775000D02*
X119380000Y-109220000D01*
X118745000Y-104140000D02*
X119380000Y-104775000D01*
X118745000Y-104140000D02*
X116840000Y-104140000D01*
X148590000Y-109220000D02*
X154719491Y-115349491D01*
X148590000Y-104775000D02*
X148590000Y-109220000D01*
X147955000Y-104140000D02*
X148590000Y-104775000D01*
X147955000Y-104140000D02*
X146050000Y-104140000D01*
X120015000Y-108723629D02*
X126075177Y-114783806D01*
X120015000Y-102870000D02*
X120015000Y-108723629D01*
X118745000Y-101600000D02*
X120015000Y-102870000D01*
X118745000Y-101600000D02*
X116840000Y-101600000D01*
X149225000Y-108723629D02*
X155285177Y-114783806D01*
X149225000Y-102870000D02*
X149225000Y-108723629D01*
X147955000Y-101600000D02*
X149225000Y-102870000D01*
X147955000Y-101600000D02*
X146050000Y-101600000D01*
X120650000Y-108227258D02*
X126640862Y-114218120D01*
X120650000Y-100330000D02*
X120650000Y-108227258D01*
X119380000Y-99060000D02*
X120650000Y-100330000D01*
X119380000Y-99060000D02*
X116840000Y-99060000D01*
X149860000Y-108227258D02*
X155850862Y-114218120D01*
X149860000Y-100330000D02*
X149860000Y-108227258D01*
X148590000Y-99060000D02*
X149860000Y-100330000D01*
X148590000Y-99060000D02*
X146050000Y-99060000D01*
X121285000Y-97790000D02*
X121285000Y-107730887D01*
X121285000Y-107730887D02*
X127206548Y-113652435D01*
X120015000Y-96520000D02*
X121285000Y-97790000D01*
X120015000Y-96520000D02*
X116840000Y-96520000D01*
X150495000Y-97790000D02*
X150495000Y-107730887D01*
X150495000Y-107730887D02*
X156416548Y-113652435D01*
X149225000Y-96520000D02*
X150495000Y-97790000D01*
X149225000Y-96520000D02*
X146050000Y-96520000D01*
X121920000Y-107234517D02*
X127772233Y-113086750D01*
X121920000Y-95885000D02*
X121920000Y-107234517D01*
X120015000Y-93980000D02*
X121920000Y-95885000D01*
X120015000Y-93980000D02*
X116840000Y-93980000D01*
X151130000Y-107234517D02*
X156982233Y-113086750D01*
X151130000Y-95885000D02*
X151130000Y-107234517D01*
X149225000Y-93980000D02*
X151130000Y-95885000D01*
X149225000Y-93980000D02*
X146050000Y-93980000D01*
X122555000Y-106738146D02*
X128337918Y-112521064D01*
X122555000Y-93980000D02*
X122555000Y-106738146D01*
X120015000Y-91440000D02*
X122555000Y-93980000D01*
X120015000Y-91440000D02*
X116840000Y-91440000D01*
X151765000Y-106738146D02*
X157547918Y-112521064D01*
X151765000Y-93980000D02*
X151765000Y-106738146D01*
X149225000Y-91440000D02*
X151765000Y-93980000D01*
X149225000Y-91440000D02*
X146050000Y-91440000D01*
X140276854Y-124460000D02*
X140403854Y-124460000D01*
X136398936Y-120582082D02*
X140276854Y-124460000D01*
X140403854Y-124460000D02*
X142240000Y-124460000D01*
X169486854Y-124460000D02*
X169613854Y-124460000D01*
X165608936Y-120582082D02*
X169486854Y-124460000D01*
X169613854Y-124460000D02*
X171450000Y-124460000D01*
X141685483Y-127000000D02*
X141812483Y-127000000D01*
X140835484Y-126150001D02*
X140415483Y-125730000D01*
X141390001Y-126150001D02*
X140835484Y-126150001D01*
X142240000Y-127000000D02*
X141390001Y-126150001D01*
X135833250Y-121147767D02*
X140415483Y-125730000D01*
X170895483Y-127000000D02*
X171022483Y-127000000D01*
X170045484Y-126150001D02*
X169625483Y-125730000D01*
X170600001Y-126150001D02*
X170045484Y-126150001D01*
X171450000Y-127000000D02*
X170600001Y-126150001D01*
X165043250Y-121147767D02*
X169625483Y-125730000D01*
X140970000Y-129540000D02*
X140335000Y-128905000D01*
X140335000Y-126780887D02*
X140335000Y-128905000D01*
X135267565Y-121713452D02*
X140335000Y-126780887D01*
X140970000Y-129540000D02*
X142240000Y-129540000D01*
X170180000Y-129540000D02*
X169545000Y-128905000D01*
X169545000Y-126780887D02*
X169545000Y-128905000D01*
X164477565Y-121713452D02*
X169545000Y-126780887D01*
X170180000Y-129540000D02*
X171450000Y-129540000D01*
X140970000Y-132080000D02*
X142240000Y-132080000D01*
X139700000Y-130810000D02*
X140970000Y-132080000D01*
X134701880Y-122279138D02*
X139700000Y-127277258D01*
X139700000Y-127277258D02*
X139700000Y-130810000D01*
X170180000Y-132080000D02*
X171450000Y-132080000D01*
X168910000Y-130810000D02*
X170180000Y-132080000D01*
X163911880Y-122279138D02*
X168910000Y-127277258D01*
X168910000Y-127277258D02*
X168910000Y-130810000D01*
X140970000Y-134620000D02*
X142240000Y-134620000D01*
X139065000Y-132715000D02*
X140970000Y-134620000D01*
X134136194Y-122844823D02*
X139065000Y-127773629D01*
X139065000Y-127773629D02*
X139065000Y-132715000D01*
X170180000Y-134620000D02*
X171450000Y-134620000D01*
X168275000Y-132715000D02*
X170180000Y-134620000D01*
X163346194Y-122844823D02*
X168275000Y-127773629D01*
X168275000Y-127773629D02*
X168275000Y-132715000D01*
X139065000Y-137160000D02*
X138430000Y-136525000D01*
X133570509Y-123410509D02*
X138430000Y-128270000D01*
X138430000Y-136525000D02*
X138430000Y-128270000D01*
X139065000Y-137160000D02*
X142240000Y-137160000D01*
X168275000Y-137160000D02*
X167640000Y-136525000D01*
X162780509Y-123410509D02*
X167640000Y-128270000D01*
X167640000Y-136525000D02*
X167640000Y-128270000D01*
X168275000Y-137160000D02*
X171450000Y-137160000D01*
X139065000Y-139700000D02*
X142240000Y-139700000D01*
X137795000Y-138430000D02*
X139065000Y-139700000D01*
X133004823Y-123976194D02*
X137795000Y-128766371D01*
X137795000Y-128766371D02*
X137795000Y-138430000D01*
X168275000Y-139700000D02*
X171450000Y-139700000D01*
X167005000Y-138430000D02*
X168275000Y-139700000D01*
X162214823Y-123976194D02*
X167005000Y-128766371D01*
X167005000Y-128766371D02*
X167005000Y-138430000D01*
X137795000Y-142240000D02*
X142240000Y-142240000D01*
X137160000Y-141605000D02*
X137795000Y-142240000D01*
X132439138Y-124541880D02*
X137160000Y-129262742D01*
X137160000Y-129262742D02*
X137160000Y-141605000D01*
X167005000Y-142240000D02*
X171450000Y-142240000D01*
X166370000Y-141605000D02*
X167005000Y-142240000D01*
X161649138Y-124541880D02*
X166370000Y-129262742D01*
X166370000Y-129262742D02*
X166370000Y-141605000D01*
X137160000Y-144780000D02*
X142240000Y-144780000D01*
X136525000Y-144145000D02*
X137160000Y-144780000D01*
X131873452Y-125107565D02*
X136525000Y-129759113D01*
X136525000Y-129759113D02*
X136525000Y-144145000D01*
X166370000Y-144780000D02*
X171450000Y-144780000D01*
X165735000Y-144145000D02*
X166370000Y-144780000D01*
X161083452Y-125107565D02*
X165735000Y-129759113D01*
X165735000Y-129759113D02*
X165735000Y-144145000D01*
X135890000Y-146050000D02*
X137160000Y-147320000D01*
X131307767Y-125673250D02*
X135890000Y-130255483D01*
X137160000Y-147320000D02*
X142240000Y-147320000D01*
X135890000Y-130255483D02*
X135890000Y-146050000D01*
X165100000Y-146050000D02*
X166370000Y-147320000D01*
X160517767Y-125673250D02*
X165100000Y-130255483D01*
X166370000Y-147320000D02*
X171450000Y-147320000D01*
X165100000Y-130255483D02*
X165100000Y-146050000D01*
X137160000Y-149860000D02*
X142240000Y-149860000D01*
X135255000Y-147955000D02*
X137160000Y-149860000D01*
X130742082Y-126238936D02*
X135255000Y-130751854D01*
X135255000Y-130751854D02*
X135255000Y-147955000D01*
X166370000Y-149860000D02*
X171450000Y-149860000D01*
X164465000Y-147955000D02*
X166370000Y-149860000D01*
X159952082Y-126238936D02*
X164465000Y-130751854D01*
X164465000Y-130751854D02*
X164465000Y-147955000D01*
X136398936Y-118177918D02*
X140276854Y-114300000D01*
X140276854Y-114300000D02*
X142240000Y-114300000D01*
X165608936Y-118177918D02*
X169486854Y-114300000D01*
X169486854Y-114300000D02*
X171450000Y-114300000D01*
X141605000Y-111827919D02*
X141672919Y-111760000D01*
X141605000Y-111840483D02*
X141605000Y-111827919D01*
X141390001Y-112609999D02*
X140835484Y-112609999D01*
X135833250Y-117612233D02*
X140415483Y-113030000D01*
X140835484Y-112609999D02*
X140415483Y-113030000D01*
X142240000Y-111760000D02*
X141390001Y-112609999D01*
X170815000Y-111827919D02*
X170882919Y-111760000D01*
X170815000Y-111840483D02*
X170815000Y-111827919D01*
X170600001Y-112609999D02*
X170045484Y-112609999D01*
X165043250Y-117612233D02*
X169625483Y-113030000D01*
X170045484Y-112609999D02*
X169625483Y-113030000D01*
X171450000Y-111760000D02*
X170600001Y-112609999D01*
X140970000Y-109220000D02*
X140335000Y-109855000D01*
X140335000Y-111979113D02*
X140335000Y-109855000D01*
X135267565Y-117046548D02*
X140335000Y-111979113D01*
X140970000Y-109220000D02*
X142240000Y-109220000D01*
X170180000Y-109220000D02*
X169545000Y-109855000D01*
X169545000Y-111979113D02*
X169545000Y-109855000D01*
X164477565Y-117046548D02*
X169545000Y-111979113D01*
X170180000Y-109220000D02*
X171450000Y-109220000D01*
X139700000Y-107950000D02*
X140970000Y-106680000D01*
X134701880Y-116480862D02*
X139700000Y-111482742D01*
X139700000Y-111482742D02*
X139700000Y-107950000D01*
X140970000Y-106680000D02*
X142240000Y-106680000D01*
X170180000Y-106680000D02*
X171450000Y-106680000D01*
X168910000Y-107950000D02*
X170180000Y-106680000D01*
X163911880Y-116480862D02*
X168910000Y-111482742D01*
X168910000Y-111482742D02*
X168910000Y-107950000D01*
X139065000Y-110986371D02*
X134136194Y-115915177D01*
X139065000Y-104775000D02*
X139065000Y-110986371D01*
X139700000Y-104140000D02*
X139065000Y-104775000D01*
X139700000Y-104140000D02*
X142240000Y-104140000D01*
X168275000Y-110986371D02*
X163346194Y-115915177D01*
X168275000Y-104775000D02*
X168275000Y-110986371D01*
X168910000Y-104140000D02*
X168275000Y-104775000D01*
X168910000Y-104140000D02*
X171450000Y-104140000D01*
X138430000Y-110490000D02*
X133570509Y-115349491D01*
X138430000Y-102235000D02*
X138430000Y-110490000D01*
X139065000Y-101600000D02*
X138430000Y-102235000D01*
X139065000Y-101600000D02*
X142240000Y-101600000D01*
X167640000Y-110490000D02*
X162780509Y-115349491D01*
X167640000Y-102235000D02*
X167640000Y-110490000D01*
X168275000Y-101600000D02*
X167640000Y-102235000D01*
X168275000Y-101600000D02*
X171450000Y-101600000D01*
X137795000Y-109993629D02*
X133004823Y-114783806D01*
X137795000Y-100330000D02*
X137795000Y-109993629D01*
X139065000Y-99060000D02*
X137795000Y-100330000D01*
X139065000Y-99060000D02*
X142240000Y-99060000D01*
X167005000Y-109993629D02*
X162214823Y-114783806D01*
X167005000Y-100330000D02*
X167005000Y-109993629D01*
X168275000Y-99060000D02*
X167005000Y-100330000D01*
X168275000Y-99060000D02*
X171450000Y-99060000D01*
X137160000Y-109497258D02*
X132439138Y-114218120D01*
X137160000Y-97155000D02*
X137160000Y-109497258D01*
X137795000Y-96520000D02*
X137160000Y-97155000D01*
X137795000Y-96520000D02*
X142240000Y-96520000D01*
X166370000Y-109497258D02*
X161649138Y-114218120D01*
X166370000Y-97155000D02*
X166370000Y-109497258D01*
X167005000Y-96520000D02*
X166370000Y-97155000D01*
X167005000Y-96520000D02*
X171450000Y-96520000D01*
X136525000Y-109000887D02*
X131873452Y-113652435D01*
X136525000Y-94615000D02*
X136525000Y-109000887D01*
X137160000Y-93980000D02*
X136525000Y-94615000D01*
X137160000Y-93980000D02*
X142240000Y-93980000D01*
X165735000Y-109000887D02*
X161083452Y-113652435D01*
X165735000Y-94615000D02*
X165735000Y-109000887D01*
X166370000Y-93980000D02*
X165735000Y-94615000D01*
X166370000Y-93980000D02*
X171450000Y-93980000D01*
X135890000Y-108504517D02*
X131307767Y-113086750D01*
X135890000Y-92710000D02*
X135890000Y-108504517D01*
X137160000Y-91440000D02*
X135890000Y-92710000D01*
X137160000Y-91440000D02*
X142240000Y-91440000D01*
X166370000Y-91440000D02*
X165100000Y-92710000D01*
X166370000Y-91440000D02*
X171450000Y-91440000D01*
X165100000Y-108504517D02*
X160517767Y-113086750D01*
X165100000Y-92710000D02*
X165100000Y-108504517D01*
X135255000Y-90170000D02*
X135255000Y-108008146D01*
X135255000Y-108008146D02*
X130742082Y-112521064D01*
X136525000Y-88900000D02*
X135255000Y-90170000D01*
X136525000Y-88900000D02*
X142240000Y-88900000D01*
X164465000Y-90170000D02*
X164465000Y-108008146D01*
X164465000Y-108008146D02*
X159952082Y-112521064D01*
X165735000Y-88900000D02*
X164465000Y-90170000D01*
X165735000Y-88900000D02*
X171450000Y-88900000D01*
X130810000Y-119380000D02*
X142875000Y-119380000D01*
X160020000Y-119380000D02*
X172085000Y-119380000D01*
X82550000Y-132715000D02*
X80010000Y-135255000D01*
X80010000Y-131445000D02*
X80010000Y-135255000D01*
X80010000Y-135255000D02*
X78105000Y-137160000D01*
X78105000Y-137160000D02*
X76835000Y-137160000D01*
X76200000Y-136525000D02*
X76200000Y-135635000D01*
X76835000Y-137160000D02*
X76200000Y-136525000D01*
X76200000Y-129540000D02*
X76200000Y-132115000D01*
X77025000Y-109855000D02*
X77725000Y-109855000D01*
X76290000Y-109120000D02*
X77025000Y-109855000D01*
X76290000Y-106680000D02*
X76290000Y-109120000D01*
X97155000Y-109220000D02*
X97790000Y-109855000D01*
X97790000Y-109855000D02*
X99315000Y-109855000D01*
X97155000Y-128905000D02*
X99315000Y-128905000D01*
X87885000Y-146050000D02*
X86360000Y-146050000D01*
X86360000Y-146050000D02*
X85725000Y-145415000D01*
X85725000Y-145415000D02*
X85725000Y-139065000D01*
X85725000Y-139065000D02*
X86360000Y-138430000D01*
X86360000Y-138430000D02*
X87630000Y-137160000D01*
X87630000Y-137160000D02*
X94615000Y-137160000D01*
X94615000Y-137160000D02*
X95250000Y-136525000D01*
X91185000Y-146050000D02*
X95250000Y-146050000D01*
X95885000Y-146050000D02*
X95250000Y-146050000D01*
X99060000Y-140970000D02*
X99060000Y-142875000D01*
X101600000Y-142240000D02*
X100330000Y-143510000D01*
X100330000Y-143510000D02*
X98425000Y-143510000D01*
X99060000Y-142875000D02*
X98425000Y-143510000D01*
X98425000Y-143510000D02*
X95885000Y-146050000D01*
X101600000Y-123190000D02*
X104140000Y-125730000D01*
X104140000Y-125730000D02*
X104140000Y-128270000D01*
X104140000Y-128270000D02*
X103505000Y-128905000D01*
X103505000Y-128905000D02*
X102615000Y-128905000D01*
X99060000Y-121920000D02*
X99060000Y-124460000D01*
X99060000Y-124460000D02*
X100330000Y-125730000D01*
X100330000Y-125730000D02*
X104140000Y-125730000D01*
X101600000Y-104140000D02*
X104140000Y-106680000D01*
X104140000Y-106680000D02*
X104140000Y-109220000D01*
X104140000Y-109220000D02*
X103505000Y-109855000D01*
X103505000Y-109855000D02*
X102615000Y-109855000D01*
X99060000Y-102870000D02*
X99060000Y-106045000D01*
X99060000Y-106045000D02*
X99695000Y-106680000D01*
X99695000Y-106680000D02*
X104140000Y-106680000D01*
X81725000Y-109855000D02*
X81025000Y-109855000D01*
X82550000Y-109030000D02*
X81725000Y-109855000D01*
X80010000Y-102870000D02*
X80010000Y-105410000D01*
X81280000Y-106680000D02*
X82550000Y-106680000D01*
X80010000Y-105410000D02*
X81280000Y-106680000D01*
X82550000Y-104140000D02*
X82550000Y-106680000D01*
X82550000Y-106680000D02*
X82550000Y-109030000D01*
X91170000Y-99430000D02*
X92075000Y-98525000D01*
X90670000Y-99430000D02*
X91170000Y-99430000D01*
X92075000Y-98525000D02*
X92075000Y-94615000D01*
X92075000Y-94615000D02*
X90805000Y-93345000D01*
X90805000Y-93345000D02*
X88265000Y-93345000D01*
X88265000Y-93345000D02*
X87630000Y-93980000D01*
X87630000Y-93980000D02*
X87630000Y-112395000D01*
X90805000Y-124460000D02*
X90805000Y-126365000D01*
X90670000Y-126500000D02*
X90670000Y-128005000D01*
X90805000Y-126365000D02*
X90670000Y-126500000D01*
X90805000Y-126365000D02*
X92075000Y-127635000D01*
X92075000Y-127635000D02*
X92075000Y-135890000D01*
X92075000Y-135890000D02*
X93345000Y-135890000D01*
X94615000Y-133350000D02*
X95885000Y-132080000D01*
X109855000Y-132080000D02*
X110490000Y-132715000D01*
X110490000Y-132715000D02*
X110490000Y-135890000D01*
X109720000Y-136660000D02*
X109720000Y-137530000D01*
X110490000Y-135890000D02*
X109720000Y-136660000D01*
X109220000Y-133985000D02*
X109220000Y-132080000D01*
X95885000Y-132080000D02*
X109220000Y-132080000D01*
X109220000Y-132080000D02*
X109855000Y-132080000D01*
X89535000Y-148590000D02*
X89535000Y-149860000D01*
X88900000Y-147955000D02*
X89535000Y-148590000D01*
X91440000Y-136525000D02*
X86995000Y-136525000D01*
X81280000Y-142240000D02*
X81280000Y-147320000D01*
X92075000Y-135890000D02*
X91440000Y-136525000D01*
X86995000Y-136525000D02*
X81280000Y-142240000D01*
X81280000Y-147320000D02*
X81915000Y-147955000D01*
X81915000Y-147955000D02*
X88900000Y-147955000D01*
X108720000Y-101230000D02*
X108720000Y-105545000D01*
X108720000Y-105545000D02*
X109855000Y-106680000D01*
X109855000Y-106680000D02*
X111125000Y-106680000D01*
X108720000Y-120280000D02*
X108720000Y-124595000D01*
X109855000Y-125730000D02*
X111125000Y-125730000D01*
X108720000Y-124595000D02*
X109855000Y-125730000D01*
X108720000Y-139330000D02*
X108720000Y-143645000D01*
X109855000Y-144780000D02*
X111125000Y-144780000D01*
X108720000Y-143645000D02*
X109855000Y-144780000D01*
X109720000Y-101230000D02*
X109720000Y-102100000D01*
X109720000Y-102100000D02*
X110490000Y-102870000D01*
X110490000Y-102870000D02*
X113030000Y-102870000D01*
X113030000Y-102870000D02*
X113665000Y-103505000D01*
X111125000Y-104775000D02*
X113665000Y-104775000D01*
X113665000Y-104775000D02*
X113665000Y-103505000D01*
X109720000Y-120280000D02*
X109720000Y-121150000D01*
X110490000Y-121920000D02*
X113575000Y-121920000D01*
X109720000Y-121150000D02*
X110490000Y-121920000D01*
X113575000Y-121920000D02*
X113575000Y-115570000D01*
X111125000Y-123825000D02*
X113575000Y-123825000D01*
X113575000Y-123825000D02*
X113575000Y-121920000D01*
X109720000Y-139330000D02*
X109720000Y-140200000D01*
X109720000Y-140200000D02*
X110490000Y-140970000D01*
X113575000Y-123825000D02*
X113575000Y-140970000D01*
X110490000Y-140970000D02*
X113575000Y-140970000D01*
X113575000Y-140970000D02*
X113575000Y-142875000D01*
X111125000Y-142875000D02*
X113575000Y-142875000D01*
X113030000Y-112395000D02*
X113030000Y-111760000D01*
X113030000Y-111760000D02*
X113665000Y-111125000D01*
X113665000Y-111125000D02*
X113665000Y-104775000D01*
X102235000Y-93345000D02*
X105410000Y-96520000D01*
X105410000Y-96520000D02*
X107315000Y-96520000D01*
X108720000Y-97925000D02*
X108720000Y-99430000D01*
X107315000Y-96520000D02*
X108720000Y-97925000D01*
X107315000Y-96520000D02*
X107315000Y-104775000D01*
X107315000Y-104775000D02*
X107315000Y-115570000D01*
X108720000Y-116975000D02*
X108720000Y-118480000D01*
X107315000Y-115570000D02*
X108720000Y-116975000D01*
X107315000Y-115570000D02*
X107315000Y-124460000D01*
X107315000Y-133985000D02*
X107315000Y-134620000D01*
X108720000Y-136025000D02*
X108720000Y-137530000D01*
X107315000Y-134620000D02*
X108720000Y-136025000D01*
X107315000Y-134620000D02*
X107315000Y-143510000D01*
X92075000Y-94615000D02*
X93345000Y-95885000D01*
X93345000Y-95885000D02*
X97155000Y-95885000D01*
X99060000Y-93980000D02*
X99695000Y-93345000D01*
X99695000Y-93345000D02*
X99695000Y-92075000D01*
X99695000Y-92075000D02*
X100330000Y-91440000D01*
X100330000Y-91440000D02*
X109220000Y-91440000D01*
X109220000Y-91440000D02*
X110490000Y-92710000D01*
X109720000Y-98560000D02*
X109720000Y-99430000D01*
X110490000Y-97790000D02*
X109720000Y-98560000D01*
X109855000Y-95885000D02*
X110490000Y-95250000D01*
X109220000Y-95885000D02*
X109855000Y-95885000D01*
X110490000Y-92710000D02*
X110490000Y-95250000D01*
X110490000Y-95250000D02*
X110490000Y-97790000D01*
X80645000Y-140970000D02*
X80645000Y-149225000D01*
X81280000Y-149860000D02*
X86995000Y-149860000D01*
X80645000Y-149225000D02*
X81280000Y-149860000D01*
X109720000Y-114435000D02*
X110490000Y-113665000D01*
X109720000Y-118480000D02*
X109720000Y-114435000D01*
X110490000Y-113665000D02*
X109220000Y-113665000D01*
X89670000Y-133850000D02*
X88900000Y-134620000D01*
X89670000Y-132715000D02*
X89670000Y-132215000D01*
X89670000Y-132715000D02*
X89670000Y-133850000D01*
X89670000Y-129805000D02*
X89670000Y-132715000D01*
X89670000Y-132215000D02*
X88900000Y-131445000D01*
X88900000Y-112395000D02*
X88900000Y-111760000D01*
X89670000Y-110990000D02*
X89670000Y-101230000D01*
X88900000Y-111760000D02*
X89670000Y-110990000D01*
X88900000Y-131445000D02*
X88900000Y-125730000D01*
X88900000Y-125730000D02*
X89535000Y-125095000D01*
X89535000Y-123190000D02*
X88900000Y-122555000D01*
X89535000Y-125095000D02*
X89535000Y-123190000D01*
X90670000Y-129805000D02*
X90670000Y-133305000D01*
X90670000Y-133305000D02*
X91350000Y-133985000D01*
X90670000Y-101230000D02*
X90670000Y-102735000D01*
X90670000Y-102735000D02*
X91440000Y-103505000D01*
X91440000Y-103505000D02*
X93345000Y-103505000D01*
X93345000Y-103505000D02*
X93980000Y-104140000D01*
X93980000Y-104140000D02*
X93980000Y-104775000D01*
X109765000Y-147955000D02*
X113575000Y-144145000D01*
X100330000Y-147955000D02*
X109765000Y-147955000D01*
X113575000Y-144145000D02*
X113575000Y-142875000D01*
X99695000Y-148590000D02*
X100330000Y-147955000D01*
X99695000Y-149860000D02*
X99695000Y-148590000D01*
X87630000Y-131445000D02*
X86995000Y-132080000D01*
X87630000Y-122555000D02*
X87630000Y-131445000D01*
X86995000Y-132080000D02*
X86995000Y-134620000D01*
X86995000Y-134620000D02*
X80645000Y-140970000D01*
X108585000Y-149860000D02*
X109220000Y-149225000D01*
X102235000Y-149860000D02*
X108585000Y-149860000D01*
X114300000Y-144780000D02*
X114260000Y-144820000D01*
X114300000Y-114300000D02*
X114300000Y-144780000D01*
X114260000Y-144820000D02*
X114260000Y-145415000D01*
X110490000Y-113665000D02*
X113665000Y-113665000D01*
X113665000Y-113665000D02*
X114300000Y-114300000D01*
X74930000Y-94615000D02*
X80645000Y-88900000D01*
X86995000Y-88900000D02*
X80645000Y-88900000D01*
X74930000Y-94615000D02*
X74930000Y-125730000D01*
X75565000Y-95250000D02*
X75565000Y-95885000D01*
X80010000Y-90805000D02*
X75565000Y-95250000D01*
X75565000Y-95885000D02*
X75565000Y-113030000D01*
X88900000Y-90805000D02*
X80010000Y-90805000D01*
X80010000Y-97790000D02*
X78740000Y-96520000D01*
X78740000Y-93345000D02*
X80645000Y-91440000D01*
X78740000Y-96520000D02*
X78740000Y-93345000D01*
X88265000Y-133350000D02*
X88265000Y-124460000D01*
X88265000Y-124460000D02*
X88355000Y-124460000D01*
X90170000Y-120015000D02*
X90170000Y-119380000D01*
X90170000Y-119380000D02*
X86360000Y-115570000D01*
X86360000Y-115570000D02*
X86360000Y-114935000D01*
X89670000Y-99430000D02*
X89670000Y-97925000D01*
X89670000Y-97925000D02*
X89535000Y-97790000D01*
X89535000Y-97790000D02*
X88900000Y-97790000D01*
X88900000Y-97790000D02*
X88265000Y-98425000D01*
X88265000Y-98425000D02*
X88265000Y-106680000D01*
X88265000Y-106680000D02*
X88265000Y-107315000D01*
X88265000Y-107315000D02*
X88900000Y-107950000D01*
M02*
