M48
;DRILL file {KiCad (5.0.0-rc2-dev-471-ge4feb315d)} date Sat May  5 17:41:31 2018
;FORMAT={-:-/ absolute / inch / decimal}
FMAT,2
INCH,TZ
T1C0.0157
T2C0.0394
T3C0.0591
%
G90
G05
M72
T1
X3.Y-5.1
X3.0035Y-4.2
X3.4Y-4.525
X3.45Y-4.425
X3.45Y-4.825
X3.475Y-5.25
X3.4785Y-4.9
X3.5Y-4.25
X3.5Y-4.425
X3.5Y-4.825
X3.5Y-5.3
X3.55Y-4.725
X3.575Y-3.675
X3.575Y-4.9
X3.5965Y-5.275
X3.675Y-5.35
X3.7Y-4.125
X3.725Y-5.25
X3.75Y-5.375
X3.825Y-3.775
X3.825Y-4.3
X3.825Y-5.075
X3.9Y-3.7
X4.025Y-3.675
X4.225Y-4.125
X4.225Y-4.9
X4.225Y-5.275
X4.225Y-5.65
X4.3Y-3.775
X4.3Y-4.475
X4.3Y-5.275
X4.3Y-5.875
X4.375Y-4.125
X4.375Y-4.2
X4.375Y-4.875
X4.375Y-4.95
X4.375Y-5.625
X4.375Y-5.7
X4.45Y-4.425
X4.4715Y-4.55
X4.4984Y-5.725
X5.05Y-4.7
X5.1Y-4.65
X5.1Y-4.75
X5.15Y-4.7
X6.2Y-4.7
X6.25Y-4.65
X6.25Y-4.75
X6.3Y-4.7
T2
X3.425Y-3.5
X3.525Y-3.5
X3.625Y-3.5
X3.725Y-3.5
X3.825Y-3.5
X3.925Y-3.5
X4.025Y-3.5
X5.6Y-3.5
X5.6Y-3.6
X5.6Y-3.7
X5.6Y-3.8
X5.6Y-3.9
X5.6Y-4.
X5.6Y-4.1
X5.6Y-4.2
X5.6Y-4.3
X5.6Y-4.4
X5.6Y-4.5
X5.6Y-4.6
X3.425Y-5.9
X3.525Y-5.9
X3.625Y-5.9
X3.725Y-5.9
X3.825Y-5.9
X3.925Y-5.9
X4.025Y-5.9
X4.6Y-4.8
X4.6Y-4.9
X4.6Y-5.
X4.6Y-5.1
X4.6Y-5.2
X4.6Y-5.3
X4.6Y-5.4
X4.6Y-5.5
X4.6Y-5.6
X4.6Y-5.7
X4.6Y-5.8
X4.6Y-5.9
X6.75Y-4.8
X6.75Y-4.9
X6.75Y-5.
X6.75Y-5.1
X6.75Y-5.2
X6.75Y-5.3
X6.75Y-5.4
X6.75Y-5.5
X6.75Y-5.6
X6.75Y-5.7
X6.75Y-5.8
X6.75Y-5.9
X5.75Y-4.8
X5.75Y-4.9
X5.75Y-5.
X5.75Y-5.1
X5.75Y-5.2
X5.75Y-5.3
X5.75Y-5.4
X5.75Y-5.5
X5.75Y-5.6
X5.75Y-5.7
X5.75Y-5.8
X5.75Y-5.9
X6.75Y-4.7
X5.6Y-4.8
X5.6Y-4.9
X5.6Y-5.
X5.6Y-5.1
X5.6Y-5.2
X5.6Y-5.3
X5.6Y-5.4
X5.6Y-5.5
X5.6Y-5.6
X5.6Y-5.7
X5.6Y-5.8
X5.6Y-5.9
X5.75Y-3.5
X5.75Y-3.6
X5.75Y-3.7
X5.75Y-3.8
X5.75Y-3.9
X5.75Y-4.
X5.75Y-4.1
X5.75Y-4.2
X5.75Y-4.3
X5.75Y-4.4
X5.75Y-4.5
X5.75Y-4.6
X6.75Y-3.5
X6.75Y-3.6
X6.75Y-3.7
X6.75Y-3.8
X6.75Y-3.9
X6.75Y-4.
X6.75Y-4.1
X6.75Y-4.2
X6.75Y-4.3
X6.75Y-4.4
X6.75Y-4.5
X6.75Y-4.6
X5.6Y-4.7
X4.6Y-3.5
X4.6Y-3.6
X4.6Y-3.7
X4.6Y-3.8
X4.6Y-3.9
X4.6Y-4.
X4.6Y-4.1
X4.6Y-4.2
X4.6Y-4.3
X4.6Y-4.4
X4.6Y-4.5
X4.6Y-4.6
T3
X3.9Y-4.8
X4.Y-4.55
X3.9Y-5.55
X4.Y-5.3
X3.15Y-4.975
X3.25Y-5.225
X3.9Y-4.05
X4.Y-3.8
X3.9Y-4.6
X4.Y-4.85
X3.15Y-5.175
X3.25Y-4.925
X3.9Y-3.85
X4.Y-4.1
X3.9Y-5.35
X4.Y-5.6
X3.15Y-4.05
X3.25Y-3.8
X3.15Y-3.85
X3.25Y-4.1
T0
M30
