M48
;DRILL file {KiCad (5.0.0-rc2-dev-471-ge4feb315d)} date Sat May  5 17:41:31 2018
;FORMAT={-:-/ absolute / inch / decimal}
FMAT,2
INCH,TZ
T1C0.0669
T2C0.0866
T3C0.1201
T4C0.1575
%
G90
G05
M72
T1
X3.35Y-4.875
X3.35Y-5.275
X3.35Y-4.875
X3.35Y-5.275
T2
X4.425Y-5.875
X3.025Y-3.525
X3.025Y-5.875
X4.425Y-3.525
T3
X3.0744Y-4.6065
X3.0744Y-5.5435
X3.0744Y-4.6065
X3.0744Y-5.5435
T4
X3.35Y-3.95
X3.35Y-3.95
X4.1Y-4.7
X4.1Y-5.45
X3.35Y-5.075
X3.6744Y-4.6065
X3.6744Y-5.5435
X4.1Y-3.95
X4.1Y-4.7
X3.35Y-5.075
X3.6744Y-4.6065
X3.6744Y-5.5435
X4.1Y-3.95
X4.1Y-5.45
T0
M30
