G04 #@! TF.GenerationSoftware,KiCad,Pcbnew,(5.0.0-rc2-dev-471-ge4feb315d)*
G04 #@! TF.CreationDate,2018-05-05T14:20:45+01:00*
G04 #@! TF.ProjectId,panel,70616E656C2E6B696361645F70636200,rev?*
G04 #@! TF.SameCoordinates,Original*
G04 #@! TF.FileFunction,Soldermask,Top*
G04 #@! TF.FilePolarity,Negative*
%FSLAX46Y46*%
G04 Gerber Fmt 4.6, Leading zero omitted, Abs format (unit mm)*
G04 Created by KiCad (PCBNEW (5.0.0-rc2-dev-471-ge4feb315d)) date Sat May  5 14:20:45 2018*
%MOMM*%
%LPD*%
G01*
G04 APERTURE LIST*
%ADD10O,2.100000X2.100000*%
%ADD11R,2.100000X2.100000*%
%ADD12C,0.950000*%
%ADD13C,0.100000*%
%ADD14C,1.525000*%
%ADD15C,2.600000*%
%ADD16R,0.900000X1.250000*%
%ADD17C,3.450000*%
%ADD18C,4.400000*%
%ADD19C,2.100000*%
%ADD20R,1.600000X1.300000*%
%ADD21R,1.300000X1.600000*%
G04 APERTURE END LIST*
D10*
X171450000Y-149860000D03*
X171450000Y-147320000D03*
X171450000Y-144780000D03*
X171450000Y-142240000D03*
X171450000Y-139700000D03*
X171450000Y-137160000D03*
X171450000Y-134620000D03*
X171450000Y-132080000D03*
X171450000Y-129540000D03*
X171450000Y-127000000D03*
X171450000Y-124460000D03*
D11*
X171450000Y-121920000D03*
D10*
X146050000Y-88900000D03*
X146050000Y-91440000D03*
X146050000Y-93980000D03*
X146050000Y-96520000D03*
X146050000Y-99060000D03*
X146050000Y-101600000D03*
X146050000Y-104140000D03*
X146050000Y-106680000D03*
X146050000Y-109220000D03*
X146050000Y-111760000D03*
X146050000Y-114300000D03*
D11*
X146050000Y-116840000D03*
X171450000Y-88900000D03*
D10*
X171450000Y-91440000D03*
X171450000Y-93980000D03*
X171450000Y-96520000D03*
X171450000Y-99060000D03*
X171450000Y-101600000D03*
X171450000Y-104140000D03*
X171450000Y-106680000D03*
X171450000Y-109220000D03*
X171450000Y-111760000D03*
X171450000Y-114300000D03*
X171450000Y-116840000D03*
D11*
X171450000Y-119380000D03*
D12*
X157547918Y-112521064D03*
D13*
G36*
X156540291Y-112185188D02*
X157212042Y-111513437D01*
X158555545Y-112856940D01*
X157883794Y-113528691D01*
X156540291Y-112185188D01*
X156540291Y-112185188D01*
G37*
D12*
X156982233Y-113086750D03*
D13*
G36*
X155974606Y-112750874D02*
X156646357Y-112079123D01*
X157989860Y-113422626D01*
X157318109Y-114094377D01*
X155974606Y-112750874D01*
X155974606Y-112750874D01*
G37*
D12*
X156416548Y-113652435D03*
D13*
G36*
X155408921Y-113316559D02*
X156080672Y-112644808D01*
X157424175Y-113988311D01*
X156752424Y-114660062D01*
X155408921Y-113316559D01*
X155408921Y-113316559D01*
G37*
D12*
X155850862Y-114218120D03*
D13*
G36*
X154843235Y-113882244D02*
X155514986Y-113210493D01*
X156858489Y-114553996D01*
X156186738Y-115225747D01*
X154843235Y-113882244D01*
X154843235Y-113882244D01*
G37*
D12*
X155285177Y-114783806D03*
D13*
G36*
X154277550Y-114447930D02*
X154949301Y-113776179D01*
X156292804Y-115119682D01*
X155621053Y-115791433D01*
X154277550Y-114447930D01*
X154277550Y-114447930D01*
G37*
D12*
X154719491Y-115349491D03*
D13*
G36*
X153711864Y-115013615D02*
X154383615Y-114341864D01*
X155727118Y-115685367D01*
X155055367Y-116357118D01*
X153711864Y-115013615D01*
X153711864Y-115013615D01*
G37*
D12*
X154153806Y-115915177D03*
D13*
G36*
X153146179Y-115579301D02*
X153817930Y-114907550D01*
X155161433Y-116251053D01*
X154489682Y-116922804D01*
X153146179Y-115579301D01*
X153146179Y-115579301D01*
G37*
D12*
X153588120Y-116480862D03*
D13*
G36*
X152580493Y-116144986D02*
X153252244Y-115473235D01*
X154595747Y-116816738D01*
X153923996Y-117488489D01*
X152580493Y-116144986D01*
X152580493Y-116144986D01*
G37*
D12*
X153022435Y-117046548D03*
D13*
G36*
X152014808Y-116710672D02*
X152686559Y-116038921D01*
X154030062Y-117382424D01*
X153358311Y-118054175D01*
X152014808Y-116710672D01*
X152014808Y-116710672D01*
G37*
D12*
X152456750Y-117612233D03*
D13*
G36*
X151449123Y-117276357D02*
X152120874Y-116604606D01*
X153464377Y-117948109D01*
X152792626Y-118619860D01*
X151449123Y-117276357D01*
X151449123Y-117276357D01*
G37*
D12*
X151891064Y-118177918D03*
D13*
G36*
X150883437Y-117842042D02*
X151555188Y-117170291D01*
X152898691Y-118513794D01*
X152226940Y-119185545D01*
X150883437Y-117842042D01*
X150883437Y-117842042D01*
G37*
D12*
X151891064Y-120582082D03*
D13*
G36*
X151555188Y-121589709D02*
X150883437Y-120917958D01*
X152226940Y-119574455D01*
X152898691Y-120246206D01*
X151555188Y-121589709D01*
X151555188Y-121589709D01*
G37*
D12*
X152456750Y-121147767D03*
D13*
G36*
X152120874Y-122155394D02*
X151449123Y-121483643D01*
X152792626Y-120140140D01*
X153464377Y-120811891D01*
X152120874Y-122155394D01*
X152120874Y-122155394D01*
G37*
D12*
X153022435Y-121713452D03*
D13*
G36*
X152686559Y-122721079D02*
X152014808Y-122049328D01*
X153358311Y-120705825D01*
X154030062Y-121377576D01*
X152686559Y-122721079D01*
X152686559Y-122721079D01*
G37*
D12*
X153588120Y-122279138D03*
D13*
G36*
X153252244Y-123286765D02*
X152580493Y-122615014D01*
X153923996Y-121271511D01*
X154595747Y-121943262D01*
X153252244Y-123286765D01*
X153252244Y-123286765D01*
G37*
D12*
X154153806Y-122844823D03*
D13*
G36*
X153817930Y-123852450D02*
X153146179Y-123180699D01*
X154489682Y-121837196D01*
X155161433Y-122508947D01*
X153817930Y-123852450D01*
X153817930Y-123852450D01*
G37*
D12*
X154719491Y-123410509D03*
D13*
G36*
X154383615Y-124418136D02*
X153711864Y-123746385D01*
X155055367Y-122402882D01*
X155727118Y-123074633D01*
X154383615Y-124418136D01*
X154383615Y-124418136D01*
G37*
D12*
X155285177Y-123976194D03*
D13*
G36*
X154949301Y-124983821D02*
X154277550Y-124312070D01*
X155621053Y-122968567D01*
X156292804Y-123640318D01*
X154949301Y-124983821D01*
X154949301Y-124983821D01*
G37*
D12*
X155850862Y-124541880D03*
D13*
G36*
X155514986Y-125549507D02*
X154843235Y-124877756D01*
X156186738Y-123534253D01*
X156858489Y-124206004D01*
X155514986Y-125549507D01*
X155514986Y-125549507D01*
G37*
D12*
X156416548Y-125107565D03*
D13*
G36*
X156080672Y-126115192D02*
X155408921Y-125443441D01*
X156752424Y-124099938D01*
X157424175Y-124771689D01*
X156080672Y-126115192D01*
X156080672Y-126115192D01*
G37*
D12*
X156982233Y-125673250D03*
D13*
G36*
X156646357Y-126680877D02*
X155974606Y-126009126D01*
X157318109Y-124665623D01*
X157989860Y-125337374D01*
X156646357Y-126680877D01*
X156646357Y-126680877D01*
G37*
D12*
X157547918Y-126238936D03*
D13*
G36*
X157212042Y-127246563D02*
X156540291Y-126574812D01*
X157883794Y-125231309D01*
X158555545Y-125903060D01*
X157212042Y-127246563D01*
X157212042Y-127246563D01*
G37*
D12*
X159952082Y-126238936D03*
D13*
G36*
X158944455Y-125903060D02*
X159616206Y-125231309D01*
X160959709Y-126574812D01*
X160287958Y-127246563D01*
X158944455Y-125903060D01*
X158944455Y-125903060D01*
G37*
D12*
X160517767Y-125673250D03*
D13*
G36*
X159510140Y-125337374D02*
X160181891Y-124665623D01*
X161525394Y-126009126D01*
X160853643Y-126680877D01*
X159510140Y-125337374D01*
X159510140Y-125337374D01*
G37*
D12*
X161083452Y-125107565D03*
D13*
G36*
X160075825Y-124771689D02*
X160747576Y-124099938D01*
X162091079Y-125443441D01*
X161419328Y-126115192D01*
X160075825Y-124771689D01*
X160075825Y-124771689D01*
G37*
D12*
X161649138Y-124541880D03*
D13*
G36*
X160641511Y-124206004D02*
X161313262Y-123534253D01*
X162656765Y-124877756D01*
X161985014Y-125549507D01*
X160641511Y-124206004D01*
X160641511Y-124206004D01*
G37*
D12*
X162214823Y-123976194D03*
D13*
G36*
X161207196Y-123640318D02*
X161878947Y-122968567D01*
X163222450Y-124312070D01*
X162550699Y-124983821D01*
X161207196Y-123640318D01*
X161207196Y-123640318D01*
G37*
D12*
X162780509Y-123410509D03*
D13*
G36*
X161772882Y-123074633D02*
X162444633Y-122402882D01*
X163788136Y-123746385D01*
X163116385Y-124418136D01*
X161772882Y-123074633D01*
X161772882Y-123074633D01*
G37*
D12*
X163346194Y-122844823D03*
D13*
G36*
X162338567Y-122508947D02*
X163010318Y-121837196D01*
X164353821Y-123180699D01*
X163682070Y-123852450D01*
X162338567Y-122508947D01*
X162338567Y-122508947D01*
G37*
D12*
X163911880Y-122279138D03*
D13*
G36*
X162904253Y-121943262D02*
X163576004Y-121271511D01*
X164919507Y-122615014D01*
X164247756Y-123286765D01*
X162904253Y-121943262D01*
X162904253Y-121943262D01*
G37*
D12*
X164477565Y-121713452D03*
D13*
G36*
X163469938Y-121377576D02*
X164141689Y-120705825D01*
X165485192Y-122049328D01*
X164813441Y-122721079D01*
X163469938Y-121377576D01*
X163469938Y-121377576D01*
G37*
D12*
X165043250Y-121147767D03*
D13*
G36*
X164035623Y-120811891D02*
X164707374Y-120140140D01*
X166050877Y-121483643D01*
X165379126Y-122155394D01*
X164035623Y-120811891D01*
X164035623Y-120811891D01*
G37*
D12*
X165608936Y-120582082D03*
D13*
G36*
X164601309Y-120246206D02*
X165273060Y-119574455D01*
X166616563Y-120917958D01*
X165944812Y-121589709D01*
X164601309Y-120246206D01*
X164601309Y-120246206D01*
G37*
D12*
X165608936Y-118177918D03*
D13*
G36*
X165273060Y-119185545D02*
X164601309Y-118513794D01*
X165944812Y-117170291D01*
X166616563Y-117842042D01*
X165273060Y-119185545D01*
X165273060Y-119185545D01*
G37*
D12*
X165043250Y-117612233D03*
D13*
G36*
X164707374Y-118619860D02*
X164035623Y-117948109D01*
X165379126Y-116604606D01*
X166050877Y-117276357D01*
X164707374Y-118619860D01*
X164707374Y-118619860D01*
G37*
D12*
X164477565Y-117046548D03*
D13*
G36*
X164141689Y-118054175D02*
X163469938Y-117382424D01*
X164813441Y-116038921D01*
X165485192Y-116710672D01*
X164141689Y-118054175D01*
X164141689Y-118054175D01*
G37*
D12*
X163911880Y-116480862D03*
D13*
G36*
X163576004Y-117488489D02*
X162904253Y-116816738D01*
X164247756Y-115473235D01*
X164919507Y-116144986D01*
X163576004Y-117488489D01*
X163576004Y-117488489D01*
G37*
D12*
X163346194Y-115915177D03*
D13*
G36*
X163010318Y-116922804D02*
X162338567Y-116251053D01*
X163682070Y-114907550D01*
X164353821Y-115579301D01*
X163010318Y-116922804D01*
X163010318Y-116922804D01*
G37*
D12*
X162780509Y-115349491D03*
D13*
G36*
X162444633Y-116357118D02*
X161772882Y-115685367D01*
X163116385Y-114341864D01*
X163788136Y-115013615D01*
X162444633Y-116357118D01*
X162444633Y-116357118D01*
G37*
D12*
X162214823Y-114783806D03*
D13*
G36*
X161878947Y-115791433D02*
X161207196Y-115119682D01*
X162550699Y-113776179D01*
X163222450Y-114447930D01*
X161878947Y-115791433D01*
X161878947Y-115791433D01*
G37*
D12*
X161649138Y-114218120D03*
D13*
G36*
X161313262Y-115225747D02*
X160641511Y-114553996D01*
X161985014Y-113210493D01*
X162656765Y-113882244D01*
X161313262Y-115225747D01*
X161313262Y-115225747D01*
G37*
D12*
X161083452Y-113652435D03*
D13*
G36*
X160747576Y-114660062D02*
X160075825Y-113988311D01*
X161419328Y-112644808D01*
X162091079Y-113316559D01*
X160747576Y-114660062D01*
X160747576Y-114660062D01*
G37*
D12*
X160517767Y-113086750D03*
D13*
G36*
X160181891Y-114094377D02*
X159510140Y-113422626D01*
X160853643Y-112079123D01*
X161525394Y-112750874D01*
X160181891Y-114094377D01*
X160181891Y-114094377D01*
G37*
D12*
X159952082Y-112521064D03*
D13*
G36*
X159616206Y-113528691D02*
X158944455Y-112856940D01*
X160287958Y-111513437D01*
X160959709Y-112185188D01*
X159616206Y-113528691D01*
X159616206Y-113528691D01*
G37*
D14*
X158750000Y-121766485D03*
D13*
G36*
X157671662Y-121766485D02*
X158750000Y-120688147D01*
X159828338Y-121766485D01*
X158750000Y-122844823D01*
X157671662Y-121766485D01*
X157671662Y-121766485D01*
G37*
D14*
X159545495Y-120970990D03*
D13*
G36*
X158467157Y-120970990D02*
X159545495Y-119892652D01*
X160623833Y-120970990D01*
X159545495Y-122049328D01*
X158467157Y-120970990D01*
X158467157Y-120970990D01*
G37*
D14*
X160340990Y-120175495D03*
D13*
G36*
X159262652Y-120175495D02*
X160340990Y-119097157D01*
X161419328Y-120175495D01*
X160340990Y-121253833D01*
X159262652Y-120175495D01*
X159262652Y-120175495D01*
G37*
D14*
X161136485Y-119380000D03*
D13*
G36*
X160058147Y-119380000D02*
X161136485Y-118301662D01*
X162214823Y-119380000D01*
X161136485Y-120458338D01*
X160058147Y-119380000D01*
X160058147Y-119380000D01*
G37*
D14*
X157954505Y-120970990D03*
D13*
G36*
X156876167Y-120970990D02*
X157954505Y-119892652D01*
X159032843Y-120970990D01*
X157954505Y-122049328D01*
X156876167Y-120970990D01*
X156876167Y-120970990D01*
G37*
D14*
X158750000Y-120175495D03*
D13*
G36*
X157671662Y-120175495D02*
X158750000Y-119097157D01*
X159828338Y-120175495D01*
X158750000Y-121253833D01*
X157671662Y-120175495D01*
X157671662Y-120175495D01*
G37*
D14*
X159545495Y-119380000D03*
D13*
G36*
X158467157Y-119380000D02*
X159545495Y-118301662D01*
X160623833Y-119380000D01*
X159545495Y-120458338D01*
X158467157Y-119380000D01*
X158467157Y-119380000D01*
G37*
D14*
X160340990Y-118584505D03*
D13*
G36*
X159262652Y-118584505D02*
X160340990Y-117506167D01*
X161419328Y-118584505D01*
X160340990Y-119662843D01*
X159262652Y-118584505D01*
X159262652Y-118584505D01*
G37*
D14*
X157159010Y-120175495D03*
D13*
G36*
X156080672Y-120175495D02*
X157159010Y-119097157D01*
X158237348Y-120175495D01*
X157159010Y-121253833D01*
X156080672Y-120175495D01*
X156080672Y-120175495D01*
G37*
D14*
X157954505Y-119380000D03*
D13*
G36*
X156876167Y-119380000D02*
X157954505Y-118301662D01*
X159032843Y-119380000D01*
X157954505Y-120458338D01*
X156876167Y-119380000D01*
X156876167Y-119380000D01*
G37*
D14*
X158750000Y-118584505D03*
D13*
G36*
X157671662Y-118584505D02*
X158750000Y-117506167D01*
X159828338Y-118584505D01*
X158750000Y-119662843D01*
X157671662Y-118584505D01*
X157671662Y-118584505D01*
G37*
D14*
X159545495Y-117789010D03*
D13*
G36*
X158467157Y-117789010D02*
X159545495Y-116710672D01*
X160623833Y-117789010D01*
X159545495Y-118867348D01*
X158467157Y-117789010D01*
X158467157Y-117789010D01*
G37*
D14*
X156363515Y-119380000D03*
D13*
G36*
X155285177Y-119380000D02*
X156363515Y-118301662D01*
X157441853Y-119380000D01*
X156363515Y-120458338D01*
X155285177Y-119380000D01*
X155285177Y-119380000D01*
G37*
D14*
X157159010Y-118584505D03*
D13*
G36*
X156080672Y-118584505D02*
X157159010Y-117506167D01*
X158237348Y-118584505D01*
X157159010Y-119662843D01*
X156080672Y-118584505D01*
X156080672Y-118584505D01*
G37*
D14*
X157954505Y-117789010D03*
D13*
G36*
X156876167Y-117789010D02*
X157954505Y-116710672D01*
X159032843Y-117789010D01*
X157954505Y-118867348D01*
X156876167Y-117789010D01*
X156876167Y-117789010D01*
G37*
D14*
X158750000Y-116993515D03*
D13*
G36*
X157671662Y-116993515D02*
X158750000Y-115915177D01*
X159828338Y-116993515D01*
X158750000Y-118071853D01*
X157671662Y-116993515D01*
X157671662Y-116993515D01*
G37*
D11*
X146050000Y-149860000D03*
D10*
X146050000Y-147320000D03*
X146050000Y-144780000D03*
X146050000Y-142240000D03*
X146050000Y-139700000D03*
X146050000Y-137160000D03*
X146050000Y-134620000D03*
X146050000Y-132080000D03*
X146050000Y-129540000D03*
X146050000Y-127000000D03*
X146050000Y-124460000D03*
X146050000Y-121920000D03*
X116840000Y-121920000D03*
X116840000Y-124460000D03*
X116840000Y-127000000D03*
X116840000Y-129540000D03*
X116840000Y-132080000D03*
X116840000Y-134620000D03*
X116840000Y-137160000D03*
X116840000Y-139700000D03*
X116840000Y-142240000D03*
X116840000Y-144780000D03*
X116840000Y-147320000D03*
D11*
X116840000Y-149860000D03*
X116840000Y-116840000D03*
D10*
X116840000Y-114300000D03*
X116840000Y-111760000D03*
X116840000Y-109220000D03*
X116840000Y-106680000D03*
X116840000Y-104140000D03*
X116840000Y-101600000D03*
X116840000Y-99060000D03*
X116840000Y-96520000D03*
X116840000Y-93980000D03*
X116840000Y-91440000D03*
X116840000Y-88900000D03*
D11*
X142240000Y-121920000D03*
D10*
X142240000Y-124460000D03*
X142240000Y-127000000D03*
X142240000Y-129540000D03*
X142240000Y-132080000D03*
X142240000Y-134620000D03*
X142240000Y-137160000D03*
X142240000Y-139700000D03*
X142240000Y-142240000D03*
X142240000Y-144780000D03*
X142240000Y-147320000D03*
X142240000Y-149860000D03*
X142240000Y-116840000D03*
X142240000Y-114300000D03*
X142240000Y-111760000D03*
X142240000Y-109220000D03*
X142240000Y-106680000D03*
X142240000Y-104140000D03*
X142240000Y-101600000D03*
X142240000Y-99060000D03*
X142240000Y-96520000D03*
X142240000Y-93980000D03*
X142240000Y-91440000D03*
D11*
X142240000Y-88900000D03*
D14*
X129540000Y-116993515D03*
D13*
G36*
X128461662Y-116993515D02*
X129540000Y-115915177D01*
X130618338Y-116993515D01*
X129540000Y-118071853D01*
X128461662Y-116993515D01*
X128461662Y-116993515D01*
G37*
D14*
X128744505Y-117789010D03*
D13*
G36*
X127666167Y-117789010D02*
X128744505Y-116710672D01*
X129822843Y-117789010D01*
X128744505Y-118867348D01*
X127666167Y-117789010D01*
X127666167Y-117789010D01*
G37*
D14*
X127949010Y-118584505D03*
D13*
G36*
X126870672Y-118584505D02*
X127949010Y-117506167D01*
X129027348Y-118584505D01*
X127949010Y-119662843D01*
X126870672Y-118584505D01*
X126870672Y-118584505D01*
G37*
D14*
X127153515Y-119380000D03*
D13*
G36*
X126075177Y-119380000D02*
X127153515Y-118301662D01*
X128231853Y-119380000D01*
X127153515Y-120458338D01*
X126075177Y-119380000D01*
X126075177Y-119380000D01*
G37*
D14*
X130335495Y-117789010D03*
D13*
G36*
X129257157Y-117789010D02*
X130335495Y-116710672D01*
X131413833Y-117789010D01*
X130335495Y-118867348D01*
X129257157Y-117789010D01*
X129257157Y-117789010D01*
G37*
D14*
X129540000Y-118584505D03*
D13*
G36*
X128461662Y-118584505D02*
X129540000Y-117506167D01*
X130618338Y-118584505D01*
X129540000Y-119662843D01*
X128461662Y-118584505D01*
X128461662Y-118584505D01*
G37*
D14*
X128744505Y-119380000D03*
D13*
G36*
X127666167Y-119380000D02*
X128744505Y-118301662D01*
X129822843Y-119380000D01*
X128744505Y-120458338D01*
X127666167Y-119380000D01*
X127666167Y-119380000D01*
G37*
D14*
X127949010Y-120175495D03*
D13*
G36*
X126870672Y-120175495D02*
X127949010Y-119097157D01*
X129027348Y-120175495D01*
X127949010Y-121253833D01*
X126870672Y-120175495D01*
X126870672Y-120175495D01*
G37*
D14*
X131130990Y-118584505D03*
D13*
G36*
X130052652Y-118584505D02*
X131130990Y-117506167D01*
X132209328Y-118584505D01*
X131130990Y-119662843D01*
X130052652Y-118584505D01*
X130052652Y-118584505D01*
G37*
D14*
X130335495Y-119380000D03*
D13*
G36*
X129257157Y-119380000D02*
X130335495Y-118301662D01*
X131413833Y-119380000D01*
X130335495Y-120458338D01*
X129257157Y-119380000D01*
X129257157Y-119380000D01*
G37*
D14*
X129540000Y-120175495D03*
D13*
G36*
X128461662Y-120175495D02*
X129540000Y-119097157D01*
X130618338Y-120175495D01*
X129540000Y-121253833D01*
X128461662Y-120175495D01*
X128461662Y-120175495D01*
G37*
D14*
X128744505Y-120970990D03*
D13*
G36*
X127666167Y-120970990D02*
X128744505Y-119892652D01*
X129822843Y-120970990D01*
X128744505Y-122049328D01*
X127666167Y-120970990D01*
X127666167Y-120970990D01*
G37*
D14*
X131926485Y-119380000D03*
D13*
G36*
X130848147Y-119380000D02*
X131926485Y-118301662D01*
X133004823Y-119380000D01*
X131926485Y-120458338D01*
X130848147Y-119380000D01*
X130848147Y-119380000D01*
G37*
D14*
X131130990Y-120175495D03*
D13*
G36*
X130052652Y-120175495D02*
X131130990Y-119097157D01*
X132209328Y-120175495D01*
X131130990Y-121253833D01*
X130052652Y-120175495D01*
X130052652Y-120175495D01*
G37*
D14*
X130335495Y-120970990D03*
D13*
G36*
X129257157Y-120970990D02*
X130335495Y-119892652D01*
X131413833Y-120970990D01*
X130335495Y-122049328D01*
X129257157Y-120970990D01*
X129257157Y-120970990D01*
G37*
D14*
X129540000Y-121766485D03*
D13*
G36*
X128461662Y-121766485D02*
X129540000Y-120688147D01*
X130618338Y-121766485D01*
X129540000Y-122844823D01*
X128461662Y-121766485D01*
X128461662Y-121766485D01*
G37*
D12*
X130742082Y-112521064D03*
D13*
G36*
X130406206Y-113528691D02*
X129734455Y-112856940D01*
X131077958Y-111513437D01*
X131749709Y-112185188D01*
X130406206Y-113528691D01*
X130406206Y-113528691D01*
G37*
D12*
X131307767Y-113086750D03*
D13*
G36*
X130971891Y-114094377D02*
X130300140Y-113422626D01*
X131643643Y-112079123D01*
X132315394Y-112750874D01*
X130971891Y-114094377D01*
X130971891Y-114094377D01*
G37*
D12*
X131873452Y-113652435D03*
D13*
G36*
X131537576Y-114660062D02*
X130865825Y-113988311D01*
X132209328Y-112644808D01*
X132881079Y-113316559D01*
X131537576Y-114660062D01*
X131537576Y-114660062D01*
G37*
D12*
X132439138Y-114218120D03*
D13*
G36*
X132103262Y-115225747D02*
X131431511Y-114553996D01*
X132775014Y-113210493D01*
X133446765Y-113882244D01*
X132103262Y-115225747D01*
X132103262Y-115225747D01*
G37*
D12*
X133004823Y-114783806D03*
D13*
G36*
X132668947Y-115791433D02*
X131997196Y-115119682D01*
X133340699Y-113776179D01*
X134012450Y-114447930D01*
X132668947Y-115791433D01*
X132668947Y-115791433D01*
G37*
D12*
X133570509Y-115349491D03*
D13*
G36*
X133234633Y-116357118D02*
X132562882Y-115685367D01*
X133906385Y-114341864D01*
X134578136Y-115013615D01*
X133234633Y-116357118D01*
X133234633Y-116357118D01*
G37*
D12*
X134136194Y-115915177D03*
D13*
G36*
X133800318Y-116922804D02*
X133128567Y-116251053D01*
X134472070Y-114907550D01*
X135143821Y-115579301D01*
X133800318Y-116922804D01*
X133800318Y-116922804D01*
G37*
D12*
X134701880Y-116480862D03*
D13*
G36*
X134366004Y-117488489D02*
X133694253Y-116816738D01*
X135037756Y-115473235D01*
X135709507Y-116144986D01*
X134366004Y-117488489D01*
X134366004Y-117488489D01*
G37*
D12*
X135267565Y-117046548D03*
D13*
G36*
X134931689Y-118054175D02*
X134259938Y-117382424D01*
X135603441Y-116038921D01*
X136275192Y-116710672D01*
X134931689Y-118054175D01*
X134931689Y-118054175D01*
G37*
D12*
X135833250Y-117612233D03*
D13*
G36*
X135497374Y-118619860D02*
X134825623Y-117948109D01*
X136169126Y-116604606D01*
X136840877Y-117276357D01*
X135497374Y-118619860D01*
X135497374Y-118619860D01*
G37*
D12*
X136398936Y-118177918D03*
D13*
G36*
X136063060Y-119185545D02*
X135391309Y-118513794D01*
X136734812Y-117170291D01*
X137406563Y-117842042D01*
X136063060Y-119185545D01*
X136063060Y-119185545D01*
G37*
D12*
X136398936Y-120582082D03*
D13*
G36*
X135391309Y-120246206D02*
X136063060Y-119574455D01*
X137406563Y-120917958D01*
X136734812Y-121589709D01*
X135391309Y-120246206D01*
X135391309Y-120246206D01*
G37*
D12*
X135833250Y-121147767D03*
D13*
G36*
X134825623Y-120811891D02*
X135497374Y-120140140D01*
X136840877Y-121483643D01*
X136169126Y-122155394D01*
X134825623Y-120811891D01*
X134825623Y-120811891D01*
G37*
D12*
X135267565Y-121713452D03*
D13*
G36*
X134259938Y-121377576D02*
X134931689Y-120705825D01*
X136275192Y-122049328D01*
X135603441Y-122721079D01*
X134259938Y-121377576D01*
X134259938Y-121377576D01*
G37*
D12*
X134701880Y-122279138D03*
D13*
G36*
X133694253Y-121943262D02*
X134366004Y-121271511D01*
X135709507Y-122615014D01*
X135037756Y-123286765D01*
X133694253Y-121943262D01*
X133694253Y-121943262D01*
G37*
D12*
X134136194Y-122844823D03*
D13*
G36*
X133128567Y-122508947D02*
X133800318Y-121837196D01*
X135143821Y-123180699D01*
X134472070Y-123852450D01*
X133128567Y-122508947D01*
X133128567Y-122508947D01*
G37*
D12*
X133570509Y-123410509D03*
D13*
G36*
X132562882Y-123074633D02*
X133234633Y-122402882D01*
X134578136Y-123746385D01*
X133906385Y-124418136D01*
X132562882Y-123074633D01*
X132562882Y-123074633D01*
G37*
D12*
X133004823Y-123976194D03*
D13*
G36*
X131997196Y-123640318D02*
X132668947Y-122968567D01*
X134012450Y-124312070D01*
X133340699Y-124983821D01*
X131997196Y-123640318D01*
X131997196Y-123640318D01*
G37*
D12*
X132439138Y-124541880D03*
D13*
G36*
X131431511Y-124206004D02*
X132103262Y-123534253D01*
X133446765Y-124877756D01*
X132775014Y-125549507D01*
X131431511Y-124206004D01*
X131431511Y-124206004D01*
G37*
D12*
X131873452Y-125107565D03*
D13*
G36*
X130865825Y-124771689D02*
X131537576Y-124099938D01*
X132881079Y-125443441D01*
X132209328Y-126115192D01*
X130865825Y-124771689D01*
X130865825Y-124771689D01*
G37*
D12*
X131307767Y-125673250D03*
D13*
G36*
X130300140Y-125337374D02*
X130971891Y-124665623D01*
X132315394Y-126009126D01*
X131643643Y-126680877D01*
X130300140Y-125337374D01*
X130300140Y-125337374D01*
G37*
D12*
X130742082Y-126238936D03*
D13*
G36*
X129734455Y-125903060D02*
X130406206Y-125231309D01*
X131749709Y-126574812D01*
X131077958Y-127246563D01*
X129734455Y-125903060D01*
X129734455Y-125903060D01*
G37*
D12*
X128337918Y-126238936D03*
D13*
G36*
X128002042Y-127246563D02*
X127330291Y-126574812D01*
X128673794Y-125231309D01*
X129345545Y-125903060D01*
X128002042Y-127246563D01*
X128002042Y-127246563D01*
G37*
D12*
X127772233Y-125673250D03*
D13*
G36*
X127436357Y-126680877D02*
X126764606Y-126009126D01*
X128108109Y-124665623D01*
X128779860Y-125337374D01*
X127436357Y-126680877D01*
X127436357Y-126680877D01*
G37*
D12*
X127206548Y-125107565D03*
D13*
G36*
X126870672Y-126115192D02*
X126198921Y-125443441D01*
X127542424Y-124099938D01*
X128214175Y-124771689D01*
X126870672Y-126115192D01*
X126870672Y-126115192D01*
G37*
D12*
X126640862Y-124541880D03*
D13*
G36*
X126304986Y-125549507D02*
X125633235Y-124877756D01*
X126976738Y-123534253D01*
X127648489Y-124206004D01*
X126304986Y-125549507D01*
X126304986Y-125549507D01*
G37*
D12*
X126075177Y-123976194D03*
D13*
G36*
X125739301Y-124983821D02*
X125067550Y-124312070D01*
X126411053Y-122968567D01*
X127082804Y-123640318D01*
X125739301Y-124983821D01*
X125739301Y-124983821D01*
G37*
D12*
X125509491Y-123410509D03*
D13*
G36*
X125173615Y-124418136D02*
X124501864Y-123746385D01*
X125845367Y-122402882D01*
X126517118Y-123074633D01*
X125173615Y-124418136D01*
X125173615Y-124418136D01*
G37*
D12*
X124943806Y-122844823D03*
D13*
G36*
X124607930Y-123852450D02*
X123936179Y-123180699D01*
X125279682Y-121837196D01*
X125951433Y-122508947D01*
X124607930Y-123852450D01*
X124607930Y-123852450D01*
G37*
D12*
X124378120Y-122279138D03*
D13*
G36*
X124042244Y-123286765D02*
X123370493Y-122615014D01*
X124713996Y-121271511D01*
X125385747Y-121943262D01*
X124042244Y-123286765D01*
X124042244Y-123286765D01*
G37*
D12*
X123812435Y-121713452D03*
D13*
G36*
X123476559Y-122721079D02*
X122804808Y-122049328D01*
X124148311Y-120705825D01*
X124820062Y-121377576D01*
X123476559Y-122721079D01*
X123476559Y-122721079D01*
G37*
D12*
X123246750Y-121147767D03*
D13*
G36*
X122910874Y-122155394D02*
X122239123Y-121483643D01*
X123582626Y-120140140D01*
X124254377Y-120811891D01*
X122910874Y-122155394D01*
X122910874Y-122155394D01*
G37*
D12*
X122681064Y-120582082D03*
D13*
G36*
X122345188Y-121589709D02*
X121673437Y-120917958D01*
X123016940Y-119574455D01*
X123688691Y-120246206D01*
X122345188Y-121589709D01*
X122345188Y-121589709D01*
G37*
D12*
X122681064Y-118177918D03*
D13*
G36*
X121673437Y-117842042D02*
X122345188Y-117170291D01*
X123688691Y-118513794D01*
X123016940Y-119185545D01*
X121673437Y-117842042D01*
X121673437Y-117842042D01*
G37*
D12*
X123246750Y-117612233D03*
D13*
G36*
X122239123Y-117276357D02*
X122910874Y-116604606D01*
X124254377Y-117948109D01*
X123582626Y-118619860D01*
X122239123Y-117276357D01*
X122239123Y-117276357D01*
G37*
D12*
X123812435Y-117046548D03*
D13*
G36*
X122804808Y-116710672D02*
X123476559Y-116038921D01*
X124820062Y-117382424D01*
X124148311Y-118054175D01*
X122804808Y-116710672D01*
X122804808Y-116710672D01*
G37*
D12*
X124378120Y-116480862D03*
D13*
G36*
X123370493Y-116144986D02*
X124042244Y-115473235D01*
X125385747Y-116816738D01*
X124713996Y-117488489D01*
X123370493Y-116144986D01*
X123370493Y-116144986D01*
G37*
D12*
X124943806Y-115915177D03*
D13*
G36*
X123936179Y-115579301D02*
X124607930Y-114907550D01*
X125951433Y-116251053D01*
X125279682Y-116922804D01*
X123936179Y-115579301D01*
X123936179Y-115579301D01*
G37*
D12*
X125509491Y-115349491D03*
D13*
G36*
X124501864Y-115013615D02*
X125173615Y-114341864D01*
X126517118Y-115685367D01*
X125845367Y-116357118D01*
X124501864Y-115013615D01*
X124501864Y-115013615D01*
G37*
D12*
X126075177Y-114783806D03*
D13*
G36*
X125067550Y-114447930D02*
X125739301Y-113776179D01*
X127082804Y-115119682D01*
X126411053Y-115791433D01*
X125067550Y-114447930D01*
X125067550Y-114447930D01*
G37*
D12*
X126640862Y-114218120D03*
D13*
G36*
X125633235Y-113882244D02*
X126304986Y-113210493D01*
X127648489Y-114553996D01*
X126976738Y-115225747D01*
X125633235Y-113882244D01*
X125633235Y-113882244D01*
G37*
D12*
X127206548Y-113652435D03*
D13*
G36*
X126198921Y-113316559D02*
X126870672Y-112644808D01*
X128214175Y-113988311D01*
X127542424Y-114660062D01*
X126198921Y-113316559D01*
X126198921Y-113316559D01*
G37*
D12*
X127772233Y-113086750D03*
D13*
G36*
X126764606Y-112750874D02*
X127436357Y-112079123D01*
X128779860Y-113422626D01*
X128108109Y-114094377D01*
X126764606Y-112750874D01*
X126764606Y-112750874D01*
G37*
D12*
X128337918Y-112521064D03*
D13*
G36*
X127330291Y-112185188D02*
X128002042Y-111513437D01*
X129345545Y-112856940D01*
X128673794Y-113528691D01*
X127330291Y-112185188D01*
X127330291Y-112185188D01*
G37*
D11*
X142240000Y-119380000D03*
D15*
X112395000Y-149225000D03*
X76835000Y-149225000D03*
X76835000Y-89535000D03*
D16*
X89670000Y-129805000D03*
X90670000Y-129805000D03*
X90670000Y-128005000D03*
X89670000Y-128005000D03*
X108720000Y-137530000D03*
X109720000Y-137530000D03*
X109720000Y-139330000D03*
X108720000Y-139330000D03*
X108720000Y-120280000D03*
X109720000Y-120280000D03*
X109720000Y-118480000D03*
X108720000Y-118480000D03*
X89670000Y-99430000D03*
X90670000Y-99430000D03*
X90670000Y-101230000D03*
X89670000Y-101230000D03*
X108720000Y-101230000D03*
X109720000Y-101230000D03*
X109720000Y-99430000D03*
X108720000Y-99430000D03*
D11*
X86995000Y-149860000D03*
D10*
X89535000Y-149860000D03*
X92075000Y-149860000D03*
X94615000Y-149860000D03*
X97155000Y-149860000D03*
X99695000Y-149860000D03*
X102235000Y-149860000D03*
X102235000Y-88900000D03*
X99695000Y-88900000D03*
X97155000Y-88900000D03*
X94615000Y-88900000D03*
X92075000Y-88900000D03*
X89535000Y-88900000D03*
D11*
X86995000Y-88900000D03*
D17*
X78090000Y-117005000D03*
X78090000Y-140805000D03*
D18*
X93330000Y-140805000D03*
X93330000Y-117005000D03*
D19*
X85090000Y-123825000D03*
X85090000Y-133985000D03*
D18*
X85090000Y-128905000D03*
D15*
X82550000Y-132715000D03*
X80010000Y-126365000D03*
D18*
X104140000Y-138430000D03*
D15*
X101600000Y-142240000D03*
X99060000Y-135890000D03*
X99060000Y-140970000D03*
X101600000Y-134620000D03*
D18*
X104140000Y-138430000D03*
D15*
X80010000Y-131445000D03*
X82550000Y-125095000D03*
D18*
X85090000Y-128905000D03*
D19*
X85090000Y-123825000D03*
X85090000Y-133985000D03*
D18*
X93330000Y-140805000D03*
X93330000Y-117005000D03*
D17*
X78090000Y-117005000D03*
X78090000Y-140805000D03*
D18*
X104140000Y-119380000D03*
D15*
X101600000Y-115570000D03*
X99060000Y-121920000D03*
X99060000Y-116840000D03*
X101600000Y-123190000D03*
D18*
X104140000Y-119380000D03*
X85090000Y-100330000D03*
D15*
X82550000Y-104140000D03*
X80010000Y-97790000D03*
D18*
X104140000Y-100330000D03*
D15*
X101600000Y-104140000D03*
X99060000Y-97790000D03*
X99060000Y-102870000D03*
X101600000Y-96520000D03*
D18*
X104140000Y-100330000D03*
D15*
X80010000Y-102870000D03*
X82550000Y-96520000D03*
D18*
X85090000Y-100330000D03*
D20*
X76200000Y-135415000D03*
X76200000Y-132115000D03*
D21*
X87885000Y-146050000D03*
X91185000Y-146050000D03*
X102615000Y-128905000D03*
X99315000Y-128905000D03*
X99315000Y-109855000D03*
X102615000Y-109855000D03*
X81025000Y-109855000D03*
X77725000Y-109855000D03*
D15*
X112395000Y-89535000D03*
M02*
