G04 #@! TF.GenerationSoftware,KiCad,Pcbnew,(5.0.0-rc2-dev-471-ge4feb315d)*
G04 #@! TF.CreationDate,2018-05-05T14:20:45+01:00*
G04 #@! TF.ProjectId,panel,70616E656C2E6B696361645F70636200,rev?*
G04 #@! TF.SameCoordinates,Original*
G04 #@! TF.FileFunction,Soldermask,Bot*
G04 #@! TF.FilePolarity,Negative*
%FSLAX46Y46*%
G04 Gerber Fmt 4.6, Leading zero omitted, Abs format (unit mm)*
G04 Created by KiCad (PCBNEW (5.0.0-rc2-dev-471-ge4feb315d)) date Sat May  5 14:20:45 2018*
%MOMM*%
%LPD*%
G01*
G04 APERTURE LIST*
%ADD10O,2.100000X2.100000*%
%ADD11R,2.100000X2.100000*%
%ADD12C,0.700000*%
%ADD13C,0.100000*%
%ADD14C,2.150000*%
%ADD15C,2.600000*%
%ADD16R,1.300000X1.900000*%
%ADD17C,3.450000*%
%ADD18C,4.400000*%
%ADD19C,2.100000*%
G04 APERTURE END LIST*
D10*
X171450000Y-149860000D03*
X171450000Y-147320000D03*
X171450000Y-144780000D03*
X171450000Y-142240000D03*
X171450000Y-139700000D03*
X171450000Y-137160000D03*
X171450000Y-134620000D03*
X171450000Y-132080000D03*
X171450000Y-129540000D03*
X171450000Y-127000000D03*
X171450000Y-124460000D03*
D11*
X171450000Y-121920000D03*
D10*
X146050000Y-88900000D03*
X146050000Y-91440000D03*
X146050000Y-93980000D03*
X146050000Y-96520000D03*
X146050000Y-99060000D03*
X146050000Y-101600000D03*
X146050000Y-104140000D03*
X146050000Y-106680000D03*
X146050000Y-109220000D03*
X146050000Y-111760000D03*
X146050000Y-114300000D03*
D11*
X146050000Y-116840000D03*
D12*
X153835608Y-118354695D03*
D13*
G36*
X152916369Y-117930431D02*
X153411344Y-117435456D01*
X154754847Y-118778959D01*
X154259872Y-119273934D01*
X152916369Y-117930431D01*
X152916369Y-117930431D01*
G37*
D12*
X154189161Y-118001142D03*
D13*
G36*
X153269922Y-117576878D02*
X153764897Y-117081903D01*
X155108400Y-118425406D01*
X154613425Y-118920381D01*
X153269922Y-117576878D01*
X153269922Y-117576878D01*
G37*
D12*
X154542715Y-117647588D03*
D13*
G36*
X153623476Y-117223324D02*
X154118451Y-116728349D01*
X155461954Y-118071852D01*
X154966979Y-118566827D01*
X153623476Y-117223324D01*
X153623476Y-117223324D01*
G37*
D12*
X154896268Y-117294035D03*
D13*
G36*
X153977029Y-116869771D02*
X154472004Y-116374796D01*
X155815507Y-117718299D01*
X155320532Y-118213274D01*
X153977029Y-116869771D01*
X153977029Y-116869771D01*
G37*
D12*
X155249821Y-116940482D03*
D13*
G36*
X154330582Y-116516218D02*
X154825557Y-116021243D01*
X156169060Y-117364746D01*
X155674085Y-117859721D01*
X154330582Y-116516218D01*
X154330582Y-116516218D01*
G37*
D12*
X155603375Y-116586928D03*
D13*
G36*
X154684136Y-116162664D02*
X155179111Y-115667689D01*
X156522614Y-117011192D01*
X156027639Y-117506167D01*
X154684136Y-116162664D01*
X154684136Y-116162664D01*
G37*
D12*
X155956928Y-116233375D03*
D13*
G36*
X155037689Y-115809111D02*
X155532664Y-115314136D01*
X156876167Y-116657639D01*
X156381192Y-117152614D01*
X155037689Y-115809111D01*
X155037689Y-115809111D01*
G37*
D12*
X156310482Y-115879821D03*
D13*
G36*
X155391243Y-115455557D02*
X155886218Y-114960582D01*
X157229721Y-116304085D01*
X156734746Y-116799060D01*
X155391243Y-115455557D01*
X155391243Y-115455557D01*
G37*
D12*
X156664035Y-115526268D03*
D13*
G36*
X155744796Y-115102004D02*
X156239771Y-114607029D01*
X157583274Y-115950532D01*
X157088299Y-116445507D01*
X155744796Y-115102004D01*
X155744796Y-115102004D01*
G37*
D12*
X157017588Y-115172715D03*
D13*
G36*
X156098349Y-114748451D02*
X156593324Y-114253476D01*
X157936827Y-115596979D01*
X157441852Y-116091954D01*
X156098349Y-114748451D01*
X156098349Y-114748451D01*
G37*
D12*
X157371142Y-114819161D03*
D13*
G36*
X156451903Y-114394897D02*
X156946878Y-113899922D01*
X158290381Y-115243425D01*
X157795406Y-115738400D01*
X156451903Y-114394897D01*
X156451903Y-114394897D01*
G37*
D12*
X157724695Y-114465608D03*
D13*
G36*
X156805456Y-114041344D02*
X157300431Y-113546369D01*
X158643934Y-114889872D01*
X158148959Y-115384847D01*
X156805456Y-114041344D01*
X156805456Y-114041344D01*
G37*
D12*
X159775305Y-114465608D03*
D13*
G36*
X160199569Y-113546369D02*
X160694544Y-114041344D01*
X159351041Y-115384847D01*
X158856066Y-114889872D01*
X160199569Y-113546369D01*
X160199569Y-113546369D01*
G37*
D12*
X160128858Y-114819161D03*
D13*
G36*
X160553122Y-113899922D02*
X161048097Y-114394897D01*
X159704594Y-115738400D01*
X159209619Y-115243425D01*
X160553122Y-113899922D01*
X160553122Y-113899922D01*
G37*
D12*
X160482412Y-115172715D03*
D13*
G36*
X160906676Y-114253476D02*
X161401651Y-114748451D01*
X160058148Y-116091954D01*
X159563173Y-115596979D01*
X160906676Y-114253476D01*
X160906676Y-114253476D01*
G37*
D12*
X160835965Y-115526268D03*
D13*
G36*
X161260229Y-114607029D02*
X161755204Y-115102004D01*
X160411701Y-116445507D01*
X159916726Y-115950532D01*
X161260229Y-114607029D01*
X161260229Y-114607029D01*
G37*
D12*
X161189518Y-115879821D03*
D13*
G36*
X161613782Y-114960582D02*
X162108757Y-115455557D01*
X160765254Y-116799060D01*
X160270279Y-116304085D01*
X161613782Y-114960582D01*
X161613782Y-114960582D01*
G37*
D12*
X161543072Y-116233375D03*
D13*
G36*
X161967336Y-115314136D02*
X162462311Y-115809111D01*
X161118808Y-117152614D01*
X160623833Y-116657639D01*
X161967336Y-115314136D01*
X161967336Y-115314136D01*
G37*
D12*
X161896625Y-116586928D03*
D13*
G36*
X162320889Y-115667689D02*
X162815864Y-116162664D01*
X161472361Y-117506167D01*
X160977386Y-117011192D01*
X162320889Y-115667689D01*
X162320889Y-115667689D01*
G37*
D12*
X162250179Y-116940482D03*
D13*
G36*
X162674443Y-116021243D02*
X163169418Y-116516218D01*
X161825915Y-117859721D01*
X161330940Y-117364746D01*
X162674443Y-116021243D01*
X162674443Y-116021243D01*
G37*
D12*
X162603732Y-117294035D03*
D13*
G36*
X163027996Y-116374796D02*
X163522971Y-116869771D01*
X162179468Y-118213274D01*
X161684493Y-117718299D01*
X163027996Y-116374796D01*
X163027996Y-116374796D01*
G37*
D12*
X162957285Y-117647588D03*
D13*
G36*
X163381549Y-116728349D02*
X163876524Y-117223324D01*
X162533021Y-118566827D01*
X162038046Y-118071852D01*
X163381549Y-116728349D01*
X163381549Y-116728349D01*
G37*
D12*
X163310839Y-118001142D03*
D13*
G36*
X163735103Y-117081903D02*
X164230078Y-117576878D01*
X162886575Y-118920381D01*
X162391600Y-118425406D01*
X163735103Y-117081903D01*
X163735103Y-117081903D01*
G37*
D12*
X163664392Y-118354695D03*
D13*
G36*
X164088656Y-117435456D02*
X164583631Y-117930431D01*
X163240128Y-119273934D01*
X162745153Y-118778959D01*
X164088656Y-117435456D01*
X164088656Y-117435456D01*
G37*
D12*
X163664392Y-120405305D03*
D13*
G36*
X162745153Y-119981041D02*
X163240128Y-119486066D01*
X164583631Y-120829569D01*
X164088656Y-121324544D01*
X162745153Y-119981041D01*
X162745153Y-119981041D01*
G37*
D12*
X163310839Y-120758858D03*
D13*
G36*
X162391600Y-120334594D02*
X162886575Y-119839619D01*
X164230078Y-121183122D01*
X163735103Y-121678097D01*
X162391600Y-120334594D01*
X162391600Y-120334594D01*
G37*
D12*
X162957285Y-121112412D03*
D13*
G36*
X162038046Y-120688148D02*
X162533021Y-120193173D01*
X163876524Y-121536676D01*
X163381549Y-122031651D01*
X162038046Y-120688148D01*
X162038046Y-120688148D01*
G37*
D12*
X162603732Y-121465965D03*
D13*
G36*
X161684493Y-121041701D02*
X162179468Y-120546726D01*
X163522971Y-121890229D01*
X163027996Y-122385204D01*
X161684493Y-121041701D01*
X161684493Y-121041701D01*
G37*
D12*
X162250179Y-121819518D03*
D13*
G36*
X161330940Y-121395254D02*
X161825915Y-120900279D01*
X163169418Y-122243782D01*
X162674443Y-122738757D01*
X161330940Y-121395254D01*
X161330940Y-121395254D01*
G37*
D12*
X161896625Y-122173072D03*
D13*
G36*
X160977386Y-121748808D02*
X161472361Y-121253833D01*
X162815864Y-122597336D01*
X162320889Y-123092311D01*
X160977386Y-121748808D01*
X160977386Y-121748808D01*
G37*
D12*
X161543072Y-122526625D03*
D13*
G36*
X160623833Y-122102361D02*
X161118808Y-121607386D01*
X162462311Y-122950889D01*
X161967336Y-123445864D01*
X160623833Y-122102361D01*
X160623833Y-122102361D01*
G37*
D12*
X161189518Y-122880179D03*
D13*
G36*
X160270279Y-122455915D02*
X160765254Y-121960940D01*
X162108757Y-123304443D01*
X161613782Y-123799418D01*
X160270279Y-122455915D01*
X160270279Y-122455915D01*
G37*
D12*
X160835965Y-123233732D03*
D13*
G36*
X159916726Y-122809468D02*
X160411701Y-122314493D01*
X161755204Y-123657996D01*
X161260229Y-124152971D01*
X159916726Y-122809468D01*
X159916726Y-122809468D01*
G37*
D12*
X160482412Y-123587285D03*
D13*
G36*
X159563173Y-123163021D02*
X160058148Y-122668046D01*
X161401651Y-124011549D01*
X160906676Y-124506524D01*
X159563173Y-123163021D01*
X159563173Y-123163021D01*
G37*
D12*
X160128858Y-123940839D03*
D13*
G36*
X159209619Y-123516575D02*
X159704594Y-123021600D01*
X161048097Y-124365103D01*
X160553122Y-124860078D01*
X159209619Y-123516575D01*
X159209619Y-123516575D01*
G37*
D12*
X159775305Y-124294392D03*
D13*
G36*
X158856066Y-123870128D02*
X159351041Y-123375153D01*
X160694544Y-124718656D01*
X160199569Y-125213631D01*
X158856066Y-123870128D01*
X158856066Y-123870128D01*
G37*
D12*
X157724695Y-124294392D03*
D13*
G36*
X158148959Y-123375153D02*
X158643934Y-123870128D01*
X157300431Y-125213631D01*
X156805456Y-124718656D01*
X158148959Y-123375153D01*
X158148959Y-123375153D01*
G37*
D12*
X157371142Y-123940839D03*
D13*
G36*
X157795406Y-123021600D02*
X158290381Y-123516575D01*
X156946878Y-124860078D01*
X156451903Y-124365103D01*
X157795406Y-123021600D01*
X157795406Y-123021600D01*
G37*
D12*
X157017588Y-123587285D03*
D13*
G36*
X157441852Y-122668046D02*
X157936827Y-123163021D01*
X156593324Y-124506524D01*
X156098349Y-124011549D01*
X157441852Y-122668046D01*
X157441852Y-122668046D01*
G37*
D12*
X156664035Y-123233732D03*
D13*
G36*
X157088299Y-122314493D02*
X157583274Y-122809468D01*
X156239771Y-124152971D01*
X155744796Y-123657996D01*
X157088299Y-122314493D01*
X157088299Y-122314493D01*
G37*
D12*
X156310482Y-122880179D03*
D13*
G36*
X156734746Y-121960940D02*
X157229721Y-122455915D01*
X155886218Y-123799418D01*
X155391243Y-123304443D01*
X156734746Y-121960940D01*
X156734746Y-121960940D01*
G37*
D12*
X155956928Y-122526625D03*
D13*
G36*
X156381192Y-121607386D02*
X156876167Y-122102361D01*
X155532664Y-123445864D01*
X155037689Y-122950889D01*
X156381192Y-121607386D01*
X156381192Y-121607386D01*
G37*
D12*
X155603375Y-122173072D03*
D13*
G36*
X156027639Y-121253833D02*
X156522614Y-121748808D01*
X155179111Y-123092311D01*
X154684136Y-122597336D01*
X156027639Y-121253833D01*
X156027639Y-121253833D01*
G37*
D12*
X155249821Y-121819518D03*
D13*
G36*
X155674085Y-120900279D02*
X156169060Y-121395254D01*
X154825557Y-122738757D01*
X154330582Y-122243782D01*
X155674085Y-120900279D01*
X155674085Y-120900279D01*
G37*
D12*
X154896268Y-121465965D03*
D13*
G36*
X155320532Y-120546726D02*
X155815507Y-121041701D01*
X154472004Y-122385204D01*
X153977029Y-121890229D01*
X155320532Y-120546726D01*
X155320532Y-120546726D01*
G37*
D12*
X154542715Y-121112412D03*
D13*
G36*
X154966979Y-120193173D02*
X155461954Y-120688148D01*
X154118451Y-122031651D01*
X153623476Y-121536676D01*
X154966979Y-120193173D01*
X154966979Y-120193173D01*
G37*
D12*
X154189161Y-120758858D03*
D13*
G36*
X154613425Y-119839619D02*
X155108400Y-120334594D01*
X153764897Y-121678097D01*
X153269922Y-121183122D01*
X154613425Y-119839619D01*
X154613425Y-119839619D01*
G37*
D12*
X153835608Y-120405305D03*
D13*
G36*
X154259872Y-119486066D02*
X154754847Y-119981041D01*
X153411344Y-121324544D01*
X152916369Y-120829569D01*
X154259872Y-119486066D01*
X154259872Y-119486066D01*
G37*
D14*
X159987437Y-119380000D03*
D13*
G36*
X158467157Y-119380000D02*
X159987437Y-117859720D01*
X161507717Y-119380000D01*
X159987437Y-120900280D01*
X158467157Y-119380000D01*
X158467157Y-119380000D01*
G37*
D14*
X158750000Y-120617437D03*
D13*
G36*
X157229720Y-120617437D02*
X158750000Y-119097157D01*
X160270280Y-120617437D01*
X158750000Y-122137717D01*
X157229720Y-120617437D01*
X157229720Y-120617437D01*
G37*
D14*
X158750000Y-118142563D03*
D13*
G36*
X157229720Y-118142563D02*
X158750000Y-116622283D01*
X160270280Y-118142563D01*
X158750000Y-119662843D01*
X157229720Y-118142563D01*
X157229720Y-118142563D01*
G37*
D14*
X157512563Y-119380000D03*
D13*
G36*
X155992283Y-119380000D02*
X157512563Y-117859720D01*
X159032843Y-119380000D01*
X157512563Y-120900280D01*
X155992283Y-119380000D01*
X155992283Y-119380000D01*
G37*
D11*
X171450000Y-88900000D03*
D10*
X171450000Y-91440000D03*
X171450000Y-93980000D03*
X171450000Y-96520000D03*
X171450000Y-99060000D03*
X171450000Y-101600000D03*
X171450000Y-104140000D03*
X171450000Y-106680000D03*
X171450000Y-109220000D03*
X171450000Y-111760000D03*
X171450000Y-114300000D03*
X171450000Y-116840000D03*
D11*
X171450000Y-119380000D03*
X146050000Y-149860000D03*
D10*
X146050000Y-147320000D03*
X146050000Y-144780000D03*
X146050000Y-142240000D03*
X146050000Y-139700000D03*
X146050000Y-137160000D03*
X146050000Y-134620000D03*
X146050000Y-132080000D03*
X146050000Y-129540000D03*
X146050000Y-127000000D03*
X146050000Y-124460000D03*
X146050000Y-121920000D03*
X116840000Y-121920000D03*
X116840000Y-124460000D03*
X116840000Y-127000000D03*
X116840000Y-129540000D03*
X116840000Y-132080000D03*
X116840000Y-134620000D03*
X116840000Y-137160000D03*
X116840000Y-139700000D03*
X116840000Y-142240000D03*
X116840000Y-144780000D03*
X116840000Y-147320000D03*
D11*
X116840000Y-149860000D03*
X116840000Y-116840000D03*
D10*
X116840000Y-114300000D03*
X116840000Y-111760000D03*
X116840000Y-109220000D03*
X116840000Y-106680000D03*
X116840000Y-104140000D03*
X116840000Y-101600000D03*
X116840000Y-99060000D03*
X116840000Y-96520000D03*
X116840000Y-93980000D03*
X116840000Y-91440000D03*
X116840000Y-88900000D03*
D11*
X142240000Y-121920000D03*
D10*
X142240000Y-124460000D03*
X142240000Y-127000000D03*
X142240000Y-129540000D03*
X142240000Y-132080000D03*
X142240000Y-134620000D03*
X142240000Y-137160000D03*
X142240000Y-139700000D03*
X142240000Y-142240000D03*
X142240000Y-144780000D03*
X142240000Y-147320000D03*
X142240000Y-149860000D03*
X142240000Y-116840000D03*
X142240000Y-114300000D03*
X142240000Y-111760000D03*
X142240000Y-109220000D03*
X142240000Y-106680000D03*
X142240000Y-104140000D03*
X142240000Y-101600000D03*
X142240000Y-99060000D03*
X142240000Y-96520000D03*
X142240000Y-93980000D03*
X142240000Y-91440000D03*
D11*
X142240000Y-88900000D03*
D14*
X128302563Y-119380000D03*
D13*
G36*
X126782283Y-119380000D02*
X128302563Y-117859720D01*
X129822843Y-119380000D01*
X128302563Y-120900280D01*
X126782283Y-119380000D01*
X126782283Y-119380000D01*
G37*
D14*
X129540000Y-118142563D03*
D13*
G36*
X128019720Y-118142563D02*
X129540000Y-116622283D01*
X131060280Y-118142563D01*
X129540000Y-119662843D01*
X128019720Y-118142563D01*
X128019720Y-118142563D01*
G37*
D14*
X129540000Y-120617437D03*
D13*
G36*
X128019720Y-120617437D02*
X129540000Y-119097157D01*
X131060280Y-120617437D01*
X129540000Y-122137717D01*
X128019720Y-120617437D01*
X128019720Y-120617437D01*
G37*
D14*
X130777437Y-119380000D03*
D13*
G36*
X129257157Y-119380000D02*
X130777437Y-117859720D01*
X132297717Y-119380000D01*
X130777437Y-120900280D01*
X129257157Y-119380000D01*
X129257157Y-119380000D01*
G37*
D12*
X124625608Y-120405305D03*
D13*
G36*
X125049872Y-119486066D02*
X125544847Y-119981041D01*
X124201344Y-121324544D01*
X123706369Y-120829569D01*
X125049872Y-119486066D01*
X125049872Y-119486066D01*
G37*
D12*
X124979161Y-120758858D03*
D13*
G36*
X125403425Y-119839619D02*
X125898400Y-120334594D01*
X124554897Y-121678097D01*
X124059922Y-121183122D01*
X125403425Y-119839619D01*
X125403425Y-119839619D01*
G37*
D12*
X125332715Y-121112412D03*
D13*
G36*
X125756979Y-120193173D02*
X126251954Y-120688148D01*
X124908451Y-122031651D01*
X124413476Y-121536676D01*
X125756979Y-120193173D01*
X125756979Y-120193173D01*
G37*
D12*
X125686268Y-121465965D03*
D13*
G36*
X126110532Y-120546726D02*
X126605507Y-121041701D01*
X125262004Y-122385204D01*
X124767029Y-121890229D01*
X126110532Y-120546726D01*
X126110532Y-120546726D01*
G37*
D12*
X126039821Y-121819518D03*
D13*
G36*
X126464085Y-120900279D02*
X126959060Y-121395254D01*
X125615557Y-122738757D01*
X125120582Y-122243782D01*
X126464085Y-120900279D01*
X126464085Y-120900279D01*
G37*
D12*
X126393375Y-122173072D03*
D13*
G36*
X126817639Y-121253833D02*
X127312614Y-121748808D01*
X125969111Y-123092311D01*
X125474136Y-122597336D01*
X126817639Y-121253833D01*
X126817639Y-121253833D01*
G37*
D12*
X126746928Y-122526625D03*
D13*
G36*
X127171192Y-121607386D02*
X127666167Y-122102361D01*
X126322664Y-123445864D01*
X125827689Y-122950889D01*
X127171192Y-121607386D01*
X127171192Y-121607386D01*
G37*
D12*
X127100482Y-122880179D03*
D13*
G36*
X127524746Y-121960940D02*
X128019721Y-122455915D01*
X126676218Y-123799418D01*
X126181243Y-123304443D01*
X127524746Y-121960940D01*
X127524746Y-121960940D01*
G37*
D12*
X127454035Y-123233732D03*
D13*
G36*
X127878299Y-122314493D02*
X128373274Y-122809468D01*
X127029771Y-124152971D01*
X126534796Y-123657996D01*
X127878299Y-122314493D01*
X127878299Y-122314493D01*
G37*
D12*
X127807588Y-123587285D03*
D13*
G36*
X128231852Y-122668046D02*
X128726827Y-123163021D01*
X127383324Y-124506524D01*
X126888349Y-124011549D01*
X128231852Y-122668046D01*
X128231852Y-122668046D01*
G37*
D12*
X128161142Y-123940839D03*
D13*
G36*
X128585406Y-123021600D02*
X129080381Y-123516575D01*
X127736878Y-124860078D01*
X127241903Y-124365103D01*
X128585406Y-123021600D01*
X128585406Y-123021600D01*
G37*
D12*
X128514695Y-124294392D03*
D13*
G36*
X128938959Y-123375153D02*
X129433934Y-123870128D01*
X128090431Y-125213631D01*
X127595456Y-124718656D01*
X128938959Y-123375153D01*
X128938959Y-123375153D01*
G37*
D12*
X130565305Y-124294392D03*
D13*
G36*
X129646066Y-123870128D02*
X130141041Y-123375153D01*
X131484544Y-124718656D01*
X130989569Y-125213631D01*
X129646066Y-123870128D01*
X129646066Y-123870128D01*
G37*
D12*
X130918858Y-123940839D03*
D13*
G36*
X129999619Y-123516575D02*
X130494594Y-123021600D01*
X131838097Y-124365103D01*
X131343122Y-124860078D01*
X129999619Y-123516575D01*
X129999619Y-123516575D01*
G37*
D12*
X131272412Y-123587285D03*
D13*
G36*
X130353173Y-123163021D02*
X130848148Y-122668046D01*
X132191651Y-124011549D01*
X131696676Y-124506524D01*
X130353173Y-123163021D01*
X130353173Y-123163021D01*
G37*
D12*
X131625965Y-123233732D03*
D13*
G36*
X130706726Y-122809468D02*
X131201701Y-122314493D01*
X132545204Y-123657996D01*
X132050229Y-124152971D01*
X130706726Y-122809468D01*
X130706726Y-122809468D01*
G37*
D12*
X131979518Y-122880179D03*
D13*
G36*
X131060279Y-122455915D02*
X131555254Y-121960940D01*
X132898757Y-123304443D01*
X132403782Y-123799418D01*
X131060279Y-122455915D01*
X131060279Y-122455915D01*
G37*
D12*
X132333072Y-122526625D03*
D13*
G36*
X131413833Y-122102361D02*
X131908808Y-121607386D01*
X133252311Y-122950889D01*
X132757336Y-123445864D01*
X131413833Y-122102361D01*
X131413833Y-122102361D01*
G37*
D12*
X132686625Y-122173072D03*
D13*
G36*
X131767386Y-121748808D02*
X132262361Y-121253833D01*
X133605864Y-122597336D01*
X133110889Y-123092311D01*
X131767386Y-121748808D01*
X131767386Y-121748808D01*
G37*
D12*
X133040179Y-121819518D03*
D13*
G36*
X132120940Y-121395254D02*
X132615915Y-120900279D01*
X133959418Y-122243782D01*
X133464443Y-122738757D01*
X132120940Y-121395254D01*
X132120940Y-121395254D01*
G37*
D12*
X133393732Y-121465965D03*
D13*
G36*
X132474493Y-121041701D02*
X132969468Y-120546726D01*
X134312971Y-121890229D01*
X133817996Y-122385204D01*
X132474493Y-121041701D01*
X132474493Y-121041701D01*
G37*
D12*
X133747285Y-121112412D03*
D13*
G36*
X132828046Y-120688148D02*
X133323021Y-120193173D01*
X134666524Y-121536676D01*
X134171549Y-122031651D01*
X132828046Y-120688148D01*
X132828046Y-120688148D01*
G37*
D12*
X134100839Y-120758858D03*
D13*
G36*
X133181600Y-120334594D02*
X133676575Y-119839619D01*
X135020078Y-121183122D01*
X134525103Y-121678097D01*
X133181600Y-120334594D01*
X133181600Y-120334594D01*
G37*
D12*
X134454392Y-120405305D03*
D13*
G36*
X133535153Y-119981041D02*
X134030128Y-119486066D01*
X135373631Y-120829569D01*
X134878656Y-121324544D01*
X133535153Y-119981041D01*
X133535153Y-119981041D01*
G37*
D12*
X134454392Y-118354695D03*
D13*
G36*
X134878656Y-117435456D02*
X135373631Y-117930431D01*
X134030128Y-119273934D01*
X133535153Y-118778959D01*
X134878656Y-117435456D01*
X134878656Y-117435456D01*
G37*
D12*
X134100839Y-118001142D03*
D13*
G36*
X134525103Y-117081903D02*
X135020078Y-117576878D01*
X133676575Y-118920381D01*
X133181600Y-118425406D01*
X134525103Y-117081903D01*
X134525103Y-117081903D01*
G37*
D12*
X133747285Y-117647588D03*
D13*
G36*
X134171549Y-116728349D02*
X134666524Y-117223324D01*
X133323021Y-118566827D01*
X132828046Y-118071852D01*
X134171549Y-116728349D01*
X134171549Y-116728349D01*
G37*
D12*
X133393732Y-117294035D03*
D13*
G36*
X133817996Y-116374796D02*
X134312971Y-116869771D01*
X132969468Y-118213274D01*
X132474493Y-117718299D01*
X133817996Y-116374796D01*
X133817996Y-116374796D01*
G37*
D12*
X133040179Y-116940482D03*
D13*
G36*
X133464443Y-116021243D02*
X133959418Y-116516218D01*
X132615915Y-117859721D01*
X132120940Y-117364746D01*
X133464443Y-116021243D01*
X133464443Y-116021243D01*
G37*
D12*
X132686625Y-116586928D03*
D13*
G36*
X133110889Y-115667689D02*
X133605864Y-116162664D01*
X132262361Y-117506167D01*
X131767386Y-117011192D01*
X133110889Y-115667689D01*
X133110889Y-115667689D01*
G37*
D12*
X132333072Y-116233375D03*
D13*
G36*
X132757336Y-115314136D02*
X133252311Y-115809111D01*
X131908808Y-117152614D01*
X131413833Y-116657639D01*
X132757336Y-115314136D01*
X132757336Y-115314136D01*
G37*
D12*
X131979518Y-115879821D03*
D13*
G36*
X132403782Y-114960582D02*
X132898757Y-115455557D01*
X131555254Y-116799060D01*
X131060279Y-116304085D01*
X132403782Y-114960582D01*
X132403782Y-114960582D01*
G37*
D12*
X131625965Y-115526268D03*
D13*
G36*
X132050229Y-114607029D02*
X132545204Y-115102004D01*
X131201701Y-116445507D01*
X130706726Y-115950532D01*
X132050229Y-114607029D01*
X132050229Y-114607029D01*
G37*
D12*
X131272412Y-115172715D03*
D13*
G36*
X131696676Y-114253476D02*
X132191651Y-114748451D01*
X130848148Y-116091954D01*
X130353173Y-115596979D01*
X131696676Y-114253476D01*
X131696676Y-114253476D01*
G37*
D12*
X130918858Y-114819161D03*
D13*
G36*
X131343122Y-113899922D02*
X131838097Y-114394897D01*
X130494594Y-115738400D01*
X129999619Y-115243425D01*
X131343122Y-113899922D01*
X131343122Y-113899922D01*
G37*
D12*
X130565305Y-114465608D03*
D13*
G36*
X130989569Y-113546369D02*
X131484544Y-114041344D01*
X130141041Y-115384847D01*
X129646066Y-114889872D01*
X130989569Y-113546369D01*
X130989569Y-113546369D01*
G37*
D12*
X128514695Y-114465608D03*
D13*
G36*
X127595456Y-114041344D02*
X128090431Y-113546369D01*
X129433934Y-114889872D01*
X128938959Y-115384847D01*
X127595456Y-114041344D01*
X127595456Y-114041344D01*
G37*
D12*
X128161142Y-114819161D03*
D13*
G36*
X127241903Y-114394897D02*
X127736878Y-113899922D01*
X129080381Y-115243425D01*
X128585406Y-115738400D01*
X127241903Y-114394897D01*
X127241903Y-114394897D01*
G37*
D12*
X127807588Y-115172715D03*
D13*
G36*
X126888349Y-114748451D02*
X127383324Y-114253476D01*
X128726827Y-115596979D01*
X128231852Y-116091954D01*
X126888349Y-114748451D01*
X126888349Y-114748451D01*
G37*
D12*
X127454035Y-115526268D03*
D13*
G36*
X126534796Y-115102004D02*
X127029771Y-114607029D01*
X128373274Y-115950532D01*
X127878299Y-116445507D01*
X126534796Y-115102004D01*
X126534796Y-115102004D01*
G37*
D12*
X127100482Y-115879821D03*
D13*
G36*
X126181243Y-115455557D02*
X126676218Y-114960582D01*
X128019721Y-116304085D01*
X127524746Y-116799060D01*
X126181243Y-115455557D01*
X126181243Y-115455557D01*
G37*
D12*
X126746928Y-116233375D03*
D13*
G36*
X125827689Y-115809111D02*
X126322664Y-115314136D01*
X127666167Y-116657639D01*
X127171192Y-117152614D01*
X125827689Y-115809111D01*
X125827689Y-115809111D01*
G37*
D12*
X126393375Y-116586928D03*
D13*
G36*
X125474136Y-116162664D02*
X125969111Y-115667689D01*
X127312614Y-117011192D01*
X126817639Y-117506167D01*
X125474136Y-116162664D01*
X125474136Y-116162664D01*
G37*
D12*
X126039821Y-116940482D03*
D13*
G36*
X125120582Y-116516218D02*
X125615557Y-116021243D01*
X126959060Y-117364746D01*
X126464085Y-117859721D01*
X125120582Y-116516218D01*
X125120582Y-116516218D01*
G37*
D12*
X125686268Y-117294035D03*
D13*
G36*
X124767029Y-116869771D02*
X125262004Y-116374796D01*
X126605507Y-117718299D01*
X126110532Y-118213274D01*
X124767029Y-116869771D01*
X124767029Y-116869771D01*
G37*
D12*
X125332715Y-117647588D03*
D13*
G36*
X124413476Y-117223324D02*
X124908451Y-116728349D01*
X126251954Y-118071852D01*
X125756979Y-118566827D01*
X124413476Y-117223324D01*
X124413476Y-117223324D01*
G37*
D12*
X124979161Y-118001142D03*
D13*
G36*
X124059922Y-117576878D02*
X124554897Y-117081903D01*
X125898400Y-118425406D01*
X125403425Y-118920381D01*
X124059922Y-117576878D01*
X124059922Y-117576878D01*
G37*
D12*
X124625608Y-118354695D03*
D13*
G36*
X123706369Y-117930431D02*
X124201344Y-117435456D01*
X125544847Y-118778959D01*
X125049872Y-119273934D01*
X123706369Y-117930431D01*
X123706369Y-117930431D01*
G37*
D11*
X142240000Y-119380000D03*
D15*
X112395000Y-149225000D03*
X76835000Y-149225000D03*
X76835000Y-89535000D03*
D16*
X107870000Y-140180000D03*
X109220000Y-140180000D03*
X110570000Y-140180000D03*
X107870000Y-136680000D03*
X109220000Y-136680000D03*
X110570000Y-136680000D03*
X91520000Y-127155000D03*
X90170000Y-127155000D03*
X88820000Y-127155000D03*
X91520000Y-130655000D03*
X90170000Y-130655000D03*
X88820000Y-130655000D03*
X110570000Y-117630000D03*
X109220000Y-117630000D03*
X107870000Y-117630000D03*
X110570000Y-121130000D03*
X109220000Y-121130000D03*
X107870000Y-121130000D03*
X107870000Y-102080000D03*
X109220000Y-102080000D03*
X110570000Y-102080000D03*
X107870000Y-98580000D03*
X109220000Y-98580000D03*
X110570000Y-98580000D03*
X88820000Y-102080000D03*
X90170000Y-102080000D03*
X91520000Y-102080000D03*
X88820000Y-98580000D03*
X90170000Y-98580000D03*
X91520000Y-98580000D03*
D11*
X86995000Y-149860000D03*
D10*
X89535000Y-149860000D03*
X92075000Y-149860000D03*
X94615000Y-149860000D03*
X97155000Y-149860000D03*
X99695000Y-149860000D03*
X102235000Y-149860000D03*
X102235000Y-88900000D03*
X99695000Y-88900000D03*
X97155000Y-88900000D03*
X94615000Y-88900000D03*
X92075000Y-88900000D03*
X89535000Y-88900000D03*
D11*
X86995000Y-88900000D03*
D17*
X78090000Y-117005000D03*
X78090000Y-140805000D03*
D18*
X93330000Y-140805000D03*
X93330000Y-117005000D03*
D19*
X85090000Y-123825000D03*
X85090000Y-133985000D03*
D18*
X85090000Y-128905000D03*
D15*
X82550000Y-132715000D03*
X80010000Y-126365000D03*
D18*
X104140000Y-138430000D03*
D15*
X101600000Y-142240000D03*
X99060000Y-135890000D03*
X99060000Y-140970000D03*
X101600000Y-134620000D03*
D18*
X104140000Y-138430000D03*
D15*
X80010000Y-131445000D03*
X82550000Y-125095000D03*
D18*
X85090000Y-128905000D03*
D19*
X85090000Y-123825000D03*
X85090000Y-133985000D03*
D18*
X93330000Y-140805000D03*
X93330000Y-117005000D03*
D17*
X78090000Y-117005000D03*
X78090000Y-140805000D03*
D18*
X104140000Y-119380000D03*
D15*
X101600000Y-115570000D03*
X99060000Y-121920000D03*
X99060000Y-116840000D03*
X101600000Y-123190000D03*
D18*
X104140000Y-119380000D03*
X85090000Y-100330000D03*
D15*
X82550000Y-104140000D03*
X80010000Y-97790000D03*
D18*
X104140000Y-100330000D03*
D15*
X101600000Y-104140000D03*
X99060000Y-97790000D03*
X99060000Y-102870000D03*
X101600000Y-96520000D03*
D18*
X104140000Y-100330000D03*
D15*
X80010000Y-102870000D03*
X82550000Y-96520000D03*
D18*
X85090000Y-100330000D03*
D15*
X112395000Y-89535000D03*
M02*
